<?xml version="1.0" encoding="utf-8" ?>
<svg baseProfile="full" height="100%" version="1.1" viewBox="0,0,1000,120" width="100%" xmlns="http://www.w3.org/2000/svg" xmlns:ev="http://www.w3.org/2001/xml-events" xmlns:xlink="http://www.w3.org/1999/xlink"><defs /><rect fill="white" height="120" width="1000" x="0" y="0" /><path d="M0,0 M291.978393555,72.1131439209 L292.006408691,72.0697937012 L292.169494629,71.8324432373 L292.58392334,71.2408752441 L293.345428467,70.1733703613 L294.470947266,68.6142501831 L295.920898438,66.6344146729 L297.601135254,64.326171875 L299.419891357,61.7997741699 L301.310791016,59.1543579102 L303.22668457,56.4931602478 L305.116516113,53.9347076416 L306.911956787,51.6035804749 L308.510559082,49.6194381714 L309.812530518,48.0884857178 L310.753173828,47.0480995178 L311.335205078,46.486656189 L311.614196777,46.3791656494 L311.663604736,46.7294616699 L311.530517578,47.6149749756 L311.213134766,49.1352653503 L310.684692383,51.2904586792 L309.960144043,53.9847335815 L309.098144531,57.040725708 L308.195251465,60.2318229675 L307.364349365,63.3555030823 L306.682373047,66.2220001221 L306.184692383,68.6384887695 L305.876312256,70.4566497803 L305.725128174,71.6246490479 L305.681243896,72.2259597778 L305.683105469,72.4368743896 L305.665313721,72.3286590576 L305.588623047,71.9215011597 L305.445068359,71.1858596802 L305.291320801,70.38697052 L305.180175781,69.7618637085 M299.674377441,63.1790008545 L299.648742676,63.2163391113 L299.797851562,63.2756881714 L300.309265137,63.3345527649 L301.344848633,63.3390769958 L302.929107666,63.2510108948 L304.980438232,63.0483779907 L307.322601318,62.7471504211 L309.812652588,62.3712806702 L312.262054443,61.9588546753 L314.504730225,61.5367469788 L316.174835205,61.1974258423 L317.15222168,60.9830093384 M334.727966309,65.7135772705 L334.75012207,65.7326278687 L334.8046875,65.7445220947 L334.928161621,65.6916351318 L335.188415527,65.463508606 L335.6824646,64.9245300293 L336.491241455,63.9633255005 L337.653076172,62.5414962769 L339.147003174,60.6999702454 L340.906799316,58.5518531799 L342.853820801,56.2346343994 L344.908508301,53.8930549622 L346.986816406,51.6598014832 L348.97442627,49.672039032 L350.722381592,48.0585136414 L352.090606689,46.8847732544 L353.003997803,46.1666641235 L353.464477539,45.9056816101 L353.540039062,46.1089935303 L353.279174805,46.8442382812 L352.683532715,48.2214050293 L351.743713379,50.2484130859 L350.502868652,52.8404006958 L349.069976807,55.8146705627 L347.616729736,58.9282150269 L346.312011719,61.9155960083 L345.286010742,64.5263977051 L344.587493896,66.556098938 L344.21194458,67.8996810913 L344.117034912,68.5317306519 L344.26348877,68.4999847412 L344.652282715,67.8286590576 L345.324768066,66.5042037964 L346.299072266,64.5734100342 L347.583099365,62.1514854431 L349.159240723,59.3966522217 L350.991485596,56.5024642944 L353.046875,53.64686203 L355.275695801,50.98412323 L357.584960938,48.6771812439 L359.854492188,46.8666305542 L361.966918945,45.6403045654 L363.817687988,45.0223693848 L365.339477539,45.0 L366.483917236,45.5516967773 L367.206359863,46.6682090759 L367.460083008,48.344909668 L367.231903076,50.5558319092 L366.544250488,53.2091293335 L365.492767334,56.1479568481 L364.234893799,59.1451911926 L362.976135254,61.9107398987 L361.917633057,64.1882629395 L361.182312012,65.8146743774 L360.799865723,66.7277755737 L360.739929199,66.9542007446 L360.95489502,66.538482666 L361.460327148,65.4743652344 L362.321380615,63.8002586365 L363.570983887,61.6277999878 L365.198364258,59.123085022 L367.144348145,56.4824981689 L369.312713623,53.8868255615 L371.615844727,51.4717941284 L373.966674805,49.3613967896 L376.263549805,47.668888092 L378.379821777,46.4586410522 L380.201568604,45.7440109253 L381.642791748,45.5048027039 L382.657043457,45.7247810364 L383.222625732,46.4023208618 L383.342590332,47.5636024475 L383.012542725,49.2098312378 L382.257354736,51.2914772034 L381.15435791,53.7004890442 L379.844299316,56.2854270935 L378.519897461,58.8581771851 L377.396362305,61.2285079956 L376.640686035,63.2312240601 L376.343200684,64.7590179443 L376.51751709,65.7652053833 L377.134765625,66.2509765625 L378.161804199,66.2208328247 L379.582092285,65.6736526489 L381.358856201,64.6312179565 L383.42767334,63.1673316956 L385.687683105,61.4022026062 L388.026428223,59.4879417419 L390.3409729,57.5708961487 L392.533630371,55.782081604 L394.482696533,54.2322463989 L396.071472168,53.0003051758 L397.215270996,52.1165657043 L397.873962402,51.6049041748 L398.056945801,51.5051345825 L397.771087646,51.8905334473 L396.997589111,52.8492584229 L395.755493164,54.4115600586 L394.167541504,56.4789199829 L392.463104248,58.871887207 L390.942382812,61.3463439941 L389.88494873,63.6566810608 L389.465667725,65.6071624756 L389.746734619,67.0559844971 L390.70324707,67.892288208 L392.258575439,68.0595932007 L394.289703369,67.5277481079 L396.640716553,66.3227157593 L399.103088379,64.5330581665 L401.431213379,62.3159828186 L403.382019043,59.8728408813 L404.777740479,57.4285011292 L405.524719238,55.1833648682 L405.634735107,53.2924880981 L405.20324707,51.8388252258 L404.382446289,50.8439331055 L403.369995117,50.3153686523 L402.382324219,50.2156677246 L401.591186523,50.462638855 L401.098114014,50.8277206421 L400.878173828,51.1312217712 M407.807678223,58.8200073242 L407.751342773,58.9053535461 L407.7081604,59.1823158264 L407.712524414,59.7611656189 L407.785949707,60.6956100464 L407.901702881,61.9662818909 L408.048858643,63.4926986694 L408.232910156,65.1499404907 L408.486816406,66.7859191895 L408.820861816,68.2365341187 L409.204864502,69.3700561523 L409.605499268,70.1165237427 L410.017669678,70.4416427612 L410.496643066,70.3300628662 L411.131652832,69.7370300293 L412.015563965,68.6097793579 L413.175750732,66.9728088379 L414.592102051,64.9466018677 L416.181335449,62.6904830933 L417.84552002,60.3916473389 L419.516113281,58.1630096436 L421.116363525,56.102104187 L422.563354492,54.3028488159 L423.641113281,53.0069770813 L424.27130127,52.2685203552 M419.14352417,64.0116348267 L419.402496338,64.3274230957 L419.984191895,64.6555480957 L420.949401855,64.8008041382 L422.254272461,64.5556030273 L423.820251465,63.9499778748 L425.484436035,63.0912780762 L427.063903809,62.1441726685 L428.368621826,61.2423629761 L429.257263184,60.4990196228 L429.697723389,59.9738769531 L429.822479248,59.6769180298 L429.791534424,59.5529670715 M422.858581543,61.5457305908 L422.4425354,62.3348388672 L421.84954834,63.6289749146 L421.221618652,65.2920227051 L420.771240234,67.0177612305 L420.553039551,68.7168579102 L420.574462891,70.3078842163 L420.824127197,71.7494354248 L421.329620361,72.9368362427 L422.110656738,73.7973861694 L423.179107666,74.282913208 L424.530456543,74.3910598755 L426.110565186,74.1359634399 L427.836883545,73.5749740601 L429.613342285,72.8004760742 L431.324981689,71.8693237305 L432.840942383,70.8540420532 L434.054260254,69.8279800415 L434.847747803,69.0014724731 L435.241271973,68.4798431396 M425.927429199,65.0374145508 L426.072235107,65.0491943359 L426.491882324,65.009262085 L427.301208496,64.873588562 L428.58392334,64.6011276245 L430.263275146,64.2226486206 L432.149047852,63.7946472168 L433.733947754,63.4391555786 L434.744689941,63.2168655396 M451.141418457,72.1223678589 L451.491241455,71.7863845825 L452.237518311,71.1078338623 L453.43850708,70.0556411743 L455.013397217,68.6895980835 L456.866363525,67.065826416 L458.870910645,65.2731933594 L460.910217285,63.4247245789 L462.88494873,61.6566925049 L464.685028076,60.12134552 L466.175231934,58.9163970947 L467.271942139,58.0923156738 L467.928436279,57.6625785828 L468.140319824,57.6441421509 L467.940795898,58.077583313 L467.357940674,59.0292053223 L466.398681641,60.5149459839 L465.143981934,62.4715080261 L463.714782715,64.7571411133 L462.270629883,67.1861419678 L460.982116699,69.5666656494 L459.9921875,71.73046875 L459.372039795,73.5405044556 L459.143493652,74.9184036255 L459.306335449,75.7827758789 L459.796264648,76.1191864014 L460.510925293,75.9787445068 L461.188293457,75.6221084595 L461.657653809,75.2757034302 M459.305175781,68.4694900513 L459.333068848,68.5479431152 L459.575134277,68.6781539917 L460.207580566,68.8239822388 L461.365539551,68.8975830078 L463.049713135,68.8148117065 L465.172607422,68.5317382812 L467.574401855,68.057144165 L470.098266602,67.4465942383 L472.558044434,66.8008422852 L474.75604248,66.2082290649 L476.503631592,65.746673584 L477.673095703,65.4515838623 L478.259216309,65.3096466064 L478.407897949,65.2695770264 L478.319946289,65.286529541 L478.173431396,65.3165893555 L478.077697754,65.3573150635 L478.042907715,65.3950195312 L478.041259766,65.4239730835 M478.573059082,67.2907485962 L478.526733398,67.5841903687 L478.460876465,68.0704345703 L478.362731934,68.721321106 L478.211364746,69.456993103 L477.963317871,70.2830810547 L477.629455566,71.1969299316 L477.262481689,72.1782684326 L476.966644287,73.1596984863 L476.839782715,74.0647888184 L476.959350586,74.80834198 L477.37487793,75.3139266968 L478.123718262,75.5050811768 L479.214355469,75.3297424316 L480.61126709,74.7648773193 L482.208953857,73.8352127075 L483.837249756,72.6147766113 L485.294525146,71.2267990112 L486.391235352,69.7983627319 L487.004852295,68.4595336914 L487.079681396,67.3040618896 L486.633605957,66.3991699219 L485.728210449,65.7922744751 L484.458435059,65.5244293213 L482.962646484,65.6139297485 L481.432678223,66.0457305908 L480.064941406,66.7444152832 L479.059539795,67.5959091187 L478.57522583,68.4587783813 L478.72467041,69.1897201538 L479.588317871,69.6647186279 L481.196228027,69.7850418091 L483.467468262,69.4983825684 L486.219543457,68.8327255249 L489.188964844,67.8860168457 L492.094116211,66.7976608276 L494.705963135,65.7099227905 L496.873352051,64.7361831665 L498.523864746,63.9411849976 L499.650939941,63.3653907776 L500.309844971,63.0152549744 L500.602722168,62.8543052673 L500.669891357,62.8362693787 L500.640136719,62.9231414795 L500.619506836,63.083190918 L500.664306641,63.3218994141 L500.797332764,63.648853302 L501.014465332,64.047958374 L501.309295654,64.5146713257 L501.659912109,65.0516281128 L502.031097412,65.6688156128 L502.375915527,66.3948669434 L502.65234375,67.2520980835 L502.815002441,68.2334823608 L502.829711914,69.31590271 L502.672149658,70.4567565918 L502.322814941,71.5986709595 L501.775970459,72.6763916016 L501.050689697,73.6251296997 L500.178039551,74.3830871582 L499.2003479,74.8983612061 L498.182220459,75.1542510986 L497.204864502,75.1602478027 L496.340362549,74.9618377686 L495.686340332,74.5847473145 L495.305999756,74.0706481934 L495.207305908,73.461151123 L495.279052734,72.9274902344 L495.404205322,72.567855835 M514.888305664,65.5252075195 L514.911499023,65.3545303345 L514.897460938,65.1187133789 L514.788818359,64.8985595703 L514.523498535,64.8231506348 L514.068603516,64.9758758545 L513.43145752,65.4083862305 L512.677246094,66.1369552612 L511.919311523,67.1353683472 L511.29876709,68.3362350464 L510.940307617,69.6493682861 L510.902709961,70.9919967651 L511.179626465,72.2846679688 L511.714752197,73.4767227173 L512.398681641,74.5156326294 L513.097290039,75.3630447388 L513.673034668,75.9964981079 L514.00012207,76.4262313843 L513.981445312,76.6888122559 L513.571655273,76.8435287476 L512.74407959,76.9151687622 L511.557006836,76.9127120972 L510.143981934,76.8237991333 L508.708374023,76.654335022 L507.453674316,76.4280700684 L506.540588379,76.1734924316 L506.04498291,75.8861541748 L506.032409668,75.55027771 L506.545532227,75.1160888672 L507.635528564,74.5456542969 L509.314575195,73.8166809082 L511.533874512,72.920501709 L514.188354492,71.8572463989 L517.148803711,70.639503479 L520.264099121,69.2790145874 L523.387268066,67.8022003174 L526.374267578,66.2487640381 L529.080200195,64.6750793457 L531.381713867,63.1575698853 L533.182128906,61.7920951843 L534.438354492,60.6637229919 L535.166015625,59.823551178 L535.419433594,59.2972412109 L535.25793457,59.1102485657 L534.721679688,59.3132858276 L533.822875977,59.9887390137 L532.596435547,61.1765480042 L531.136474609,62.8325500488 L529.586791992,64.8395996094 L528.12512207,67.0333480835 L526.913269043,69.2290496826 L526.057373047,71.2532958984 L525.588623047,72.9485168457 L525.489135742,74.1959609985 L525.703735352,74.9314575195 L526.17767334,75.1356582642 L526.869384766,74.8084259033 L527.736450195,73.9735031128 L528.692504883,72.7111740112 L529.633056641,71.1680221558 L530.429992676,69.5308380127 L530.985717773,67.9927062988 L531.263671875,66.7083206177 L531.28527832,65.7693786621 L531.127807617,65.1977310181 L530.888122559,64.9480209351 L530.649047852,64.9342880249 L530.50189209,65.0799331665 L530.551452637,65.3266372681 L530.908813477,65.6231155396 L531.7109375,65.8964157104 L533.026977539,66.0480575562 L534.848937988,65.996887207 L537.077453613,65.7209320068 L539.541870117,65.2609786987 L542.04309082,64.7117385864 L544.37487793,64.1811218262 L546.337646484,63.7566719055 L547.794372559,63.479927063 L548.693237305,63.3470115662 L549.08770752,63.3154449463 L549.139648438,63.3405265808 L549.01953125,63.387260437 L548.867675781,63.4441184998 L548.760742188,63.4935455322 L548.715148926,63.5250015259 L548.71496582,63.5258255005 L548.737792969,63.4874343872 L548.743408203,63.4087295532 L548.669311523,63.3159370422 L548.427246094,63.2489395142 L547.91809082,63.2799949646 L547.082763672,63.5049362183 L545.908325195,64.0028457642 L544.461914062,64.8156890869 L542.871948242,65.9343948364 L541.309326172,67.2853546143 L539.966674805,68.7466659546 L539.015991211,70.1826019287 L538.565185547,71.4565811157 L538.660400391,72.4576721191 L539.282409668,73.103225708 L540.376708984,73.3330307007 L541.878845215,73.1086120605 L543.674682617,72.4292678833 L545.610717773,71.3518981934 L547.498657227,69.9872665405 L549.142578125,68.4808197021 L550.393554688,66.9907073975 L551.19128418,65.6618423462 L551.564331055,64.6003341675 L551.619628906,63.853969574 L551.496887207,63.4136505127 L551.321655273,63.2395706177 L551.192749023,63.2963943481 L551.18762207,63.556930542 L551.393127441,63.9768104553 L551.912780762,64.4441986084 L552.844360352,64.8069763184 L554.236816406,64.9264831543 L556.059570312,64.734375 L558.190185547,64.2550354004 L560.415222168,63.5997161865 L562.475891113,62.9034004211 L564.141357422,62.2892723083 L565.272338867,61.8628692627 L565.826660156,61.7106323242 L565.844116211,61.9070396423 L565.352661133,62.5390701294 L564.357543945,63.6722145081 L562.887512207,65.2998428345 L561.039916992,67.350692749 L558.971191406,69.6859054565 L556.887573242,72.1214675903 L554.981567383,74.4412841797 L553.405761719,76.4393768311 L552.245117188,77.9602966309 L551.527038574,78.914352417 L551.23034668,79.2650222778 L551.325439453,79.0247650146 L551.806152344,78.1893615723 L552.698791504,76.799987793 L554.009521484,74.9929656982 L555.716918945,72.9447402954 L557.766235352,70.8358917236 L560.082336426,68.8333587646 L562.576782227,67.048210144 L565.152770996,65.5709457397 L567.685180664,64.4884109497 L570.03314209,63.8440132141 L572.05291748,63.6303062439 L573.626403809,63.8130226135 L574.663879395,64.3475418091 L575.110839844,65.1834106445 L574.952087402,66.261505127 L574.222473145,67.4902038574 L573.007873535,68.738571167 L571.448852539,69.8618774414 L569.714294434,70.7358322144 L567.98059082,71.2887420654 L566.380737305,71.4534225464 L565.017211914,71.2351150513 L563.945556641,70.7029571533 L563.240722656,70.1203918457 L562.874145508,69.681427002 M578.639892578,57.4315643311 L578.708190918,57.3758659363 L578.790039062,57.3494377136 L578.838562012,57.4479370117 L578.768737793,57.7917785645 L578.508605957,58.4686508179 L578.02923584,59.5139923096 L577.333740234,60.9092178345 L576.468261719,62.5862197876 L575.521606445,64.438873291 L574.575073242,66.3380584717 L573.706176758,68.137008667 L572.980102539,69.6797714233 L572.43371582,70.8678436279 L572.084960938,71.6426086426 L571.94543457,71.9708862305 L572.023681641,71.8321762085 L572.358764648,71.1964111328 L572.987426758,70.0582046509 L573.923217773,68.5206375122 L575.144348145,66.7379379272 L576.594238281,64.8786468506 L578.196044922,63.0909690857 L579.880126953,61.4876556396 L581.567993164,60.1486206055 L583.185852051,59.1582603455 L584.673828125,58.5640678406 L585.985046387,58.3792037964 L587.095275879,58.593536377 L587.984741211,59.1985015869 L588.618225098,60.1710586548 L588.961791992,61.4756736755 L588.995727539,63.0436706543 L588.73236084,64.7708358765 L588.24420166,66.5282363892 L587.645385742,68.1755828857 L587.060241699,69.5759353638 L586.588989258,70.6359634399 L586.279846191,71.316696167 L586.142456055,71.614151001 L586.175354004,71.5337677002 L586.387817383,71.0604553223 L586.79864502,70.1825408936 L587.41809082,68.9365234375 L588.224975586,67.4113388062 L589.185913086,65.7193374634 L590.259643555,63.9682769775 L591.407653809,62.2425727844 L592.603149414,60.6182060242 L593.821716309,59.1795730591 L595.032775879,58.0048942566 L596.206298828,57.1484222412 L597.309875488,56.6277580261 L598.309631348,56.4349555969 L599.180786133,56.5497932434 L599.892333984,56.9580764771 L600.407104492,57.6471176147 L600.688598633,58.6044921875 L600.720031738,59.8017616272 L600.516479492,61.1937866211 L600.130737305,62.7132453918 L599.644226074,64.2767333984 L599.148071289,65.786857605 L598.740966797,67.1517944336 L598.504394531,68.2956848145 L598.473999023,69.1739501953 L598.64855957,69.7662963867 L599.012573242,70.0611724854 L599.553588867,70.0395507812 L600.283203125,69.6806488037 L601.203979492,68.9774856567 L602.280944824,67.9645462036 L603.459960938,66.7066268921 L604.677429199,65.2864151001 L605.877990723,63.7806129456 L607.021118164,62.2554283142 L608.07019043,60.7744865417 L608.985473633,59.4080047607 L609.731079102,58.2261657715 L610.282653809,57.2864494324 L610.639099121,56.6099815369 L610.818481445,56.1870803833 L610.861633301,55.997177124 L610.809631348,56.0284385681 L610.678100586,56.305431366 L610.460449219,56.8643264771 L610.156982422,57.7226257324 L609.766357422,58.858757019 L609.317138672,60.2110900879 L608.865112305,61.7001342773 L608.469116211,63.2448692322 L608.181640625,64.764793396 L608.069396973,66.1871185303 L608.170776367,67.4385604858 L608.509216309,68.4516296387 L609.11114502,69.1788330078 L609.987915039,69.5734176636 L611.138427734,69.5987091064 L612.547424316,69.2432556152 L614.154174805,68.5204544067 L615.859008789,67.4777450562 L617.550964355,66.1931838989 L619.114807129,64.7484970093 L620.465942383,63.2266769409 L621.546020508,61.7191429138 L622.317993164,60.3152046204 L622.773254395,59.0972480774 L622.931518555,58.1180686951 L622.833374023,57.3914680481 L622.539550781,56.9162597656 L622.100097656,56.7047729492 L621.53515625,56.788230896 L620.860351562,57.2109985352 L620.09753418,57.9883422852 L619.291870117,59.090423584 L618.523254395,60.4525985718 L617.882568359,61.9879226685 L617.448730469,63.5966300964 L617.294921875,65.1851425171 L617.459350586,66.6559295654 L617.95715332,67.9196395874 L618.791992188,68.897277832 L619.95300293,69.5255279541 L621.410888672,69.7526168823 L623.124145508,69.5524215698 L625.011169434,68.9244232178 L626.976501465,67.9096221924 L628.913574219,66.5768966675 L630.724365234,65.0224838257 L632.322753906,63.3456954956 L633.649047852,61.6449966431 L634.66192627,60.0165939331 L635.3515625,58.5622940063 L635.731567383,57.361125946 L635.848571777,56.4587059021 L635.766113281,55.8495483398 L635.554077148,55.5158157349 L635.251586914,55.4556045532 L634.862426758,55.7110557556 L634.365844727,56.3353347778 L633.747131348,57.3582801819 L633.020141602,58.7494239807 L632.239990234,60.4414978027 L631.462646484,62.3344345093 L630.750976562,64.3303985596 L630.146362305,66.3340682983 L629.671142578,68.2698516846 L629.324584961,70.0618515015 L629.086730957,71.6405029297 L628.908996582,72.9429550171 L628.754760742,73.9337844849 L628.581237793,74.5970916748 L628.362426758,74.9469909668 L628.083618164,74.9835357666 L627.754211426,74.6905899048 L627.409790039,74.060836792 L627.116577148,73.1162109375 L626.937133789,71.9051589966 L626.931884766,70.5018920898 L627.134033203,68.9764022827 L627.562316895,67.3899459839 L628.225708008,65.8095779419 L629.127624512,64.301651001 L630.259765625,62.9274406433 L631.609863281,61.7417182922 L633.139282227,60.7855987549 L634.783203125,60.0732460022 L636.466247559,59.607635498 L638.111572266,59.3676567078 L639.654296875,59.3185844421 L641.049621582,59.4250602722 L642.26159668,59.6553192139 L643.249633789,59.9673500061 L643.990600586,60.3283042908 L644.471313477,60.6977844238 L644.706176758,61.0404129028 L644.728210449,61.3310852051 L644.572509766,61.5611991882 L644.249389648,61.7308387756 L643.746459961,61.8599777222 L643.028930664,61.973777771 L642.078125,62.1049995422 L640.90234375,62.2795333862 L639.55065918,62.5189361572 L638.098510742,62.8333206177 L636.637573242,63.2303924561 L635.268798828,63.7079467773 L634.094726562,64.2595901489 L633.183837891,64.8622131348 L632.586364746,65.4951324463 L632.323669434,66.1339416504 L632.40435791,66.7539520264 L632.848510742,67.3090820312 L633.682067871,67.7449417114 L634.897888184,67.9911956787 L636.471923828,67.9999465942 L638.341796875,67.7454681396 L640.410766602,67.2242889404 L642.570739746,66.4384384155 L644.709350586,65.4071960449 L646.714782715,64.1472473145 L648.505493164,62.6967201233 L650.023620605,61.108165741 L651.233398438,59.4520683289 L652.124145508,57.8186798096 L652.700439453,56.3162612915 L652.989074707,55.0359115601 L653.049072266,54.036819458 L652.941162109,53.3363456726 L652.711547852,52.9401626587 L652.373901367,52.8697662354 L651.907836914,53.1774597168 L651.284545898,53.9103507996 L650.51171875,55.0704956055 L649.635803223,56.5940551758 L648.750976562,58.3694763184 L647.982421875,60.2632675171 L647.461181641,62.1425094604 L647.296142578,63.8852882385 L647.570373535,65.3875961304 L648.318847656,66.5552444458 L649.536437988,67.3154373169 L651.181030273,67.6226196289 L653.163085938,67.4567871094 L655.350708008,66.8387756348 L657.581970215,65.8318023682 L659.687988281,64.5264511108 L661.534301758,63.038394928 L663.033935547,61.492893219 L664.141723633,60.021282196 L664.856994629,58.7361564636 L665.22454834,57.7282676697 L665.334350586,57.024181366 L665.288085938,56.6221504211 L665.165039062,56.5168266296 L664.991638184,56.7361907959 L664.744384766,57.3097267151 L664.407714844,58.2622909546 L664.01574707,59.5202865601 L663.639587402,60.9712562561 L663.373046875,62.4741172791 L663.305419922,63.9134254456 L663.485229492,65.1941299438 L663.931884766,66.2527389526 L664.65814209,67.0142364502 L665.667480469,67.4286575317 L666.944702148,67.4512252808 L668.452026367,67.0775680542 L670.107788086,66.3395767212 L671.792724609,65.3091430664 L673.38494873,64.0837020874 L674.781921387,62.7755393982 L675.906921387,61.4996566772 L676.714904785,60.3637924194 L677.208984375,59.4583053589 L677.434082031,58.8278656006 L677.47479248,58.4552268982 L677.423400879,58.2925415039 L677.332397461,58.3215103149 L677.204956055,58.561340332 L677.022766113,59.0729637146 L676.762695312,59.8909034729 L676.437988281,60.9752578735 L676.083862305,62.2424850464 L675.727294922,63.6066856384 L675.388061523,65.0021591187 L675.062988281,66.4000091553 L674.73840332,67.7707824707 L674.411682129,69.0753936768 L674.086303711,70.2698669434 L673.766845703,71.3064498901 L673.468994141,72.1513442993 L673.195068359,72.7934112549 L672.943237305,73.2332305908 L672.705200195,73.4912414551 L672.479736328,73.5723800659 L672.272827148,73.4727630615 L672.108764648,73.1789398193 L672.016540527,72.6796569824 L672.021118164,71.9709777832 L672.142456055,71.0663986206 L672.406982422,69.9750061035 L672.835327148,68.7299499512 L673.444213867,67.3690490723 L674.244750977,65.9443359375 L675.228759766,64.5121765137 L676.376708984,63.1332931519 L677.664245605,61.8640823364 L679.048522949,60.7613258362 L680.475097656,59.868057251 L681.889404297,59.2143211365 L683.236755371,58.8073425293 L684.477294922,58.6403503418 L685.584106445,58.6972618103 L686.536132812,58.9510574341 L687.317687988,59.3726348877 L687.911621094,59.927570343 L688.312561035,60.584980011 L688.531188965,61.319694519 L688.590332031,62.1101417542 L688.527770996,62.9302482605 L688.387939453,63.753452301 L688.205932617,64.5429992676 L688.019775391,65.2660217285 L687.854431152,65.8926925659 L687.720092773,66.4102706909 L687.623168945,66.8055038452 L687.565673828,67.0828170776 L687.545288086,67.2493286133 L687.564697266,67.3252716064 L687.613891602,67.3320388794 L687.674194336,67.3081359863 L687.733398438,67.2677154541 L687.781860352,67.2289810181 L687.817016602,67.1938018799 L687.846252441,67.1660079956 L687.871643066,67.1402664185 L687.891418457,67.1225738525 L687.908325195,67.1055831909 L687.919799805,67.0925064087 L687.92956543,67.0803985596 L687.940795898,67.0726013184 L687.955322266,67.0651016235 L687.969848633,67.0591964722 L687.98626709,67.0511856079 L688.000244141,67.04246521 L688.015563965,67.0328445435 L688.027648926,67.0264282227 L688.036010742,67.022819519 L688.038452148,67.0224075317 M695.75402832,54.0134658813 L695.753051758,54.0473442078 L695.700561523,54.1962280273 L695.551147461,54.5430526733 L695.255432129,55.1453590393 L694.799804688,56.0118560791 L694.193359375,57.1220169067 L693.473144531,58.4346504211 L692.702636719,59.9004516602 L691.955993652,61.4574775696 L691.296203613,63.0302429199 L690.76940918,64.5266418457 L690.392883301,65.8479919434 L690.162719727,66.9172515869 L690.05255127,67.6968765259 L690.040527344,68.1666641235 L690.127075195,68.3149795532 L690.330932617,68.1086273193 L690.687805176,67.5003662109 L691.234558105,66.4856338501 L691.97442627,65.1295013428 L692.89440918,63.5368919373 L693.961730957,61.8302993774 L695.125854492,60.1173171997 L696.33203125,58.4863548279 L697.524780273,57.0327682495 L698.629150391,55.8415489197 L699.573425293,54.9616012573 L700.307373047,54.400100708 L700.805786133,54.1431465149 L701.077758789,54.1878356934 L701.160644531,54.5600357056 L701.075012207,55.2833900452 L700.830627441,56.3438568115 L700.465087891,57.6770553589 L700.036865234,59.1859931946 L699.632568359,60.7599143982 L699.356811523,62.2946510315 L699.293334961,63.695526123 L699.487548828,64.8735961914 L699.979614258,65.7557678223 L700.784790039,66.2868728638 L701.896972656,66.4238433838 L703.288696289,66.1499557495 L704.900634766,65.4769668579 L706.632995605,64.4477233887 L708.378417969,63.1286888123 L710.024414062,61.5982933044 L711.47277832,59.9352455139 L712.652954102,58.2295913696 L713.521484375,56.5812263489 L714.059814453,55.0980796814 L714.291748047,53.8691139221 L714.266601562,52.9422798157 L714.046325684,52.3343887329 L713.681884766,52.0595588684 L713.190307617,52.1511306763 L712.559082031,52.6559677124 L711.793212891,53.5948371887 L710.92565918,54.9194145203 L710.03527832,56.5302505493 L709.237548828,58.2985229492 L708.655761719,60.0930709839 L708.392944336,61.7912750244 L708.53125,63.2818450928 L709.104309082,64.4557418823 L710.113525391,65.225982666 L711.528686523,65.5326766968 L713.284973145,65.3449630737 L715.280273438,64.6728439331 L717.387817383,63.5721244812 L719.464599609,62.1309890747 L721.391113281,60.4587745667 L723.079101562,58.6730117798 L724.474243164,56.8870773315 L725.540527344,55.222743988 L726.270141602,53.8072624207 L726.695617676,52.7290611267 L726.877563477,52.0262298584 L726.872802734,51.7085723877 L726.716308594,51.7732162476 L726.393920898,52.2433624268 L725.884765625,53.1588172913 L725.209289551,54.4930458069 L724.431640625,56.151966095 L723.64642334,58.0076332092 L722.959960938,59.909160614 L722.459350586,61.7313728333 L722.188110352,63.3701286316 L722.133300781,64.729019165 L722.247314453,65.7432403564 L722.475463867,66.3762969971 L722.783569336,66.5916137695 L723.189331055,66.3664169312 L723.724853516,65.6832962036 L724.397766113,64.5740585327 L725.204284668,63.1264915466 L726.131713867,61.455696106 L727.151672363,59.6733474731 L728.251464844,57.8833770752 L729.409057617,56.1770133972 L730.58984375,54.6528015137 L731.741943359,53.3953819275 L732.805175781,52.4551277161 L733.716918945,51.838104248 L734.443847656,51.5304412842 L734.976806641,51.521282196 L735.337890625,51.8222770691 L735.53314209,52.4471359253 L735.557739258,53.3862533569 L735.412841797,54.5832901001 L735.112976074,55.9549331665 L734.712402344,57.4039115906 L734.301330566,58.8410110474 L733.976989746,60.1881027222 L733.811340332,61.3786621094 L733.838867188,62.353351593 L734.023803711,63.0759925842 L734.323852539,63.5291252136 L734.704833984,63.699836731 L735.180175781,63.5795288086 L735.772460938,63.1635818481 L736.504882812,62.4610023499 L737.356567383,61.5193977356 L738.297912598,60.4084739685 L739.287353516,59.2025337219 L740.290649414,57.9745483398 L741.273071289,56.786693573 L742.189208984,55.6994094849 L742.999755859,54.7492790222 L743.590576172,54.0621757507 L743.931396484,53.6656227112 " fill="none" stroke="black" stroke-linecap="round" stroke-width="1.5" /></svg>