<svg width="1280" height="1280" viewBox="0 0 1280 1280" fill="none" xmlns="http://www.w3.org/2000/svg">
<path d="M54.9999 33.5001C44.4999 37.0001 34.9999 47.6001 32.7999 58.3001C28.4999 78.9001 49.0999 99.5001 69.6999 95.2001C85.1999 92.0001 97.1999 76.2001 95.6999 61.3001C94.5999 50.8001 86.6999 40.0001 76.6999 35.1001C70.5999 32.2001 61.1999 31.5001 54.9999 33.5001Z" fill="#F1EFFF"/>
<path d="M183 33.5C167.9 38.5 157.7 55.1 160.8 69.7C163.3 81.6 174.4 92.7 186.2 95.2C205.6 99.3 225.7 81 223.7 61.3C222.6 50.8 214.7 40 204.7 35.1C198.6 32.2 189.2 31.5 183 33.5Z" fill="#F1EFFF"/>
<path d="M311 33.5001C300.5 37.0001 291 47.6001 288.8 58.3001C284.5 78.9001 305.1 99.5001 325.7 95.2001C341.2 92.0001 353.2 76.2001 351.7 61.3001C350.6 50.8001 342.7 40.0001 332.7 35.1001C326.6 32.2001 317.2 31.5001 311 33.5001Z" fill="#F1EFFF"/>
<path d="M439 33.5001C428.5 37.0001 419 47.6001 416.8 58.3001C412.5 78.9001 433.1 99.5001 453.7 95.2001C469.2 92.0001 481.2 76.2001 479.7 61.3001C478.6 50.8001 470.7 40.0001 460.7 35.1001C454.6 32.2001 445.2 31.5001 439 33.5001Z" fill="#F1EFFF"/>
<path d="M567 33.5001C556.5 37.0001 547 47.6001 544.8 58.3001C540.5 78.9001 561.1 99.5001 581.7 95.2001C597.2 92.0001 609.2 76.2001 607.7 61.3001C606.6 50.8001 598.7 40.0001 588.7 35.1001C582.6 32.2001 573.2 31.5001 567 33.5001Z" fill="#F1EFFF"/>
<path d="M695 33.5001C684.5 37.0001 675 47.6001 672.8 58.3001C668.5 78.9001 689.1 99.5001 709.7 95.2001C725.2 92.0001 737.2 76.2001 735.7 61.3001C734.6 50.8001 726.7 40.0001 716.7 35.1001C710.6 32.2001 701.2 31.5001 695 33.5001Z" fill="#F1EFFF"/>
<path d="M823 33.5001C812.5 37.0001 803 47.6001 800.8 58.3001C796.5 78.9001 817.1 99.5001 837.7 95.2001C853.2 92.0001 865.2 76.2001 863.7 61.3001C862.6 50.8001 854.7 40.0001 844.7 35.1001C838.6 32.2001 829.2 31.5001 823 33.5001Z" fill="#F1EFFF"/>
<path d="M951 33.5001C940.5 37.0001 931 47.6001 928.8 58.3001C924.5 78.9001 945.1 99.5001 965.7 95.2001C981.2 92.0001 993.2 76.2001 991.7 61.3001C990.6 50.8001 982.7 40.0001 972.7 35.1001C966.6 32.2001 957.2 31.5001 951 33.5001Z" fill="#F1EFFF"/>
<path d="M1079 33.5C1068.5 37 1059 47.6 1056.8 58.3C1054.3 70 1060 82.7 1071 90.2C1081.7 97.6 1093.9 97.7 1104.7 90.5C1122.4 78.7 1124.8 56.7 1110 42C1101.5 33.4 1089.3 30.1 1079 33.5Z" fill="#F1EFFF"/>
<path d="M1207 33.5C1196.5 37 1187 47.6 1184.8 58.3C1182.3 70 1188 82.7 1199 90.2C1209.7 97.6 1221.9 97.7 1232.7 90.5C1250.4 78.7 1252.8 56.7 1238 42C1229.5 33.4 1217.3 30.1 1207 33.5Z" fill="#F1EFFF"/>
<path d="M54.9999 161.5C44.4999 165 34.9999 175.6 32.7999 186.3C28.4999 206.9 49.0999 227.5 69.6999 223.2C85.1999 220 97.1999 204.2 95.6999 189.3C94.5999 178.8 86.6999 168 76.6999 163.1C70.5999 160.2 61.1999 159.5 54.9999 161.5Z" fill="#F1EFFF"/>
<path d="M183 161.5C167.9 166.5 157.7 183.1 160.8 197.7C163.3 209.6 174.4 220.7 186.2 223.2C205.6 227.3 225.7 209 223.7 189.3C222.6 178.8 214.7 168 204.7 163.1C198.6 160.2 189.2 159.5 183 161.5Z" fill="#F1EFFF"/>
<path d="M311 161.5C300.5 165 291 175.6 288.8 186.3C284.5 206.9 305.1 227.5 325.7 223.2C341.2 220 353.2 204.2 351.7 189.3C350.6 178.8 342.7 168 332.7 163.1C326.6 160.2 317.2 159.5 311 161.5Z" fill="#F1EFFF"/>
<path d="M439 161.5C428.5 165 419 175.6 416.8 186.3C412.5 206.9 433.1 227.5 453.7 223.2C469.2 220 481.2 204.2 479.7 189.3C478.6 178.8 470.7 168 460.7 163.1C454.6 160.2 445.2 159.5 439 161.5Z" fill="#F1EFFF"/>
<path d="M567 161.5C556.5 165 547 175.6 544.8 186.3C540.5 206.9 561.1 227.5 581.7 223.2C597.2 220 609.2 204.2 607.7 189.3C606.6 178.8 598.7 168 588.7 163.1C582.6 160.2 573.2 159.5 567 161.5Z" fill="#F1EFFF"/>
<path d="M695 161.5C684.5 165 675 175.6 672.8 186.3C668.5 206.9 689.1 227.5 709.7 223.2C725.2 220 737.2 204.2 735.7 189.3C734.6 178.8 726.7 168 716.7 163.1C710.6 160.2 701.2 159.5 695 161.5Z" fill="#F1EFFF"/>
<path d="M823 161.5C812.5 165 803 175.6 800.8 186.3C796.5 206.9 817.1 227.5 837.7 223.2C853.2 220 865.2 204.2 863.7 189.3C862.6 178.8 854.7 168 844.7 163.1C838.6 160.2 829.2 159.5 823 161.5Z" fill="#F1EFFF"/>
<path d="M951 161.5C940.5 165 931 175.6 928.8 186.3C924.5 206.9 945.1 227.5 965.7 223.2C981.2 220 993.2 204.2 991.7 189.3C990.6 178.8 982.7 168 972.7 163.1C966.6 160.2 957.2 159.5 951 161.5Z" fill="#F1EFFF"/>
<path d="M1079 161.5C1068.5 165 1059 175.6 1056.8 186.3C1054.3 198 1060 210.7 1071 218.2C1081.7 225.6 1093.9 225.7 1104.7 218.5C1122.4 206.7 1124.8 184.7 1110 170C1101.5 161.4 1089.3 158.1 1079 161.5Z" fill="#F1EFFF"/>
<path d="M1207 161.5C1196.5 165 1187 175.6 1184.8 186.3C1182.3 198 1188 210.7 1199 218.2C1209.7 225.6 1221.9 225.7 1232.7 218.5C1250.4 206.7 1252.8 184.7 1238 170C1229.5 161.4 1217.3 158.1 1207 161.5Z" fill="#F1EFFF"/>
<path d="M54.9999 289.5C44.4999 293 34.9999 303.6 32.7999 314.3C28.4999 334.9 49.0999 355.5 69.6999 351.2C85.1999 348 97.1999 332.2 95.6999 317.3C94.5999 306.8 86.6999 296 76.6999 291.1C70.5999 288.2 61.1999 287.5 54.9999 289.5Z" fill="#F1EFFF"/>
<path d="M183 289.5C172.5 293 163 303.6 160.8 314.3C156.5 334.9 177.1 355.5 197.7 351.2C213.2 348 225.2 332.2 223.7 317.3C222.6 306.8 214.7 296 204.7 291.1C198.6 288.2 189.2 287.5 183 289.5Z" fill="#F1EFFF"/>
<path d="M311 289.5C300.5 293 291 303.6 288.8 314.3C284.5 334.9 305.1 355.5 325.7 351.2C341.2 348 353.2 332.2 351.7 317.3C350.6 306.8 342.7 296 332.7 291.1C326.6 288.2 317.2 287.5 311 289.5Z" fill="#F1EFFF"/>
<path d="M439 289.5C428.5 293 419 303.6 416.8 314.3C412.5 334.9 433.1 355.5 453.7 351.2C469.2 348 481.2 332.2 479.7 317.3C478.6 306.8 470.7 296 460.7 291.1C454.6 288.2 445.2 287.5 439 289.5Z" fill="#F1EFFF"/>
<path d="M567 289.5C556.5 293 547 303.6 544.8 314.3C540.5 334.9 561.1 355.5 581.7 351.2C597.2 348 609.2 332.2 607.7 317.3C606.6 306.8 598.7 296 588.7 291.1C582.6 288.2 573.2 287.5 567 289.5Z" fill="#F1EFFF"/>
<path d="M695 289.5C684.5 293 675 303.6 672.8 314.3C668.5 334.9 689.1 355.5 709.7 351.2C725.2 348 737.2 332.2 735.7 317.3C734.6 306.8 726.7 296 716.7 291.1C710.6 288.2 701.2 287.5 695 289.5Z" fill="#F1EFFF"/>
<path d="M823 289.5C812.5 293 803 303.6 800.8 314.3C796.5 334.9 817.1 355.5 837.7 351.2C853.2 348 865.2 332.2 863.7 317.3C862.6 306.8 854.7 296 844.7 291.1C838.6 288.2 829.2 287.5 823 289.5Z" fill="#F1EFFF"/>
<path d="M951 289.5C940.5 293 931 303.6 928.8 314.3C924.5 334.9 945.1 355.5 965.7 351.2C981.2 348 993.2 332.2 991.7 317.3C990.6 306.8 982.7 296 972.7 291.1C966.6 288.2 957.2 287.5 951 289.5Z" fill="#F1EFFF"/>
<path d="M1079 289.5C1068.5 293 1059 303.6 1056.8 314.3C1052.5 334.9 1073.1 355.5 1093.7 351.2C1109.2 348 1121.2 332.2 1119.7 317.3C1118.6 306.8 1110.7 296 1100.7 291.1C1094.6 288.2 1085.2 287.5 1079 289.5Z" fill="#F1EFFF"/>
<path d="M1207 289.5C1196.5 293 1187 303.6 1184.8 314.3C1180.5 334.9 1201.1 355.5 1221.7 351.2C1237.2 348 1249.2 332.2 1247.7 317.3C1246.6 306.8 1238.7 296 1228.7 291.1C1222.6 288.2 1213.2 287.5 1207 289.5Z" fill="#F1EFFF"/>
<path d="M54.9999 417.5C44.4999 421 34.9999 431.6 32.7999 442.3C28.4999 462.9 49.0999 483.5 69.6999 479.2C85.1999 476 97.1999 460.2 95.6999 445.3C94.5999 434.8 86.6999 424 76.6999 419.1C70.5999 416.2 61.1999 415.5 54.9999 417.5Z" fill="#F1EFFF"/>
<path d="M183 417.5C172.5 421 163 431.6 160.8 442.3C156.5 462.9 177.1 483.5 197.7 479.2C213.2 476 225.2 460.2 223.7 445.3C222.6 434.8 214.7 424 204.7 419.1C198.6 416.2 189.2 415.5 183 417.5Z" fill="#F1EFFF"/>
<path d="M311 417.5C300.5 421 291 431.6 288.8 442.3C284.5 462.9 305.1 483.5 325.7 479.2C341.2 476 353.2 460.2 351.7 445.3C350.6 434.8 342.7 424 332.7 419.1C326.6 416.2 317.2 415.5 311 417.5Z" fill="#F1EFFF"/>
<path d="M439 417.5C428.5 421 419 431.6 416.8 442.3C412.5 462.9 433.1 483.5 453.7 479.2C469.2 476 481.2 460.2 479.7 445.3C478.6 434.8 470.7 424 460.7 419.1C454.6 416.2 445.2 415.5 439 417.5Z" fill="#F1EFFF"/>
<path d="M567 417.5C556.5 421 547 431.6 544.8 442.3C540.5 462.9 561.1 483.5 581.7 479.2C597.2 476 609.2 460.2 607.7 445.3C606.6 434.8 598.7 424 588.7 419.1C582.6 416.2 573.2 415.5 567 417.5Z" fill="#F1EFFF"/>
<path d="M695 417.5C684.5 421 675 431.6 672.8 442.3C668.5 462.9 689.1 483.5 709.7 479.2C725.2 476 737.2 460.2 735.7 445.3C734.6 434.8 726.7 424 716.7 419.1C710.6 416.2 701.2 415.5 695 417.5Z" fill="#F1EFFF"/>
<path d="M823 417.5C812.5 421 803 431.6 800.8 442.3C796.5 462.9 817.1 483.5 837.7 479.2C853.2 476 865.2 460.2 863.7 445.3C862.6 434.8 854.7 424 844.7 419.1C838.6 416.2 829.2 415.5 823 417.5Z" fill="#F1EFFF"/>
<path d="M951 417.5C940.5 421 931 431.6 928.8 442.3C924.5 462.9 945.1 483.5 965.7 479.2C981.2 476 993.2 460.2 991.7 445.3C990.6 434.8 982.7 424 972.7 419.1C966.6 416.2 957.2 415.5 951 417.5Z" fill="#F1EFFF"/>
<path d="M1079 417.5C1068.5 421 1059 431.6 1056.8 442.3C1052.5 462.9 1073.1 483.5 1093.7 479.2C1109.2 476 1121.2 460.2 1119.7 445.3C1118.6 434.8 1110.7 424 1100.7 419.1C1094.6 416.2 1085.2 415.5 1079 417.5Z" fill="#F1EFFF"/>
<path d="M1207 417.5C1196.5 421 1187 431.6 1184.8 442.3C1180.5 462.9 1201.1 483.5 1221.7 479.2C1237.2 476 1249.2 460.2 1247.7 445.3C1246.6 434.8 1238.7 424 1228.7 419.1C1222.6 416.2 1213.2 415.5 1207 417.5Z" fill="#F1EFFF"/>
<path d="M54.9999 545.5C44.4999 549 34.9999 559.6 32.7999 570.3C28.4999 590.9 49.0999 611.5 69.6999 607.2C85.1999 604 97.1999 588.2 95.6999 573.3C94.5999 562.8 86.6999 552 76.6999 547.1C70.5999 544.2 61.1999 543.5 54.9999 545.5Z" fill="#F1EFFF"/>
<path d="M183 545.5C172.5 549 163 559.6 160.8 570.3C156.5 590.9 177.1 611.5 197.7 607.2C213.2 604 225.2 588.2 223.7 573.3C222.6 562.8 214.7 552 204.7 547.1C198.6 544.2 189.2 543.5 183 545.5Z" fill="#F1EFFF"/>
<path d="M311 545.5C300.5 549 291 559.6 288.8 570.3C284.5 590.9 305.1 611.5 325.7 607.2C341.2 604 353.2 588.2 351.7 573.3C350.6 562.8 342.7 552 332.7 547.1C326.6 544.2 317.2 543.5 311 545.5Z" fill="#F1EFFF"/>
<path d="M439 545.5C428.5 549 419 559.6 416.8 570.3C412.5 590.9 433.1 611.5 453.7 607.2C469.2 604 481.2 588.2 479.7 573.3C478.6 562.8 470.7 552 460.7 547.1C454.6 544.2 445.2 543.5 439 545.5Z" fill="#F1EFFF"/>
<path d="M567 545.5C556.5 549 547 559.6 544.8 570.3C540.5 590.9 561.1 611.5 581.7 607.2C597.2 604 609.2 588.2 607.7 573.3C606.6 562.8 598.7 552 588.7 547.1C582.6 544.2 573.2 543.5 567 545.5Z" fill="#F1EFFF"/>
<path d="M695 545.5C684.5 549 675 559.6 672.8 570.3C668.5 590.9 689.1 611.5 709.7 607.2C725.2 604 737.2 588.2 735.7 573.3C734.6 562.8 726.7 552 716.7 547.1C710.6 544.2 701.2 543.5 695 545.5Z" fill="#F1EFFF"/>
<path d="M823 545.5C812.5 549 803 559.6 800.8 570.3C796.5 590.9 817.1 611.5 837.7 607.2C853.2 604 865.2 588.2 863.7 573.3C862.6 562.8 854.7 552 844.7 547.1C838.6 544.2 829.2 543.5 823 545.5Z" fill="#F1EFFF"/>
<path d="M951 545.5C940.5 549 931 559.6 928.8 570.3C924.5 590.9 945.1 611.5 965.7 607.2C981.2 604 993.2 588.2 991.7 573.3C990.6 562.8 982.7 552 972.7 547.1C966.6 544.2 957.2 543.5 951 545.5Z" fill="#F1EFFF"/>
<path d="M1079 545.5C1068.5 549 1059 559.6 1056.8 570.3C1052.5 590.9 1073.1 611.5 1093.7 607.2C1109.2 604 1121.2 588.2 1119.7 573.3C1118.6 562.8 1110.7 552 1100.7 547.1C1094.6 544.2 1085.2 543.5 1079 545.5Z" fill="#F1EFFF"/>
<path d="M1207 545.5C1196.5 549 1187 559.6 1184.8 570.3C1180.5 590.9 1201.1 611.5 1221.7 607.2C1237.2 604 1249.2 588.2 1247.7 573.3C1246.6 562.8 1238.7 552 1228.7 547.1C1222.6 544.2 1213.2 543.5 1207 545.5Z" fill="#F1EFFF"/>
<path d="M54.9999 673.5C44.4999 677 34.9999 687.6 32.7999 698.3C28.4999 718.9 49.0999 739.5 69.6999 735.2C85.1999 732 97.1999 716.2 95.6999 701.3C94.5999 690.8 86.6999 680 76.6999 675.1C70.5999 672.2 61.1999 671.5 54.9999 673.5Z" fill="#F1EFFF"/>
<path d="M183 673.5C172.5 677 163 687.6 160.8 698.3C156.5 718.9 177.1 739.5 197.7 735.2C213.2 732 225.2 716.2 223.7 701.3C222.6 690.8 214.7 680 204.7 675.1C198.6 672.2 189.2 671.5 183 673.5Z" fill="#F1EFFF"/>
<path d="M311 673.5C300.5 677 291 687.6 288.8 698.3C284.5 718.9 305.1 739.5 325.7 735.2C341.2 732 353.2 716.2 351.7 701.3C350.6 690.8 342.7 680 332.7 675.1C326.6 672.2 317.2 671.5 311 673.5Z" fill="#F1EFFF"/>
<path d="M439 673.5C428.5 677 419 687.6 416.8 698.3C412.5 718.9 433.1 739.5 453.7 735.2C469.2 732 481.2 716.2 479.7 701.3C478.6 690.8 470.7 680 460.7 675.1C454.6 672.2 445.2 671.5 439 673.5Z" fill="#F1EFFF"/>
<path d="M567 673.5C556.5 677 547 687.6 544.8 698.3C540.5 718.9 561.1 739.5 581.7 735.2C597.2 732 609.2 716.2 607.7 701.3C606.6 690.8 598.7 680 588.7 675.1C582.6 672.2 573.2 671.5 567 673.5Z" fill="#F1EFFF"/>
<path d="M695 673.5C684.5 677 675 687.6 672.8 698.3C668.5 718.9 689.1 739.5 709.7 735.2C725.2 732 737.2 716.2 735.7 701.3C734.6 690.8 726.7 680 716.7 675.1C710.6 672.2 701.2 671.5 695 673.5Z" fill="#F1EFFF"/>
<path d="M823 673.5C812.5 677 803 687.6 800.8 698.3C796.5 718.9 817.1 739.5 837.7 735.2C853.2 732 865.2 716.2 863.7 701.3C862.6 690.8 854.7 680 844.7 675.1C838.6 672.2 829.2 671.5 823 673.5Z" fill="#F1EFFF"/>
<path d="M951 673.5C940.5 677 931 687.6 928.8 698.3C924.5 718.9 945.1 739.5 965.7 735.2C981.2 732 993.2 716.2 991.7 701.3C990.6 690.8 982.7 680 972.7 675.1C966.6 672.2 957.2 671.5 951 673.5Z" fill="#F1EFFF"/>
<path d="M1079 673.5C1068.5 677 1059 687.6 1056.8 698.3C1052.5 718.9 1073.1 739.5 1093.7 735.2C1109.2 732 1121.2 716.2 1119.7 701.3C1118.6 690.8 1110.7 680 1100.7 675.1C1094.6 672.2 1085.2 671.5 1079 673.5Z" fill="#F1EFFF"/>
<path d="M1207 673.5C1196.5 677 1187 687.6 1184.8 698.3C1180.5 718.9 1201.1 739.5 1221.7 735.2C1237.2 732 1249.2 716.2 1247.7 701.3C1246.6 690.8 1238.7 680 1228.7 675.1C1222.6 672.2 1213.2 671.5 1207 673.5Z" fill="#F1EFFF"/>
<path d="M54.9999 801.5C44.4999 805 34.9999 815.6 32.7999 826.3C28.4999 846.9 49.0999 867.5 69.6999 863.2C85.1999 860 97.1999 844.2 95.6999 829.3C94.5999 818.8 86.6999 808 76.6999 803.1C70.5999 800.2 61.1999 799.5 54.9999 801.5Z" fill="#F1EFFF"/>
<path d="M183 801.5C172.5 805 163 815.6 160.8 826.3C156.5 846.9 177.1 867.5 197.7 863.2C213.2 860 225.2 844.2 223.7 829.3C222.6 818.8 214.7 808 204.7 803.1C198.6 800.2 189.2 799.5 183 801.5Z" fill="#F1EFFF"/>
<path d="M311 801.5C300.5 805 291 815.6 288.8 826.3C286.3 838 292 850.7 303 858.2C313.7 865.6 325.9 865.7 336.7 858.5C354.4 846.7 356.8 824.7 342 810C333.5 801.4 321.3 798.1 311 801.5Z" fill="#F1EFFF"/>
<path d="M439 801.5C428.5 805 419 815.6 416.8 826.3C414.3 838 420 850.7 431 858.2C441.7 865.6 453.9 865.7 464.7 858.5C482.4 846.7 484.8 824.7 470 810C461.5 801.4 449.3 798.1 439 801.5Z" fill="#F1EFFF"/>
<path d="M567 801.5C551.9 806.5 541.7 823.1 544.8 837.7C547.3 849.6 558.4 860.7 570.3 863.2C589.6 867.3 609.7 849 607.7 829.3C606.6 818.8 598.7 808 588.7 803.1C582.6 800.2 573.2 799.5 567 801.5Z" fill="#F1EFFF"/>
<path d="M695 801.5C679.9 806.5 669.7 823.1 672.8 837.7C675.3 849.6 686.4 860.7 698.3 863.2C717.6 867.3 737.7 849 735.7 829.3C734.6 818.8 726.7 808 716.7 803.1C710.6 800.2 701.2 799.5 695 801.5Z" fill="#F1EFFF"/>
<path d="M823 801.5C807.9 806.5 797.7 823.1 800.8 837.7C803.3 849.6 814.4 860.7 826.3 863.2C845.6 867.3 865.7 849 863.7 829.3C862.6 818.8 854.7 808 844.7 803.1C838.6 800.2 829.2 799.5 823 801.5Z" fill="#F1EFFF"/>
<path d="M951 801.5C935.9 806.5 925.7 823.1 928.8 837.7C931.3 849.6 942.4 860.7 954.3 863.2C973.6 867.3 993.7 849 991.7 829.3C990.6 818.8 982.7 808 972.7 803.1C966.6 800.2 957.2 799.5 951 801.5Z" fill="#F1EFFF"/>
<path d="M1079 801.5C1068.5 805 1059 815.6 1056.8 826.3C1052.5 846.9 1073.1 867.5 1093.7 863.2C1109.2 860 1121.2 844.2 1119.7 829.3C1118.6 818.8 1110.7 808 1100.7 803.1C1094.6 800.2 1085.2 799.5 1079 801.5Z" fill="#F1EFFF"/>
<path d="M1207 801.5C1196.5 805 1187 815.6 1184.8 826.3C1180.5 846.9 1201.1 867.5 1221.7 863.2C1237.2 860 1249.2 844.2 1247.7 829.3C1246.6 818.8 1238.7 808 1228.7 803.1C1222.6 800.2 1213.2 799.5 1207 801.5Z" fill="#F1EFFF"/>
<path d="M54.9999 929.5C44.4999 933 34.9999 943.6 32.7999 954.3C28.4999 974.9 49.0999 995.5 69.6999 991.2C85.1999 988 97.1999 972.2 95.6999 957.3C94.5999 946.8 86.6999 936 76.6999 931.1C70.5999 928.2 61.1999 927.5 54.9999 929.5Z" fill="#F1EFFF"/>
<path d="M183 929.5C172.5 933 163 943.6 160.8 954.3C156.5 974.9 177.1 995.5 197.7 991.2C213.2 988 225.2 972.2 223.7 957.3C222.6 946.8 214.7 936 204.7 931.1C198.6 928.2 189.2 927.5 183 929.5Z" fill="#F1EFFF"/>
<path d="M311 929.5C300.5 933 291 943.6 288.8 954.3C286.3 966 292 978.7 303 986.2C313.7 993.6 325.9 993.7 336.7 986.5C354.4 974.7 356.8 952.7 342 938C333.5 929.4 321.3 926.1 311 929.5Z" fill="#F1EFFF"/>
<path d="M439 929.5C428.5 933 419 943.6 416.8 954.3C414.3 966 420 978.7 431 986.2C441.7 993.6 453.9 993.7 464.7 986.5C482.4 974.7 484.8 952.7 470 938C461.5 929.4 449.3 926.1 439 929.5Z" fill="#F1EFFF"/>
<path d="M567 929.5C551.9 934.5 541.7 951.1 544.8 965.7C547.3 977.6 558.4 988.7 570.3 991.2C589.6 995.3 609.7 977 607.7 957.3C606.6 946.8 598.7 936 588.7 931.1C582.6 928.2 573.2 927.5 567 929.5Z" fill="#F1EFFF"/>
<path d="M695 929.5C679.9 934.5 669.7 951.1 672.8 965.7C675.3 977.6 686.4 988.7 698.3 991.2C717.6 995.3 737.7 977 735.7 957.3C734.6 946.8 726.7 936 716.7 931.1C710.6 928.2 701.2 927.5 695 929.5Z" fill="#F1EFFF"/>
<path d="M823 929.5C807.9 934.5 797.7 951.1 800.8 965.7C803.3 977.6 814.4 988.7 826.3 991.2C845.6 995.3 865.7 977 863.7 957.3C862.6 946.8 854.7 936 844.7 931.1C838.6 928.2 829.2 927.5 823 929.5Z" fill="#F1EFFF"/>
<path d="M951 929.5C935.9 934.5 925.7 951.1 928.8 965.7C931.3 977.6 942.4 988.7 954.3 991.2C973.6 995.3 993.7 977 991.7 957.3C990.6 946.8 982.7 936 972.7 931.1C966.6 928.2 957.2 927.5 951 929.5Z" fill="#F1EFFF"/>
<path d="M1079 929.5C1068.5 933 1059 943.6 1056.8 954.3C1052.5 974.9 1073.1 995.5 1093.7 991.2C1109.2 988 1121.2 972.2 1119.7 957.3C1118.6 946.8 1110.7 936 1100.7 931.1C1094.6 928.2 1085.2 927.5 1079 929.5Z" fill="#F1EFFF"/>
<path d="M1207 929.5C1196.5 933 1187 943.6 1184.8 954.3C1180.5 974.9 1201.1 995.5 1221.7 991.2C1237.2 988 1249.2 972.2 1247.7 957.3C1246.6 946.8 1238.7 936 1228.7 931.1C1222.6 928.2 1213.2 927.5 1207 929.5Z" fill="#F1EFFF"/>
<path d="M54.9999 1057.5C44.4999 1061 34.9999 1071.6 32.7999 1082.3C28.4999 1102.9 49.0999 1123.5 69.6999 1119.2C85.1999 1116 97.1999 1100.2 95.6999 1085.3C94.5999 1074.8 86.6999 1064 76.6999 1059.1C70.5999 1056.2 61.1999 1055.5 54.9999 1057.5Z" fill="#F1EFFF"/>
<path d="M183 1057.5C172.5 1061 163 1071.6 160.8 1082.3C156.5 1102.9 177.1 1123.5 197.7 1119.2C213.2 1116 225.2 1100.2 223.7 1085.3C222.6 1074.8 214.7 1064 204.7 1059.1C198.6 1056.2 189.2 1055.5 183 1057.5Z" fill="#F1EFFF"/>
<path d="M311 1057.5C300.5 1061 291 1071.6 288.8 1082.3C286.3 1094 292 1106.7 303 1114.2C313.7 1121.6 325.9 1121.7 336.7 1114.5C354.4 1102.7 356.8 1080.7 342 1066C333.5 1057.4 321.3 1054.1 311 1057.5Z" fill="#F1EFFF"/>
<path d="M439 1057.5C428.5 1061 419 1071.6 416.8 1082.3C414.3 1094 420 1106.7 431 1114.2C441.7 1121.6 453.9 1121.7 464.7 1114.5C482.4 1102.7 484.8 1080.7 470 1066C461.5 1057.4 449.3 1054.1 439 1057.5Z" fill="#F1EFFF"/>
<path d="M567 1057.5C556.5 1061 547 1071.6 544.8 1082.3C540.5 1102.9 561.1 1123.5 581.7 1119.2C597.2 1116 609.2 1100.2 607.7 1085.3C606.6 1074.8 598.7 1064 588.7 1059.1C582.6 1056.2 573.2 1055.5 567 1057.5Z" fill="#F1EFFF"/>
<path d="M695 1057.5C684.5 1061 675 1071.6 672.8 1082.3C668.5 1102.9 689.1 1123.5 709.7 1119.2C725.2 1116 737.2 1100.2 735.7 1085.3C734.6 1074.8 726.7 1064 716.7 1059.1C710.6 1056.2 701.2 1055.5 695 1057.5Z" fill="#F1EFFF"/>
<path d="M823 1057.5C812.5 1061 803 1071.6 800.8 1082.3C796.5 1102.9 817.1 1123.5 837.7 1119.2C853.2 1116 865.2 1100.2 863.7 1085.3C862.6 1074.8 854.7 1064 844.7 1059.1C838.6 1056.2 829.2 1055.5 823 1057.5Z" fill="#F1EFFF"/>
<path d="M951 1057.5C940.5 1061 931 1071.6 928.8 1082.3C924.5 1102.9 945.1 1123.5 965.7 1119.2C981.2 1116 993.2 1100.2 991.7 1085.3C990.6 1074.8 982.7 1064 972.7 1059.1C966.6 1056.2 957.2 1055.5 951 1057.5Z" fill="#F1EFFF"/>
<path d="M1079 1057.5C1068.5 1061 1059 1071.6 1056.8 1082.3C1052.5 1102.9 1073.1 1123.5 1093.7 1119.2C1109.2 1116 1121.2 1100.2 1119.7 1085.3C1118.6 1074.8 1110.7 1064 1100.7 1059.1C1094.6 1056.2 1085.2 1055.5 1079 1057.5Z" fill="#F1EFFF"/>
<path d="M1207 1057.5C1196.5 1061 1187 1071.6 1184.8 1082.3C1180.5 1102.9 1201.1 1123.5 1221.7 1119.2C1237.2 1116 1249.2 1100.2 1247.7 1085.3C1246.6 1074.8 1238.7 1064 1228.7 1059.1C1222.6 1056.2 1213.2 1055.5 1207 1057.5Z" fill="#F1EFFF"/>
<path d="M54.9999 1185.5C44.4999 1189 34.9999 1199.6 32.7999 1210.3C28.4999 1230.9 49.0999 1251.5 69.6999 1247.2C85.1999 1244 97.1999 1228.2 95.6999 1213.3C94.5999 1202.8 86.6999 1192 76.6999 1187.1C70.5999 1184.2 61.1999 1183.5 54.9999 1185.5Z" fill="#F1EFFF"/>
<path d="M183 1185.5C172.5 1189 163 1199.6 160.8 1210.3C156.5 1230.9 177.1 1251.5 197.7 1247.2C213.2 1244 225.2 1228.2 223.7 1213.3C222.6 1202.8 214.7 1192 204.7 1187.1C198.6 1184.2 189.2 1183.5 183 1185.5Z" fill="#F1EFFF"/>
<path d="M311 1185.5C300.5 1189 291 1199.6 288.8 1210.3C284.5 1230.9 305.1 1251.5 325.7 1247.2C341.2 1244 353.2 1228.2 351.7 1213.3C350.6 1202.8 342.7 1192 332.7 1187.1C326.6 1184.2 317.2 1183.5 311 1185.5Z" fill="#F1EFFF"/>
<path d="M439 1185.5C428.5 1189 419 1199.6 416.8 1210.3C412.5 1230.9 433.1 1251.5 453.7 1247.2C469.2 1244 481.2 1228.2 479.7 1213.3C478.6 1202.8 470.7 1192 460.7 1187.1C454.6 1184.2 445.2 1183.5 439 1185.5Z" fill="#F1EFFF"/>
<path d="M567 1185.5C556.5 1189 547 1199.6 544.8 1210.3C540.5 1230.9 561.1 1251.5 581.7 1247.2C597.2 1244 609.2 1228.2 607.7 1213.3C606.6 1202.8 598.7 1192 588.7 1187.1C582.6 1184.2 573.2 1183.5 567 1185.5Z" fill="#F1EFFF"/>
<path d="M695 1185.5C684.5 1189 675 1199.6 672.8 1210.3C668.5 1230.9 689.1 1251.5 709.7 1247.2C725.2 1244 737.2 1228.2 735.7 1213.3C734.6 1202.8 726.7 1192 716.7 1187.1C710.6 1184.2 701.2 1183.5 695 1185.5Z" fill="#F1EFFF"/>
<path d="M823 1185.5C812.5 1189 803 1199.6 800.8 1210.3C796.5 1230.9 817.1 1251.5 837.7 1247.2C853.2 1244 865.2 1228.2 863.7 1213.3C862.6 1202.8 854.7 1192 844.7 1187.1C838.6 1184.2 829.2 1183.5 823 1185.5Z" fill="#F1EFFF"/>
<path d="M951 1185.5C940.5 1189 931 1199.6 928.8 1210.3C924.5 1230.9 945.1 1251.5 965.7 1247.2C981.2 1244 993.2 1228.2 991.7 1213.3C990.6 1202.8 982.7 1192 972.7 1187.1C966.6 1184.2 957.2 1183.5 951 1185.5Z" fill="#F1EFFF"/>
<path d="M1079 1185.5C1068.5 1189 1059 1199.6 1056.8 1210.3C1052.5 1230.9 1073.1 1251.5 1093.7 1247.2C1109.2 1244 1121.2 1228.2 1119.7 1213.3C1118.6 1202.8 1110.7 1192 1100.7 1187.1C1094.6 1184.2 1085.2 1183.5 1079 1185.5Z" fill="#F1EFFF"/>
<path d="M1207 1185.5C1196.5 1189 1187 1199.6 1184.8 1210.3C1180.5 1230.9 1201.1 1251.5 1221.7 1247.2C1237.2 1244 1249.2 1228.2 1247.7 1213.3C1246.6 1202.8 1238.7 1192 1228.7 1187.1C1222.6 1184.2 1213.2 1183.5 1207 1185.5Z" fill="#F1EFFF"/>
</svg>
