<?xml version="1.0" encoding="utf-8" ?>
<svg baseProfile="full" height="100%" version="1.1" viewBox="0,0,1000,120" width="100%" xmlns="http://www.w3.org/2000/svg" xmlns:ev="http://www.w3.org/2001/xml-events" xmlns:xlink="http://www.w3.org/1999/xlink"><defs /><rect fill="white" height="120" width="1000" x="0" y="0" /><path d="M0,0 M453.440490723,45.9278717041 L453.470092773,45.9132537842 L453.532897949,46.0503044128 L453.616424561,46.5010375977 L453.677246094,47.4102592468 L453.660644531,48.8159255981 L453.522369385,50.6843032837 L453.249176025,52.9225273132 L452.87588501,55.4083976746 L452.466888428,57.9936408997 L452.100006104,60.5138168335 L451.824249268,62.8051376343 L451.67175293,64.6748657227 L451.643463135,65.979850769 L451.720703125,66.664855957 L451.833068848,66.8772735596 L451.932678223,66.8365325928 M464.046539307,47.3366241455 L464.151519775,47.1795692444 L464.251678467,47.0397109985 L464.220214844,47.0541229248 L463.870025635,47.385307312 L463.055145264,48.0876350403 L461.705322266,49.1410446167 L459.87121582,50.4449958801 L457.71282959,51.8780937195 L455.488708496,53.2834777832 L453.482452393,54.5179824829 L451.913482666,55.4929046631 L450.908172607,56.1795387268 L450.498138428,56.6106681824 L450.641021729,56.8704681396 L451.286102295,57.0461578369 L452.383056641,57.2069206238 L453.842315674,57.4130592346 L455.543762207,57.7162742615 L457.342498779,58.1621246338 L459.090209961,58.7851333618 L460.677520752,59.5892868042 L462.048400879,60.5472755432 L463.177398682,61.6108131409 L464.080718994,62.7075958252 L464.784759521,63.7342338562 L465.320526123,64.5868148804 L465.673919678,65.1574707031 L465.864990234,65.4450683594 M469.680541992,55.4516830444 L469.687561035,55.5925559998 L469.671264648,55.9748382568 L469.604278564,56.6924095154 L469.470947266,57.7527809143 L469.296813965,59.0847358704 L469.128387451,60.5703353882 L469.044219971,62.0637931824 L469.111053467,63.4173736572 L469.371337891,64.5042495728 L469.840637207,65.2156219482 L470.516113281,65.4776535034 L471.379241943,65.2482681274 L472.41229248,64.5179367065 L473.559387207,63.3316459656 L474.735931396,61.8003234863 L475.843322754,60.0857696533 L476.787841797,58.3932685852 L477.506988525,56.9202613831 L477.993774414,55.7912559509 L478.271697998,55.0716743469 L478.379852295,54.7887840271 L478.362365723,54.9532356262 L478.240234375,55.598991394 L478.026672363,56.739200592 L477.76461792,58.2726669312 L477.521453857,60.0197525024 L477.373413086,61.7665557861 L477.421539307,63.2891998291 L477.697967529,64.4334793091 L478.173706055,65.1417541504 L478.657104492,65.4675750732 L479.0078125,65.544921875 M483.450286865,55.9365005493 L483.47064209,55.9199028015 L483.504516602,56.0618209839 L483.527770996,56.5090675354 L483.494110107,57.3686714172 L483.360412598,58.5938072205 L483.131896973,60.0527877808 L482.85546875,61.5517807007 L482.601043701,62.9024429321 L482.422729492,63.9692802429 L482.333953857,64.6774902344 L482.320648193,64.9756393433 L482.373352051,64.8371353149 L482.507843018,64.2340164185 L482.764221191,63.1758155823 L483.175842285,61.7655563354 L483.760803223,60.1646156311 L484.523101807,58.5464248657 L485.456481934,57.0619735718 L486.549407959,55.8128929138 L487.780578613,54.8693847656 L489.092254639,54.2980613708 L490.406463623,54.1421356201 L491.6378479,54.4184265137 L492.707946777,55.1137123108 L493.553192139,56.1800613403 L494.141601562,57.5345230103 L494.465637207,59.0558509827 L494.577209473,60.6190185547 L494.564086914,62.0806732178 L494.526916504,63.3248062134 L494.511779785,64.1908721924 L494.525939941,64.6619338989 M505.149719238,57.6206741333 L505.11428833,57.2627372742 L504.995880127,56.7168502808 L504.725158691,56.093662262 L504.236297607,55.5923652649 L503.48538208,55.3094596863 L502.470031738,55.3236999512 L501.252716064,55.676738739 L499.943786621,56.3961830139 L498.679992676,57.4526634216 L497.605895996,58.7667198181 L496.845855713,60.2094192505 L496.486907959,61.6250610352 L496.582519531,62.8530578613 L497.138305664,63.7498016357 L498.109313965,64.2041015625 L499.41317749,64.1576385498 L500.929260254,63.6098594666 L502.51171875,62.6280975342 L504.014343262,61.3361625671 L505.309417725,59.8973655701 L506.303283691,58.4914474487 L506.967712402,57.277179718 L507.340332031,56.3487625122 L507.488891602,55.7539291382 L507.49017334,55.5182113647 L507.403015137,55.6653594971 L507.252716064,56.230266571 L507.063293457,57.2171554565 L506.888580322,58.5357971191 L506.786743164,60.0422172546 L506.815063477,61.5770950317 L507.043884277,62.9727554321 L507.47958374,64.0977859497 L508.079193115,64.8738632202 L508.643554688,65.2938079834 L509.035461426,65.4453125 M515.113525391,46.3247146606 L515.18951416,46.4715995789 L515.286071777,46.8762207031 L515.351989746,47.642829895 L515.316772461,48.8016738892 L515.157958984,50.3187255859 L514.885864258,52.1266784668 L514.555419922,54.1337738037 L514.237854004,56.2287712097 L513.997192383,58.2784576416 L513.874267578,60.1513519287 L513.879821777,61.7514610291 L514.02734375,63.0070953369 L514.311523438,63.8838272095 L514.712768555,64.3890914917 L515.095947266,64.6017913818 L515.369750977,64.6387481689 M546.799926758,47.2256622314 L546.61340332,46.8698577881 L546.225952148,46.3358154297 L545.570800781,45.7367134094 L544.616271973,45.2672386169 L543.330627441,45.004108429 L541.752563477,45.0 L540.016174316,45.2641830444 L538.316955566,45.7978210449 L536.86340332,46.5700378418 L535.823059082,47.5378036499 L535.303100586,48.6505355835 L535.352661133,49.8570175171 L535.988891602,51.1104469299 L537.18359375,52.3709716797 L538.85559082,53.6122627258 L540.857299805,54.8286819458 L542.991333008,56.027053833 L545.037841797,57.2125816345 L546.799560547,58.3822860718 L548.134887695,59.5188179016 L548.963134766,60.5956726074 L549.255981445,61.5837364197 L549.017700195,62.4569892883 L548.262329102,63.1884460449 L547.010131836,63.7528457642 L545.307800293,64.1312789917 L543.241638184,64.3219146729 L540.93182373,64.3303070068 L538.526367188,64.1725769043 L536.185852051,63.8689002991 L534.047729492,63.4489021301 L532.277099609,62.9303207397 L531.014526367,62.3624992371 L530.3203125,61.7929763794 L530.07434082,61.3425369263 L530.086914062,61.0663909912 M558.216796875,56.9825553894 L558.057006836,56.6955680847 L557.732543945,56.2620353699 L557.200500488,55.7831192017 L556.451904297,55.4375190735 L555.472473145,55.3252182007 L554.285400391,55.52684021 L552.966918945,56.0805778503 L551.638427734,56.9949607849 L550.43963623,58.2189903259 L549.504943848,59.6494750977 L548.940673828,61.1428184509 L548.809387207,62.5390205383 L549.13671875,63.682674408 L549.902038574,64.4443130493 L551.043334961,64.7314834595 L552.465881348,64.5022888184 L554.048156738,63.7734870911 L555.655883789,62.6238632202 L557.158569336,61.1815414429 L558.447998047,59.6112861633 L559.446289062,58.0971946716 L560.129760742,56.7981262207 L560.526672363,55.8168525696 L560.696960449,55.2128181458 L560.709350586,55.0157928467 L560.625610352,55.2482452393 L560.476928711,55.9391059875 L560.295837402,57.0673980713 L560.128540039,58.5212211609 L560.029541016,60.1345596313 L560.055419922,61.7254753113 L560.274841309,63.1072463989 L560.696289062,64.1489562988 L561.278015137,64.7869110107 L561.823486328,65.0718002319 L562.200134277,65.129989624 M566.003417969,56.1169700623 L566.017883301,56.2552452087 L566.025634766,56.6525611877 L566.000976562,57.4069633484 L565.913513184,58.5113067627 L565.760192871,59.8512878418 L565.563049316,61.2478752136 L565.37097168,62.5172195435 L565.227722168,63.5243835449 L565.154663086,64.1801757812 L565.15032959,64.4296646118 L565.213439941,64.2461395264 L565.359619141,63.6074142456 L565.630004883,62.5438766479 L566.063781738,61.1649627686 L566.68951416,59.6223335266 L567.517333984,58.0839958191 L568.532348633,56.6963500977 L569.698974609,55.5599861145 L570.964233398,54.7552642822 L572.255493164,54.3466911316 L573.498718262,54.3700027466 L574.624450684,54.8293266296 L575.571044922,55.6949882507 L576.289550781,56.9064025879 L576.757019043,58.3758087158 L576.986083984,59.9832267761 L577.030761719,61.5941543579 L576.989868164,63.0332527161 L576.962402344,64.1398239136 L577.017456055,64.8163146973 L577.123413086,65.1124725342 L577.22857666,65.1634597778 M584.119018555,46.5442276001 L584.14831543,46.5354728699 L584.198181152,46.6952972412 L584.248413086,47.1767234802 L584.258056641,48.0940170288 L584.19128418,49.4318389893 L584.042297363,51.1122055054 L583.826538086,53.0239295959 L583.583068848,55.0547142029 L583.354736328,57.0912322998 L583.170532227,59.0224342346 L583.04510498,60.7432403564 L582.96862793,62.1366043091 L582.909362793,63.1096763611 L582.86114502,63.6547775269 L582.823303223,63.8641090393 " fill="none" stroke="black" stroke-linecap="round" stroke-width="2" /></svg>