<?xml version="1.0" encoding="utf-8" ?>
<svg baseProfile="full" height="100%" version="1.1" viewBox="0,0,1000,120" width="100%" xmlns="http://www.w3.org/2000/svg" xmlns:ev="http://www.w3.org/2001/xml-events" xmlns:xlink="http://www.w3.org/1999/xlink"><defs /><rect fill="white" height="120" width="1000" x="0" y="0" /><path d="M0,0 M443.235290527,46.0055503845 L443.11529541,46.7961425781 L442.841918945,48.319355011 L442.414428711,50.5642089844 L441.895843506,53.2240180969 L441.36819458,56.0518112183 L440.889038086,58.7985839844 L440.467407227,61.2964706421 L440.118041992,63.3705558777 L439.877532959,64.8799133301 L439.786437988,65.7282714844 L439.806121826,66.044380188 L439.87902832,66.048500061 M453.610076904,49.1993103027 L453.791900635,49.1481285095 L453.943511963,49.113368988 L453.908203125,49.1587333679 L453.504119873,49.3677215576 L452.689300537,49.7912940979 L451.520996094,50.4388198853 L450.116790771,51.2583694458 L448.599487305,52.1651229858 L447.115875244,53.0558853149 L445.78817749,53.8496131897 L444.707946777,54.5179443359 L443.948883057,55.0853424072 L443.551391602,55.6162948608 L443.529998779,56.192741394 L443.879669189,56.8817024231 L444.578430176,57.7126960754 L445.572723389,58.6828384399 L446.78918457,59.7677001953 L448.144287109,60.9276504517 L449.56137085,62.1052207947 L450.957855225,63.2101898193 L452.275939941,64.1397705078 L453.47052002,64.8074951172 L454.554382324,65.0781860352 L455.545440674,64.8864593506 L456.472686768,64.2537918091 L457.194458008,63.5073547363 L457.646118164,62.9162712097 M461.553649902,53.2559127808 L461.548034668,53.285736084 L461.455688477,53.5124092102 L461.228485107,54.1012268066 L460.859619141,55.1634483337 L460.424346924,56.6684265137 L460.026489258,58.484172821 L459.761627197,60.3959388733 L459.665008545,62.1630363464 L459.746917725,63.6014556885 L460.00894165,64.5990905762 L460.467681885,65.1234283447 L461.161560059,65.1944198608 L462.110748291,64.8201675415 L463.26373291,63.9834671021 L464.529998779,62.6981163025 L465.799682617,61.0287399292 L466.975067139,59.119934082 L467.998565674,57.1884536743 L468.835510254,55.4578285217 L469.457824707,54.1019668579 L469.868103027,53.193572998 L470.074645996,52.7226333618 L470.095458984,52.6564178467 L469.948486328,53.0242919922 L469.654144287,53.8965034485 L469.251800537,55.3106689453 L468.826660156,57.1530723572 L468.472137451,59.2022590637 L468.267364502,61.1771697998 L468.239868164,62.8525047302 L468.385559082,64.1028594971 L468.689727783,64.8769836426 L469.159637451,65.1340332031 L469.824707031,64.8551483154 L470.695343018,64.024559021 L471.72454834,62.6837425232 L472.843139648,60.9606399536 L473.969787598,59.0405769348 L475.038269043,57.1292991638 L476.000793457,55.4189529419 L476.815093994,54.0372238159 L477.438293457,53.0493507385 L477.837677002,52.4938926697 L477.998962402,52.4117393494 L477.933776855,52.8610305786 L477.661621094,53.894367218 L477.229187012,55.4715881348 L476.704925537,57.4193153381 L476.157043457,59.455493927 L475.653106689,61.2792510986 L475.240600586,62.6741142273 L474.933837891,63.5636787415 L474.747253418,63.9653053284 L474.700164795,63.9287185669 L474.828399658,63.4544868469 L475.181793213,62.5095710754 L475.792755127,61.1079139709 L476.657226562,59.3691711426 L477.751281738,57.5005569458 L479.018005371,55.7390327454 L480.382385254,54.2670555115 L481.762390137,53.1872329712 L483.072814941,52.5444412231 L484.237792969,52.3591308594 L485.209350586,52.6408920288 L485.958374023,53.3891487122 L486.473602295,54.5766372681 L486.766113281,56.1229095459 L486.867675781,57.8839378357 L486.837005615,59.6854476929 L486.728881836,61.3535041809 L486.628845215,62.7335357666 L486.60748291,63.729850769 L486.711975098,64.3158111572 L486.874603271,64.567199707 L487.028625488,64.6171035767 M498.100616455,53.9880104065 L498.081665039,53.685836792 L497.920898438,53.2579154968 L497.518127441,52.8389778137 L496.810272217,52.6393737793 L495.820373535,52.7613830566 L494.63482666,53.2699317932 L493.374542236,54.158039093 L492.155761719,55.3876495361 L491.093383789,56.872127533 L490.281494141,58.4864311218 L489.78225708,60.0822792053 L489.631469727,61.5171737671 L489.831176758,62.6627349854 L490.357086182,63.4257965088 L491.171630859,63.7473716736 L492.225891113,63.5855369568 L493.44909668,62.9238052368 L494.74987793,61.7957572937 L496.025024414,60.2985153198 L497.177612305,58.5895881653 L498.133331299,56.880355835 L498.853057861,55.3754234314 L499.340637207,54.2116241455 L499.609924316,53.4565734863 L499.6769104,53.1355476379 L499.558776855,53.2565689087 L499.269317627,53.8618278503 L498.854034424,54.9803581238 L498.41696167,56.5340423584 L498.06652832,58.3473167419 L497.8984375,60.1926078796 L497.978851318,61.8490333557 L498.332519531,63.1713218689 L498.965454102,64.080329895 L499.882263184,64.5163650513 L501.066619873,64.4333648682 L502.47442627,63.8062057495 L504.032196045,62.6521110535 L505.649932861,61.0438613892 L507.235595703,59.091293335 L508.713317871,56.9204788208 L510.026275635,54.655040741 L511.123535156,52.4192352295 L511.957763672,50.3506469727 L512.502868652,48.5802536011 L512.75390625,47.2077255249 L512.72076416,46.2926445007 L512.423034668,45.8714447021 L511.880401611,45.9826011658 L511.117034912,46.6766357422 L510.194824219,47.9665565491 L509.208618164,49.7941093445 L508.262115479,52.0172576904 L507.460418701,54.446559906 L506.890869141,56.8856201172 L506.610198975,59.1670684814 L506.658935547,61.1575737 L507.050018311,62.7617721558 L507.754455566,63.9313354492 L508.779693604,64.6144561768 L510.069702148,64.8137741089 L511.519561768,64.5880050659 L512.755981445,64.1941070557 L513.563537598,63.843082428 M539.749755859,46.4443130493 L539.580810547,46.1515274048 L539.16229248,45.7269439697 L538.425598145,45.289352417 L537.390869141,45.0225868225 L536.148071289,45.0 L534.833740234,45.2620773315 L533.595031738,45.7966995239 L532.561889648,46.5818252563 L531.843505859,47.5850372314 L531.518676758,48.7729263306 L531.6328125,50.1270980835 L532.188903809,51.6457290649 L533.13104248,53.3301696777 L534.342590332,55.1635360718 L535.65625,57.0922203064 L536.890686035,59.0222167969 L537.88848877,60.8467979431 L538.546691895,62.4687652588 L538.813171387,63.8297805786 L538.671020508,64.9023895264 L538.121337891,65.6767654419 L537.184326172,66.1456222534 L535.913452148,66.3106689453 L534.407836914,66.1849441528 L532.802856445,65.8086471558 L531.248352051,65.2431182861 L529.864746094,64.5599899292 L528.801696777,63.7944107056 L528.168457031,62.9915809631 L528.010864258,62.1944999695 L528.14831543,61.5594100952 L528.379333496,61.1646080017 M549.478881836,55.7970123291 L549.448730469,55.5275497437 L549.259338379,55.0981292725 L548.810974121,54.6051445007 L548.050292969,54.2338256836 L547.018798828,54.1140785217 L545.809814453,54.3522720337 L544.544189453,54.9924468994 L543.33215332,56.0306091309 L542.281494141,57.4127388 L541.480895996,59.0337944031 L540.994445801,60.7505569458 L540.853820801,62.3975830078 L541.058105469,63.816192627 L541.576049805,64.8793411255 L542.364501953,65.5057830811 L543.379943848,65.6480102539 L544.570739746,65.2817382812 L545.867370605,64.4099197388 L547.182495117,63.0904579163 L548.420166016,61.4453544617 L549.498779297,59.655960083 L550.36151123,57.9381866455 L550.985717773,56.4868125916 L551.385864258,55.4126701355 L551.587219238,54.7573738098 L551.610900879,54.525177002 L551.474914551,54.7294960022 L551.18951416,55.4267044067 L550.798095703,56.6505355835 L550.396118164,58.3084373474 L550.08996582,60.201789856 L549.95892334,62.0636520386 L550.033691406,63.6508255005 L550.302490234,64.8195343018 L550.743591309,65.5073242188 L551.358337402,65.6801452637 L552.162841797,65.3310699463 L553.149414062,64.4599151611 L554.261474609,63.1218338013 L555.422607422,61.4455680847 L556.543273926,59.6120109558 L557.553833008,57.8239860535 L558.405639648,56.2715606689 L559.07409668,55.066242218 L559.538085938,54.2627410889 L559.79486084,53.8935966492 L559.845336914,53.9977149963 L559.699707031,54.6354103088 L559.36505127,55.8446617126 L558.887817383,57.5317459106 L558.327148438,59.4765815735 L557.760681152,61.3832130432 L557.259033203,62.9850311279 L556.863952637,64.1403808594 L556.591918945,64.8309402466 L556.465087891,65.0766296387 L556.506896973,64.8924636841 L556.763244629,64.2439804077 L557.276000977,63.1154632568 L558.054077148,61.5867614746 L559.081115723,59.8352050781 L560.30871582,58.0866966248 L561.656616211,56.5548744202 L563.030517578,55.3740577698 L564.331420898,54.6094245911 L565.469543457,54.2862968445 L566.387145996,54.4127540588 L567.055847168,54.9898147583 L567.469360352,56.0050926208 L567.645751953,57.4032173157 L567.635620117,59.0709991455 L567.506774902,60.8322296143 L567.344543457,62.4985389709 L567.232421875,63.9132728577 L567.229675293,64.9928283691 L567.436462402,65.6363525391 L567.910644531,65.8043823242 L568.642333984,65.4996795654 L569.372924805,65.0002670288 L569.90802002,64.5502471924 M578.286865234,47.6683349609 L578.292907715,47.6510696411 L578.225524902,47.8133201599 L578.026367188,48.3441619873 L577.661743164,49.4063873291 L577.159301758,51.0151977539 L576.567504883,53.0784416199 L575.939453125,55.4215927124 L575.311645508,57.8573570251 L574.723144531,60.1645736694 L574.208251953,62.1521377563 L573.838928223,63.5451469421 L573.631713867,64.3006134033 M576.450683594,55.04662323 L576.218261719,54.957359314 L575.727478027,54.7936248779 L574.966796875,54.5695571899 L574.015380859,54.3287200928 L572.956665039,54.1070365906 L572.071472168,53.9470558167 L571.497314453,53.8589439392 " fill="none" stroke="black" stroke-linecap="round" stroke-width="2" /></svg>