<?xml version="1.0" encoding="utf-8" ?>
<svg baseProfile="full" height="100%" version="1.1" viewBox="0,0,1000,120" width="100%" xmlns="http://www.w3.org/2000/svg" xmlns:ev="http://www.w3.org/2001/xml-events" xmlns:xlink="http://www.w3.org/1999/xlink"><defs /><rect fill="white" height="120" width="1000" x="0" y="0" /><path d="M0,0 M344.11505127,47.0186424255 L344.111419678,46.9629707336 L344.033325195,46.9880905151 L343.808532715,47.2327575684 L343.356262207,47.857093811 L342.630645752,48.9414138794 L341.600372314,50.51039505 L340.261535645,52.5252418518 L338.64956665,54.9136886597 L336.836303711,57.5604782104 L334.917297363,60.3216247559 L333.012817383,63.0128974915 L331.261993408,65.4172210693 L329.810943604,67.3257141113 L328.773803711,68.6195678711 L328.181732178,69.3119277954 L327.94329834,69.5650558472 M341.832366943,47.1121139526 L341.929656982,47.1180267334 L342.090667725,47.2963409424 L342.3125,47.7994003296 L342.563354492,48.7423171997 L342.846252441,50.1212882996 L343.14642334,51.8807563782 L343.456481934,53.9324607849 L343.773773193,56.1845054626 L344.106903076,58.5392417908 L344.453399658,60.8916893005 L344.804077148,63.112197876 L345.11315918,65.0467605591 L345.328674316,66.5422439575 L345.42565918,67.5160446167 L345.433349609,68.0038223267 L345.400756836,68.1573867798 M336.590881348,59.6688842773 L336.59173584,59.6807975769 L336.820495605,59.7145195007 L337.457977295,59.7621765137 L338.74118042,59.7748641968 L340.65927124,59.7043838501 L343.030822754,59.5213432312 L345.139099121,59.3063163757 L346.550872803,59.1353225708 M367.589477539,62.6697387695 L367.96887207,62.4051017761 L368.732574463,61.8095664978 L369.914794922,60.8146476746 L371.423431396,59.445186615 L373.164611816,57.7647666931 L375.040161133,55.8771286011 L376.95904541,53.9097213745 L378.832092285,51.995426178 L380.553710938,50.2949485779 L382.00680542,48.9182701111 L383.097045898,47.9255104065 L383.770233154,47.3552970886 L384.005310059,47.262928009 L383.814025879,47.7309036255 L383.193054199,48.8759613037 L382.149169922,50.7204704285 L380.757995605,53.1575813293 L379.160644531,55.9841995239 L377.554321289,58.9278030396 L376.147003174,61.6717987061 L375.075256348,63.9677314758 L374.389709473,65.6396331787 L374.089904785,66.5932159424 L374.155487061,66.8107681274 L374.597229004,66.3126754761 L375.456634521,65.0849914551 L376.752227783,63.1876068115 L378.460693359,60.7617759705 L380.510314941,58.0103645325 L382.778106689,55.1616325378 L385.134094238,52.4524307251 L387.452575684,50.067073822 L389.608642578,48.1617660522 L391.512145996,46.8378334045 L393.10458374,46.1420478821 L394.335083008,46.0799102783 L395.160400391,46.6645355225 L395.52557373,47.9048805237 L395.378845215,49.7709960938 L394.729919434,52.1563339233 L393.664337158,54.8697891235 L392.371032715,57.6274909973 L391.100402832,60.1113739014 L390.065185547,62.079044342 L389.388122559,63.3852920532 L389.099212646,63.977432251 L389.160247803,63.8760223389 L389.571929932,63.0913848877 L390.375488281,61.6267547607 L391.599914551,59.6007995605 L393.229370117,57.2018013 L395.184570312,54.6469039917 L397.348022461,52.1597671509 L399.613342285,49.9096031189 L401.882629395,48.0034866333 L404.063659668,46.5479507446 L406.059143066,45.6032600403 L407.78225708,45.1853561401 L409.166473389,45.296295166 L410.158752441,45.939125061 L410.711853027,47.1126937866 L410.792785645,48.8066482544 L410.401702881,50.9483642578 L409.613586426,53.4052505493 L408.571990967,55.9877281189 L407.478363037,58.4848594666 L406.537353516,60.6911087036 L405.887878418,62.4647254944 L405.59274292,63.7286834717 L405.661804199,64.4630737305 L406.082275391,64.6681213379 L406.876403809,64.3432769775 L408.078369141,63.4796981812 L409.67980957,62.1232910156 L411.61706543,60.3956069946 L413.781494141,58.4545936584 L416.045684814,56.4743041992 L418.305786133,54.6063308716 L420.471252441,52.9759063721 L422.436828613,51.6742744446 L424.105651855,50.7734603882 L425.402648926,50.2979431152 L426.280517578,50.257850647 L426.719360352,50.6635017395 L426.708557129,51.5469322205 L426.2265625,52.9024772644 L425.303161621,54.6836700439 L424.044311523,56.7690429688 L422.639190674,58.9824714661 L421.335327148,61.1213226318 L420.35369873,63.0076980591 L419.832092285,64.5043334961 L419.831726074,65.5352401733 L420.349060059,66.0590362549 L421.349975586,66.0496292114 L422.792694092,65.4823379517 L424.593688965,64.3683700562 L426.623657227,62.7720413208 L428.707519531,60.8089637756 L430.643829346,58.6222801208 L432.243011475,56.3624687195 L433.363647461,54.1613540649 L433.93838501,52.136390686 L433.971435547,50.388381958 L433.507385254,48.9938316345 L432.624389648,48.0182533264 L431.420898438,47.5117111206 L430.028198242,47.5193443298 L428.635559082,47.9870223999 L427.4375,48.7836837769 L426.618469238,49.5630950928 L426.200195312,50.1022567749 M439.271270752,47.7141838074 L439.273986816,47.6946640015 L439.279846191,47.8285140991 L439.277404785,48.2709999084 L439.231262207,49.1544265747 L439.097503662,50.4933776855 L438.865234375,52.2602005005 L438.541259766,54.3614578247 L438.185302734,56.6760673523 L437.87701416,59.0506286621 L437.67590332,61.2926597595 L437.620452881,63.2088050842 L437.704833984,64.6683502197 L437.911132812,65.6021347046 L438.249084473,65.9922561646 L438.767578125,65.8493041992 L439.541809082,65.1535797119 L440.637939453,63.896396637 L442.047668457,62.1344795227 L443.717773438,59.9892616272 L445.553894043,57.6170539856 L447.454406738,55.1855926514 L449.331726074,52.8256530762 L451.11505127,50.6514167786 L452.740722656,48.757686615 L454.143005371,47.2227363586 L455.266876221,46.0755653381 L456.016784668,45.3559799194 L456.40625,45.0 M446.751525879,57.2989807129 L447.147888184,57.4303588867 L448.01184082,57.4840927124 L449.400146484,57.3195724487 L451.190185547,56.8259010315 L453.209411621,56.067653656 L455.236694336,55.15574646 L457.061309814,54.2316551208 L458.506347656,53.410484314 L459.462005615,52.7703361511 L459.930053711,52.3453407288 L460.033813477,52.123626709 L459.963439941,52.0428161621 L459.870361328,52.033416748 M459.169677734,49.7651672363 L459.041259766,50.0164794922 L458.722961426,50.6226806641 L458.143127441,51.6823158264 L457.283813477,53.1787719727 L456.186340332,55.0384216309 L454.936950684,57.1457672119 L453.658538818,59.3664054871 L452.480102539,61.5551872253 L451.512634277,63.5634994507 L450.814575195,65.2540969849 L450.414459229,66.5543365479 L450.311950684,67.4457244873 L450.511230469,67.9467163086 L451.026611328,68.0922088623 L451.869750977,67.9191131592 L453.00177002,67.4717636108 L454.343597412,66.8404998779 L455.777404785,66.1451263428 L457.171691895,65.5017166138 L458.389465332,64.9794769287 L459.322296143,64.5917663574 L459.91619873,64.3152542114 L460.206115723,64.1399993896 L460.292358398,64.0481796265 M452.08102417,61.4357185364 L452.326721191,61.427116394 L452.891784668,61.3659896851 L453.846588135,61.2085800171 L455.152130127,60.9218521118 L456.71862793,60.5149803162 L458.420288086,60.0260620117 L460.139526367,59.5142974854 L461.769775391,59.0186424255 L463.20300293,58.5703697205 L464.358032227,58.1839408875 L465.125976562,57.9065856934 L465.522949219,57.7475967407 M473.665039062,54.0565071106 L473.51940918,54.0490608215 L473.279052734,54.1216087341 L472.940032959,54.3580703735 L472.505371094,54.837310791 L471.931884766,55.5881538391 L471.200012207,56.6132469177 L470.331054688,57.8867225647 L469.402526855,59.3578453064 L468.504089355,60.9476737976 L467.717407227,62.5586662292 L467.110168457,64.0855255127 L466.732788086,65.4404602051 L466.632232666,66.5588150024 L466.856018066,67.3890151978 L467.443603516,67.8813247681 L468.419799805,67.9924087524 L469.773895264,67.6948699951 L471.444519043,67.0058135986 L473.328308105,65.9973220825 L475.293334961,64.7742843628 L477.192871094,63.4562454224 L478.900878906,62.1499977112 L480.314422607,60.949836731 L481.372253418,59.9342575073 L482.068969727,59.155921936 L482.434753418,58.632144928 L482.504241943,58.3708648682 L482.305725098,58.3825912476 L481.843017578,58.7174491882 L481.126739502,59.4363098145 L480.219543457,60.5521774292 L479.237365723,61.9885597229 L478.332427979,63.5919113159 L477.667297363,65.173828125 L477.363098145,66.5659103394 L477.491577148,67.6460800171 L478.076599121,68.3313369751 L479.098388672,68.5599517822 L480.495788574,68.295173645 L482.178039551,67.5470809937 L484.020172119,66.3662872314 L485.89453125,64.8510437012 L487.684356689,63.1266174316 L489.308319092,61.3097572327 L490.7003479,59.5242271423 L491.814666748,57.9097824097 L492.618591309,56.5826301575 L493.11529541,55.6235084534 L493.341674805,55.077255249 L493.357543945,54.9414291382 L493.191345215,55.2328033447 L492.831970215,55.9934501648 L492.248046875,57.2276611328 L491.451477051,58.866027832 L490.523651123,60.7687988281 L489.61706543,62.7267837524 L488.88583374,64.5341262817 L488.439697266,66.0373687744 L488.31854248,67.1413726807 L488.520080566,67.7930603027 L489.023071289,67.9670715332 L489.823608398,67.6496276855 L490.889770508,66.8566055298 L492.158355713,65.6655197144 L493.524047852,64.22706604 L494.86416626,62.7184944153 L496.071075439,61.3028640747 L497.096679688,60.0996704102 L497.923217773,59.1727142334 L498.567962646,58.5317687988 L499.071228027,58.1657028198 L499.480957031,58.0465583801 L499.839416504,58.1490821838 L500.190826416,58.4564971924 L500.551086426,58.949760437 L500.918579102,59.5854301453 L501.287902832,60.3124771118 L501.660583496,61.0769042969 L502.035522461,61.8321723938 L502.426513672,62.5463981628 L502.848632812,63.1914100647 L503.330291748,63.7280197144 L503.910095215,64.1117248535 L504.64251709,64.2977676392 L505.553863525,64.2496337891 L506.643188477,63.9624328613 L507.866149902,63.4609985352 L509.149017334,62.7944488525 L510.383544922,62.0353240967 L511.460693359,61.2674674988 L512.285644531,60.5592536926 L512.800170898,59.959197998 L512.981689453,59.4863395691 L512.842590332,59.1488876343 L512.382629395,58.9808883667 L511.600463867,59.0503807068 L510.519195557,59.4260025024 L509.206695557,60.1450042725 L507.793029785,61.1765632629 L506.466552734,62.4278259277 L505.410125732,63.7800483704 L504.772033691,65.1147994995 L504.639373779,66.3243484497 L505.031951904,67.3134231567 L505.927734375,67.9908294678 L507.282928467,68.2768554688 L509.018066406,68.1236801147 L511.033813477,67.5166549683 L513.202026367,66.4767837524 L515.379516602,65.0544128418 L517.441894531,63.3238754272 L519.290161133,61.3835220337 L520.851379395,59.3642997742 L522.081542969,57.4254646301 L522.955993652,55.7329025269 L523.486206055,54.4201316833 L523.734313965,53.5311546326 L523.77947998,53.0482902527 L523.695129395,52.9370498657 L523.506286621,53.2116355896 L523.186401367,53.9348602295 L522.700561523,55.1660308838 L522.056030273,56.847984314 L521.298583984,58.845867157 L520.517150879,60.9660606384 L519.812133789,63.0303459167 L519.252746582,64.8908004761 L518.871520996,66.4436035156 L518.663757324,67.6038742065 L518.584777832,68.3739852905 L518.573852539,68.7928466797 L518.595825195,68.9119567871 L518.6328125,68.7344207764 L518.701477051,68.2317199707 L518.83190918,67.3737792969 L519.048583984,66.2240371704 L519.352539062,64.8927536011 L519.751220703,63.5066108704 L520.246459961,62.1596755981 L520.855957031,60.9175949097 L521.603393555,59.8175735474 L522.505859375,58.9097518921 L523.561462402,58.2269439697 L524.751403809,57.7850036621 L526.02935791,57.5785484314 L527.330810547,57.5934791565 L528.579284668,57.8054580688 L529.708251953,58.194896698 L530.661865234,58.7371826172 L531.397155762,59.4180984497 L531.872924805,60.2163085938 L532.055297852,61.1064567566 L531.915649414,62.0537414551 L531.468017578,63.0191230774 L530.76171875,63.9501571655 L529.874938965,64.8010253906 L528.895751953,65.509147644 L527.921630859,66.0263519287 L527.023681641,66.3302688599 L526.282043457,66.3707122803 L525.754699707,66.134552002 L525.461547852,65.6533966064 L525.351318359,65.1348571777 L525.349243164,64.7409667969 M538.424438477,55.7182540894 L538.473022461,55.8148956299 L538.476257324,56.1226844788 L538.350891113,56.7533149719 L538.013977051,57.7491874695 L537.46484375,59.0591430664 L536.764343262,60.5768966675 L536.024353027,62.1461105347 L535.368469238,63.5998649597 L534.885498047,64.8038024902 L534.593566895,65.6687698364 L534.470703125,66.1374893188 L534.478759766,66.1847457886 L534.603942871,65.7767410278 L534.875305176,64.8974151611 L535.330200195,63.5986251831 L535.98059082,62.0147209167 L536.820800781,60.3090362549 L537.821044922,58.6420974731 L538.940551758,57.1273574829 L540.143554688,55.838722229 L541.384277344,54.8285293579 L542.613525391,54.1353530884 L543.793212891,53.7782249451 L544.89453125,53.7556686401 L545.889770508,54.0537719727 L546.75012207,54.6461181641 L547.441650391,55.4968299866 L547.928649902,56.5574417114 L548.188476562,57.7757835388 L548.217590332,59.092212677 L548.033691406,60.4458656311 L547.677368164,61.7607078552 L547.232543945,62.9602203369 L546.787658691,63.9683609009 L546.4140625,64.7471466064 L546.171936035,65.2346191406 L546.078369141,65.4020843506 L546.118835449,65.2553863525 L546.22277832,64.9697952271 L546.324829102,64.6986160278 M552.009460449,52.9461288452 L552.0703125,52.9156150818 L552.148071289,52.9839057922 L552.206176758,53.2666168213 L552.178039551,53.8744239807 L552.024536133,54.8362884521 L551.722839355,56.1149215698 L551.28717041,57.6406822205 L550.75201416,59.3292274475 L550.172912598,61.0738143921 L549.590698242,62.7600440979 L549.04675293,64.2638778687 L548.572143555,65.4751358032 L548.190368652,66.334815979 L547.905761719,66.8178634644 L547.723022461,66.9030532837 L547.643859863,66.5637359619 L547.703491211,65.7709655762 L547.961669922,64.5432662964 L548.472717285,62.9847335815 L549.268981934,61.2418212891 L550.348693848,59.4673652649 L551.663574219,57.7975654602 L553.144104004,56.335269928 L554.698364258,55.1666221619 L556.229370117,54.3694725037 L557.665283203,53.9861946106 L558.952758789,54.0290679932 L560.044921875,54.4836921692 L560.89263916,55.3148155212 L561.429748535,56.4633140564 L561.609741211,57.8536834717 L561.42388916,59.3884620667 L560.904846191,60.9560317993 L560.118896484,62.4377708435 L559.149902344,63.7282524109 L558.081787109,64.7420959473 L556.999633789,65.4266357422 L555.98248291,65.759552002 L555.098144531,65.748916626 L554.445556641,65.3601379395 L554.096618652,64.6164627075 L554.080200195,63.6007881165 L554.251281738,62.6517105103 L554.456726074,61.9947624207 M572.271362305,54.5251235962 L572.33203125,54.2938766479 L572.387695312,53.996257782 L572.380737305,53.7568702698 L572.230834961,53.7637062073 L571.891113281,54.1239128113 L571.313232422,54.9219970703 L570.530822754,56.1405105591 L569.612609863,57.7058677673 L568.684936523,59.4637374878 L567.876098633,61.2062568665 L567.282226562,62.7380523682 L566.919616699,63.9358291626 L566.769958496,64.7169799805 L566.790771484,65.0463867188 L566.968139648,64.9060745239 L567.315917969,64.2559967041 L567.872619629,63.0931358337 L568.64239502,61.5208930969 L569.602172852,59.6995620728 L570.712341309,57.8155899048 L571.926269531,56.0241584778 L573.206176758,54.4190292358 L574.522705078,53.062412262 L575.840454102,52.0152130127 L577.127685547,51.3156280518 L578.358154297,50.9833450317 L579.501586914,51.0141830444 L580.52130127,51.3992042542 L581.369262695,52.1220664978 L581.997497559,53.1592712402 L582.366210938,54.4638710022 L582.470581055,55.9692306519 L582.345581055,57.5818367004 L582.065612793,59.2042312622 L581.723388672,60.7219581604 L581.407592773,62.0283927917 L581.16809082,63.0439529419 L581.026855469,63.7304382324 L580.988647461,64.0623016357 L581.065795898,64.0217895508 L581.279052734,63.5727996826 L581.657592773,62.6981277466 L582.204040527,61.4453620911 L582.898071289,59.9213447571 L583.702880859,58.2541542053 L584.572753906,56.5662460327 L585.465576172,54.9539489746 L586.339355469,53.5068778992 L587.139404297,52.3096389771 L587.823974609,51.4250183105 L588.378112793,50.880821228 L588.816467285,50.6729888916 L589.187988281,50.7834815979 L589.538696289,51.2068481445 L589.885253906,51.924041748 L590.228149414,52.8966522217 L590.570678711,54.0598869324 L590.919677734,55.330947876 L591.29309082,56.6261825562 L591.711791992,57.8808250427 L592.182373047,59.0343666077 L592.706298828,60.0308036804 L593.305786133,60.8146209717 L594.008178711,61.3306922913 L594.843017578,61.5300598145 L595.829101562,61.3818321228 L596.951721191,60.8801269531 L598.161010742,60.0492935181 L599.383483887,58.9415397644 L600.52722168,57.6331710815 L601.501342773,56.2137489319 L602.218139648,54.7795906067 L602.631347656,53.433380127 L602.728759766,52.2653121948 L602.525695801,51.3516731262 L602.050292969,50.7606163025 L601.329711914,50.5478935242 L600.37902832,50.7551498413 L599.266296387,51.4061203003 L598.088562012,52.4765319824 L596.983886719,53.8937492371 L596.106201172,55.548324585 L595.591796875,57.300819397 L595.529541016,59.0019721985 L595.970825195,60.5103721619 L596.905029297,61.7038879395 L598.26965332,62.4993629456 L600.036254883,62.778339386 L602.085693359,62.5044212341 L604.241333008,61.7343215942 L606.003051758,60.8591346741 L607.110717773,60.1841468811 M612.258239746,54.8340377808 L612.373352051,54.4371185303 L612.482543945,53.9054412842 L612.491943359,53.4003219604 L612.284423828,53.1555137634 L611.826965332,53.245059967 L611.095581055,53.713558197 L610.170776367,54.5554733276 L609.177734375,55.7437896729 L608.290893555,57.1720199585 L607.676818848,58.6900062561 L607.455688477,60.143245697 L607.662353516,61.4050483704 L608.305053711,62.3902206421 L609.340881348,63.0401573181 L610.698730469,63.3071861267 L612.27722168,63.1604919434 L613.955566406,62.6016616821 L615.607666016,61.680896759 L617.129516602,60.4984550476 L618.435668945,59.1805839539 L619.464599609,57.8524627686 L620.19152832,56.651096344 L620.628295898,55.6831970215 L620.828125,54.9999198914 L620.860839844,54.6180076599 L620.784240723,54.5354919434 L620.613098145,54.759262085 L620.339660645,55.3494911194 L619.963012695,56.3328475952 L619.526000977,57.648979187 L619.093933105,59.1859855652 L618.748840332,60.8117141724 L618.535400391,62.3962783813 L618.446044922,63.8506469727 L618.438903809,65.1018600464 L618.457519531,66.0884399414 L618.440979004,66.783203125 L618.365844727,67.1898345947 L618.229248047,67.2976913452 L618.047729492,67.0809860229 L617.859619141,66.5098495483 L617.712646484,65.5860366821 L617.644897461,64.3575134277 L617.694091797,62.9138145447 L617.879211426,61.3436393738 L618.208251953,59.7276077271 L618.685791016,58.1250686646 L619.315429688,56.5930519104 L620.092285156,55.1843910217 L621.014282227,53.9514198303 L622.065917969,52.9294967651 L623.221313477,52.143119812 L624.44152832,51.5989875793 L625.684082031,51.292350769 L626.904663086,51.2053222656 L628.072753906,51.3150520325 L629.165893555,51.5863723755 L630.163146973,51.9812316895 L631.040771484,52.466960907 L631.773376465,53.0132522583 L632.344848633,53.5967254639 L632.75,54.2008743286 L633.011108398,54.8123435974 L633.167602539,55.4239959717 L633.258850098,56.0293960571 L633.309326172,56.6159362793 L633.338378906,57.1686477661 L633.344726562,57.6537704468 L633.339599609,58.0333251953 L633.336669922,58.2892112732 L633.341064453,58.4169044495 L633.360473633,58.4407234192 L633.390991211,58.4125785828 L633.425231934,58.363067627 L633.461669922,58.3073158264 L633.493408203,58.2557449341 L633.512695312,58.2050857544 L633.523132324,58.1564292908 L633.524047852,58.1209335327 L633.522216797,58.096206665 L633.521362305,58.0758972168 L633.524536133,58.0586128235 L633.533508301,58.0427932739 L633.546020508,58.0281944275 L633.560424805,58.0156173706 L633.570922852,58.0025901794 L633.573120117,57.9847869873 L633.575256348,57.965839386 L633.582885742,57.9487876892 L633.597045898,57.9337005615 L633.618286133,57.9181289673 L633.638427734,57.8993453979 L633.652954102,57.8762168884 L633.665649414,57.8524475098 L633.676513672,57.8320732117 L633.690185547,57.8166046143 L633.712036133,57.806186676 L633.738891602,57.8006134033 L633.76550293,57.7983932495 L633.789733887,57.7958679199 L633.804077148,57.7919845581 L633.813720703,57.7853393555 L633.824584961,57.7766113281 L633.840087891,57.7674369812 L633.862060547,57.758934021 L633.892822266,57.7500534058 L633.923339844,57.7424240112 L633.953735352,57.73229599 L633.976928711,57.7223167419 L633.990112305,57.7143745422 M633.693603516,58.2170639038 L633.589660645,58.4256668091 L633.43737793,58.8512115479 L633.264404297,59.4996261597 L633.119628906,60.2942390442 L633.023376465,61.1581459045 L633.011779785,62.0186576843 L633.118041992,62.8231086731 L633.397583008,63.5337600708 L633.882446289,64.0993118286 L634.588867188,64.4590301514 L635.518554688,64.5569839478 L636.663085938,64.347869873 L637.992919922,63.8224563599 L639.452392578,63.0011825562 L640.947875977,61.9247093201 L642.3671875,60.6507110596 L643.600341797,59.2484855652 L644.564819336,57.7952461243 L645.215942383,56.3793296814 L645.542541504,55.0836753845 L645.555786133,53.9742927551 L645.286865234,53.0983047485 L644.775268555,52.4897155762 L644.069824219,52.1753692627 L643.228149414,52.1788482666 L642.32635498,52.5118484497 L641.452148438,53.1479301453 L640.709228516,54.0273170471 L640.202331543,55.0684394836 L640.02545166,56.1779060364 L640.255371094,57.2645378113 L640.941101074,58.2329216003 L642.090698242,58.9774246216 L643.669189453,59.4078216553 L645.594848633,59.4689559937 L647.748474121,59.1507835388 L649.996582031,58.4903488159 L652.197509766,57.5515174866 L654.22277832,56.4155082703 L655.954589844,55.2003097534 L657.290771484,54.0449295044 L658.194213867,53.0706939697 L658.692321777,52.3714027405 L658.837524414,52.0016326904 L658.696899414,51.9891662598 L658.298339844,52.3745231628 L657.636901855,53.197101593 L656.762695312,54.43384552 L655.782409668,56.0060386658 L654.842529297,57.7774581909 L654.100646973,59.5677566528 L653.651367188,61.1974754333 L653.490234375,62.5344963074 L653.556152344,63.4835929871 L653.772338867,63.9885025024 L654.111450195,64.0197219849 L654.595458984,63.5455703735 L655.270385742,62.5634689331 L656.142944336,61.148235321 L657.174682617,59.4416885376 L658.303344727,57.6074256897 L659.472717285,55.8066940308 L660.637939453,54.1686134338 L661.758789062,52.7958145142 L662.784423828,51.7583618164 L663.660644531,51.091632843 L664.355957031,50.7990493774 L664.850097656,50.8759002686 L665.147705078,51.3264503479 L665.251220703,52.1546974182 L665.169372559,53.3229522705 L664.923461914,54.7526359558 L664.577331543,56.3316345215 L664.206176758,57.9342765808 L663.905517578,59.4443817139 L663.743652344,60.7690887451 L663.739379883,61.8384742737 L663.879699707,62.6200256348 L664.14642334,63.0923309326 L664.524536133,63.2342147827 L665.038208008,63.0263595581 L665.710754395,62.4552764893 L666.536315918,61.5472183228 L667.486083984,60.3783569336 L668.512207031,59.0447654724 L669.55871582,57.6448745728 L670.592895508,56.2702102661 L671.56817627,54.9988555908 L672.4296875,53.9111213684 L673.12487793,53.0669441223 L673.616699219,52.4823455811 L673.8984375,52.143573761 L674.010986328,52.032283783 L673.993347168,52.1592102051 L673.87097168,52.5633850098 L673.656005859,53.2693824768 L673.365356445,54.2516937256 L673.034790039,55.4425354004 L672.73059082,56.7486877441 L672.511962891,58.0767250061 L672.419189453,59.3469276428 L672.455383301,60.4878959656 L672.604370117,61.4423103333 L672.821655273,62.1703796387 L673.05480957,62.6597290039 L673.24987793,62.9350776672 L673.371704102,63.0313987732 L673.415588379,63.0057067871 L673.408935547,62.90650177 L673.384521484,62.7978477478 L673.366271973,62.7162857056 M681.685546875,47.886516571 L681.703735352,47.881149292 L681.690795898,47.9804458618 L681.597473145,48.2924575806 L681.381469727,48.9165763855 L681.041992188,49.8766746521 L680.592651367,51.1535224915 L680.066345215,52.6915283203 L679.499389648,54.4219589233 L678.916015625,56.2720603943 L678.341430664,58.1669044495 L677.795776367,60.0151062012 L677.295043945,61.7110443115 L676.865966797,63.1338539124 L676.533508301,64.191192627 L676.321044922,64.8304977417 L676.219238281,65.1181869507 M676.136962891,55.7762832642 L676.363891602,55.6754798889 L676.897644043,55.5264930725 L677.811523438,55.3556365967 L679.133178711,55.1884727478 L680.771484375,55.0075950623 L682.567504883,54.8027229309 L684.064758301,54.6175422668 L685.019165039,54.4875526428 M690.686645508,54.4346580505 L690.576293945,54.2734642029 L690.287658691,54.0771942139 L689.745178223,53.946018219 L688.927734375,54.0225410461 L687.883605957,54.3641433716 L686.73425293,54.9858970642 L685.64251709,55.8452720642 L684.773132324,56.8759841919 L684.257202148,57.9935493469 L684.167236328,59.1216125488 L684.522216797,60.1864967346 L685.288330078,61.1290588379 L686.391845703,61.8999519348 L687.725524902,62.4606742859 L689.161865234,62.7993850708 L690.569091797,62.923625946 L691.835510254,62.8560028076 L692.882446289,62.6258468628 L693.67791748,62.2599258423 L694.219970703,61.7724075317 L694.519714355,61.1810417175 L694.597167969,60.5091247559 L694.482055664,59.7961349487 L694.210327148,59.0871772766 L693.806152344,58.3706855774 L693.418579102,57.7867736816 L693.138671875,57.4019775391 " fill="none" stroke="black" stroke-linecap="round" stroke-width="1.5" /></svg>