<?xml version="1.0" encoding="utf-8" ?>
<svg baseProfile="full" height="100%" version="1.1" viewBox="0,0,1000,120" width="100%" xmlns="http://www.w3.org/2000/svg" xmlns:ev="http://www.w3.org/2001/xml-events" xmlns:xlink="http://www.w3.org/1999/xlink"><defs /><rect fill="white" height="120" width="1000" x="0" y="0" /><path d="M0,0 M363.108764648,48.0550842285 L363.053924561,47.7790222168 L362.908294678,47.3305435181 L362.623321533,46.7623977661 L362.155212402,46.189994812 L361.459075928,45.6655654907 L360.489501953,45.2505264282 L359.226257324,45.0067062378 L357.702819824,45.0 L355.997894287,45.2716751099 L354.234313965,45.8330459595 L352.544921875,46.6668663025 L351.057067871,47.7357597351 L349.893798828,48.9983406067 L349.168792725,50.3956871033 L348.971496582,51.8627853394 L349.360168457,53.3341369629 L350.328430176,54.7549362183 L351.799468994,56.1005096436 L353.636657715,57.3921813965 L355.644287109,58.6686019897 L357.60736084,59.9658889771 L359.328094482,61.2927627563 L360.652282715,62.633392334 L361.477905273,63.9553375244 L361.765808105,65.2342376709 L361.501861572,66.4384307861 L360.701049805,67.5259552002 L359.405426025,68.4399108887 L357.695861816,69.1191635132 L355.69140625,69.5091705322 L353.552185059,69.5994110107 L351.459655762,69.3687133789 L349.611022949,68.8556594849 L348.161499023,68.1454772949 L347.236724854,67.4863891602 L346.790618896,67.0339279175 M368.154418945,59.0461235046 L368.191467285,59.0006103516 L368.227661133,59.0029830933 L368.205596924,59.1706886292 L368.037719727,59.6502914429 L367.660491943,60.5481681824 L367.10333252,61.8682022095 L366.481658936,63.5069770813 L365.964630127,65.2693634033 L365.723358154,66.923538208 L365.863739014,68.2536392212 L366.417419434,69.1113357544 L367.368682861,69.4030761719 L368.67767334,69.0968017578 L370.286773682,68.2127075195 L372.104705811,66.838218689 L374.009307861,65.1237258911 L375.831115723,63.2942237854 L377.387695312,61.604434967 L378.552032471,60.2635536194 L379.283477783,59.3580627441 L379.609741211,58.8910713196 L379.619384766,58.8320732117 L379.377624512,59.1987876892 L378.918395996,60.0604400635 L378.299072266,61.4322929382 L377.646575928,63.1637039185 L377.130340576,65.0077438354 L376.936187744,66.6872634888 L377.194335938,67.986038208 L377.945861816,68.7844467163 L379.172088623,69.0216827393 L380.824951172,68.6461791992 L382.826538086,67.6506576538 L385.081481934,66.0823669434 L387.479431152,64.0392227173 L389.896240234,61.6560935974 L392.219360352,59.0946998596 L394.343322754,56.5202560425 L396.17565918,54.1087913513 L397.629486084,52.0382385254 L398.668518066,50.4261169434 L399.28817749,49.3327064514 L399.515960693,48.790687561 L399.364807129,48.8339958191 L398.833709717,49.5313186646 L397.911651611,50.9540748596 L396.687561035,53.0534210205 L395.319488525,55.6631660461 L394.029174805,58.5224571228 L393.021728516,61.3327560425 L392.439575195,63.8343811035 L392.328735352,65.856918335 L392.683654785,67.2808227539 L393.440124512,68.0495758057 L394.516418457,68.1494064331 L395.808746338,67.6003646851 L397.18536377,66.4757080078 L398.487182617,64.9366226196 L399.548156738,63.1883926392 L400.238342285,61.4599342346 L400.53024292,59.9564285278 L400.505157471,58.8101158142 L400.303527832,58.0576667786 L400.071380615,57.6794013977 L399.913330078,57.6088485718 L399.893920898,57.7825393677 L400.090209961,58.1341362 L400.599365234,58.568523407 L401.506072998,58.9296836853 L402.835845947,59.068321228 L404.524963379,58.8914680481 L406.420959473,58.4155769348 L408.307067871,57.7597427368 L409.951660156,57.0874557495 L411.190429688,56.5115814209 L411.947113037,56.1240615845 L412.238098145,55.9971618652 L412.145782471,56.2181854248 L411.727355957,56.9179420471 L411.001098633,58.2141227722 L410.006500244,60.1202354431 L408.804199219,62.5775566101 L407.481201172,65.4370422363 L406.149963379,68.4989929199 L404.894042969,71.5533905029 L403.778747559,74.3585357666 L402.869750977,76.6714630127 L402.208374023,78.3553924561 L401.809631348,79.355682373 L401.664733887,79.6839828491 L401.75,79.3752746582 L402.065551758,78.4078369141 L402.63671875,76.7726593018 L403.47857666,74.5807495117 L404.591522217,72.0101470947 L405.953430176,69.2752151489 L407.526977539,66.583442688 L409.278381348,64.0833816528 L411.172607422,61.8870658875 L413.151550293,60.1093139648 L415.135253906,58.8341217041 L417.04019165,58.1069908142 L418.776367188,57.9301300049 L420.258392334,58.2711372375 L421.403259277,59.0597610474 L422.127319336,60.2002029419 L422.352355957,61.5778083801 L422.042541504,63.0614128113 L421.211608887,64.5082397461 L419.936218262,65.7763366699 L418.349914551,66.7461853027 L416.627258301,67.3348617554 L414.948547363,67.5113983154 L413.478149414,67.2924346924 L412.346252441,66.7379684448 L411.63659668,65.9295806885 L411.389526367,64.9646911621 L411.622253418,63.9469451904 L412.318359375,62.9728469849 L413.431884766,62.1137161255 L414.898925781,61.4172744751 L416.632324219,60.8975601196 L418.531433105,60.5458602905 L420.504486084,60.349105835 L422.458831787,60.2905960083 L424.312255859,60.3575553894 L425.983001709,60.5324249268 L427.390075684,60.7957687378 L428.461608887,61.1393966675 L429.146911621,61.5773963928 L429.425598145,62.1492729187 L429.324707031,62.9064903259 L428.89251709,63.8501396179 L428.239776611,64.9054031372 L427.519470215,65.9236679077 L426.886444092,66.7501754761 L426.44921875,67.3064041138 L426.239501953,67.5794830322 L426.203979492,67.5739212036 L426.301422119,67.2625808716 L426.526916504,66.5761108398 L426.91506958,65.4897766113 L427.492919922,64.0924835205 L428.25793457,62.5261230469 L429.180297852,60.9469184875 L430.236328125,59.4795761108 L431.413635254,58.2016525269 L432.704833984,57.1718673706 L434.08404541,56.4464759827 L435.51385498,56.03956604 L436.961364746,55.9306373596 L438.405151367,56.063041687 L439.832855225,56.3546066284 L441.236633301,56.7112579346 L442.583862305,57.0503730774 L443.803955078,57.3058013916 L444.809265137,57.4559555054 L445.534790039,57.5074882507 L445.949584961,57.4858779907 L446.075805664,57.4229011536 L445.926574707,57.3669319153 L445.473999023,57.3833198547 L444.671386719,57.5727844238 L443.516174316,58.0348091125 L442.07119751,58.8341064453 L440.491760254,59.966545105 L438.982696533,61.3563079834 L437.751525879,62.8665084839 L436.972900391,64.3430404663 L436.761291504,65.6308746338 L437.146057129,66.5950546265 L438.081604004,67.134513855 L439.466949463,67.1854934692 L441.15927124,66.7298965454 L442.986572266,65.811416626 L444.761322021,64.5251922607 L446.302185059,63.0050506592 L447.466430664,61.4046783447 L448.178741455,59.8699989319 L448.449462891,58.5289993286 L448.365844727,57.4729042053 L448.064819336,56.7418861389 L447.703979492,56.3340187073 L447.429504395,56.2122421265 L447.361968994,56.3131408691 L447.613769531,56.562702179 L448.282470703,56.8648757935 L449.420593262,57.1021690369 L451.025054932,57.1796646118 L453.011108398,57.0520057678 L455.231445312,56.7305603027 L457.480407715,56.2909927368 L459.516326904,55.8370285034 L461.126098633,55.4515609741 L462.195831299,55.1806488037 L462.711151123,55.033454895 L462.764343262,54.9934768677 L462.43963623,55.0721740723 L461.759735107,55.3138961792 L460.734954834,55.7768745422 L459.415008545,56.4978637695 L457.892211914,57.4798049927 L456.321166992,58.6817970276 L454.868865967,60.043258667 L453.672180176,61.475315094 L452.848419189,62.8826904297 L452.492797852,64.1661224365 L452.670776367,65.2386016846 L453.412109375,66.0185546875 L454.722106934,66.4434814453 L456.548828125,66.4576034546 L458.790893555,66.0497589111 L461.296813965,65.2524185181 L463.88671875,64.1381912231 L466.362915039,62.7922592163 L468.550811768,61.3144760132 L470.309020996,59.805355072 L471.555419922,58.3766098022 L472.273834229,57.123588562 L472.503692627,56.1203384399 L472.301025391,55.4203033447 L471.719940186,55.0804595947 L470.80178833,55.1678123474 L469.599914551,55.741558075 L468.22052002,56.7987556458 L466.830749512,58.2479019165 L465.624328613,59.9284286499 L464.783569336,61.6504211426 L464.442199707,63.2402381897 L464.673828125,64.5583496094 L465.502502441,65.4951629639 L466.909088135,65.9617843628 L468.829620361,65.9085693359 L471.152893066,65.341003418 L473.734375,64.3313598633 L476.404602051,62.9965820312 L478.999084473,61.4754714966 L481.379516602,59.9050636292 L483.459411621,58.4170074463 L485.179504395,57.1341018677 L486.51776123,56.1466217041 L487.491241455,55.5145263672 L488.157043457,55.2674293518 L488.591369629,55.415271759 L488.890686035,55.9631118774 L489.096710205,56.8949203491 L489.209533691,58.1339187622 L489.211914062,59.572593689 L489.078155518,61.084980011 L488.78024292,62.5500679016 L488.311645508,63.8719406128 L487.673400879,64.9775009155 L486.893859863,65.8043136597 L486.037567139,66.3254699707 L485.189941406,66.5563430786 L484.43057251,66.5527648926 L483.816772461,66.3952941895 L483.380126953,66.1693344116 L483.113037109,65.9405517578 L483.011047363,65.7560653687 L483.094055176,65.6399459839 L483.416442871,65.5840759277 L484.059997559,65.5414352417 L485.101257324,65.4349822998 L486.556671143,65.1723098755 L488.396331787,64.6829681396 L490.541564941,63.9337348938 L492.887451172,62.927696228 L495.325195312,61.6984519958 L497.747314453,60.3046417236 L500.049133301,58.8232116699 L502.144958496,57.3577384949 L503.975585938,56.0323028564 L505.493591309,54.9515190125 L506.688140869,54.1912918091 L507.587219238,53.7956542969 L508.248687744,53.7813873291 L508.749084473,54.1586112976 L509.161651611,54.9350738525 L509.493988037,56.0617523193 L509.725646973,57.4458656311 L509.820373535,58.9646034241 L509.737060547,60.4879417419 L509.446746826,61.9091529846 L508.936645508,63.1576728821 L508.193054199,64.1790008545 L507.237609863,64.9351501465 L506.139953613,65.4023284912 L505.035827637,65.6029052734 L504.071899414,65.5880432129 L503.370635986,65.4445571899 L502.973602295,65.2659759521 L502.831787109,65.1120681763 L502.835723877,64.9948959351 L502.905548096,64.9250946045 L502.978088379,64.8833770752 L503.03894043,64.8643264771 L503.09197998,64.8627243042 L503.140930176,64.8713684082 L503.179443359,64.8784790039 L503.21472168,64.8858032227 L503.244842529,64.8878707886 L503.272613525,64.8870162964 L503.299072266,64.8824386597 L503.324584961,64.8759689331 L503.348815918,64.8692626953 L503.374450684,64.8645477295 L503.401397705,64.8626174927 L503.429321289,64.8638381958 L503.457336426,64.8676986694 L503.484985352,64.8721466064 L503.515258789,64.8790893555 L503.549163818,64.8865814209 L503.583496094,64.8927764893 L503.618133545,64.8963241577 L503.645385742,64.8976669312 L503.661895752,64.8965301514 M524.630859375,65.3243103027 L525.103942871,65.1912765503 L525.997802734,64.8863220215 L527.301635742,64.3588027954 L528.851501465,63.5964050293 L530.52746582,62.6128845215 L532.198913574,61.4472846985 L533.7578125,60.1646156311 L535.092285156,58.8513793945 L536.108154297,57.6034812927 L536.737548828,56.4893569946 L536.960449219,55.5642166138 L536.780517578,54.864315033 L536.212341309,54.434513092 L535.272583008,54.3626060486 L533.996398926,54.7467155457 L532.467163086,55.639087677 L530.834716797,57.015586853 L529.287902832,58.7618942261 L528.021362305,60.6917381287 L527.205566406,62.612071991 L526.955810547,64.3461914062 L527.326782227,65.7469787598 L528.317382812,66.7046432495 L529.871337891,67.1487731934 L531.898681641,67.0497436523 L534.285461426,66.4333190918 L536.89642334,65.3739471436 L539.585083008,63.9747695923 L542.213989258,62.3549003601 L544.660827637,60.6356391907 L546.846313477,58.9494056702 L548.705200195,57.4325752258 L550.174682617,56.2016220093 L551.220703125,55.3263549805 L551.861328125,54.8309936523 L552.155883789,54.7154655457 L552.196289062,54.9848327637 L552.030883789,55.6490135193 L551.62878418,56.6909599304 L550.931091309,58.0385818481 L549.899230957,59.5762786865 L548.541320801,61.1699295044 L546.937438965,62.6890258789 L545.212768555,64.0208740234 L543.498840332,65.0722732544 L541.935791016,65.7785644531 L540.647338867,66.1162490845 L539.713134766,66.1338653564 L539.14050293,65.9288711548 L538.887695312,65.6244430542 L538.88494873,65.3344955444 L539.105957031,65.1315994263 L539.587768555,65.0195541382 L540.422058105,64.9791870117 L541.65838623,64.9461364746 L543.31427002,64.8532943726 L545.338623047,64.633682251 L547.642089844,64.2306900024 L550.115722656,63.5999336243 L552.637695312,62.727142334 L555.040466309,61.6178588867 L557.16583252,60.3338890076 L558.8671875,58.9804420471 L560.042663574,57.6799697876 L560.668334961,56.5383605957 L560.782287598,55.6204338074 L560.449829102,54.9667205811 L559.745483398,54.6316184998 L558.736328125,54.7011680603 L557.484558105,55.2466583252 L556.084594727,56.2856750488 L554.664306641,57.7496948242 L553.367797852,59.4903450012 L552.345031738,61.3313293457 L551.723266602,63.1083984375 L551.585449219,64.6762466431 L551.981750488,65.920135498 L552.92565918,66.7485427856 L554.389221191,67.0866851807 L556.311340332,66.9073410034 L558.599243164,66.2422180176 L561.119873047,65.1832504272 L563.734008789,63.8721199036 L566.311279297,62.464881897 L568.740783691,61.1038475037 L570.935424805,59.909942627 L572.843811035,58.9813232422 L574.427490234,58.3769378662 L575.672607422,58.1051445007 L576.58380127,58.1036300659 L577.188659668,58.2674827576 L577.533996582,58.4789009094 L577.698486328,58.6621856689 L577.753540039,58.776386261 L577.739013672,58.8018341064 L577.645263672,58.718170166 L577.42364502,58.5200691223 L577.009094238,58.2336349487 L576.356994629,57.9546546936 L575.432495117,57.8118209839 L574.229553223,57.9360275269 L572.774475098,58.4257469177 L571.143798828,59.3254547119 L569.47253418,60.605178833 L567.940307617,62.1576156616 L566.729492188,63.8050765991 L565.989257812,65.3411712646 L565.801513672,66.5764083862 L566.181396484,67.3743286133 L567.098693848,67.6544036865 L568.496948242,67.3827133179 L570.294311523,66.5762329102 L572.373901367,65.3201828003 L574.57220459,63.7547569275 L576.696166992,62.0578842163 L578.552124023,60.4325675964 L579.993408203,59.060333252 L580.972412109,58.0381622314 L581.518981934,57.4079666138 L581.697753906,57.1746826172 L581.580749512,57.3479919434 L581.19909668,57.9795837402 L580.583374023,59.1043205261 L579.847290039,60.6166687012 L579.139282227,62.3093910217 L578.627685547,63.9266357422 L578.463745117,65.2512893677 L578.727539062,66.1438217163 L579.44720459,66.5442428589 L580.634887695,66.408782959 L582.25982666,65.7403488159 L584.24420166,64.6069107056 L586.465087891,63.1570320129 L588.763183594,61.5711479187 L590.970947266,60.0489349365 L592.942565918,58.7652130127 L594.57220459,57.8347358704 L595.786010742,57.3354797363 L596.545898438,57.3169403076 L596.840942383,57.7954330444 L596.683349609,58.7570762634 L596.117675781,60.1422309875 L595.247558594,61.7760124207 L594.252807617,63.4235954285 L593.336914062,64.8523864746 L592.654052734,65.9029159546 L592.278320312,66.4938659668 L592.212097168,66.6176681519 L592.46496582,66.2622375488 L593.090332031,65.419342041 L594.14654541,64.1445083618 L595.625366211,62.5861091614 L597.444946289,60.9317626953 L599.457702637,59.381855011 L601.519287109,58.0928421021 L603.495727539,57.1554069519 L605.280944824,56.618637085 L606.778503418,56.5041503906 L607.917358398,56.7975234985 L608.640014648,57.4661026001 L608.928710938,58.4594993591 L608.797851562,59.7068977356 L608.309509277,61.1028289795 L607.586364746,62.5008125305 L606.801330566,63.7419662476 L606.114990234,64.7073440552 L605.634033203,65.3254089355 L605.407958984,65.5727005005 L605.438659668,65.4457244873 L605.747436523,64.9314727783 L606.38671875,64.0386123657 L607.397949219,62.8487358093 L608.762023926,61.4893035889 L610.416870117,60.1053962708 L612.250610352,58.8257637024 L614.152770996,57.7464981079 L615.999755859,56.9255485535 L617.672363281,56.409576416 L619.063842773,56.2200698853 L620.106079102,56.3567504883 L620.758789062,56.8035964966 L621.034790039,57.5453987122 L620.953125,58.5370826721 L620.573120117,59.7074928284 L620.008605957,60.96043396 L619.402099609,62.185382843 L618.885070801,63.2765312195 L618.562133789,64.1719436646 L618.474975586,64.8442230225 L618.62878418,65.2896499634 L619.035461426,65.5068130493 L619.716796875,65.4715042114 L620.702758789,65.1498184204 L622.003234863,64.5363540649 L623.588378906,63.6570663452 L625.392456055,62.5757598877 L627.333007812,61.3741073608 L629.309936523,60.1344528198 L631.224914551,58.9501342773 L632.954589844,57.924041748 L634.379821777,57.1353492737 L635.420776367,56.6513137817 L636.051757812,56.5266456604 L636.280639648,56.8062057495 L636.145385742,57.5441017151 L635.658325195,58.7855606079 L634.83984375,60.519947052 L633.730957031,62.6842651367 L632.403686523,65.1707458496 L630.946350098,67.8256988525 L629.456176758,70.4916992188 L628.02154541,72.9872360229 L626.745361328,75.1213226318 L625.711425781,76.7495269775 L624.982727051,77.7814559937 L624.589599609,78.1692733765 L624.529663086,77.9262695312 L624.79888916,77.0571899414 L625.41796875,75.5863952637 L626.396484375,73.6173019409 L627.731750488,71.2995147705 L629.397094727,68.7994689941 L631.342041016,66.2865829468 L633.508544922,63.8903045654 L635.83996582,61.7112998962 L638.266113281,59.849521637 L640.702392578,58.3837356567 L643.050109863,57.3639183044 L645.210388184,56.8045578003 L647.092041016,56.6882705688 L648.61505127,56.9688110352 L649.713195801,57.5876426697 L650.33203125,58.473991394 L650.437316895,59.5533103943 L650.028564453,60.7345275879 L649.151489258,61.9150123596 L647.887939453,62.9763259888 L646.358215332,63.8127441406 L644.702758789,64.3463439941 L643.06640625,64.550163269 L641.578735352,64.4530105591 L640.346862793,64.1411819458 L639.420043945,63.7135848999 L638.804443359,63.2701377869 L638.467285156,62.8913879395 L638.349609375,62.6254959106 L638.400146484,62.5048217773 L638.612792969,62.5543937683 L639.024230957,62.7748336792 L639.709411621,63.1245880127 L640.757995605,63.5150527954 L642.230957031,63.8083229065 L644.161193848,63.8616142273 L646.546447754,63.5617752075 L649.337402344,62.8504295349 L652.439819336,61.716796875 L655.710449219,60.1971893311 L658.974243164,58.3529777527 L662.062683105,56.2722816467 L664.82043457,54.0611724854 L667.120788574,51.8483390808 L668.881469727,49.7808990479 L670.061157227,47.9940490723 L670.667602539,46.5942955017 L670.732666016,45.6651611328 L670.286132812,45.2720565796 L669.355224609,45.4848747253 L667.975830078,46.3694038391 L666.241577148,47.9208106995 L664.313720703,50.0440177917 L662.396911621,52.5645866394 L660.711181641,55.2574119568 L659.451904297,57.9017677307 L658.754943848,60.3112068176 L658.705078125,62.3388519287 L659.320678711,63.8764953613 L660.565551758,64.8575057983 L662.358520508,65.2486724854 L664.57043457,65.0611953735 L667.015563965,64.3466186523 L669.480224609,63.2191734314 L671.738647461,61.8267173767 L673.595581055,60.337020874 L674.927368164,58.903629303 L675.682434082,57.6477355957 L675.858520508,56.6575965881 L675.490844727,56.0251846313 L674.632568359,55.8321037292 L673.362060547,56.1508712769 L671.828979492,56.9960517883 L670.246337891,58.2914085388 L668.873046875,59.8962554932 L667.963317871,61.635509491 L667.731445312,63.330242157 L668.31842041,64.8262710571 L669.791809082,65.9873962402 L672.115539551,66.7099075317 L675.128479004,66.9697113037 L678.623046875,66.7831954956 L682.422973633,66.2009887695 L685.604736328,65.5419769287 L687.69354248,65.0268859863 " fill="none" stroke="black" stroke-linecap="round" stroke-width="1.5" /></svg>