<?xml version="1.0" encoding="utf-8" ?>
<svg baseProfile="full" height="100%" version="1.1" viewBox="0,0,1000,600" width="100%" xmlns="http://www.w3.org/2000/svg" xmlns:ev="http://www.w3.org/2001/xml-events" xmlns:xlink="http://www.w3.org/1999/xlink"><defs /><rect fill="white" height="600" width="1000" x="0" y="0" /><path d="M0,0 M452.239135742,45.9283905029 L452.257751465,46.0748901367 L452.296173096,46.5032806396 L452.334899902,47.3535270691 L452.33001709,48.6847190857 L452.229156494,50.4775161743 L451.999847412,52.6551055908 L451.644775391,55.1049842834 L451.21496582,57.688621521 L450.791381836,60.2465744019 L450.449707031,62.5772247314 L450.228149414,64.5211105347 L450.144958496,65.9027099609 L450.182373047,66.6374435425 L450.317352295,66.7529983521 L450.475708008,66.5309371948 L450.602874756,66.2313842773 M463.006988525,47.5267028809 L463.057189941,47.4456100464 L463.02243042,47.4618759155 L462.751342773,47.7219429016 L462.067199707,48.3641052246 L460.885009766,49.3874740601 L459.218597412,50.7122917175 L457.20199585,52.1970596313 L455.056671143,53.6958999634 L453.045715332,55.0620346069 L451.3956604,56.1916236877 L450.243530273,57.0318183899 L449.628448486,57.59608078 L449.524169922,57.9485969543 L449.882110596,58.1786651611 L450.67288208,58.3598442078 L451.8621521,58.547794342 L453.363708496,58.7870941162 L455.058105469,59.1152877808 L456.803344727,59.564994812 L458.467102051,60.1536750793 L459.965820312,60.870677948 L461.262023926,61.6816101074 L462.342376709,62.5406951904 L463.23248291,63.366607666 L463.955841064,64.0661392212 L464.53302002,64.5567703247 L464.930175781,64.8206176758 L465.151794434,64.9080505371 M468.631011963,55.476184845 L468.634063721,55.5188598633 L468.626068115,55.7525863647 L468.581268311,56.3056221008 L468.475463867,57.2462882996 L468.308746338,58.5192489624 L468.123840332,60.0103912354 L468.001159668,61.5597648621 L468.023071289,63.0054626465 L468.239990234,64.1980667114 L468.672241211,65.0139770508 L469.314605713,65.3630523682 L470.152160645,65.1984024048 L471.174316406,64.5125732422 L472.334411621,63.3599052429 L473.549194336,61.8489570618 L474.726593018,60.1448326111 L475.764526367,58.4560852051 L476.582489014,56.9823379517 L477.156890869,55.8513755798 L477.496582031,55.1320495605 L477.633087158,54.8493156433 L477.621765137,55.0165328979 L477.493560791,55.6689796448 L477.269866943,56.8151054382 L476.999359131,58.3487205505 L476.754882812,60.0832481384 L476.615966797,61.8003082275 L476.689727783,63.2762985229 L477.008178711,64.3647232056 L477.535430908,65.0135421753 L478.062927246,65.2917480469 L478.441772461,65.3397674561 M483.008270264,56.030506134 L483.040283203,56.1596794128 L483.077514648,56.5501213074 L483.079223633,57.3118591309 L482.999694824,58.4525337219 L482.81338501,59.8577041626 L482.553741455,61.3387718201 L482.287750244,62.6923904419 L482.081268311,63.7686843872 L481.965362549,64.4756164551 L481.943817139,64.7623138428 L481.997131348,64.6028137207 L482.134613037,63.9703178406 L482.390625,62.8864517212 L482.802124023,61.4582748413 L483.399749756,59.844165802 L484.201080322,58.2167892456 L485.195800781,56.7279548645 L486.356262207,55.4811897278 L487.635620117,54.5597724915 L488.963684082,54.0341911316 L490.26373291,53.9472236633 L491.460601807,54.3054466248 L492.483337402,55.0853271484 L493.273986816,56.2306365967 L493.799316406,57.6548080444 L494.06628418,59.2383117676 L494.117889404,60.8376274109 L494.0625,62.2955131531 L494.015075684,63.4756774902 L494.064331055,64.2992248535 L494.179016113,64.7603378296 L494.301757812,64.9458236694 M504.820709229,57.586479187 L504.800567627,57.2369232178 L504.694976807,56.721622467 L504.427001953,56.1597747803 L503.921539307,55.7486839294 L503.137298584,55.573348999 L502.084716797,55.7069244385 L500.831176758,56.1809997559 L499.50012207,57.0175476074 L498.24432373,58.1756629944 L497.215637207,59.5537147522 L496.538146973,61.0042037964 L496.293518066,62.3638305664 L496.516357422,63.4727897644 L497.196258545,64.2033615112 L498.276855469,64.4670181274 L499.665924072,64.2265319824 L501.238433838,63.5053634644 L502.8465271,62.388961792 L504.341674805,61.0097618103 L505.590026855,59.5458755493 L506.501312256,58.1833457947 L507.068115234,57.0624847412 L507.339172363,56.2675209045 L507.397491455,55.840461731 L507.323669434,55.799987793 L507.167236328,56.1822090149 L506.955871582,57.010597229 L506.741943359,58.2308998108 L506.585723877,59.7108421326 L506.563415527,61.2801818848 L506.728393555,62.7748908997 L507.136230469,64.0313568115 L507.774627686,64.9307098389 L508.585388184,65.407043457 L509.316650391,65.5490341187 L509.812927246,65.5077972412 M515.815063477,46.5923690796 L515.854614258,46.6026115417 L515.896362305,46.7903823853 L515.89831543,47.3024787903 L515.805114746,48.2472572327 L515.595214844,49.6141662598 L515.278503418,51.337223053 L514.901977539,53.3108062744 L514.533813477,55.4170684814 L514.24029541,57.5238838196 L514.077636719,59.507068634 L514.059631348,61.2519874573 L514.187561035,62.6708145142 L514.436889648,63.7124023438 L514.771789551,64.3745269775 L515.078125,64.708366394 L515.294189453,64.8229370117 M547.804626465,47.3229103088 L547.621459961,46.9703521729 L547.249694824,46.438205719 L546.63671875,45.8354721069 L545.766540527,45.3496017456 L544.615234375,45.0536079407 L543.21081543,45.0 L541.645324707,45.2013206482 L540.080444336,45.6717071533 L538.690307617,46.3917732239 L537.631652832,47.3260116577 L537.018371582,48.4266319275 L536.919555664,49.6416091919 L537.371765137,50.9191856384 L538.376403809,52.2150497437 L539.873596191,53.4914398193 L541.739013672,54.73387146 L543.790527344,55.9472770691 L545.813354492,57.1434288025 L547.606262207,58.3309707642 L549.016723633,59.5015182495 L549.949279785,60.6294250488 L550.364257812,61.6824417114 L550.257507324,62.6322746277 L549.633483887,63.4503440857 L548.503662109,64.1109313965 L546.899536133,64.5880432129 L544.894042969,64.8651657104 L542.611083984,64.9421386719 L540.213317871,64.8377227783 L537.876831055,64.5815048218 L535.751831055,64.2151565552 L533.998291016,63.760383606 L532.740905762,63.2529029846 L532.039978027,62.7367324829 L531.781433105,62.3234100342 L531.781799316,62.0666656494 M559.409179688,57.4152069092 L559.251525879,57.1439170837 L558.945373535,56.7328567505 L558.455078125,56.2749061584 L557.771850586,55.9388046265 L556.868713379,55.8211021423 L555.755004883,56.0043640137 L554.489013672,56.531917572 L553.182678223,57.4186286926 L551.97088623,58.6199493408 L550.991821289,60.0394897461 L550.364257812,61.5356750488 L550.166625977,62.9475593567 L550.434448242,64.1156921387 L551.152954102,64.9044265747 L552.262756348,65.2190475464 L553.669921875,65.0157394409 L555.256591797,64.3091201782 L556.887512207,63.1758918762 L558.429077148,61.7452011108 L559.762512207,60.1826667786 L560.798156738,58.6784744263 L561.503417969,57.3947525024 L561.904602051,56.4351348877 L562.064575195,55.8559417725 L562.058166504,55.6853790283 L561.948974609,55.9418869019 L561.770935059,56.6528549194 L561.566162109,57.7936401367 L561.393432617,59.2485351562 L561.320068359,60.8483352661 L561.405029297,62.409538269 L561.711120605,63.7374267578 L562.229431152,64.6987762451 L562.904968262,65.2339859009 L563.520996094,65.4243927002 L563.938598633,65.4177627563 M567.424194336,56.590473175 L567.446655273,56.7226638794 L567.467285156,57.1114387512 L567.457763672,57.8624076843 L567.379150391,58.9763374329 L567.23034668,60.3381118774 L567.03717041,61.7568206787 L566.852539062,63.036151886 L566.722167969,64.0322799683 L566.667419434,64.6605987549 L566.679626465,64.8724212646 L566.765136719,64.6443405151 L566.944458008,63.957611084 L567.26184082,62.8499221802 L567.755737305,61.4394836426 L568.448303223,59.8896980286 L569.338562012,58.3720779419 L570.406066895,57.0319824219 L571.607543945,55.9672241211 L572.887573242,55.2505912781 L574.176086426,54.9362716675 L575.40057373,55.0508308411 L576.498168945,55.5918006897 L577.411132812,56.5288619995 L578.090820312,57.8001098633 L578.518981934,59.3098182678 L578.717041016,60.9263191223 L578.746948242,62.5095100403 L578.725036621,63.8780059814 L578.754272461,64.8785629272 L578.897583008,65.4263381958 L579.090026855,65.6090774536 L579.256164551,65.5836410522 M586.337890625,47.1454162598 L586.370727539,47.1256103516 L586.429199219,47.2624473572 L586.494506836,47.7069625854 L586.524658203,48.5784187317 L586.479003906,49.8652496338 L586.33996582,51.4982872009 L586.122253418,53.3730010986 L585.864807129,55.3813705444 L585.615661621,57.4094085693 L585.407836914,59.3447189331 L585.258911133,61.078578949 L585.158935547,62.4974403381 L585.086425781,63.5167770386 L585.017456055,64.1071472168 L584.957519531,64.3497161865 L584.912597656,64.3828353882 " fill="none" stroke="black" stroke-linecap="round" stroke-width="2" /><path d="M0,0 M422.055603027,107.487174988 L422.089355469,107.445159912 L422.123687744,107.476257324 L422.126220703,107.717971802 L422.03604126,108.338729858 L421.797851562,109.461174011 L421.373931885,111.12701416 L420.727172852,113.29372406 L419.869598389,115.864456177 L418.852874756,118.688331604 L417.759094238,121.584236145 L416.705749512,124.329162598 L415.814453125,126.679359436 L415.166381836,128.448074341 L414.794891357,129.571807861 L414.644012451,130.128814697 L414.619720459,130.316070557 M430.426208496,110.820419312 L430.487060547,110.860290527 L430.437683105,111.057479858 L430.111968994,111.542144775 L429.33883667,112.391044617 L428.094970703,113.581306458 L426.460083008,115.017234802 L424.60369873,116.560997009 L422.750061035,118.069969177 L421.120666504,119.438087463 L419.870300293,120.575523376 L419.085083008,121.445465088 L418.765594482,122.073242188 L418.851043701,122.535049438 L419.293487549,122.916854858 L420.059844971,123.279640198 L421.121917725,123.640510559 L422.426208496,123.977653503 L423.910736084,124.249404907 L425.503387451,124.407867432 L427.160797119,124.398338318 L428.852539062,124.159194946 L430.562713623,123.648445129 L432.252929688,122.842910767 L433.875854492,121.778541565 L435.361968994,120.543968201 L436.631469727,119.288749695 L437.608398438,118.176872253 L438.26675415,117.318405151 L438.619537354,116.762321472 L438.715698242,116.529029846 L438.604309082,116.630249023 L438.303710938,117.131881714 L437.823486328,118.103630066 L437.22454834,119.501350403 L436.620056152,121.180610657 L436.154174805,122.916137695 L435.946960449,124.468788147 L436.048675537,125.673149109 L436.447814941,126.448806763 L437.117828369,126.74912262 L438.048339844,126.563789368 L439.235351562,125.892417908 L440.65032959,124.777893066 L442.224609375,123.318511963 L443.847320557,121.669746399 L445.394622803,120.01650238 L446.744384766,118.548225403 L447.797607422,117.394973755 L448.509124756,116.609573364 L448.886047363,116.190612793 L448.975097656,116.127914429 L448.844451904,116.441619873 L448.524475098,117.189750671 L448.043395996,118.386108398 L447.481536865,119.927246094 L446.95010376,121.616577148 L446.583435059,123.223968506 L446.497741699,124.555595398 L446.745697021,125.497634888 L447.331939697,125.986808777 L448.258544922,125.987106323 L449.501647949,125.485939026 L451.018737793,124.518218994 L452.735046387,123.179756165 L454.554016113,121.622497559 L456.362243652,120.018936157 L458.044494629,118.551040649 L459.484405518,117.355804443 L460.594696045,116.520278931 L461.321166992,116.092323303 L461.661773682,116.099739075 L461.659423828,116.561500549 L461.350402832,117.492340088 L460.776733398,118.83543396 L460.023376465,120.445663452 L459.207580566,122.096839905 L458.473175049,123.552307129 L457.930541992,124.654914856 L457.618621826,125.340866089 L457.533935547,125.593643188 L457.68270874,125.414657593 L458.114959717,124.782913208 L458.90447998,123.708366394 L460.068756104,122.303634644 L461.565551758,120.74874115 L463.291870117,119.239730835 L465.110900879,117.949752808 L466.901031494,116.985275269 L468.558807373,116.400238037 L469.992156982,116.22731781 L471.135162354,116.471664429 L471.942810059,117.109992981 L472.393981934,118.098968506 L472.508850098,119.364959717 L472.362487793,120.793907166 L472.080413818,122.24016571 L471.805603027,123.555343628 L471.645294189,124.624229431 L471.653717041,125.381469727 L471.843841553,125.801200867 L472.232421875,125.870933533 L472.856872559,125.578422546 L473.763000488,124.925453186 L474.964355469,123.961959839 L476.437957764,122.781021118 L478.131835938,121.503486633 L479.991149902,120.248046875 L481.965789795,119.118515015 L484.000457764,118.187316895 L486.029052734,117.510398865 L487.962097168,117.102035522 L489.69152832,116.932304382 L491.110656738,116.929206848 L492.144958496,117.015991211 L492.779510498,117.117385864 L493.086761475,117.197097778 L493.156707764,117.232040405 L493.048156738,117.214035034 L492.758209229,117.149085999 L492.222961426,117.079040527 L491.374237061,117.076133728 L490.203186035,117.245666504 L488.742767334,117.677894592 L487.083862305,118.433639526 L485.367614746,119.515945435 L483.765441895,120.856430054 L482.460388184,122.316886902 L481.599731445,123.723922729 L481.261871338,124.905418396 L481.45690918,125.731445312 L482.147613525,126.119789124 L483.284301758,126.025131226 L484.802459717,125.434967041 L486.593719482,124.395751953 L488.516113281,123.019973755 L490.393615723,121.470802307 L492.040039062,119.944869995 L493.31854248,118.626060486 L494.181274414,117.621459961 L494.647735596,116.984077454 L494.773986816,116.735946655 L494.620452881,116.898681641 L494.215209961,117.521812439 L493.601989746,118.632606506 L492.903259277,120.127929688 L492.294311523,121.807228088 L491.955413818,123.429771423 L492.032165527,124.776260376 L492.593383789,125.697128296 L493.6534729,126.103385925 L495.203552246,125.920547485 L497.206237793,125.115936279 L499.58480835,123.724189758 L502.214172363,121.834571838 L504.943237305,119.578796387 L507.616271973,117.100852966 L510.091217041,114.54120636 L512.250610352,112.042755127 L513.993896484,109.762580872 L515.249511719,107.836975098 L515.987182617,106.367126465 L516.209350586,105.408287048 L515.940368652,105.0 L515.210693359,105.196533203 L514.044555664,106.069717407 L512.510864258,107.639274597 L510.738372803,109.829025269 L508.914825439,112.459083557 L507.26574707,115.284484863 L506.009155273,118.052246094 L505.28414917,120.557952881 L505.269470215,122.629119873 L506.002990723,124.153938293 L507.386627197,125.105369568 L508.828063965,125.568984985 L509.895996094,125.709884644 M548.24017334,108.823654175 L548.119445801,108.589553833 L547.859619141,108.238197327 L547.413085938,107.845092773 L546.755249023,107.541946411 L545.854125977,107.387397766 L544.709228516,107.433074951 L543.358154297,107.707092285 L541.899353027,108.231445312 L540.467041016,108.995513916 L539.210693359,109.964881897 L538.267211914,111.088272095 L537.747375488,112.313735962 L537.723999023,113.59602356 L538.228515625,114.899719238 L539.23248291,116.19707489 L540.644226074,117.475364685 L542.313537598,118.735206604 L544.048400879,119.981819153 L545.64654541,121.215194702 L546.929870605,122.422981262 L547.768737793,123.579734802 L548.092041016,124.657737732 L547.877258301,125.63608551 L547.125610352,126.491836548 L545.861572266,127.196472168 L544.144775391,127.715072632 L542.098022461,128.02104187 L539.886108398,128.090744019 L537.703735352,127.925819397 L535.724975586,127.548439026 L534.065795898,127.007949829 L532.858764648,126.332839966 L532.193969727,125.584915161 L532.080688477,124.812858582 L532.288757324,124.186218262 L532.57824707,123.789276123 M559.732543945,120.027412415 L559.711791992,119.79234314 L559.620727539,119.40259552 L559.400939941,118.913200378 L558.997802734,118.444404602 L558.377258301,118.077148438 L557.527099609,117.893249512 L556.464111328,117.962463379 L555.231323242,118.35231781 L553.89453125,119.103355408 L552.544494629,120.207351685 L551.291687012,121.598350525 L550.261413574,123.144065857 L549.567260742,124.67440033 L549.288879395,126.017875671 L549.459228516,127.030944824 L550.06237793,127.613845825 L551.054504395,127.710464478 L552.383911133,127.29901886 L553.970336914,126.409576416 L555.711303711,125.13066864 L557.480895996,123.599304199 L559.133300781,121.986679077 L560.52545166,120.486869812 L561.573852539,119.253738403 L562.249694824,118.37915802 L562.568603516,117.905326843 L562.572265625,117.849693298 L562.305908203,118.235702515 L561.796386719,119.105194092 L561.132202148,120.413833618 L560.463684082,122.000831604 L559.945617676,123.630210876 L559.723266602,125.063781738 L559.884521484,126.124900818 L560.443725586,126.729263306 L561.396972656,126.829391479 L562.743896484,126.409187317 L564.425170898,125.50276947 L566.348083496,124.216178894 L568.37487793,122.715843201 L570.334533691,121.214447021 L572.056762695,119.903594971 L573.430297852,118.915687561 L574.372802734,118.325187683 L574.865783691,118.171401978 L574.942749023,118.466423035 L574.647460938,119.219062805 L574.03125,120.381546021 L573.195922852,121.815963745 L572.28137207,123.306221008 L571.452880859,124.633010864 L570.840026855,125.632377625 L570.50793457,126.225700378 L570.469360352,126.387565613 L570.73828125,126.110321045 L571.363586426,125.388839722 L572.392822266,124.280502319 L573.800415039,122.928718567 L575.497558594,121.521858215 L577.339111328,120.246528625 L579.169433594,119.245002747 L580.8671875,118.589706421 L582.34576416,118.310203552 L583.532165527,118.41519165 L584.380187988,118.892723083 L584.860229492,119.714317322 L584.979736328,120.829559326 L584.800231934,122.148170471 L584.441589355,123.538909912 L584.047119141,124.859085083 L583.754516602,125.986465454 L583.664367676,126.837303162 L583.845031738,127.358657837 L584.355102539,127.505020142 L585.244628906,127.225616455 L586.529296875,126.48815918 L588.182983398,125.300544739 L590.136230469,123.71937561 L592.297851562,121.831207275 L594.584106445,119.732208252 L596.91973877,117.515380859 L599.22869873,115.275749207 L601.437988281,113.123138428 L603.445617676,111.193435669 L605.130615234,109.617752075 L606.398376465,108.467887878 L607.200073242,107.765861511 L607.539672852,107.507865906 L607.469848633,107.699508667 L607.008666992,108.39074707 L606.147460938,109.628623962 L604.908691406,111.363792419 L603.368286133,113.471939087 L601.659179688,115.779350281 L599.953491211,118.096603394 L598.393493652,120.265281677 L597.08203125,122.149169922 L596.078857422,123.636703491 L595.397338867,124.660644531 L595.007873535,125.189445496 L594.850952148,125.220901489 L594.847473145,124.784683228 L594.920227051,123.937080383 L594.984863281,122.806915283 L594.961425781,121.566886902 L594.787231445,120.38596344 L594.427612305,119.402297974 L593.880493164,118.710235596 L593.180297852,118.362365723 L592.38684082,118.397361755 L591.596496582,118.824928284 L590.942382812,119.604324341 L590.589599609,120.638542175 L590.706787109,121.781852722 L591.431396484,122.860481262 L592.831298828,123.702972412 L594.887634277,124.177055359 L597.47869873,124.216506958 L600.398864746,123.845191956 L603.403930664,123.116950989 L606.206054688,122.148872375 L608.56262207,121.075332642 L610.178894043,120.182167053 L611.035888672,119.613044739 " fill="none" stroke="black" stroke-linecap="round" stroke-width="2" /><path d="M0,0 M429.042663574,166.225494385 L429.045654297,166.146179199 L429.053527832,166.135528564 L429.068206787,166.33505249 L429.086791992,166.900604248 L429.097290039,167.910583496 L429.078155518,169.369903564 L429.001068115,171.248535156 L428.858551025,173.503677368 L428.655059814,176.066741943 L428.412078857,178.840606689 L428.148712158,181.689056396 L427.911987305,184.439743042 L427.749908447,186.886581421 L427.707885742,188.852645874 L427.74987793,190.147323608 L427.824890137,190.801803589 M442.118743896,168.88458252 L442.336883545,168.595977783 L442.504119873,168.343109131 L442.41027832,168.327606201 L441.82635498,168.761383057 L440.718292236,169.641311646 L439.123291016,170.881622314 L437.177734375,172.340499878 L435.037963867,173.90234375 L432.891448975,175.413909912 L430.936065674,176.746292114 L429.351531982,177.823669434 L428.24105835,178.614227295 L427.637939453,179.152511597 L427.501800537,179.519638062 L427.75982666,179.806488037 L428.360717773,180.091247559 L429.272827148,180.430847168 L430.462524414,180.855163574 L431.865570068,181.382598877 L433.392883301,182.021453857 L434.944335938,182.761123657 L436.44354248,183.574707031 L437.830291748,184.425369263 L439.08984375,185.263412476 L440.195922852,186.021652222 L441.132110596,186.634338379 L441.796508789,187.035705566 L442.17376709,187.232940674 M447.159545898,178.882629395 L447.118774414,178.592041016 L447.046142578,178.271118164 L446.926422119,178.096237183 L446.751678467,178.284820557 L446.513061523,178.896942139 L446.237854004,179.910140991 L445.978912354,181.226104736 L445.82244873,182.747879028 L445.848937988,184.322509766 L446.129821777,185.797073364 L446.710723877,187.037536621 L447.611572266,187.922012329 L448.811187744,188.358459473 L450.259460449,188.300369263 L451.866851807,187.743789673 L453.519683838,186.740325928 L455.08996582,185.390045166 L456.466339111,183.831512451 L457.566070557,182.239608765 L458.349975586,180.79473877 L458.831787109,179.640945435 L459.057403564,178.867980957 L459.099334717,178.522186279 L459.02947998,178.608184814 L458.902679443,179.130661011 L458.752593994,180.067733765 L458.629455566,181.336853027 L458.567687988,182.796066284 L458.622436523,184.289093018 L458.817138672,185.654708862 L459.148376465,186.78225708 L459.615631104,187.551452637 L460.200714111,187.894134521 L460.852783203,187.807388306 L461.412597656,187.511627197 L461.779785156,187.21043396 M464.689727783,179.221572876 L464.720550537,178.889160156 L464.7706604,178.470321655 L464.821166992,178.140670776 L464.844085693,178.124969482 L464.818237305,178.493148804 L464.732635498,179.25541687 L464.592193604,180.344924927 L464.418884277,181.674331665 L464.243927002,183.120178223 L464.095733643,184.520950317 L463.988433838,185.737319946 L463.91204834,186.654876709 L463.854797363,187.194534302 L463.819122314,187.316711426 L463.837249756,187.024017334 L463.951568604,186.327423096 L464.205078125,185.28314209 L464.614929199,183.981231689 L465.190795898,182.530487061 L465.934692383,181.045806885 L466.841796875,179.639663696 L467.895507812,178.405685425 L469.066955566,177.43371582 L470.307220459,176.796356201 L471.566711426,176.538314819 L472.797668457,176.67388916 L473.949829102,177.192276001 L474.972320557,178.057952881 L475.81930542,179.213470459 L476.455749512,180.578430176 L476.868225098,182.046951294 L477.0965271,183.526351929 L477.211120605,184.907287598 L477.292907715,186.098083496 L477.365661621,186.941650391 L477.42956543,187.410980225 M490.678741455,183.269424438 L490.827941895,182.72013855 L490.933898926,181.853103638 L490.847259521,180.812301636 L490.416015625,179.854766846 L489.605102539,179.070358276 L488.448883057,178.521194458 L487.025604248,178.232620239 L485.432617188,178.266433716 L483.796722412,178.668548584 L482.268249512,179.441589355 L480.987701416,180.533157349 L480.089416504,181.842544556 L479.678955078,183.235275269 L479.8230896,184.562286377 L480.537109375,185.675292969 L481.781158447,186.449111938 L483.451507568,186.799697876 L485.390228271,186.702423096 L487.410736084,186.190292358 L489.32635498,185.33972168 L490.979614258,184.261413574 L492.260101318,183.097305298 L493.12677002,181.997879028 L493.610748291,181.092285156 L493.787506104,180.470153809 L493.762481689,180.181732178 L493.635864258,180.24810791 L493.477416992,180.684234619 L493.350311279,181.477310181 L493.328521729,182.560958862 L493.461975098,183.823196411 L493.832397461,185.122406006 L494.457580566,186.300811768 L495.285339355,187.238800049 L496.04864502,187.843887329 L496.575927734,188.13734436 M502.365142822,165.251556396 L502.39465332,165.214324951 L502.441162109,165.345901489 L502.484191895,165.816467285 L502.488677979,166.76385498 L502.431335449,168.184509277 L502.312957764,170.010787964 L502.159851074,172.142623901 L502.011291504,174.475402832 L501.902740479,176.886260986 L501.855102539,179.246917725 L501.871124268,181.422409058 L501.965820312,183.305419922 L502.148193359,184.818664551 L502.415344238,185.929107666 L502.678222656,186.609375 L502.871582031,186.933578491 M541.937683105,168.090209961 L541.862976074,167.639297485 L541.600219727,166.964904785 L541.027587891,166.201126099 L540.06652832,165.572402954 L538.714782715,165.153640747 L537.030639648,165.0 L535.145019531,165.132110596 L533.234741211,165.587539673 L531.493408203,166.369155884 L530.114746094,167.454193115 L529.259338379,168.7943573 L529.037780762,170.321182251 L529.523925781,171.963623047 L530.733154297,173.658813477 L532.59967041,175.360733032 L534.969848633,177.045883179 L537.604431152,178.693908691 L540.215148926,180.277740479 L542.527160645,181.766021729 L544.322509766,183.121398926 L545.458251953,184.31312561 L545.870910645,185.324478149 L545.554504395,186.151077271 L544.539916992,186.792221069 L542.893554688,187.250228882 L540.72442627,187.525863647 L538.186889648,187.628173828 L535.476379395,187.576049805 L532.799926758,187.399688721 L530.350402832,187.13331604 L528.265563965,186.816772461 L526.71496582,186.475143433 L525.811828613,186.136993408 L525.58807373,185.824813843 L525.776000977,185.589950562 L526.08996582,185.450271606 M557.192626953,182.361572266 L557.203918457,181.924545288 L557.099609375,181.225036621 L556.768737793,180.366043091 L556.132507324,179.560562134 L555.17980957,178.899246216 L553.947692871,178.450302124 L552.518615723,178.263137817 L550.983032227,178.384384155 L549.461486816,178.839828491 L548.099975586,179.633453369 L547.024841309,180.721313477 L546.340087891,182.009994507 L546.129150391,183.380493164 L546.435119629,184.683639526 L547.261901855,185.777572632 L548.566894531,186.546112061 L550.252197266,186.910858154 L552.170898438,186.842315674 L554.154907227,186.361053467 L556.037231445,185.521606445 L557.673095703,184.421875 L558.958618164,183.189407349 L559.846984863,181.977920532 L560.359313965,180.935958862 L560.562927246,180.170776367 L560.561157227,179.745346069 L560.4609375,179.691116333 L560.348388672,180.016159058 L560.289550781,180.71723938 L560.346923828,181.743789673 L560.545288086,182.979705811 L560.929992676,184.283111572 L561.49609375,185.49256897 L562.193908691,186.47984314 L562.815368652,187.135757446 L563.235839844,187.471557617 M566.339294434,179.285324097 L566.352416992,179.236953735 L566.381530762,179.308349609 L566.417236328,179.632415771 L566.440368652,180.320388794 L566.424743652,181.346069336 L566.373046875,182.596694946 L566.292907715,183.907241821 L566.203125,185.112869263 L566.112854004,186.071487427 L566.031555176,186.691268921 L565.975341797,186.913482666 L565.980529785,186.714004517 L566.091796875,186.099533081 L566.35925293,185.118804932 L566.814758301,183.875106812 L567.475585938,182.498474121 L568.342468262,181.128341675 L569.393310547,179.889984131 L570.587524414,178.88243103 L571.87097168,178.184524536 L573.181640625,177.855606079 L574.459899902,177.919540405 L575.650268555,178.373001099 L576.700622559,179.182250977 L577.562011719,180.287475586 L578.203369141,181.607559204 L578.625183105,183.038360596 L578.875732422,184.459671021 L579.023010254,185.735153198 L579.137390137,186.752243042 L579.231201172,187.411621094 L579.300292969,187.736663818 M586.561462402,165.898422241 L586.576782227,165.858596802 L586.622314453,165.993530273 L586.700378418,166.477142334 L586.794372559,167.450088501 L586.872436523,168.904342651 L586.909118652,170.768722534 L586.891601562,172.936767578 L586.824645996,175.30065918 L586.715026855,177.731658936 L586.56451416,180.096466064 L586.373352051,182.255691528 L586.139587402,184.06892395 L585.877319336,185.429962158 L585.615661621,186.298782349 L585.411621094,186.731201172 L585.290161133,186.869430542 M582.8671875,179.39666748 L583.045837402,179.11958313 L583.535339355,178.738937378 L584.451049805,178.347488403 L585.826599121,178.087356567 L587.599975586,177.976104736 L589.651245117,178.002838135 L591.851013184,178.148681641 L594.022705078,178.393554688 L595.977355957,178.684997559 L597.403198242,178.935958862 L598.208068848,179.096298218 " fill="none" stroke="black" stroke-linecap="round" stroke-width="2" /><path d="M0,0 M444.860351562,225.693069458 L444.837524414,225.9972229 L444.715332031,226.755096436 L444.458068848,228.122009277 L444.067199707,230.109481812 L443.608001709,232.632110596 L443.122619629,235.492126465 L442.643005371,238.44644165 L442.184295654,241.22694397 L441.777374268,243.562606812 L441.456085205,245.269058228 L441.255767822,246.277282715 L441.161895752,246.712539673 M454.235290527,229.301452637 L454.447021484,229.268157959 L454.57333374,229.299163818 L454.410186768,229.47505188 L453.759765625,229.875976562 L452.661437988,230.513442993 L451.244293213,231.345031738 L449.688476562,232.28302002 L448.140930176,233.229980469 L446.74432373,234.090560913 L445.598022461,234.814453125 L444.784210205,235.414413452 L444.350128174,235.95640564 L444.30569458,236.534835815 L444.641876221,237.229995728 L445.330078125,238.079040527 L446.318237305,239.069595337 L447.535583496,240.165252686 L448.900268555,241.311889648 L450.327514648,242.44543457 L451.745056152,243.482818604 L453.102966309,244.324386597 L454.379089355,244.863525391 L455.574493408,245.005813599 L456.697906494,244.677886963 L457.751800537,243.856536865 L458.717956543,242.582519531 L459.56628418,240.971328735 L460.272857666,239.191879272 L460.823883057,237.456741333 L461.220794678,235.960235596 L461.48626709,234.827194214 L461.634765625,234.107345581 L461.667266846,233.812805176 L461.579864502,233.941772461 L461.37097168,234.542282104 L461.070159912,235.657836914 L460.762756348,237.22895813 L460.543121338,239.080886841 L460.485351562,240.972381592 L460.613586426,242.65045166 L460.917114258,243.957992554 L461.373168945,244.839859009 L461.981262207,245.285751343 L462.757385254,245.294784546 L463.707336426,244.859069824 L464.786895752,243.961227417 L465.930664062,242.640014648 L467.053894043,241.002029419 L468.083618164,239.208206177 L468.972747803,237.457839966 L469.686462402,235.933578491 L470.207244873,234.750152588 L470.528594971,233.970001221 L470.654693604,233.619354248 L470.603607178,233.715835571 L470.398986816,234.309265137 L470.08114624,235.429626465 L469.733764648,237.005279541 L469.440124512,238.864776611 L469.279449463,240.769760132 L469.291168213,242.478897095 L469.48059082,243.82749939 L469.843048096,244.734909058 L470.388031006,245.156234741 L471.129852295,245.073516846 L472.067810059,244.473236084 L473.148773193,243.374832153 L474.295654297,241.863327026 L475.422241211,240.088287354 L476.462402344,238.233688354 L477.370758057,236.499649048 L478.117004395,235.041107178 L478.67767334,233.956359863 L479.034637451,233.3074646 L479.181915283,233.141784668 L479.133087158,233.50541687 L478.903686523,234.44720459 L478.531158447,235.926635742 L478.073852539,237.775466919 L477.587982178,239.725296021 L477.131774902,241.48475647 L476.750976562,242.84387207 L476.462219238,243.731964111 L476.27911377,244.161422729 L476.219787598,244.169586182 L476.314788818,243.749969482 L476.609161377,242.863677979 L477.144805908,241.523788452 L477.932556152,239.844543457 L478.96270752,238.024551392 L480.189483643,236.296127319 L481.537963867,234.844360352 L482.915893555,233.777908325 L484.23135376,233.149078369 L485.401489258,232.980316162 L486.375793457,233.280059814 L487.125183105,234.047088623 L487.641693115,235.247894287 L487.94052124,236.791656494 L488.065948486,238.528839111 L488.078613281,240.27204895 L488.041259766,241.837631226 L487.988800049,243.102096558 L487.975372314,243.970367432 L488.040405273,244.418075562 L488.220825195,244.490341187 L488.440185547,244.361938477 L488.627807617,244.190948486 M499.23840332,234.685928345 L499.262054443,234.396438599 L499.168884277,233.971786499 L498.850769043,233.530776978 L498.223297119,233.266586304 L497.301757812,233.27885437 L496.162536621,233.640930176 L494.920013428,234.369064331 L493.689758301,235.453155518 L492.590026855,236.835510254 L491.716491699,238.409301758 L491.139831543,240.027389526 L490.904541016,241.536941528 L491.0206604,242.798034668 L491.473937988,243.705215454 L492.225280762,244.192947388 L493.221496582,244.215362549 L494.391113281,243.755905151 L495.643554688,242.842941284 L496.876617432,241.561416626 L497.997009277,240.042236328 L498.928344727,238.463668823 L499.632019043,237.010452271 L500.112426758,235.829376221 L500.385314941,235.009017944 L500.471466064,234.595230103 L500.394042969,234.601394653 L500.174530029,235.059020996 L499.855773926,236.004043579 L499.534393311,237.387496948 L499.300872803,239.058578491 L499.225036621,240.793243408 L499.32925415,242.350204468 L499.603942871,243.555084229 L500.039245605,244.323410034 L500.664276123,244.623397827 L501.511138916,244.445571899 L502.592010498,243.787719727 L503.861358643,242.665527344 L505.246002197,241.136459351 L506.663208008,239.288146973 L508.044372559,237.228378296 L509.334594727,235.06199646 L510.481384277,232.893112183 L511.423400879,230.836303711 L512.115661621,229.023681641 L512.538208008,227.560775757 L512.692260742,226.506622314 L512.590637207,225.880569458 L512.249145508,225.696884155 L511.681152344,225.989028931 L510.921569824,226.816894531 L510.035400391,228.1978302 L509.115264893,230.072433472 L508.266021729,232.307189941 L507.584838867,234.725769043 L507.145935059,237.143432617 L506.999694824,239.406036377 L507.168334961,241.385406494 L507.642913818,242.99710083 L508.457458496,244.160446167 L509.579833984,244.843338013 L510.927001953,245.066253662 L512.118774414,245.008880615 L512.919311523,244.85458374 M539.706359863,226.501342773 L539.535827637,226.209594727 L539.117004395,225.782287598 L538.382751465,225.334777832 L537.354248047,225.048370361 L536.121459961,225.0 L534.820068359,225.235992432 L533.59765625,225.751342773 L532.587158203,226.529342651 L531.903198242,227.540649414 L531.628967285,228.751800537 L531.813659668,230.145614624 L532.457458496,231.7212677 L533.498718262,233.481262207 L534.807556152,235.404815674 L536.204589844,237.428878784 L537.494812012,239.444107056 L538.512084961,241.329498291 L539.146240234,242.981124878 L539.343078613,244.339767456 L539.087890625,245.380752563 L538.395385742,246.09765625 L537.308776855,246.486984253 L535.905578613,246.563064575 L534.306640625,246.326004028 L532.69519043,245.829406738 L531.262634277,245.168441772 L530.246520996,244.569625854 L529.698120117,244.168945312 M549.82598877,235.83013916 L549.750915527,235.51512146 L549.454650879,235.048950195 L548.825622559,234.573394775 L547.832458496,234.323913574 L546.557617188,234.438735962 L545.157226562,235.003128052 L543.789550781,236.007278442 L542.582214355,237.384918213 L541.638305664,239.016448975 L541.029174805,240.747375488 L540.79107666,242.413238525 L540.933898926,243.867935181 L541.432495117,244.987472534 L542.244567871,245.677536011 L543.315124512,245.869949341 L544.578125,245.523239136 L545.9453125,244.639785767 L547.312255859,243.291702271 L548.577453613,241.622360229 L549.659179688,239.826309204 L550.503967285,238.123306274 L551.107971191,236.695205688 L551.485412598,235.651031494 L551.651611328,235.045700073 L551.623352051,234.910644531 L551.416687012,235.274871826 L551.059387207,236.179077148 L550.632080078,237.594329834 L550.235778809,239.375320435 L549.968017578,241.296600342 L549.905456543,243.113479614 L550.09161377,244.625457764 L550.535339355,245.713485718 L551.235900879,246.303939819 L552.176696777,246.343032837 L553.317871094,245.80229187 L554.58996582,244.70703125 L555.903930664,243.160614014 L557.162780762,241.336074829 L558.285644531,239.445892334 L559.21472168,237.708999634 L559.925354004,236.281829834 L560.412231445,235.254745483 L560.676025391,234.68107605 L560.722167969,234.602935791 L560.559814453,235.06918335 L560.198059082,236.123565674 L559.680419922,237.704101562 L559.075195312,239.626327515 L558.459594727,241.612075806 L557.907165527,243.372344971 L557.46307373,244.709640503 L557.148132324,245.552093506 L556.982788086,245.897979736 L556.993652344,245.768768311 L557.225280762,245.146392822 L557.72052002,244.016387939 L558.489013672,242.452072144 L559.516479492,240.629058838 L560.757385254,238.785522461 L562.135925293,237.156143188 L563.561218262,235.889755249 L564.93572998,235.053115845 L566.163757324,234.669891357 L567.177856445,234.749191284 L567.940917969,235.296463013 L568.442138672,236.303817749 L568.69128418,237.717559814 L568.727844238,239.420013428 L568.624389648,241.243560791 L568.455566406,243.007385254 L568.329589844,244.51902771 L568.33013916,245.633239746 L568.494873047,246.28237915 L568.724182129,246.545166016 L568.926513672,246.574798584 M577.823730469,227.252838135 L577.833251953,227.241958618 L577.776855469,227.429443359 L577.601989746,228.014328003 L577.279418945,229.159851074 L576.834838867,230.868774414 L576.30682373,233.033416748 L575.736999512,235.463897705 L575.147949219,237.962020874 L574.57409668,240.306671143 L574.053833008,242.311157227 L573.671020508,243.708587646 L573.451477051,244.4637146 M576.160888672,234.922103882 L575.932434082,234.823730469 L575.48815918,234.66784668 L574.83795166,234.486068726 L574.064819336,234.320877075 L573.262817383,234.184783936 L572.526489258,234.081420898 L571.983459473,234.011688232 L571.673278809,233.972198486 " fill="none" stroke="black" stroke-linecap="round" stroke-width="2" /><path d="M0,0 M458.507019043,285.656616211 L458.512176514,286.035369873 L458.506103516,286.858520508 L458.469665527,288.210784912 L458.379638672,290.018585205 L458.23425293,292.179992676 L458.037872314,294.552825928 L457.821228027,296.991790771 L457.632476807,299.333892822 L457.516113281,301.392486572 L457.494445801,302.993469238 L457.535858154,304.007263184 L457.591186523,304.489318848 M468.702575684,287.174499512 L468.774475098,287.143005371 L468.753448486,287.224243164 L468.485839844,287.547729492 L467.811096191,288.214416504 L466.708435059,289.214752197 L465.245361328,290.467132568 L463.590209961,291.851715088 L461.957855225,293.251678467 L460.561218262,294.571594238 L459.56652832,295.746276855 L459.098144531,296.75491333 L459.200134277,297.612182617 L459.855224609,298.354919434 L460.997680664,299.019439697 L462.494018555,299.626861572 L464.218597412,300.171417236 L466.00604248,300.628326416 L467.695800781,300.963623047 L468.974822998,301.161315918 L469.732147217,301.242797852 M473.532592773,294.17590332 L473.503265381,294.389556885 L473.438232422,294.894256592 L473.328186035,295.771514893 L473.1953125,296.987030029 L473.087005615,298.426757812 L473.069976807,299.914916992 L473.212127686,301.254486084 L473.564453125,302.258972168 L474.139953613,302.787567139 L474.929992676,302.740692139 L475.898345947,302.089019775 L476.983642578,300.893493652 L478.098602295,299.305511475 L479.138061523,297.565216064 L479.998352051,295.940368652 L480.614135742,294.631591797 L480.972808838,293.76776123 L481.106628418,293.414672852 L481.074737549,293.593322754 L480.928955078,294.333862305 L480.718292236,295.614257812 L480.51348877,297.285125732 L480.383239746,299.122070312 L480.424560547,300.824920654 L480.689697266,302.122009277 L481.161529541,302.877563477 L481.645172119,303.176727295 L482.002716064,303.197814941 M486.332733154,293.92767334 L486.332641602,294.221557617 L486.300201416,294.88961792 L486.208496094,295.991546631 L486.052978516,297.431060791 L485.874725342,299.017028809 L485.730865479,300.51776123 L485.66973877,301.739318848 L485.711303711,302.537811279 L485.850799561,302.817352295 L486.088562012,302.529724121 L486.454956055,301.673461914 L486.99105835,300.329498291 L487.7265625,298.688690186 L488.657836914,296.973571777 L489.742431641,295.398864746 L490.910675049,294.131103516 L492.091064453,293.279418945 L493.214538574,292.911682129 L494.217590332,293.075317383 L495.039764404,293.764007568 L495.62878418,294.91796875 L495.959503174,296.418029785 L496.050811768,298.107147217 L496.001861572,299.797454834 L495.937744141,301.293304443 L495.966369629,302.444549561 L496.068054199,303.158782959 L496.186279297,303.487487793 M505.705047607,295.52633667 L505.572631836,295.175933838 L505.280944824,294.678741455 L504.77532959,294.190979004 L504.035888672,293.958709717 L503.064025879,294.105407715 L501.914978027,294.698883057 L500.710479736,295.716583252 L499.619781494,297.073425293 L498.819030762,298.603240967 L498.432128906,300.102722168 L498.513763428,301.369659424 L499.044433594,302.239044189 L499.956848145,302.598602295 L501.150695801,302.396881104 L502.514526367,301.648529053 L503.911254883,300.448303223 L505.202575684,298.97366333 L506.263336182,297.463378906 L507.020629883,296.133880615 L507.46270752,295.142822266 L507.631530762,294.580688477 L507.599761963,294.482299805 L507.442230225,294.87399292 L507.218444824,295.778442383 L507.000366211,297.131408691 L506.863769531,298.7840271 L506.871795654,300.538970947 L507.115722656,302.131011963 L507.618225098,303.335754395 L508.333435059,304.03237915 L509.015380859,304.295227051 L509.494354248,304.295166016 M514.704345703,287.314147949 L514.735900879,287.614074707 L514.755004883,288.309906006 L514.722351074,289.492584229 L514.603759766,291.124359131 L514.4140625,293.106384277 L514.198242188,295.295501709 L514.022277832,297.53012085 L513.986816406,299.63293457 L514.152526855,301.414886475 L514.526428223,302.736694336 L514.942687988,303.529571533 L515.264160156,303.882049561 M540.782836914,287.719024658 M540.298156738,286.109924316 L539.916748047,285.811950684 L539.192565918,285.421813965 L538.132263184,285.087677002 L536.85534668,285.0 L535.472290039,285.207183838 L534.130493164,285.714294434 L532.98248291,286.477966309 L532.199279785,287.467163086 L531.929138184,288.633880615 L532.247802734,289.910461426 L533.161621094,291.233856201 L534.587280273,292.562561035 L536.361022949,293.88079834 L538.266296387,295.193084717 L540.071533203,296.495910645 L541.563659668,297.763031006 L542.590576172,298.95703125 L543.064941406,300.042510986 L542.952209473,300.992706299 L542.253112793,301.785644531 L541.00592041,302.397216797 L539.29699707,302.799865723 L537.277587891,302.980255127 L535.146911621,302.937255859 L533.119384766,302.688201904 L531.364379883,302.268341064 L530.055480957,301.687896729 L529.293518066,300.985626221 L529.099731445,300.224121094 L529.24798584,299.58807373 L529.501220703,299.180206299 M551.109741211,294.933135986 L550.878479004,294.69241333 L550.419555664,294.352294922 L549.698242188,294.032867432 L548.750671387,293.924804688 L547.62109375,294.139770508 L546.396179199,294.741333008 L545.206542969,295.714752197 L544.210327148,296.988220215 L543.551208496,298.424865723 L543.319946289,299.851623535 L543.545166016,301.090179443 L544.188781738,301.985900879 L545.177612305,302.419830322 L546.414978027,302.326019287 L547.79901123,301.696929932 L549.209533691,300.599273682 L550.529418945,299.170471191 L551.64440918,297.602172852 L552.477722168,296.109802246 L553.009155273,294.864746094 L553.269592285,293.975158691 L553.328491211,293.508026123 L553.268798828,293.502166748 L553.142700195,293.983154297 L552.988525391,294.971374512 L552.849365234,296.389434814 L552.766235352,298.07421875 L552.823669434,299.808044434 L553.073425293,301.354095459 L553.509460449,302.535400391 L553.95892334,303.266571045 L554.291259766,303.602203369 M558.298339844,293.876251221 L558.324462891,294.142333984 L558.340820312,294.753448486 L558.317504883,295.776031494 L558.231872559,297.132324219 L558.114135742,298.657836914 L558.007080078,300.136199951 L557.954956055,301.373748779 L557.988220215,302.230560303 L558.115478516,302.619232178 L558.340820312,302.491088867 L558.69921875,301.839599609 L559.217529297,300.712036133 L559.905273438,299.248565674 L560.754821777,297.645782471 L561.729614258,296.111907959 L562.774047852,294.818939209 L563.841796875,293.886535645 L564.878051758,293.384063721 L565.827758789,293.357513428 L566.643798828,293.822723389 L567.280456543,294.755828857 L567.708740234,296.083190918 L567.937744141,297.686035156 L568.028686523,299.399810791 L568.063110352,301.017059326 L568.117431641,302.353668213 L568.192260742,303.240753174 L568.26348877,303.684570312 M575.127441406,287.081848145 L575.15447998,287.284820557 L575.169494629,287.804901123 L575.141296387,288.750274658 L575.039489746,290.127349854 L574.87512207,291.873046875 L574.663513184,293.877288818 L574.444335938,296.004882812 L574.270263672,298.108093262 L574.179443359,300.009124756 L574.183898926,301.545806885 L574.244140625,302.558197021 L574.308044434,303.067993164 " fill="none" stroke="black" stroke-linecap="round" stroke-width="2" /><path d="M0,0 M424.246765137,345.154846191 L424.118255615,345.988098145 L423.901611328,347.424133301 L423.626953125,349.359680176 L423.37109375,351.487518311 L423.182556152,353.683044434 L423.073364258,355.840332031 L423.016967773,357.898071289 L423.0105896,359.717651367 L423.054046631,361.165130615 L423.174285889,362.146636963 L423.324157715,362.671386719 L423.45526123,362.858062744 M438.097259521,347.162689209 L437.985076904,347.18081665 L437.595916748,347.353240967 L436.79498291,347.774963379 L435.546966553,348.470153809 L433.944000244,349.351806641 L432.132507324,350.32434082 L430.275115967,351.282562256 L428.507202148,352.145263672 L426.953338623,352.861053467 L425.722045898,353.384979248 L424.887207031,353.718322754 L424.46585083,353.912231445 L424.434051514,354.041748047 L424.749542236,354.179046631 L425.385131836,354.392669678 L426.325256348,354.719207764 L427.549499512,355.187347412 L429.000823975,355.80847168 L430.600158691,356.575317383 L432.262481689,357.452148438 L433.922668457,358.383026123 L435.54095459,359.296691895 L437.088012695,360.134185791 L438.567901611,360.81072998 L439.958862305,361.256958008 L441.224273682,361.431060791 L442.175933838,361.41583252 L442.742980957,361.319458008 M446.220428467,352.508972168 L446.069885254,352.912261963 L445.85559082,353.619567871 L445.65612793,354.593841553 L445.583129883,355.693511963 L445.695556641,356.855407715 L446.008605957,357.991485596 L446.505950928,359.02532959 L447.16015625,359.857635498 L447.947174072,360.40713501 L448.843902588,360.620483398 L449.835205078,360.482513428 L450.895568848,360.00088501 L451.983154297,359.214355469 L453.037597656,358.18359375 L453.99621582,356.995574951 L454.807617188,355.766174316 L455.439086914,354.631774902 L455.887268066,353.706787109 L456.161315918,353.082794189 L456.278930664,352.80557251 L456.27545166,352.889129639 L456.203308105,353.333007812 L456.125549316,354.122192383 L456.121337891,355.18182373 L456.262542725,356.412597656 L456.589782715,357.67376709 L457.111999512,358.836151123 L457.846069336,359.778869629 L458.751617432,360.425842285 L459.751037598,360.739654541 L460.593658447,360.81463623 L461.136047363,360.767272949 M464.093902588,353.746459961 L464.011016846,354.217773438 L463.888397217,355.027191162 L463.762298584,356.092071533 L463.680664062,357.191650391 L463.651123047,358.19644165 L463.654602051,359.003814697 L463.65802002,359.545440674 L463.644897461,359.75769043 L463.625640869,359.608947754 L463.63458252,359.098632812 L463.725952148,358.284118652 L463.953704834,357.25680542 L464.370178223,356.124542236 L465.01574707,354.987945557 L465.910064697,353.938171387 L467.052490234,353.050292969 L468.41986084,352.398254395 L469.966278076,352.039031982 L471.627746582,352.010803223 L473.3230896,352.315765381 L474.967193604,352.924621582 L476.486633301,353.782592773 L477.827087402,354.821136475 L478.970458984,355.966064453 L479.927978516,357.134490967 L480.725189209,358.235961914 L481.412414551,359.180847168 L482.100952148,359.878509521 L482.864257812,360.27645874 L483.732543945,360.378234863 L484.503051758,360.306762695 L485.026062012,360.18762207 M494.678649902,352.6300354 L493.879821777,352.498046875 L492.55480957,352.403289795 L490.858184814,352.4581604 L489.138977051,352.776000977 L487.560333252,353.359344482 L486.252929688,354.162384033 L485.289672852,355.11807251 L484.752990723,356.157867432 L484.68371582,357.183898926 L485.079315186,358.097076416 L485.897979736,358.804534912 L487.060424805,359.229614258 L488.455444336,359.326934814 L489.943206787,359.08013916 L491.381317139,358.514831543 L492.647399902,357.707275391 L493.658691406,356.786956787 L494.390197754,355.902740479 L494.862060547,355.195465088 L495.120910645,354.760650635 L495.23059082,354.647003174 L495.266448975,354.860961914 L495.307769775,355.394165039 L495.441497803,356.201202393 L495.742950439,357.213562012 L496.265594482,358.323516846 L497.021972656,359.419342041 L498.044494629,360.355255127 L499.290252686,361.013397217 L500.662384033,361.319946289 L501.816955566,361.365661621 L502.561737061,361.281677246 M507.450317383,346.685760498 L507.315307617,347.498748779 L507.092956543,348.835632324 L506.822570801,350.556854248 L506.593017578,352.353210449 L506.46194458,354.136993408 L506.471313477,355.83883667 L506.625366211,357.420501709 L506.955993652,358.750823975 L507.464355469,359.717315674 L508.132751465,360.264587402 L508.755523682,360.471984863 L509.194763184,360.481811523 M546.995727539,346.082427979 L546.211242676,345.801239014 L544.795532227,345.432830811 L542.84765625,345.109710693 L540.695678711,345.0 L538.592773438,345.14654541 L536.7734375,345.540222168 L535.421447754,346.146697998 L534.700073242,346.9559021 L534.719055176,347.945495605 L535.489379883,349.08215332 L536.954345703,350.340148926 L538.9609375,351.685516357 L541.295349121,353.097015381 L543.693969727,354.540344238 L545.882385254,355.957550049 L547.61126709,357.273956299 L548.700927734,358.42364502 L549.042358398,359.357910156 L548.603515625,360.062957764 L547.402160645,360.535766602 L545.508239746,360.77746582 L543.043823242,360.784057617 L540.188964844,360.557067871 L537.165649414,360.102142334 L534.220458984,359.442749023 L531.57989502,358.62210083 L529.410949707,357.704650879 L527.914489746,356.733764648 L527.202453613,355.768951416 L527.274169922,354.863861084 L527.750610352,354.172546387 L528.266235352,353.757324219 M559.762451172,352.562927246 L559.335205078,352.256011963 L558.50958252,351.860321045 L557.286743164,351.526519775 L555.815002441,351.457824707 L554.233154297,351.710632324 L552.692260742,352.288421631 L551.333374023,353.143676758 L550.287841797,354.224700928 L549.660217285,355.440795898 L549.506164551,356.681365967 L549.829406738,357.829742432 L550.576782227,358.77154541 L551.6640625,359.412597656 L552.988464355,359.684936523 L554.444458008,359.549377441 L555.924072266,359.011871338 L557.319580078,358.131530762 L558.524719238,357.003723145 L559.466918945,355.778198242 L560.118896484,354.61819458 L560.500427246,353.670532227 L560.680419922,353.060211182 L560.734008789,352.868438721 L560.723999023,353.111663818 L560.715087891,353.785461426 L560.772094727,354.823608398 L560.943237305,356.096557617 L561.294067383,357.457305908 L561.865783691,358.753234863 L562.666748047,359.843780518 L563.668884277,360.643798828 L564.835083008,361.0340271 L566.056518555,360.952331543 L567.228149414,360.428710938 L568.123046875,359.776306152 L568.65222168,359.250579834 M569.699768066,353.467010498 L569.619873047,354.080230713 L569.496948242,355.088562012 L569.360229492,356.356079102 L569.255126953,357.57925415 L569.197509766,358.610198975 L569.175415039,359.349365234 L569.171020508,359.751098633 L569.178405762,359.77243042 L569.216064453,359.408966064 L569.328979492,358.685791016 L569.579406738,357.692779541 L570.018615723,356.55279541 L570.69128418,355.399230957 L571.614746094,354.353546143 L572.774353027,353.513580322 L574.127929688,352.949035645 L575.612182617,352.714569092 L577.149597168,352.829498291 L578.669128418,353.288879395 L580.10546875,354.053131104 L581.409362793,355.057556152 L582.556518555,356.219512939 L583.551147461,357.447998047 L584.420532227,358.641113281 L585.207763672,359.698791504 L585.954040527,360.523071289 L586.696838379,361.032928467 L587.463256836,361.173309326 L588.26965332,360.92755127 L589.116699219,360.315185547 L589.990356445,359.388061523 L590.862670898,358.213806152 L591.703063965,356.863464355 L592.479370117,355.402923584 L593.166748047,353.900787354 L593.749023438,352.432678223 L594.215759277,351.092834473 L594.563293457,349.973602295 L594.793518066,349.153045654 L594.911804199,348.694488525 L594.926391602,348.647247314 L594.855651855,349.042175293 L594.721374512,349.894592285 L594.555297852,351.166259766 L594.392456055,352.765899658 L594.257446289,354.568756104 L594.153808594,356.436248779 L594.067504883,358.228607178 L593.967956543,359.817687988 L593.844848633,361.099884033 L593.704528809,362.00189209 L593.561157227,362.48336792 L593.424072266,362.53729248 L593.285827637,362.179504395 L593.121582031,361.445617676 L592.931640625,360.422454834 L592.731262207,359.224395752 L592.554870605,357.970001221 L592.450622559,356.764465332 L592.46661377,355.683013916 L592.649047852,354.766479492 L593.051391602,354.046600342 L593.718261719,353.541870117 L594.66998291,353.2550354 L595.89074707,353.173675537 L597.316711426,353.267150879 L598.851501465,353.489257812 L600.39263916,353.785888672 L601.82208252,354.096008301 L603.022949219,354.364715576 L603.899597168,354.54888916 L604.409606934,354.633056641 L604.58996582,354.638061523 L604.581787109,354.608032227 L604.511901855,354.57699585 " fill="none" stroke="black" stroke-linecap="round" stroke-width="2" /><path d="M0,0 M441.251983643,406.193450928 L441.296386719,406.225891113 L441.400695801,406.458679199 L441.56817627,407.061279297 L441.763458252,408.157989502 L441.932067871,409.758483887 L442.011291504,411.783935547 L441.968322754,414.106842041 L441.813781738,416.581390381 L441.601806641,419.063415527 L441.406005859,421.405426025 L441.276031494,423.473419189 L441.24331665,425.105529785 L441.311126709,426.193786621 L441.462615967,426.706237793 L441.62600708,426.808868408 L441.754882812,426.715759277 M453.865661621,406.046722412 L453.888946533,406.007476807 L453.77520752,406.116760254 L453.350830078,406.53692627 L452.451507568,407.395690918 L451.048217773,408.667266846 L449.226837158,410.239562988 L447.186309814,411.950592041 L445.175445557,413.645935059 L443.431732178,415.191955566 L442.125701904,416.497650146 L441.340576172,417.517608643 L441.07611084,418.266723633 L441.287384033,418.804046631 L441.929260254,419.205963135 L442.966369629,419.53414917 L444.349060059,419.834320068 L445.983398438,420.142669678 L447.756408691,420.489135742 L449.547027588,420.897338867 L451.263916016,421.372375488 L452.810180664,421.875640869 L454.107727051,422.342285156 L455.006072998,422.682647705 L455.491638184,422.867736816 M459.955993652,415.158416748 L459.967926025,415.327209473 L459.981933594,415.753326416 L459.983032227,416.517974854 L459.963256836,417.604644775 L459.937072754,418.924285889 L459.938842773,420.347900391 L460.025756836,421.73236084 L460.259277344,422.945220947 L460.673309326,423.867828369 L461.291259766,424.392883301 L462.114685059,424.445037842 L463.132141113,423.981964111 L464.305511475,423.015106201 L465.568389893,421.631988525 L466.816619873,419.983581543 L467.953521729,418.274688721 L468.890686035,416.727294922 L469.58782959,415.49432373 L470.040679932,414.649078369 L470.284545898,414.213623047 L470.373046875,414.193786621 L470.370605469,414.613769531 L470.31362915,415.506530762 L470.232727051,416.817932129 L470.162017822,418.401275635 L470.144714355,420.057006836 L470.227905273,421.598114014 L470.467895508,422.858642578 L470.865509033,423.744628906 L471.384521484,424.221588135 L471.85949707,424.382537842 L472.182952881,424.367340088 M476.809906006,415.126586914 L476.868560791,415.300689697 L476.96295166,415.749420166 L477.062072754,416.554168701 L477.106292725,417.691497803 L477.072143555,419.049041748 L476.968231201,420.458129883 L476.840148926,421.739349365 L476.740875244,422.762664795 L476.697753906,423.443939209 L476.705871582,423.735015869 L476.772247314,423.612365723 L476.92010498,423.048858643 L477.202880859,422.050720215 L477.677124023,420.716064453 L478.374389648,419.196350098 L479.295776367,417.660461426 L480.415710449,416.260375977 L481.688476562,415.100372314 L483.064422607,414.257476807 L484.482910156,413.804412842 L485.873504639,413.7862854 L487.165344238,414.213592529 L488.28604126,415.057128906 L489.177398682,416.24307251 L489.815063477,417.661651611 L490.214782715,419.178985596 L490.422485352,420.654510498 L490.534423828,421.954284668 L490.639343262,422.970825195 L490.803405762,423.64932251 L490.984924316,424.008605957 L491.134185791,424.138458252 M501.88885498,416.214996338 L501.781799316,415.923522949 L501.528533936,415.524963379 L501.059326172,415.160552979 L500.332275391,415.045532227 L499.333496094,415.283996582 L498.126464844,415.929840088 L496.843170166,416.950408936 L495.664367676,418.26385498 L494.763244629,419.72177124 L494.264587402,421.151763916 L494.226165771,422.390472412 L494.643890381,423.308166504 L495.469665527,423.810760498 L496.628692627,423.842773438 L498.019042969,423.388183594 L499.518859863,422.485870361 L500.995727539,421.234100342 L502.323822021,419.781280518 L503.4034729,418.316436768 L504.183776855,417.022918701 L504.66583252,416.023529053 L504.89831543,415.386535645 L504.948181152,415.137145996 L504.885864258,415.280761719 L504.765136719,415.84173584 L504.63381958,416.816925049 L504.543792725,418.110717773 L504.561401367,419.571411133 L504.725036621,421.022399902 L505.060272217,422.305328369 L505.561309814,423.332092285 L506.239898682,423.983276367 L507.068908691,424.173736572 L508.006774902,423.890258789 L508.809051514,423.402923584 L509.336700439,422.958648682 M514.094299316,405.805267334 L514.173828125,406.032409668 L514.287353516,406.588470459 L514.392333984,407.567077637 L514.424987793,408.955474854 L514.364135742,410.67791748 L514.226928711,412.631011963 L514.066711426,414.696014404 L513.95489502,416.745025635 L513.945739746,418.640197754 L514.072998047,420.260437012 L514.322143555,421.535827637 L514.666748047,422.423431396 L515.061889648,422.925598145 L515.471435547,423.083190918 L515.798950195,423.03604126 L516.008789062,422.92175293 M552.188720703,406.685058594 L551.895202637,406.365081787 L551.313476562,405.896148682 L550.397583008,405.400878906 L549.184814453,405.074829102 L547.714233398,405.0 L546.087768555,405.215698242 L544.463439941,405.702575684 L543.043823242,406.434387207 L542.013793945,407.364959717 L541.508056641,408.441680908 L541.600036621,409.614776611 L542.30456543,410.840637207 L543.58392334,412.085754395 L545.338317871,413.333099365 L547.405761719,414.575958252 L549.574035645,415.808776855 L551.621398926,417.022216797 L553.360412598,418.198120117 L554.662109375,419.315826416 L555.45526123,420.353118896 L555.709289551,421.290679932 L555.41229248,422.107574463 L554.561096191,422.781829834 L553.175964355,423.289581299 L551.315551758,423.613128662 L549.091796875,423.748199463 L546.664916992,423.713409424 L544.216064453,423.541168213 L541.909973145,423.267578125 L539.881958008,422.927856445 L538.207763672,422.554077148 L536.996948242,422.153747559 L536.324890137,421.742553711 L536.20892334,421.335418701 L536.415893555,421.008850098 L536.707397461,420.80291748 M564.723388672,415.670166016 L564.487182617,415.46081543 L564.02923584,415.198059082 L563.312927246,415.009887695 L562.364807129,415.078430176 L561.206176758,415.492340088 L559.918823242,416.288787842 L558.630249023,417.429412842 L557.508972168,418.821716309 L556.70489502,420.314453125 L556.324035645,421.737670898 L556.408325195,422.930877686 L556.944091797,423.76663208 L557.873535156,424.162658691 L559.111877441,424.073150635 L560.553344727,423.493774414 L562.077697754,422.475128174 L563.558166504,421.121337891 L564.884460449,419.575561523 L565.969299316,418.028656006 L566.768554688,416.664245605 L567.283691406,415.61038208 L567.549194336,414.937011719 L567.630126953,414.674407959 L567.602661133,414.826507568 L567.526000977,415.420532227 L567.453918457,416.451049805 L567.433227539,417.811645508 L567.510375977,419.333312988 L567.735717773,420.825592041 L568.143005371,422.120880127 L568.72869873,423.123382568 L569.493164062,423.725006104 L570.379943848,423.855865479 L571.317871094,423.532623291 L572.087402344,423.031311035 L572.574401855,422.594726562 M574.593139648,415.32220459 L574.626525879,415.476226807 L574.688903809,415.898254395 L574.764160156,416.682312012 L574.815063477,417.808227539 L574.82043457,419.144836426 L574.783508301,420.501647949 L574.734436035,421.693908691 L574.708068848,422.59664917 L574.725708008,423.142272949 L574.792602539,423.29119873 L574.931335449,423.021331787 L575.184020996,422.315917969 L575.608154297,421.218475342 L576.244018555,419.855895996 L577.104370117,418.39755249 L578.166381836,417.016265869 L579.383239746,415.852935791 L580.695556641,414.996246338 L582.041259766,414.510314941 L583.352539062,414.438293457 L584.566223145,414.791107178 L585.629516602,415.545776367 L586.499816895,416.647155762 L587.153259277,418.00378418 L587.6015625,419.494445801 L587.880615234,420.982757568 L588.045410156,422.327606201 L588.188232422,423.331481934 L588.380493164,423.853302002 L588.66015625,423.836547852 L588.945617676,423.520324707 L589.161010742,423.16394043 M594.530151367,405.795166016 L594.609680176,406.005310059 L594.740661621,406.537139893 L594.899108887,407.489929199 L595.034057617,408.854553223 L595.123901367,410.549743652 L595.15814209,412.467681885 L595.15032959,414.487915039 L595.133178711,416.490753174 L595.135986328,418.354370117 L595.168457031,419.954559326 L595.231323242,421.217895508 L595.286682129,422.064025879 L595.29309082,422.459747314 L595.226379395,422.431854248 L595.12701416,422.190979004 L595.035888672,421.925994873 " fill="none" stroke="black" stroke-linecap="round" stroke-width="2" /><path d="M0,0 M421.180358887,466.007781982 L421.190002441,466.053649902 L421.207519531,466.273956299 L421.228027344,466.812530518 L421.227386475,467.768341064 L421.172485352,469.156066895 L421.066070557,470.924530029 L420.915527344,472.999176025 L420.728363037,475.291564941 L420.529541016,477.729309082 L420.328826904,480.212615967 L420.138916016,482.621765137 L419.982635498,484.814361572 L419.872161865,486.648803711 L419.806121826,488.013916016 L419.773681641,488.904327393 L419.768127441,489.354980469 L419.801544189,489.405761719 L419.906707764,489.052398682 L420.143737793,488.230438232 L420.583282471,486.888153076 L421.256713867,485.099273682 L422.185913086,482.977752686 L423.367797852,480.675048828 L424.773376465,478.308776855 L426.372650146,475.952148438 L428.136016846,473.663726807 L430.000549316,471.529632568 L431.896240234,469.621398926 L433.737457275,468.02822876 L435.406341553,466.798706055 L436.792633057,465.945861816 L437.810668945,465.453460693 L438.428436279,465.266204834 L438.703796387,465.279815674 L438.749145508,465.40435791 L438.651489258,465.574951172 L438.48046875,465.750762939 L438.246368408,465.942626953 L438.01776123,466.115478516 L437.850280762,466.234191895 M425.299865723,477.822845459 L425.460876465,478.038208008 L425.78427124,478.503295898 L426.290863037,479.257080078 L426.948303223,480.255432129 L427.747192383,481.444122314 L428.642822266,482.766662598 L429.605804443,484.16506958 L430.615356445,485.572601318 L431.656616211,486.905883789 L432.712158203,488.075958252 L433.767944336,489.029083252 L434.809875488,489.695861816 L435.803070068,490.029266357 L436.7081604,490.016723633 L437.386383057,489.817016602 L437.786254883,489.586456299 M442.662414551,476.900909424 L442.61239624,477.012298584 L442.534484863,477.336242676 L442.43661499,477.973815918 L442.322021484,478.950561523 L442.188690186,480.218444824 L442.054870605,481.700897217 L441.954101562,483.302093506 L441.940734863,484.923706055 L442.064453125,486.465393066 L442.336578369,487.811279297 L442.752044678,488.850921631 L443.29586792,489.507019043 L443.959472656,489.729492188 L444.741394043,489.494140625 L445.646057129,488.798553467 L446.6590271,487.67791748 L447.743743896,486.201721191 L448.854797363,484.48739624 L449.944671631,482.676452637 L450.970306396,480.922454834 L451.879638672,479.371887207 L452.617675781,478.14151001 L453.140258789,477.278625488 L453.442749023,476.794311523 L453.560180664,476.682006836 L453.562255859,476.955841064 L453.496246338,477.650909424 L453.38772583,478.780792236 L453.249938965,480.270294189 L453.104248047,481.991607666 L452.987976074,483.791320801 L452.944763184,485.522613525 L452.995941162,487.064788818 L453.132751465,488.333282471 L453.317993164,489.281555176 L453.524841309,489.859313965 L453.735717773,490.066375732 L453.945861816,489.938415527 L454.118652344,489.663146973 L454.234069824,489.401397705 M459.483032227,476.974212646 L459.522735596,477.149932861 L459.58682251,477.581329346 L459.647094727,478.34954834 L459.663818359,479.456970215 L459.605102539,480.852416992 L459.46572876,482.450744629 L459.264831543,484.147521973 L459.049316406,485.813812256 L458.861572266,487.305969238 L458.734130859,488.495513916 L458.669891357,489.306610107 L458.653961182,489.711456299 L458.662719727,489.715881348 L458.693756104,489.314178467 L458.770202637,488.49810791 L458.930114746,487.297302246 L459.212036133,485.810913086 L459.639709473,484.164978027 L460.223175049,482.490081787 L460.957397461,480.878601074 L461.831817627,479.398345947 L462.824951172,478.116577148 L463.905334473,477.11151123 L465.03704834,476.449768066 L466.193023682,476.183044434 L467.336669922,476.328674316 L468.430877686,476.883514404 L469.428466797,477.819244385 L470.279449463,479.080963135 L470.950286865,480.588134766 L471.435455322,482.241973877 L471.753570557,483.928192139 L471.942199707,485.535064697 L472.042694092,486.957397461 L472.089172363,488.115905762 L472.110839844,488.962493896 L472.12411499,489.496490479 L472.144348145,489.764343262 L472.166931152,489.855499268 L472.186523438,489.85925293 M484.594116211,479.181182861 L484.447296143,478.912414551 L484.155181885,478.532928467 L483.688537598,478.159454346 L483.046020508,477.968414307 L482.220336914,478.039001465 L481.247497559,478.421569824 L480.194244385,479.123077393 L479.151733398,480.140289307 L478.213378906,481.437286377 L477.452972412,482.943115234 L476.936035156,484.558380127 L476.719909668,486.16104126 L476.83996582,487.617553711 L477.299438477,488.806396484 L478.068237305,489.627624512 L479.088439941,490.01361084 L480.291381836,489.934326172 L481.605224609,489.39666748 L482.946655273,488.444152832 L484.233093262,487.158599854 L485.386383057,485.646209717 L486.347900391,484.028625488 L487.085021973,482.433380127 L487.592376709,480.987731934 L487.88760376,479.801483154 L488.016174316,478.936279297 L488.027709961,478.411468506 L487.977996826,478.227600098 L487.911712646,478.390716553 L487.855529785,478.926330566 L487.827301025,479.846618652 L487.849365234,481.097808838 L487.935424805,482.572753906 L488.106719971,484.143981934 L488.382568359,485.694244385 L488.760253906,487.127044678 L489.21206665,488.361968994 L489.696533203,489.335998535 L490.155700684,490.030212402 L490.553894043,490.413269043 L490.881469727,490.489776611 L491.146392822,490.284820557 L491.331420898,489.971130371 L491.440246582,489.693756104 M496.20111084,465.0 L496.282043457,465.215606689 L496.419891357,465.67010498 L496.594238281,466.41192627 L496.761383057,467.431427002 L496.895019531,468.728851318 L496.980804443,470.290771484 L497.021911621,472.093841553 L497.035308838,474.084075928 L497.040924072,476.180084229 L497.061523438,478.289978027 L497.111053467,480.325561523 L497.192382812,482.209747314 L497.30178833,483.879882812 L497.427764893,485.285919189 L497.556884766,486.394317627 L497.683441162,487.196624756 L497.79699707,487.712768555 L497.890563965,487.989898682 L497.955322266,488.101959229 L497.989379883,488.124389648 M532.838195801,466.436889648 L532.523132324,466.222991943 L531.925720215,465.924957275 L531.040039062,465.634887695 L529.934326172,465.479522705 L528.653198242,465.498931885 L527.267822266,465.709320068 L525.871398926,466.09753418 L524.588500977,466.652038574 L523.546813965,467.352203369 L522.838867188,468.167633057 L522.535888672,469.07421875 L522.685058594,470.050506592 L523.317565918,471.075408936 L524.440307617,472.12677002 L526.022460938,473.186798096 L527.978210449,474.251922607 L530.169250488,475.338043213 L532.422241211,476.465240479 L534.561401367,477.65045166 L536.438476562,478.890350342 L537.955871582,480.168243408 L539.068786621,481.454467773 L539.768371582,482.72052002 L540.061401367,483.933074951 L539.960693359,485.06362915 L539.473937988,486.078857422 L538.609313965,486.948516846 L537.37902832,487.639068604 L535.80657959,488.128295898 L533.934082031,488.404449463 L531.83203125,488.477111816 L529.587097168,488.37197876 L527.298034668,488.124298096 L525.06652832,487.770812988 L522.992431641,487.346954346 L521.167785645,486.876098633 L519.682983398,486.395050049 L518.591674805,485.949005127 L517.927368164,485.616455078 L517.618652344,485.42590332 M548.941345215,478.652648926 L548.638427734,478.43637085 L548.088623047,478.161254883 L547.299560547,477.95123291 L546.349365234,477.969055176 L545.279968262,478.281219482 L544.153686523,478.918579102 L543.047973633,479.864898682 L542.066589355,481.090911865 L541.312988281,482.537750244 L540.860534668,484.107330322 L540.762084961,485.682525635 L541.024414062,487.13659668 L541.630249023,488.34677124 L542.533203125,489.21395874 L543.677246094,489.668121338 L544.991455078,489.668029785 L546.404052734,489.207946777 L547.82409668,488.318389893 L549.171875,487.069671631 L550.376342773,485.572784424 L551.375,483.951293945 L552.131713867,482.334320068 L552.640808105,480.852996826 L552.921386719,479.619873047 L553.029785156,478.706665039 L553.034301758,478.149780273 L552.987670898,477.949371338 L552.936035156,478.102966309 L552.909179688,478.630950928 L552.931030273,479.544433594 L553.024536133,480.796386719 L553.194824219,482.282562256 L553.446350098,483.861907959 L553.77911377,485.393554688 L554.190429688,486.772125244 L554.666137695,487.918670654 L555.167541504,488.782409668 L555.641967773,489.336334229 L556.053527832,489.5831604 L556.401367188,489.479309082 L556.712524414,489.023986816 L557.011108398,488.255889893 L557.252685547,487.476074219 L557.409729004,486.903808594 M559.373413086,477.23260498 L559.391723633,477.281524658 L559.450622559,477.483642578 L559.560546875,477.938720703 L559.703857422,478.704833984 L559.842163086,479.759063721 L559.944580078,481.05065918 L559.99621582,482.480682373 L560.010314941,483.937713623 L560.015808105,485.304718018 L560.026611328,486.463745117 L560.051391602,487.334442139 L560.082763672,487.880645752 L560.110412598,488.079681396 L560.138244629,487.918365479 L560.18536377,487.384887695 L560.278076172,486.486694336 L560.452453613,485.297485352 L560.737670898,483.926361084 L561.154907227,482.487823486 L561.723205566,481.076171875 L562.446533203,479.761627197 L563.32244873,478.604003906 L564.330200195,477.672485352 L565.434692383,477.030303955 L566.592468262,476.723480225 L567.758178711,476.775756836 L568.881530762,477.188232422 L569.917907715,477.942779541 L570.823974609,479.00112915 L571.565368652,480.304840088 L572.130981445,481.77444458 L572.526733398,483.314758301 L572.786315918,484.824188232 L572.947753906,486.201751709 L573.05255127,487.3621521 L573.133605957,488.244049072 L573.209228516,488.825744629 L573.27722168,489.139007568 L573.33770752,489.267089844 L573.391357422,489.251251221 L573.449645996,489.116638184 L573.532958984,488.855804443 L573.619812012,488.567108154 L573.688110352,488.333526611 M580.716796875,465.646697998 L580.731750488,465.688018799 L580.770996094,465.875823975 L580.838256836,466.315734863 L580.921020508,467.082275391 L580.995727539,468.183227539 L581.047973633,469.591339111 L581.061157227,471.255096436 L581.039489746,473.115112305 L580.998046875,475.109588623 L580.950500488,477.16796875 L580.909179688,479.210357666 L580.882385254,481.155883789 L580.873901367,482.920593262 L580.884765625,484.424438477 L580.917663574,485.621734619 L580.956054688,486.456848145 L580.97668457,486.911773682 L580.958618164,487.012542725 L580.918884277,486.91217041 L580.876464844,486.756011963 M576.785644531,475.855895996 L577.087402344,475.845733643 L577.756591797,475.816314697 L578.863037109,475.758483887 L580.352416992,475.669372559 L582.120056152,475.55267334 L584.023620605,475.431488037 L585.927124023,475.328796387 L587.714477539,475.254180908 L589.26574707,475.205352783 L590.493652344,475.168121338 L591.294555664,475.137512207 L591.696655273,475.115203857 " fill="none" stroke="black" stroke-linecap="round" stroke-width="2" /><path d="M0,0 M450.231262207,529.729248047 L450.2394104,529.991638184 L450.22833252,530.66973877 L450.172058105,531.921630859 L450.042144775,533.755737305 L449.83706665,536.070922852 L449.551513672,538.660400391 L449.198974609,541.293579102 L448.828460693,543.734680176 L448.508087158,545.774108887 L448.303253174,547.25994873 L448.222015381,548.139404297 L448.222442627,548.518920898 M459.291534424,529.080383301 L459.472442627,528.968261719 L459.606933594,528.897338867 L459.52444458,529.001464844 L459.032348633,529.436401367 L458.105987549,530.266967773 L456.769470215,531.475646973 L455.144897461,532.970581055 L453.379455566,534.639831543 L451.665740967,536.342468262 L450.186981201,537.939147949 L449.094604492,539.319580078 L448.45803833,540.414367676 L448.297943115,541.217712402 L448.585113525,541.791809082 L449.270202637,542.218994141 L450.293609619,542.563293457 L451.579101562,542.868225098 L453.024047852,543.157897949 L454.521636963,543.446105957 L455.967346191,543.737548828 L457.287384033,544.007202148 L458.439086914,544.210083008 L459.39630127,544.313659668 L460.148956299,544.248596191 L460.700744629,543.981262207 L461.070617676,543.518188477 L461.282348633,543.036987305 L461.379760742,542.673828125 M464.254425049,533.932373047 L464.311859131,533.822143555 L464.367492676,533.780395508 L464.372802734,533.97467041 L464.265075684,534.604064941 L464.025421143,535.751403809 L463.665985107,537.390380859 L463.242462158,539.365722656 L462.84552002,541.458129883 L462.570922852,543.405578613 L462.47543335,545.005554199 L462.576873779,546.148254395 L462.856811523,546.803771973 L463.292144775,546.961303711 L463.889160156,546.597839355 L464.665344238,545.655578613 L465.62109375,544.13079834 L466.737426758,542.14074707 L467.958435059,539.920043945 L469.204223633,537.764221191 L470.373504639,535.931335449 L471.366210938,534.55078125 L472.102264404,533.668701172 L472.534484863,533.319091797 L472.649658203,533.561767578 L472.476715088,534.483886719 L472.055114746,536.096069336 L471.46673584,538.232421875 L470.83102417,540.60168457 L470.279296875,542.88458252 L469.910827637,544.82434082 L469.764587402,546.312561035 L469.832519531,547.272583008 L470.066192627,547.684997559 L470.408782959,547.59173584 L470.733184814,547.256530762 L470.960388184,546.910827637 M476.754180908,533.407531738 L476.761993408,533.500244141 L476.71472168,533.919494629 L476.556518555,534.875976562 L476.248352051,536.455078125 L475.804321289,538.53137207 L475.276031494,540.85559082 L474.748352051,543.107177734 L474.310272217,545.012878418 L474.016296387,546.432678223 L473.878723145,547.327392578 L473.875610352,547.699951172 L473.977111816,547.533752441 L474.196166992,546.741516113 L474.593841553,545.264587402 L475.233612061,543.204528809 L476.161010742,540.818115234 L477.369934082,538.427185059 L478.793395996,536.310668945 L480.328277588,534.628662109 L481.854309082,533.452880859 L483.240325928,532.844238281 L484.372558594,532.861694336 L485.166259766,533.549133301 L485.580322266,534.892700195 L485.629364014,536.779968262 L485.39050293,539.0 L484.984130859,541.298156738 L484.545684814,543.422180176 L484.187286377,545.173095703 L483.961578369,546.455383301 L483.862304688,547.265625 L483.883850098,547.564453125 L484.016204834,547.368896484 L484.262176514,546.722351074 L484.527648926,545.957641602 L484.735595703,545.34777832 M493.467102051,533.848571777 L493.606384277,533.573547363 L493.774078369,533.194580078 L493.88583374,532.806762695 L493.832305908,532.547485352 L493.572998047,532.454345703 L493.079528809,532.569946289 L492.376953125,532.973693848 L491.490844727,533.772338867 L490.482391357,535.038757324 L489.440582275,536.771179199 L488.470916748,538.854614258 L487.67288208,541.053344727 L487.134490967,543.091552734 L486.894744873,544.722045898 L486.959350586,545.799316406 L487.308746338,546.283203125 L487.919403076,546.173522949 L488.771087646,545.457580566 L489.827911377,544.14276123 L491.031585693,542.312805176 L492.301300049,540.168212891 L493.540130615,538.001953125 L494.639068604,536.102722168 L495.515167236,534.64276123 L496.115570068,533.676147461 L496.425323486,533.202514648 L496.46282959,533.244873047 L496.268615723,533.88092041 L495.877197266,535.1796875 L495.356719971,537.070373535 L494.802368164,539.338439941 L494.321655273,541.692199707 L494.002563477,543.852050781 L493.894470215,545.633300781 L493.997070312,546.949645996 L494.29296875,547.755615234 L494.765045166,548.023986816 L495.415283203,547.73828125 L496.239013672,546.890136719 L497.222900391,545.511901855 L498.338104248,543.688232422 L499.540863037,541.545410156 L500.78237915,539.225097656 L502.017303467,536.855041504 L503.196228027,534.535095215 L504.263977051,532.350463867 L505.163024902,530.388244629 L505.841369629,528.73425293 L506.284942627,527.453796387 L506.503082275,526.565002441 L506.520629883,526.060852051 L506.351104736,525.943969727 L505.984344482,526.262023926 L505.399749756,527.098083496 L504.62399292,528.513916016 L503.717529297,530.490661621 L502.771179199,532.918457031 L501.890777588,535.613708496 L501.168029785,538.357543945 L500.678100586,540.941162109 L500.486755371,543.19329834 L500.628051758,544.999084473 L501.100097656,546.302368164 L501.87322998,547.097900391 L502.891174316,547.399414062 L504.08996582,547.24041748 L505.395874023,546.691772461 L506.74810791,545.813354492 L508.056793213,544.718017578 L509.234100342,543.548522949 L510.096130371,542.594238281 L510.589782715,541.996459961 M532.755493164,527.003051758 L532.578735352,526.691894531 L532.23059082,526.211425781 L531.692504883,525.664978027 L530.985900879,525.232116699 L530.121582031,525.0 L529.119445801,525.028442383 L528.030517578,525.33605957 L526.944213867,525.939147949 L525.968933105,526.836791992 L525.207336426,528.01171875 L524.740478516,529.428955078 L524.613830566,531.037353516 L524.843139648,532.778198242 L525.405883789,534.594177246 L526.233886719,536.42956543 L527.22454834,538.239562988 L528.246887207,539.984863281 L529.169006348,541.631835938 L529.879821777,543.155761719 L530.299926758,544.538879395 L530.383850098,545.769958496 L530.122497559,546.846191406 L529.52532959,547.766723633 L528.619262695,548.526916504 L527.450805664,549.118164062 L526.089233398,549.528198242 L524.624450684,549.750427246 L523.160522461,549.787536621 L521.794799805,549.651000977 L520.606750488,549.35748291 L519.643371582,548.929443359 L518.980834961,548.353149414 L518.666870117,547.645812988 L518.711608887,546.851074219 L518.942504883,546.169921875 L519.191833496,545.722900391 M539.643554688,536.50604248 L539.656311035,536.24798584 L539.65447998,535.82043457 L539.602600098,535.28704834 L539.45111084,534.78137207 L539.155212402,534.389099121 L538.675842285,534.18927002 L538.003479004,534.255126953 L537.151794434,534.672790527 L536.159790039,535.520629883 L535.091186523,536.839355469 L534.03125,538.60559082 L533.081237793,540.699890137 L532.346191406,542.906677246 L531.895263672,544.958374023 L531.75390625,546.617248535 L531.909545898,547.73651123 L532.327209473,548.266418457 L532.977355957,548.21105957 L533.838867188,547.571228027 L534.878234863,546.354003906 L536.055786133,544.6328125 L537.317443848,542.579833984 L538.593200684,540.449707031 L539.787658691,538.515258789 L540.803283691,536.96697998 L541.559631348,535.887878418 L542.012817383,535.303283691 L542.160766602,535.235961914 L542.037719727,535.740234375 L541.674743652,536.87322998 L541.131713867,538.588195801 L540.503845215,540.702453613 L539.907714844,542.933288574 L539.455383301,544.978759766 L539.216186523,546.621459961 L539.19744873,547.763000488 L539.372924805,548.375610352 L539.712585449,548.461669922 L540.205688477,548.007995605 L540.856384277,546.995422363 L541.661743164,545.469848633 L542.61138916,543.565429688 L543.678710938,541.486083984 L544.827209473,539.464050293 L545.991699219,537.698364258 L547.083007812,536.308776855 L548.00390625,535.35546875 L548.67175293,534.86920166 L549.039794922,534.889343262 L549.114196777,535.474060059 L548.913330078,536.66229248 L548.479309082,538.391662598 L547.884765625,540.480651855 L547.228149414,542.652404785 L546.616394043,544.612670898 L546.140930176,546.152038574 L545.84588623,547.175231934 L545.737365723,547.656188965 L545.805175781,547.591491699 L546.061523438,546.941345215 L546.541625977,545.66583252 L547.284667969,543.847900391 L548.31060791,541.71862793 L549.584228516,539.594848633 L551.006835938,537.780090332 L552.4375,536.443054199 L553.739013672,535.62512207 L554.798706055,535.328796387 L555.548583984,535.56451416 L555.965576172,536.352050781 L556.066162109,537.689880371 L555.893737793,539.477111816 L555.544372559,541.528076172 L555.132080078,543.612731934 L554.770935059,545.515563965 L554.551757812,547.076721191 L554.504211426,548.218322754 L554.59765625,548.93560791 L554.739074707,549.296264648 L554.852416992,549.421081543 M563.192626953,527.753051758 L563.201416016,527.701599121 L563.190185547,527.764831543 L563.13458252,528.10369873 L563.00604248,528.883300781 L562.792907715,530.158508301 L562.485046387,531.903747559 L562.09362793,534.020446777 L561.65234375,536.377685547 L561.211669922,538.831726074 L560.82421875,541.249694824 L560.528930664,543.490783691 L560.332580566,545.389099121 L560.222167969,546.795898438 L560.170715332,547.635070801 L560.151489258,547.993530273 L560.14642334,548.05682373 " fill="none" stroke="black" stroke-linecap="round" stroke-width="2" /></svg>