<?xml version="1.0" encoding="utf-8" ?>
<svg baseProfile="full" height="100%" version="1.1" viewBox="0,0,1000,120" width="100%" xmlns="http://www.w3.org/2000/svg" xmlns:ev="http://www.w3.org/2001/xml-events" xmlns:xlink="http://www.w3.org/1999/xlink"><defs /><rect fill="white" height="120" width="1000" x="0" y="0" /><path d="M0,0 M418.981750488,47.6228866577 L418.951843262,47.6200485229 L418.920349121,47.6339263916 L418.890411377,47.7280921936 L418.838195801,48.008895874 L418.693572998,48.6148147583 L418.372192383,49.6740608215 L417.803222656,51.2397994995 L416.973815918,53.2875328064 L415.921264648,55.7296066284 L414.721618652,58.4189376831 L413.479553223,61.1765556335 L412.313537598,63.8136405945 L411.324493408,66.1137771606 L410.587646484,67.9148254395 L410.108215332,69.1681213379 L409.852874756,69.8901443481 L409.79699707,70.1130905151 L409.97164917,69.8368988037 L410.459136963,68.9941635132 L411.368347168,67.5428543091 L412.73638916,65.5624389648 L414.545898438,63.2030525208 L416.734558105,60.661075592 L419.202819824,58.0894737244 L421.848693848,55.6053543091 L424.56829834,53.3038253784 L427.228668213,51.2995452881 L429.677734375,49.6950759888 L431.752746582,48.5826835632 L433.30078125,47.9345932007 L434.291625977,47.6598510742 L434.748474121,47.6285209656 L434.782562256,47.7188987732 L434.518432617,47.8513870239 L434.177154541,47.9762573242 L433.895141602,48.0600776672 M420.833496094,58.1392440796 L421.015289307,58.399520874 L421.362030029,58.9416770935 L421.879455566,59.7997703552 L422.516052246,60.9076309204 L423.257446289,62.199306488 L424.080047607,63.5860290527 L424.991394043,64.9750518799 L425.996032715,66.2554321289 L427.078277588,67.3203048706 L428.209899902,68.0626068115 L429.371032715,68.3979034424 L430.556518555,68.2682876587 L431.801574707,67.6332855225 L433.132507324,66.4852752686 L434.542022705,64.9029006958 L436.000061035,63.0218086243 L437.446014404,61.015083313 L438.812927246,59.0648918152 L440.023925781,57.34375 L440.995666504,55.9718780518 L441.682800293,55.0121917725 L442.073303223,54.4830360413 L442.182434082,54.3939819336 L442.043395996,54.7693328857 L441.66317749,55.6777191162 L441.062774658,57.1250267029 L440.346069336,58.9951477051 L439.653533936,61.0757331848 L439.142333984,63.1079025269 L438.933044434,64.8563156128 L439.067810059,66.1831283569 L439.536254883,67.0141906738 L440.324890137,67.311416626 L441.410430908,67.060218811 L442.761505127,66.2734146118 L444.317687988,65.0109939575 L445.986053467,63.3955612183 L447.66394043,61.5911178589 L449.238800049,59.783531189 L450.59487915,58.1575241089 L451.645629883,56.8554382324 L452.349090576,55.9531440735 L452.701477051,55.4786949158 L452.752075195,55.4380149841 L452.547912598,55.8626594543 L452.114227295,56.8081741333 L451.509552002,58.2570152283 L450.851989746,60.0643501282 L450.281066895,61.9883842468 L449.955871582,63.7705574036 L449.983032227,65.2152557373 L450.393035889,66.2127990723 L451.180603027,66.7017364502 L452.334594727,66.6443099976 L453.802032471,66.0305557251 L455.520721436,64.9159469604 L457.391296387,63.4205131531 L459.291290283,61.702911377 L461.115783691,59.9423980713 L462.770050049,58.3190574646 L464.146575928,56.9742050171 L465.176025391,55.998916626 L465.82623291,55.4528427124 L466.09942627,55.3705749512 L466.042785645,55.7831192017 L465.690490723,56.7266998291 L465.067047119,58.1616325378 L464.244354248,59.9368438721 L463.360534668,61.8132171631 L462.565063477,63.5182647705 L461.979309082,64.8471298218 L461.644042969,65.703666687 L461.541107178,66.055229187 L461.659973145,65.9082794189 L462.047515869,65.2593307495 L462.769897461,64.1240768433 L463.867736816,62.6132583618 L465.310058594,60.9004592896 L467.003387451,59.1844825745 L468.820373535,57.6598472595 L470.640991211,56.4635810852 L472.362945557,55.6770706177 L473.905914307,55.3567047119 L475.191345215,55.5134315491 L476.163269043,56.1235733032 L476.789093018,57.1434364319 L477.069396973,58.496131897 L477.059570312,60.0638122559 L476.86730957,61.6882514954 L476.618743896,63.1945228577 L476.425170898,64.4422988892 L476.360015869,65.3502426147 L476.45489502,65.879447937 L476.743652344,66.0189971924 L477.27166748,65.7584915161 L478.088409424,65.0978851318 L479.209960938,64.0944824219 L480.619140625,62.8564491272 L482.26675415,61.5130004883 L484.099945068,60.1855506897 L486.07119751,58.9721794128 L488.130126953,57.9427909851 L490.204284668,57.1589508057 L492.214538574,56.660118103 L494.06072998,56.4389076233 L495.632080078,56.4277915955 L496.847076416,56.5375709534 L497.662109375,56.6745567322 L498.10635376,56.7802429199 L498.269134521,56.8295593262 L498.2315979,56.8142166138 L498.02230835,56.7295227051 L497.617004395,56.6032676697 L496.940246582,56.4873275757 L495.949188232,56.4794998169 L494.645446777,56.6874542236 L493.082946777,57.2033920288 L491.366516113,58.0721359253 L489.642333984,59.2824859619 L488.07043457,60.7400016785 L486.826416016,62.2906417847 L486.052368164,63.755279541 L485.829956055,64.9633712769 L486.174438477,65.7783279419 L487.044921875,66.1236343384 L488.354034424,65.9586868286 L489.996948242,65.2859039307 L491.84765625,64.1787109375 L493.755950928,62.7622375488 L495.564117432,61.1954879761 L497.115722656,59.6796646118 L498.291809082,58.3889160156 L499.0597229,57.4210205078 L499.449890137,56.8199157715 L499.52911377,56.6005935669 L499.369506836,56.7765960693 L499.006378174,57.4037742615 L498.481140137,58.5091781616 L497.905059814,59.9997367859 L497.420501709,61.6789894104 L497.172515869,63.3149604797 L497.270843506,64.6953811646 L497.758392334,65.6920318604 L498.630218506,66.2275314331 L499.889160156,66.2386016846 L501.52432251,65.6772766113 L503.495239258,64.5421600342 L505.724700928,62.8823318481 L508.105895996,60.811000824 L510.50213623,58.4575691223 L512.791748047,55.9582328796 L514.872558594,53.4466819763 L516.647583008,51.0608940125 L518.033569336,48.9465103149 L518.983032227,47.2284355164 L519.479614258,45.9777259827 L519.539794922,45.2278556824 L519.199829102,45.0 L518.484619141,45.3326263428 L517.417175293,46.2881736755 L516.059326172,47.8751831055 L514.522521973,50.0113487244 L512.960632324,52.5350608826 L511.555908203,55.2333526611 L510.480621338,57.892780304 L509.86618042,60.3393287659 L509.804962158,62.4305267334 L510.331726074,64.0578765869 L511.421325684,65.1597747803 L512.999694824,65.7223587036 L514.940307617,65.7946166992 L517.113647461,65.4336013794 L519.334655762,64.7541656494 L521.411010742,63.889339447 L522.969116211,63.1225280762 L523.879150391,62.6132164001 M555.646728516,48.5756111145 L555.552307129,48.3297119141 L555.344116211,47.9516220093 L554.971008301,47.509765625 L554.401245117,47.1311073303 L553.595397949,46.8739852905 L552.547058105,46.7905807495 L551.288452148,46.9105415344 L549.903869629,47.2646865845 L548.501098633,47.855758667 L547.204406738,48.669002533 L546.12677002,49.6790466309 L545.372070312,50.850189209 L545.030151367,52.1421165466 L545.169494629,53.5070114136 L545.815429688,54.8996772766 L546.928466797,56.2804603577 L548.393798828,57.6207351685 L550.043395996,58.90883255 L551.682800293,60.1453971863 L553.127990723,61.3272323608 L554.238586426,62.4582481384 L554.92401123,63.5336799622 L555.127868652,64.5415267944 L554.83013916,65.473815918 L554.028137207,66.3125305176 L552.741943359,67.0208587646 L551.037231445,67.5593566895 L549.028686523,67.8883285522 L546.859741211,67.9824447632 L544.695861816,67.8477172852 L542.675292969,67.5190963745 L540.931884766,67.0097427368 L539.581542969,66.3626403809 L538.695373535,65.6377944946 L538.239379883,65.0212783813 L538.093139648,64.6194152832 M566.39276123,59.3146743774 L566.353210449,59.1095046997 L566.233825684,58.77186203 L565.986877441,58.3551139832 L565.5625,57.9739074707 L564.916625977,57.7109527588 L564.030395508,57.6482276917 L562.922363281,57.8501434326 L561.643249512,58.3706321716 L560.28326416,59.2340049744 L558.943359375,60.4207458496 L557.733032227,61.8589019775 L556.768798828,63.4199905396 L556.14440918,64.9403686523 L555.918884277,66.2601852417 L556.112365723,67.2493362427 L556.703125,67.821723938 L557.652282715,67.926109314 L558.918151855,67.5434646606 L560.433105469,66.6953353882 L562.107299805,65.4576950073 L563.827270508,63.9566383362 L565.460083008,62.3532752991 L566.867553711,60.831905365 L567.953979492,59.5587081909 L568.68347168,58.625087738 L569.069519043,58.0674247742 L569.166442871,57.8976402283 L569.03125,58.1286201477 L568.686401367,58.8089523315 L568.177246094,59.9538383484 L567.603149414,61.44373703 L567.099365234,63.0752754211 L566.822875977,64.6125488281 L566.900512695,65.8480987549 L567.381591797,66.6573638916 L568.274047852,66.9799194336 L569.561889648,66.782875061 L571.204223633,66.0835189819 L573.114379883,64.9549331665 L575.167602539,63.5270690918 L577.211730957,61.9751930237 L579.085571289,60.4992752075 L580.654846191,59.2701568604 L581.842895508,58.4010543823 L582.600891113,57.9585189819 L582.929199219,57.9771575928 L582.871765137,58.473613739 L582.46472168,59.4474830627 L581.764709473,60.8080596924 L580.894897461,62.3642807007 L580.009155273,63.8718490601 L579.26751709,65.120010376 L578.775878906,65.981590271 L578.567687988,66.4235229492 L578.632324219,66.4385986328 L578.995056152,66.0144729614 L579.707702637,65.1501464844 L580.809631348,63.9249382019 L582.25970459,62.4991798401 L583.961547852,61.0801048279 L585.76574707,59.8521003723 L587.531982422,58.9394798279 L589.150024414,58.3954849243 L590.543273926,58.2369728088 L591.648620605,58.4589538574 L592.430603027,59.0493583679 L592.869750977,59.9742851257 L592.983337402,61.174987793 L592.840454102,62.5457382202 L592.563842773,63.946144104 L592.306518555,65.231338501 L592.215087891,66.2774353027 L592.402648926,66.9820022583 L592.944274902,67.2615280151 L593.880554199,67.0473556519 L595.217590332,66.2970733643 L596.924438477,65.0272369385 L598.929504395,63.3048934937 L601.134765625,61.234287262 L603.436889648,58.9324073792 L605.741699219,56.5230636597 L607.962280273,54.1291618347 L610.018615723,51.8967437744 L611.811828613,49.9817047119 L613.248168945,48.4951477051 L614.262756348,47.4902496338 L614.828552246,46.9833526611 L614.955688477,46.9817047119 L614.67376709,47.5209579468 L613.98223877,48.6585617065 L612.905212402,50.3659439087 L611.514221191,52.5277671814 L609.928405762,54.9612808228 L608.30456543,57.458240509 L606.80847168,59.8116416931 L605.560180664,61.8458900452 L604.637817383,63.4219284058 L604.064086914,64.4613876343 L603.802490234,64.9377975464 L603.767822266,64.8787307739 L603.865356445,64.3210220337 L603.997802734,63.3313980103 L604.068237305,62.0579032898 L603.993041992,60.6927604675 L603.70300293,59.4270629883 L603.173583984,58.417350769 L602.434692383,57.7491111755 L601.572631836,57.4578552246 L600.706604004,57.5579528809 L599.985107422,58.0314369202 L599.543151855,58.8199462891 L599.53137207,59.808391571 L600.072998047,60.8429069519 L601.263671875,61.7527618408 L603.116333008,62.3939743042 L605.650878906,62.6383399963 L608.857299805,62.4007492065 L611.799560547,61.9379959106 L613.877990723,61.4892578125 " fill="none" stroke="black" stroke-linecap="round" stroke-width="1.5" /></svg>