<?xml version="1.0" encoding="utf-8" ?>
<svg baseProfile="full" height="100%" version="1.1" viewBox="0,0,1000,120" width="100%" xmlns="http://www.w3.org/2000/svg" xmlns:ev="http://www.w3.org/2001/xml-events" xmlns:xlink="http://www.w3.org/1999/xlink"><defs /><rect fill="white" height="120" width="1000" x="0" y="0" /><path d="M0,0 M439.318756104,46.0384979248 L439.365600586,46.2716827393 L439.444915771,46.8684921265 L439.539123535,47.9537353516 L439.608947754,49.5279769897 L439.625244141,51.5173072815 L439.554779053,53.7905654907 L439.390899658,56.2048377991 L439.167266846,58.6143341064 L438.939208984,60.8726577759 L438.760955811,62.8191108704 L438.659759521,64.3669128418 L438.648193359,65.399810791 L438.720581055,65.8723068237 L438.881408691,65.8149795532 L439.061645508,65.4961471558 L439.207641602,65.1509780884 M451.481811523,46.1956787109 L451.50769043,46.157913208 L451.412017822,46.2444152832 L451.034362793,46.5939102173 L450.213623047,47.3220825195 L448.90612793,48.4153213501 L447.173370361,49.7902450562 L445.187896729,51.3120651245 L443.182922363,52.8439826965 L441.401763916,54.2560577393 L440.02130127,55.4554100037 L439.152679443,56.3904342651 L438.824829102,57.0675430298 L439.018127441,57.5334777832 L439.700439453,57.8536758423 L440.834106445,58.0840835571 L442.332763672,58.2752723694 L444.081085205,58.4784965515 L445.937591553,58.74634552 L447.762542725,59.1254005432 L449.457122803,59.64427948 L450.948272705,60.2905464172 L452.203613281,61.0241699219 L453.207733154,61.7855606079 L453.977752686,62.4735717773 L454.547302246,62.9909324646 L454.969299316,63.2733840942 L455.241760254,63.3574562073 L455.393890381,63.3301391602 M459.379425049,54.7592048645 L459.395874023,54.8328323364 L459.414306641,55.127784729 L459.408233643,55.7735786438 L459.355773926,56.8099937439 L459.265777588,58.1399726868 L459.192230225,59.6116027832 L459.214477539,61.0471572876 L459.417724609,62.2916069031 L459.850738525,63.23878479 L460.530212402,63.8002471924 L461.446624756,63.9110946655 L462.572631836,63.5373306274 L463.858123779,62.6853485107 L465.23324585,61.4216995239 L466.605102539,59.8799362183 L467.863983154,58.2529716492 L468.909423828,56.761428833 L469.678619385,55.5658531189 L470.160705566,54.7490310669 L470.398925781,54.3397827148 L470.472045898,54.3417854309 L470.447875977,54.7822113037 L470.367034912,55.6951828003 L470.254882812,57.0206069946 L470.146362305,58.6014213562 L470.088195801,60.2314147949 L470.12097168,61.7170410156 L470.285125732,62.9006729126 L470.57333374,63.7052230835 L470.950866699,64.1120376587 L471.296569824,64.2264556885 L471.534576416,64.1892623901 M476.401611328,54.971824646 L476.465332031,55.1848068237 L476.557922363,55.6965293884 L476.640380859,56.5780067444 L476.65322876,57.7717857361 L476.583984375,59.1334075928 L476.454498291,60.4702453613 L476.315917969,61.6136932373 L476.221069336,62.4492492676 L476.202514648,62.9098968506 L476.272644043,62.9463882446 L476.464355469,62.5314445496 L476.818664551,61.6584243774 L477.375732422,60.409702301 L478.161560059,58.9396209717 L479.171844482,57.4314346313 L480.373291016,56.0519371033 L481.718994141,54.9290657043 L483.152832031,54.1432189941 L484.60949707,53.7610626221 L486.01751709,53.8219146729 L487.299255371,54.32837677 L488.383850098,55.2401199341 L489.21875,56.4761314392 L489.789489746,57.9172210693 L490.125793457,59.4216499329 L490.289550781,60.8430175781 L490.347808838,62.0688934326 L490.396820068,63.0021476746 L490.508422852,63.5950622559 L490.726257324,63.850112915 L490.971618652,63.8801116943 L491.169891357,63.8098869324 M501.615203857,56.4651298523 L501.497314453,56.1944007874 L501.22644043,55.8283576965 L500.732788086,55.5025253296 L499.977294922,55.4254989624 L498.94934082,55.7012443542 L497.717041016,56.3806724548 L496.423156738,57.4255561829 L495.261108398,58.7414360046 L494.410888672,60.1677017212 L493.995117188,61.5306243896 L494.061798096,62.6713027954 L494.597198486,63.4672851562 L495.546386719,63.8315658569 L496.827758789,63.7166137695 L498.329284668,63.1185913086 L499.908630371,62.096282959 L501.41192627,60.7698287964 L502.69921875,59.3066635132 L503.676971436,57.9033966064 L504.317382812,56.7269325256 L504.661865234,55.8663330078 L504.78515625,55.3590316772 L504.773620605,55.2205505371 L504.691223145,55.4694747925 L504.576904297,56.1454582214 L504.46496582,57.2327804565 L504.411132812,58.6042251587 L504.479736328,60.0852851868 L504.741394043,61.4987068176 L505.23840332,62.7071495056 L505.966827393,63.6450881958 L506.93157959,64.2109375 L508.076293945,64.3301391602 L509.312164307,64.0034255981 L510.341674805,63.4994354248 L511.00189209,63.0570907593 M515.636169434,45.9263153076 L515.692993164,46.1938667297 L515.773376465,46.8123817444 L515.840209961,47.8603057861 L515.838867188,49.3025817871 L515.750305176,51.0575065613 L515.592041016,53.0211639404 L515.416259766,55.0823287964 L515.290222168,57.1167564392 L515.279907227,58.9901809692 L515.40423584,60.5753364563 L515.63684082,61.7953796387 L515.948852539,62.6002349854 L516.304260254,62.998916626 L516.678405762,63.0435218811 L516.995605469,62.9069824219 L517.208618164,62.7387008667 M553.255493164,46.6050224304 L552.983276367,46.2897796631 L552.43572998,45.8326377869 L551.56060791,45.3552246094 L550.386230469,45.0534591675 L548.932067871,45.0 L547.27520752,45.2256584167 L545.564758301,45.7026252747 L544.01550293,46.3971366882 L542.847839355,47.2567481995 L542.249389648,48.2352905273 L542.314941406,49.2861404419 L543.047363281,50.380531311 L544.390014648,51.4988441467 L546.227783203,52.6395645142 L548.390258789,53.8058624268 L550.673583984,55.0014915466 L552.853210449,56.2162437439 L554.724243164,57.4281692505 L556.144592285,58.6069450378 L557.032714844,59.7232627869 L557.355041504,60.7489929199 L557.107788086,61.6595306396 L556.299072266,62.4286727905 L554.952453613,63.0263366699 L553.12878418,63.4290962219 L550.932067871,63.6238594055 L548.516784668,63.62159729 L546.05670166,63.4575042725 L543.71307373,63.1712379456 L541.615905762,62.8019447327 L539.84552002,62.3861885071 L538.509460449,61.9313583374 L537.69128418,61.4582214355 L537.42010498,60.997379303 L537.499389648,60.634552002 L537.708618164,60.4118118286 M567.05645752,56.0532684326 L566.830444336,55.8150482178 L566.398986816,55.4828071594 L565.728271484,55.1756477356 L564.831665039,55.0778808594 L563.707519531,55.2930793762 L562.415283203,55.8822937012 L561.070495605,56.836391449 L559.840026855,58.0917549133 L558.888671875,59.5260925293 L558.334411621,60.9808731079 L558.238647461,62.2970809937 L558.602172852,63.3388404846 L559.385864258,64.0026931763 L560.524719238,64.2169647217 L561.934509277,63.9470901489 L563.505493164,63.2019271851 L565.109008789,62.0490455627 L566.610107422,60.6130943298 L567.893920898,59.0639877319 L568.882995605,57.5963897705 L569.552001953,56.3805084229 L569.934204102,55.4920921326 L570.097961426,54.9476280212 L570.127563477,54.7388534546 L570.096923828,54.8772659302 L570.047912598,55.4198303223 L570.003356934,56.399307251 L569.995361328,57.7197189331 L570.062866211,59.2172164917 L570.251342773,60.7022666931 L570.587402344,62.0209465027 L571.089050293,63.0508041382 L571.722717285,63.7218322754 L572.431884766,64.0003967285 L573.030883789,64.0100631714 L573.418457031,63.9041061401 M576.881713867,55.5109825134 L576.938903809,55.7150382996 L577.02722168,56.2060089111 L577.118652344,57.0507659912 L577.164794922,58.1989250183 L577.151672363,59.5155830383 L577.091186523,60.8192825317 L577.01739502,61.9432945251 L576.964416504,62.7820625305 L576.954345703,63.2663192749 L576.995178223,63.3496017456 L577.116577148,62.999004364 L577.364746094,62.2007980347 L577.793640137,61.0146598816 L578.440429688,59.5955696106 L579.315063477,58.1203422546 L580.392822266,56.7556648254 L581.629211426,55.6263008118 L582.963806152,54.8124389648 L584.331726074,54.3730812073 L585.661804199,54.3544998169 L586.884277344,54.766292572 L587.934265137,55.5806541443 L588.760314941,56.7353515625 L589.338256836,58.1371688843 L589.684814453,59.6597213745 L589.860290527,61.1592521667 L589.942016602,62.5138320923 L590.025817871,63.5738601685 L590.177368164,64.2352752686 L590.421691895,64.4627532959 L590.672790527,64.4066925049 L590.862609863,64.2427978516 M597.353881836,46.1949119568 L597.422485352,46.390586853 L597.531188965,46.8875923157 L597.653442383,47.782497406 L597.740356445,49.0720825195 L597.774047852,50.6849555969 L597.749450684,52.5238342285 L597.687316895,54.4815406799 L597.62286377,56.4492912292 L597.584350586,58.3143501282 L597.583557129,59.9650344849 L597.62310791,61.3262825012 L597.673461914,62.3236198425 L597.694763184,62.8984260559 L597.687011719,63.1301383972 L597.661254883,63.1459655762 " fill="none" stroke="black" stroke-linecap="round" stroke-width="2" /></svg>