<?xml version="1.0" encoding="utf-8" ?>
<svg baseProfile="full" height="100%" version="1.1" viewBox="0,0,1000,120" width="100%" xmlns="http://www.w3.org/2000/svg" xmlns:ev="http://www.w3.org/2001/xml-events" xmlns:xlink="http://www.w3.org/1999/xlink"><defs /><rect fill="white" height="120" width="1000" x="0" y="0" /><path d="M0,0 M426.420135498,45.5163383484 L426.282348633,46.3712806702 L426.051361084,47.8380622864 L425.770751953,49.8014831543 L425.528717041,51.9411430359 L425.382720947,54.1310844421 L425.344696045,56.2657165527 L425.380828857,58.2856750488 L425.470031738,60.0488929749 L425.606231689,61.4156188965 L425.803649902,62.2958602905 L426.006347656,62.7279472351 L426.166107178,62.8515968323 M440.429901123,46.9715881348 L440.29977417,47.0089569092 L439.88369751,47.2211799622 L439.06137085,47.697517395 L437.816772461,48.4556922913 L436.254241943,49.3991165161 L434.522064209,50.4305953979 L432.770477295,51.4411010742 L431.122741699,52.3541641235 L429.695159912,53.1113357544 L428.587646484,53.6735839844 L427.864227295,54.0434646606 L427.54284668,54.2759399414 L427.60635376,54.4400520325 L428.036773682,54.6062355042 L428.825134277,54.8330459595 L429.957519531,55.1571235657 L431.38961792,55.6077461243 L433.047363281,56.1968269348 L434.835144043,56.9176521301 L436.664978027,57.7294845581 L438.46685791,58.5667953491 L440.194000244,59.3487243652 L441.805603027,60.0090179443 L443.298156738,60.450302124 L444.647918701,60.6171455383 L445.827728271,60.4884300232 L446.687988281,60.2215576172 L447.186767578,59.9655456543 M449.675323486,52.145111084 L449.529083252,52.5677108765 L449.323669434,53.3029174805 L449.135040283,54.3073768616 L449.076965332,55.4294624329 L449.209259033,56.601776123 L449.549926758,57.7365646362 L450.084899902,58.7596588135 L450.784393311,59.571144104 L451.613769531,60.088634491 L452.548370361,60.258934021 L453.568908691,60.0696105957 L454.649108887,59.5349769592 L455.748962402,58.7053070068 L456.805969238,57.6494674683 L457.751831055,56.458152771 L458.537963867,55.252155304 L459.140441895,54.1611862183 L459.5625,53.2916412354 L459.818145752,52.7155685425 L459.929321289,52.4703979492 L459.931518555,52.5697860718 L459.878692627,53.0274238586 L459.840209961,53.830619812 L459.890960693,54.9135627747 L460.089660645,56.1547012329 L460.470703125,57.4112892151 L461.033050537,58.5510635376 L461.785766602,59.4555740356 L462.687591553,60.0494651794 L463.664337158,60.3083648682 L464.477478027,60.3336791992 L464.997558594,60.2548408508 M468.054870605,53.366985321 L467.973388672,53.8228225708 L467.848754883,54.6049804688 L467.720367432,55.6374397278 L467.639923096,56.7108421326 L467.619873047,57.698841095 L467.645812988,58.5056266785 L467.680114746,59.0709228516 L467.693664551,59.3360519409 L467.690155029,59.2729797363 L467.696228027,58.8726387024 L467.762176514,58.1679115295 L467.944854736,57.2286148071 L468.297851562,56.1531639099 L468.863067627,55.0405082703 L469.666137695,53.9861068726 L470.712646484,53.0679206848 L471.991333008,52.3607978821 L473.46484375,51.9206237793 L475.075134277,51.7921829224 L476.746887207,51.9862556458 L478.394989014,52.4842338562 L479.940307617,53.2395629883 L481.32409668,54.1944923401 L482.515106201,55.2755432129 L483.510498047,56.3992080688 L484.338867188,57.4716720581 L485.032196045,58.4038772583 L485.659393311,59.1047134399 L486.267272949,59.526058197 L486.877960205,59.6666145325 L487.379760742,59.6337394714 L487.708618164,59.5414199829 M497.563903809,52.2038116455 L496.725097656,52.0988311768 L495.342468262,52.0400390625 L493.594604492,52.1429481506 L491.860656738,52.5134658813 L490.317443848,53.1535873413 L489.094024658,54.0122871399 L488.246887207,55.0100746155 L487.837982178,56.0604743958 L487.893310547,57.072052002 L488.394989014,57.9440879822 L489.294494629,58.5897827148 L490.507080078,58.9371337891 L491.924072266,58.9493103027 L493.406829834,58.6181907654 L494.818359375,57.9854240417 L496.040161133,57.133846283 L496.999969482,56.1992378235 L497.675598145,55.3216056824 L498.096832275,54.6288032532 L498.311767578,54.2169075012 L498.387573242,54.143283844 L498.400054932,54.4289627075 L498.435913086,55.0734977722 L498.577148438,56.0106925964 L498.898803711,57.1311645508 L499.448394775,58.308719635 L500.234344482,59.421333313 L501.2890625,60.3248672485 L502.575439453,60.9135093689 L503.997314453,61.1237068176 L505.198852539,61.0755996704 L505.97744751,60.9267501831 M510.579040527,46.693069458 L510.446014404,47.5528182983 L510.227294922,48.954875946 L509.968017578,50.7494010925 L509.755859375,52.6107597351 L509.653930664,54.4416809082 L509.711608887,56.1721191406 L509.940002441,57.7648506165 L510.377105713,59.0841331482 L511.02557373,60.0250778198 L511.847167969,60.5413589478 L512.597412109,60.7191047668 L513.116760254,60.7088279724 M549.348388672,45.5977668762 L548.540039062,45.3781661987 L547.092773438,45.1360054016 L545.125061035,45.0 L542.998535156,45.1078186035 L540.98638916,45.4644165039 L539.334716797,46.0420875549 L538.20715332,46.7908782959 L537.740234375,47.6950531006 L538.014160156,48.7303924561 L539.01550293,49.8644790649 L540.66394043,51.0736885071 L542.792358398,52.3387069702 L545.166748047,53.6411857605 L547.523193359,54.9516677856 L549.59979248,56.2232513428 L551.168701172,57.3932876587 L552.074462891,58.4083862305 L552.228759766,59.2335929871 L551.60723877,59.8551559448 L550.238891602,60.2659950256 L548.202270508,60.4621696472 L545.634216309,60.4355163574 L542.728942871,60.1863250732 L539.717163086,59.7245979309 L536.842102051,59.0745239258 L534.320800781,58.279548645 L532.301025391,57.3994941711 L530.971313477,56.474395752 L530.429992676,55.5576705933 L530.667175293,54.6979064941 L531.272521973,54.0399208069 L531.867919922,53.6439208984 M563.454467773,52.1136283875 L562.558227539,52.176700592 L561.155700684,52.3740310669 L559.474121094,52.7670516968 L557.935852051,53.3854293823 L556.684020996,54.2100486755 L555.811279297,55.1769065857 L555.336669922,56.2090873718 L555.303161621,57.2225799561 L555.704833984,58.1252250671 L556.506835938,58.8386306763 L557.624450684,59.2839775085 L558.953369141,59.3931121826 L560.378967285,59.1349105835 L561.785339355,58.5190048218 L563.068481445,57.6073913574 L564.160827637,56.5133857727 L565.010925293,55.3862419128 L565.612304688,54.3718147278 L565.988891602,53.5930862427 L566.186462402,53.1396636963 L566.261291504,53.0645370483 L566.282104492,53.383014679 L566.311950684,54.0857124329 L566.422241211,55.1009712219 L566.672363281,56.3042411804 L567.104309082,57.5486602783 L567.72479248,58.6943702698 L568.539672852,59.59009552 L569.490722656,60.1397438049 L570.489868164,60.3067741394 L571.301513672,60.2293930054 L571.807617188,60.0698852539 M574.067565918,53.1513328552 L574.000854492,53.6663856506 L573.895141602,54.5278320312 L573.776550293,55.6297454834 L573.683105469,56.7223243713 L573.62890625,57.673500061 L573.605163574,58.3915405273 L573.595703125,58.8307037354 L573.591674805,58.9432258606 L573.607666016,58.708732605 L573.67791748,58.1310958862 L573.858032227,57.2695083618 L574.204833984,56.2307701111 L574.766662598,55.1402587891 L575.568481445,54.1163482666 L576.602661133,53.2548789978 L577.835510254,52.6253662109 L579.217041016,52.2834854126 L580.687438965,52.262588501 L582.18371582,52.5719528198 L583.645141602,53.1901092529 L585.016357422,54.0631828308 L586.260986328,55.1168365479 L587.368347168,56.2651939392 L588.354858398,57.4118766785 L589.254150391,58.459022522 L590.103820801,59.311000824 L590.932373047,59.8913574219 L591.779785156,60.0895309448 L592.6484375,59.8639297485 L593.509887695,59.2494163513 L594.197509766,58.5541381836 L594.625488281,58.0176239014 M599.83996582,46.4330940247 L599.712280273,47.2307472229 L599.508850098,48.5482444763 L599.267150879,50.2523803711 L599.058959961,52.0453338623 L598.916625977,53.8414306641 L598.849243164,55.5707511902 L598.830810547,57.1803741455 L598.839477539,58.5170707703 L598.867919922,59.4420089722 L598.898925781,59.938041687 L598.926330566,60.1047439575 " fill="none" stroke="black" stroke-linecap="round" stroke-width="2" /></svg>