<?xml version="1.0" encoding="utf-8" ?>
<svg baseProfile="full" height="100%" version="1.1" viewBox="0,0,1000,600" width="100%" xmlns="http://www.w3.org/2000/svg" xmlns:ev="http://www.w3.org/2001/xml-events" xmlns:xlink="http://www.w3.org/1999/xlink"><defs /><rect fill="white" height="600" width="1000" x="0" y="0" /><path d="M0,0 M454.573913574,45.3265380859 L454.55947876,45.4450378418 L454.525939941,45.8174438477 L454.458190918,46.5828552246 L454.335998535,47.8113899231 L454.141876221,49.4990921021 L453.848205566,51.5845108032 L453.45526123,53.9716720581 L452.99331665,56.5327911377 L452.524230957,59.1113739014 L452.124267578,61.518321991 L451.842773438,63.5924415588 L451.703338623,65.1516265869 L451.694335938,66.0913848877 L451.780700684,66.406578064 L451.893035889,66.3311004639 L451.986206055,66.1165618896 M464.244018555,47.2621002197 L464.320007324,47.1474266052 L464.347869873,47.0708084106 L464.18927002,47.1555557251 L463.663269043,47.5418777466 L462.658233643,48.2700576782 L461.152160645,49.3026161194 L459.239990234,50.5287513733 L457.100769043,51.815990448 L454.986907959,53.0116882324 L453.144348145,53.9983329773 L451.757629395,54.7260818481 L450.901580811,55.2004241943 L450.55960083,55.4837379456 L450.646728516,55.6713905334 L451.097961426,55.8500938416 L451.878570557,56.085231781 L452.957458496,56.4284133911 L454.271331787,56.9094429016 L455.732818604,57.5523414612 L457.2265625,58.367816925 L458.661346436,59.340763092 L459.988555908,60.433719635 L461.171173096,61.5848426819 L462.204193115,62.6971435547 L463.086212158,63.6595535278 L463.814147949,64.3760223389 L464.322540283,64.7998046875 L464.611938477,64.9796600342 M469.229187012,54.6875534058 L469.245330811,54.8545265198 L469.241210938,55.3047218323 L469.18359375,56.1346511841 L469.053649902,57.334400177 L468.875488281,58.7989044189 L468.715087891,60.3883476257 L468.648132324,61.9418487549 L468.754150391,63.3085784912 L469.086212158,64.354057312 L469.671905518,64.9639968872 L470.505645752,65.0636367798 L471.557189941,64.6299133301 L472.756530762,63.6848373413 L474.014343262,62.3129196167 L475.227386475,60.6532287598 L476.308288574,58.8904380798 L477.185577393,57.233669281 L477.83013916,55.8532867432 L478.249908447,54.8533630371 L478.469909668,54.2888641357 L478.525512695,54.1854400635 L478.455291748,54.5652885437 L478.279296875,55.4554824829 L478.035186768,56.8094673157 L477.789581299,58.4830055237 L477.618652344,60.2664718628 L477.585906982,61.9453239441 L477.748321533,63.3156738281 L478.097717285,64.2595214844 L478.586242676,64.7449264526 L479.04309082,64.8883514404 L479.359985352,64.8523864746 M483.561950684,55.3902740479 L483.577697754,55.2453155518 L483.617370605,55.1609268188 L483.657928467,55.2982673645 L483.655212402,55.8305778503 L483.550048828,56.7822380066 L483.323364258,58.0805740356 L483.0078125,59.5628585815 L482.680847168,61.0424118042 L482.41796875,62.3280754089 L482.26449585,63.3014717102 L482.214233398,63.9032058716 L482.235351562,64.1135864258 L482.306915283,63.9168968201 L482.440948486,63.2851982117 L482.681915283,62.2279434204 L483.075927734,60.8397636414 L483.658569336,59.2699127197 L484.448608398,57.6836776733 L485.439971924,56.2218742371 L486.608825684,54.9814338684 L487.905578613,54.0406837463 L489.254974365,53.4701080322 L490.576385498,53.3169021606 L491.795837402,53.5968933105 L492.844299316,54.2911109924 L493.672393799,55.3488922119 L494.244415283,56.6917266846 L494.552703857,58.2122497559 L494.632049561,59.7849998474 L494.551147461,61.2823486328 L494.395324707,62.5993843079 L494.292785645,63.6208992004 L494.339294434,64.2715530396 L494.581207275,64.5297927856 L494.894439697,64.5252532959 L495.158569336,64.4118652344 M505.478485107,57.0526313782 L505.450500488,56.7163925171 L505.332214355,56.2218360901 L505.051605225,55.6850624084 L504.541900635,55.2982940674 L503.767974854,55.1485862732 L502.742828369,55.3067741394 L501.534484863,55.8027801514 L500.255065918,56.6525344849 L499.049926758,57.8112602234 L498.059875488,59.1783332825 L497.401367188,60.6175231934 L497.15057373,61.9749412537 L497.343566895,63.0996589661 L497.973632812,63.8621711731 L498.999450684,64.167175293 L500.33416748,63.9655532837 L501.854614258,63.2735862732 L503.411987305,62.1745681763 L504.857055664,60.8031387329 L506.064086914,59.3212394714 L506.958618164,57.9027709961 L507.529968262,56.6869163513 L507.825653076,55.7630157471 L507.916442871,55.1920318604 L507.871612549,55.0170555115 L507.736480713,55.2699432373 L507.53918457,55.9783325195 L507.319671631,57.1024398804 L507.145843506,58.5163574219 L507.088470459,60.0572662354 L507.208312988,61.5654525757 L507.568359375,62.8768577576 L508.162475586,63.8743209839 L508.93157959,64.4878158569 L509.634216309,64.7606430054 L510.112121582,64.8119430542 M516.262268066,46.2716445923 L516.316772461,46.403793335 L516.380737305,46.7852745056 L516.411804199,47.5268478394 L516.348999023,48.6637268066 L516.169067383,50.1588897705 L515.876708984,51.9407463074 L515.515625,53.9145126343 L515.151367188,55.9724617004 L514.855285645,57.9874191284 L514.677734375,59.8270339966 L514.643554688,61.3905258179 L514.774536133,62.6044540405 L515.061340332,63.436882019 L515.473449707,63.9051513672 L515.867736816,64.0947265625 L516.146606445,64.1220245361 M547.54119873,47.3559303284 L547.393920898,47.0111999512 L547.080932617,46.4858512878 L546.546630859,45.886390686 L545.750183105,45.3942642212 L544.638122559,45.0816841125 L543.209960938,45.0 L541.541687012,45.1614532471 L539.79699707,45.5813064575 L538.189208984,46.2446632385 L536.914672852,47.1135902405 L536.117248535,48.1385383606 L535.877075195,49.2657546997 L536.228820801,50.4430961609 L537.16784668,51.6278495789 L538.638793945,52.784614563 L540.526489258,53.90051651 L542.655822754,54.9892082214 L544.81048584,56.0756759644 L546.780334473,57.1832313538 L548.396606445,58.3129272461 L549.548706055,59.4411888123 L550.194763184,60.528881073 L550.334228516,61.5385856628 L549.978759766,62.4325065613 L549.144287109,63.1811828613 L547.84954834,63.7541885376 L546.137939453,64.1365356445 L544.0859375,64.3134307861 L541.811279297,64.2840194702 L539.458679199,64.0584259033 L537.177612305,63.6648178101 L535.128356934,63.1270523071 L533.469421387,62.5134277344 L532.296936035,61.8939285278 L531.629699707,61.4071960449 L531.359802246,61.1149406433 M559.08972168,56.55027771 L558.916442871,56.274520874 L558.587280273,55.8672409058 L558.071289062,55.4260940552 L557.369018555,55.1222991943 L556.453979492,55.0459823608 L555.341918945,55.2742996216 L554.093505859,55.8464813232 L552.824523926,56.7742271423 L551.668212891,58.0036697388 L550.760009766,59.429599762 L550.206787109,60.9054679871 L550.078369141,62.2744750977 L550.399536133,63.3841705322 L551.15246582,64.106842041 L552.278198242,64.3508377075 L553.688476562,64.074005127 L555.26574707,63.2936210632 L556.873291016,62.0938453674 L558.370483398,60.611869812 L559.638916016,59.0213470459 L560.597900391,57.5134658813 L561.230957031,56.2431221008 L561.575927734,55.3016281128 L561.711486816,54.7365608215 L561.710449219,54.5731239319 L561.631164551,54.8313446045 L561.498657227,55.5403022766 L561.343383789,56.6745529175 L561.204956055,58.1190567017 L561.150024414,59.7122955322 L561.226196289,61.2811203003 L561.490356445,62.6479377747 L561.93762207,63.689037323 L562.52166748,64.342666626 L563.05255127,64.6485977173 L563.414672852,64.7253646851 M566.962585449,55.4937934875 L566.983337402,55.6274414062 L566.998535156,56.0158081055 L566.979064941,56.7612380981 L566.892089844,57.8640823364 L566.737609863,59.2191467285 L566.538391113,60.648021698 L566.345336914,61.9610977173 L566.196777344,63.0137290955 L566.113891602,63.7162704468 L566.097900391,64.0160140991 L566.150512695,63.8934173584 L566.291320801,63.3255996704 L566.553283691,62.3345718384 L566.961975098,61.0155143738 L567.538452148,59.5152320862 L568.294128418,57.9961013794 L569.223327637,56.6087837219 L570.314697266,55.4552154541 L571.527832031,54.6188201904 L572.80291748,54.1637115479 L574.06628418,54.1299629211 L575.25012207,54.5229949951 L576.284973145,55.3236312866 L577.116455078,56.4808769226 L577.704711914,57.9186248779 L578.048339844,59.5264625549 L578.187011719,61.1733589172 L578.219116211,62.6845550537 L578.241455078,63.8941230774 L578.326171875,64.6925354004 L578.445800781,65.0940093994 L578.553405762,65.2145614624 M585.639038086,46.2458686829 L585.666259766,46.2314071655 L585.707519531,46.3823013306 L585.740356445,46.856338501 L585.728149414,47.7740898132 L585.634277344,49.1214904785 L585.466186523,50.8201332092 L585.246826172,52.7550735474 L585.027160645,54.8087768555 L584.850402832,56.8657646179 L584.739318848,58.8131713867 L584.683105469,60.541267395 L584.664306641,61.9394760132 L584.645874023,62.926864624 L584.606201172,63.478717804 L584.556213379,63.688911438 L584.512817383,63.7023353577 " fill="none" stroke="black" stroke-linecap="round" stroke-width="1.5" /><path d="M0,0 M423.208648682,105.863586426 L423.178100586,105.817634583 L423.132110596,105.853149414 L423.051513672,106.128303528 L422.884918213,106.833198547 L422.535369873,108.090332031 L421.953918457,109.933731079 L421.108642578,112.295684814 L420.025360107,115.055625916 L418.77166748,118.057342529 L417.438720703,121.123672485 L416.14831543,124.024261475 L415.036682129,126.50655365 L414.206939697,128.362930298 L413.698699951,129.540496826 L413.471740723,130.126953125 L413.444274902,130.267776489 L413.571807861,130.02633667 L413.878692627,129.350067139 L414.458862305,128.141235352 L415.405578613,126.407531738 L416.760314941,124.249000549 L418.508300781,121.828720093 L420.588256836,119.294799805 L422.929260254,116.763916016 L425.446929932,114.332252502 L428.039703369,112.13319397 L430.5753479,110.28453064 L432.898040771,108.88420105 L434.821594238,107.952987671 L436.224975586,107.429290771 L437.038421631,107.228630066 L437.376831055,107.208404541 L437.43258667,107.251663208 M424.414428711,117.629837036 L424.603027344,117.841896057 L424.925384521,118.328521729 L425.346130371,119.1664505 L425.777099609,120.331947327 L426.191833496,121.764923096 L426.605529785,123.352012634 L427.059753418,124.956588745 L427.624755859,126.447036743 L428.361053467,127.695198059 L429.315917969,128.573165894 L430.521331787,128.978652954 L431.986236572,128.838378906 L433.678527832,128.119216919 L435.544799805,126.856956482 L437.49420166,125.156517029 L439.432342529,123.179443359 L441.25390625,121.11391449 L442.860992432,119.154563904 L444.155761719,117.478309631 L445.088104248,116.197181702 L445.652648926,115.362434387 L445.885955811,114.985687256 L445.827667236,115.07535553 L445.507843018,115.672836304 L444.922393799,116.833747864 L444.132568359,118.513534546 L443.271453857,120.551109314 L442.522766113,122.691688538 L442.051330566,124.662406921 L441.954650879,126.256782532 L442.231506348,127.367668152 L442.853271484,127.939353943 L443.796813965,127.951042175 L445.054443359,127.396232605 L446.59588623,126.306365967 L448.34362793,124.77192688 L450.174133301,122.950363159 L451.944763184,121.035575867 L453.515411377,119.243553162 L454.775543213,117.752403259 L455.670562744,116.665077209 L456.190673828,116.007064819 L456.369567871,115.777580261 L456.263977051,115.985229492 L455.902130127,116.692680359 L455.308776855,117.93837738 L454.571166992,119.650344849 L453.837768555,121.623886108 L453.273345947,123.588821411 L453.032531738,125.296989441 L453.187927246,126.59210968 L453.743225098,127.386955261 L454.689483643,127.639717102 L456.018493652,127.325431824 L457.671386719,126.456291199 L459.568603516,125.116348267 L461.589324951,123.453872681 L463.597412109,121.648048401 L465.484832764,119.89176178 L467.153564453,118.353286743 L468.504241943,117.144973755 L469.479003906,116.331848145 L470.061737061,115.954330444 L470.265991211,116.039108276 L470.141845703,116.628738403 L469.707946777,117.752372742 L468.993896484,119.349098206 L468.09161377,121.242042542 L467.158813477,123.167015076 L466.36138916,124.844512939 L465.819458008,126.096069336 L465.562255859,126.842193604 L465.569763184,127.066505432 L465.848175049,126.767524719 L466.450805664,125.936279297 L467.439117432,124.607566833 L468.811340332,122.935295105 L470.508972168,121.129669189 L472.411254883,119.413909912 L474.385742188,117.972892761 L476.307922363,116.925613403 L478.06842041,116.327728271 L479.563934326,116.214393616 L480.726348877,116.581672668 L481.511444092,117.397911072 L481.914306641,118.606513977 L481.973327637,120.11857605 L481.783721924,121.781959534 L481.483276367,123.414955139 L481.220031738,124.843193054 L481.098327637,125.945289612 L481.144683838,126.676269531 L481.33984375,127.041992188 L481.666503906,127.04901886 L482.145202637,126.699432373 L482.830505371,125.999824524 L483.769287109,124.994125366 L484.957611084,123.788299561 L486.368927002,122.506767273 L487.966918945,121.258148193 L489.728240967,120.122665405 L491.629455566,119.151618958 L493.627502441,118.379074097 L495.653076172,117.831787109 L497.613952637,117.506355286 L499.394805908,117.361625671 L500.878479004,117.329780579 L501.974182129,117.352172852 L502.650634766,117.383583069 L502.972930908,117.401756287 L503.044281006,117.394622803 L502.937347412,117.352249146 L502.655548096,117.278121948 L502.133422852,117.223518372 L501.284851074,117.269332886 L500.089294434,117.525619507 L498.586791992,118.082290649 L496.881286621,118.992248535 L495.127807617,120.238471985 L493.507080078,121.727684021 L492.199035645,123.289222717 L491.346801758,124.733314514 L491.019439697,125.881271362 L491.217437744,126.622619629 L491.891784668,126.895904541 L492.986175537,126.678787231 L494.433441162,125.97542572 L496.13104248,124.847671509 L497.940124512,123.410041809 L499.69430542,121.832687378 L501.220123291,120.310081482 L502.39553833,119.016860962 L503.182037354,118.044212341 L503.598510742,117.439620972 L503.697235107,117.226318359 L503.532012939,117.436546326 L503.134246826,118.133720398 L502.557342529,119.341117859 L501.933258057,120.927062988 L501.420532227,122.663162231 L501.169555664,124.292892456 L501.280731201,125.608680725 L501.784637451,126.500534058 L502.671325684,126.914268494 L503.939941406,126.785507202 L505.576843262,126.071594238 L507.536590576,124.778427124 L509.746246338,122.979598999 L512.1015625,120.796821594 L514.47869873,118.363677979 L516.763671875,115.812347412 L518.854187012,113.273414612 L520.643432617,110.883125305 L522.041015625,108.788925171 L522.993041992,107.099685669 L523.480773926,105.878288269 L523.515136719,105.164909363 L523.125488281,105.0 L522.324951172,105.445426941 L521.131896973,106.575744629 L519.622070312,108.384246826 L517.931640625,110.763435364 L516.249694824,113.513031006 L514.80078125,116.383026123 L513.76385498,119.128051758 L513.260864258,121.565223694 L513.326721191,123.570411682 L514.014526367,125.048950195 L515.263671875,125.967910767 L516.945129395,126.356826782 L518.501586914,126.396774292 L519.57824707,126.288200378 M554.889160156,109.034355164 L554.792236328,108.790626526 L554.56652832,108.423416138 L554.158813477,108.009590149 L553.533691406,107.680755615 L552.661010742,107.495948792 L551.533935547,107.507194519 L550.191162109,107.742530823 L548.728637695,108.225585938 L547.286010742,108.945587158 L546.019287109,109.867645264 L545.069274902,110.946296692 L544.540466309,112.135620117 L544.503540039,113.39793396 L544.992004395,114.698822021 L545.993713379,116.008171082 L547.428100586,117.299758911 L549.152038574,118.562690735 L550.971679688,119.797195435 L552.682128906,121.012283325 L554.098815918,122.203689575 L555.092102051,123.364601135 L555.577270508,124.466171265 L555.526245117,125.488517761 L554.941772461,126.409698486 L553.854064941,127.21031189 L552.312866211,127.852058411 L550.420654297,128.30065918 L548.320068359,128.51890564 L546.1875,128.501708984 L544.199279785,128.270370483 L542.480957031,127.878349304 L541.152954102,127.348472595 L540.296203613,126.722923279 L539.936706543,126.044952393 L539.91583252,125.476600647 L540.047790527,125.10761261 M568.170715332,120.617675781 L568.167358398,120.332374573 L568.094665527,119.86630249 L567.885498047,119.29069519 L567.47479248,118.751426697 L566.820007324,118.333976746 L565.912719727,118.126861572 L564.768554688,118.198799133 L563.432861328,118.616958618 L561.982910156,119.420394897 L560.524108887,120.594818115 L559.178222656,122.062042236 L558.079589844,123.680595398 L557.348754883,125.267425537 L557.07421875,126.642875671 L557.291687012,127.657264709 L557.99005127,128.211761475 L559.124206543,128.255310059 L560.620849609,127.776428223 L562.386230469,126.817932129 L564.298706055,125.482780457 L566.212280273,123.915664673 L567.958862305,122.307250977 L569.393127441,120.86164093 L570.427001953,119.720237732 L571.039123535,118.968109131 L571.254211426,118.644798279 L571.128967285,118.763961792 L570.702270508,119.362251282 L570.037109375,120.459632874 L569.265319824,121.945281982 L568.558410645,123.606178284 L568.090148926,125.189781189 L567.997070312,126.470397949 L568.333190918,127.313613892 L569.101989746,127.66317749 L570.30279541,127.481452942 L571.901733398,126.768844604 L573.834106445,125.599212646 L575.978515625,124.111167908 L578.182617188,122.502288818 L580.266845703,120.990905762 L582.071777344,119.750144958 L583.4765625,118.886314392 L584.414428711,118.466346741 L584.862731934,118.516639709 L584.862976074,119.052604675 L584.457275391,120.062728882 L583.718139648,121.454940796 L582.785217285,123.033447266 L581.839416504,124.562332153 L581.049621582,125.829216003 L580.549072266,126.700325012 L580.389038086,127.118560791 L580.583129883,127.068313599 L581.173095703,126.537284851 L582.212158203,125.553070068 L583.691894531,124.235954285 L585.52911377,122.774284363 L587.563354492,121.377433777 L589.595092773,120.218574524 L591.461120605,119.402549744 L593.060058594,118.971656799 L594.321411133,118.949523926 L595.203613281,119.340835571 L595.688110352,120.128395081 L595.780822754,121.254142761 L595.555236816,122.613105774 L595.155944824,124.046295166 L594.74786377,125.388389587 L594.47845459,126.504699707 L594.453979492,127.30480957 L594.73626709,127.729606628 L595.377746582,127.727050781 L596.423034668,127.244308472 L597.877929688,126.266159058 L599.690551758,124.832580566 L601.766845703,123.034561157 L603.987182617,120.986373901 L606.247192383,118.801376343 L608.465148926,116.584159851 L610.574645996,114.440887451 L612.501281738,112.497314453 L614.156433105,110.878372192 L615.449829102,109.66834259 L616.323364258,108.914505005 L616.753540039,108.640960693 L616.749755859,108.86857605 L616.335571289,109.643318176 L615.523803711,110.988304138 L614.359680176,112.831932068 L612.933105469,115.021469116 L611.381530762,117.360290527 L609.857788086,119.644454956 L608.505187988,121.6953125 L607.416992188,123.392990112 L606.639160156,124.593772888 L606.156494141,125.222976685 L605.918334961,125.309036255 L605.835327148,125.100463867 L605.826782227,124.829864502 " fill="none" stroke="black" stroke-linecap="round" stroke-width="1.5" /><path d="M0,0 M427.245849609,166.27507019 L427.255737305,166.226837158 L427.276367188,166.297393799 L427.306396484,166.634277344 L427.339080811,167.374740601 L427.345550537,168.554534912 L427.320800781,170.163574219 L427.248962402,172.179321289 L427.114227295,174.562911987 L426.916015625,177.249481201 L426.671630859,180.12600708 L426.393463135,183.03062439 L426.148040771,185.765304565 L425.997131348,188.120223999 L425.983917236,189.926055908 L426.059082031,191.058639526 L426.159973145,191.59487915 M440.678833008,169.044570923 L440.89831543,168.756622314 L441.050598145,168.516235352 L440.901733398,168.538772583 L440.204925537,169.04826355 L438.922821045,170.042938232 L437.129089355,171.415588379 L434.998657227,172.999053955 L432.735046387,174.655136108 L430.558410645,176.215576172 L428.682128906,177.553359985 L427.270599365,178.60496521 L426.387573242,179.354980469 L426.03024292,179.855484009 L426.152648926,180.198791504 L426.702026367,180.471435547 L427.654968262,180.742294312 L428.979644775,181.06388855 L430.580841064,181.460845947 L432.346923828,181.950332642 L434.14831543,182.536819458 L435.870727539,183.200531006 L437.442474365,183.908477783 L438.8175354,184.633636475 L439.968231201,185.324783325 L440.889221191,185.924499512 L441.588684082,186.375045776 L442.041015625,186.643936157 L442.276611328,186.755401611 M447.052368164,178.688537598 L447.019775391,178.650497437 L446.957275391,178.723175049 L446.85458374,179.030914307 L446.711883545,179.683181763 L446.543395996,180.681533813 L446.389831543,181.967224121 L446.317047119,183.429702759 L446.405944824,184.93637085 L446.728271484,186.333206177 L447.333648682,187.47416687 L448.244903564,188.234176636 L449.443572998,188.531158447 L450.873901367,188.331253052 L452.441619873,187.650970459 L454.024780273,186.554138184 L455.496795654,185.14982605 L456.752075195,183.584106445 L457.721405029,182.035186768 L458.387695312,180.677520752 L458.782775879,179.636398315 L458.961975098,178.98739624 L458.98815918,178.753448486 L458.918884277,178.932022095 L458.794403076,179.530914307 L458.651397705,180.533035278 L458.544128418,181.848724365 L458.521728516,183.33921814 L458.646179199,184.833496094 L458.938354492,186.163269043 L459.37097168,187.218490601 L459.785552979,187.907241821 L460.077514648,188.252319336 M464.493438721,179.804397583 L464.518218994,179.737335205 L464.57699585,179.761062622 L464.659423828,180.0025177 L464.73638916,180.586730957 L464.76965332,181.52230835 L464.743865967,182.742340088 L464.665710449,184.111846924 L464.573455811,185.476119995 L464.488098145,186.672912598 L464.421295166,187.579788208 L464.384307861,188.107177734 L464.393432617,188.206848145 L464.474182129,187.853393555 L464.678833008,187.061737061 L465.036499023,185.90032959 L465.560241699,184.484268188 L466.256988525,182.948532104 L467.118438721,181.426742554 L468.130187988,180.03187561 L469.275939941,178.861755371 L470.525970459,178.004577637 L471.836425781,177.52835083 L473.155090332,177.468597412 L474.424407959,177.828674316 L475.581085205,178.580429077 L476.565368652,179.664779663 L477.334106445,180.985137939 L477.884063721,182.464370728 L478.244567871,183.984069824 L478.473754883,185.422241211 L478.607299805,186.516906738 L478.677429199,187.168029785 M491.628387451,183.531707764 L491.715362549,182.994918823 L491.741821289,182.157928467 L491.584014893,181.166870117 L491.119750977,180.276992798 L490.312561035,179.578338623 L489.175262451,179.122436523 L487.767425537,178.927749634 L486.187133789,179.045303345 L484.570983887,179.512008667 L483.082672119,180.315750122 L481.883544922,181.398910522 L481.102966309,182.644180298 L480.838623047,183.913909912 L481.139526367,185.064117432 L481.996643066,185.967178345 L483.335998535,186.517074585 L485.031524658,186.660125732 L486.902740479,186.39453125 L488.767059326,185.781677246 L490.455413818,184.91583252 L491.841308594,183.926498413 L492.853820801,182.951187134 L493.491973877,182.113555908 L493.80255127,181.510223389 L493.865539551,181.203018188 L493.774810791,181.216262817 L493.616271973,181.566848755 L493.474395752,182.249847412 L493.442779541,183.215866089 L493.609436035,184.373825073 L494.02331543,185.599472046 L494.7421875,186.728088379 L495.732757568,187.610946655 L496.899810791,188.15574646 L497.915100098,188.3934021 L498.585479736,188.431793213 M503.896148682,165.724395752 L503.925598145,165.697692871 L503.958770752,165.846298218 L503.971435547,166.339828491 L503.931671143,167.316040039 L503.830993652,168.769058228 L503.687683105,170.628311157 L503.539489746,172.788299561 L503.428344727,175.138092041 L503.388000488,177.547973633 L503.433807373,179.891174316 L503.555480957,182.03012085 L503.76184082,183.858535767 L504.054107666,185.301010132 L504.426300049,186.330413818 L504.770874023,186.939315796 L505.016662598,187.216751099 M543.615844727,169.016723633 L543.526000977,168.561508179 L543.265014648,167.846496582 L542.739013672,166.985046387 L541.887451172,166.192687988 L540.693847656,165.556152344 L539.185424805,165.145278931 L537.439575195,165.0 L535.58770752,165.177581787 L533.794799805,165.703872681 L532.234069824,166.574386597 L531.068115234,167.751495361 L530.431518555,169.170944214 L530.430541992,170.755081177 L531.14276123,172.429580688 L532.580688477,174.133255005 L534.653076172,175.827514648 L537.177001953,177.48727417 L539.897216797,179.093170166 L542.538085938,180.620666504 L544.849731445,182.039840698 L546.636901855,183.322647095 L547.759399414,184.452651978 L548.148620605,185.426239014 L547.793029785,186.247390747 L546.714599609,186.909973145 L544.973999023,187.404754639 L542.682983398,187.721511841 L539.996459961,187.856994629 L537.11505127,187.818130493 L534.267944336,187.626617432 L531.637878418,187.3046875 L529.429443359,186.880508423 L527.806884766,186.405914307 L526.846801758,185.942596436 L526.438598633,185.587936401 L526.379272461,185.382659912 M559.043945312,181.836349487 L559.005981445,181.425491333 L558.835327148,180.788360596 L558.439575195,180.041595459 L557.759643555,179.400512695 L556.791503906,178.9662323 L555.583007812,178.817016602 L554.224487305,178.994995117 L552.825866699,179.535186768 L551.510742188,180.424301147 L550.414123535,181.607025146 L549.657836914,182.986541748 L549.345214844,184.428756714 L549.549072266,185.782745361 L550.29510498,186.894012451 L551.540588379,187.628860474 L553.186157227,187.902999878 L555.082519531,187.691757202 L557.050537109,187.027374268 L558.914001465,185.992553711 L560.523193359,184.701660156 L561.768432617,183.307525635 L562.603881836,181.978973389 L563.061645508,180.870834351 L563.227294922,180.095748901 L563.198120117,179.705917358 L563.06628418,179.703445435 L562.900756836,180.081420898 L562.75213623,180.816131592 L562.691772461,181.85218811 L562.781738281,183.095001221 L563.047119141,184.413864136 L563.520874023,185.652664185 L564.175598145,186.673080444 L564.942565918,187.386032104 L565.610900879,187.77947998 L566.053344727,187.928894043 M568.830505371,179.601699829 L568.827880859,179.610839844 L568.844787598,179.779708862 L568.883056641,180.23500061 L568.925354004,181.049468994 L568.935852051,182.165405273 L568.906494141,183.444473267 L568.850769043,184.706878662 L568.783874512,185.788543701 L568.725524902,186.566268921 L568.687866211,186.95904541 L568.686706543,186.926620483 L568.76348877,186.460098267 L568.971618652,185.592559814 L569.351013184,184.416366577 L569.934753418,183.064208984 L570.735656738,181.684173584 L571.736755371,180.416900635 L572.90447998,179.374572754 L574.185058594,178.639053345 L575.51159668,178.270355225 L576.816589355,178.294235229 L578.042724609,178.706466675 L579.136779785,179.477233887 L580.052307129,180.552459717 L580.750183105,181.854690552 L581.218444824,183.285705566 L581.480224609,184.730178833 L581.61517334,186.042999268 L581.712646484,187.087203979 L581.844116211,187.770980835 L581.986572266,188.110870361 L582.102783203,188.209869385 M588.48425293,166.525268555 L588.509216309,166.472091675 L588.574645996,166.578948975 L588.682373047,167.021942139 L588.812072754,167.952865601 L588.927978516,169.374160767 L589.005493164,171.220443726 L589.038635254,173.382476807 L589.03338623,175.739898682 L588.994934082,178.15385437 L588.919311523,180.483978271 L588.796325684,182.589233398 L588.615356445,184.333007812 L588.387145996,185.617156982 L588.138183594,186.409912109 L587.933349609,186.784500122 L587.806274414,186.888626099 M585.25592041,179.744033813 L585.500488281,179.48979187 L586.128479004,179.13861084 L587.26574707,178.778579712 L588.907958984,178.532836914 L590.942749023,178.412887573 L593.185119629,178.40512085 L595.454711914,178.485702515 L597.560546875,178.640350342 L599.345825195,178.835876465 L600.58581543,179.00730896 L601.254943848,179.118850708 " fill="none" stroke="black" stroke-linecap="round" stroke-width="1.5" /><path d="M0,0 M439.56552124,226.846206665 L439.558837891,227.011352539 L439.493560791,227.471130371 L439.348266602,228.392623901 L439.123352051,229.864700317 L438.859680176,231.89831543 L438.589752197,234.382675171 L438.329986572,237.123168945 L438.070922852,239.869384766 L437.817230225,242.347579956 L437.583526611,244.324905396 L437.409881592,245.608520508 L437.311340332,246.239547729 M449.44317627,229.897888184 L449.674713135,229.836502075 L449.856811523,229.815994263 L449.802062988,229.915939331 L449.31463623,230.225463867 L448.40927124,230.774459839 L447.177124023,231.544631958 L445.767669678,232.46572876 L444.304382324,233.450408936 L442.924926758,234.395980835 L441.736907959,235.230895996 L440.832580566,235.944824219 L440.279510498,236.581741333 L440.120483398,237.215148926 L440.370513916,237.921569824 L441.014404297,238.741867065 L442.004119873,239.671707153 L443.259887695,240.679977417 L444.692382812,241.723846436 L446.210266113,242.750961304 L447.733032227,243.697891235 L449.20199585,244.482528687 L450.584014893,245.008773804 L451.859069824,245.178436279 L453.023040771,244.913482666 L454.067260742,244.176605225 L454.972808838,242.989883423 L455.721679688,241.450866699 L456.308074951,239.714797974 L456.734375,237.984939575 L457.0234375,236.468948364 L457.210510254,235.304992676 L457.312133789,234.554885864 L457.327819824,234.239120483 L457.254241943,234.357040405 L457.085235596,234.945159912 L456.847351074,236.044586182 L456.620697021,237.590911865 L456.483703613,239.410202026 L456.49520874,241.265914917 L456.692016602,242.918792725 L457.071136475,244.215270996 L457.6199646,245.104873657 L458.341125488,245.571411133 L459.224639893,245.610961914 L460.241729736,245.211685181 L461.345214844,244.366516113 L462.46673584,243.108306885 L463.541809082,241.537689209 L464.522094727,239.798095703 L465.368896484,238.088348389 L466.051116943,236.595306396 L466.551879883,235.442657471 L466.859985352,234.697662354 L466.973968506,234.401107788 L466.907318115,234.580001831 L466.684539795,235.293380737 L466.353179932,236.545547485 L466.008666992,238.211166382 L465.742279053,240.07359314 L465.646911621,241.886520386 L465.797363281,243.440811157 L466.231170654,244.615829468 L466.95223999,245.345581055 L467.945983887,245.571350098 L469.138397217,245.25932312 L470.447570801,244.411849976 L471.7734375,243.094528198 L473.019470215,241.438339233 L474.111633301,239.621261597 L475.00769043,237.846862793 L475.686553955,236.309631348 L476.166656494,235.131362915 L476.46395874,234.37902832 L476.586242676,234.087997437 L476.534423828,234.285110474 L476.307250977,235.021682739 L475.921508789,236.312759399 L475.436096191,238.031784058 L474.922515869,239.951599121 L474.445037842,241.784683228 L474.04888916,243.282470703 L473.751281738,244.333694458 L473.558227539,244.935348511 L473.486572266,245.111694336 L473.568267822,244.88381958 L473.83996582,244.21333313 L474.331390381,243.078491211 L475.051727295,241.557403564 L475.993591309,239.813613892 L477.129547119,238.06060791 L478.414550781,236.502502441 L479.776672363,235.263397217 L481.126617432,234.404495239 L482.376708984,233.957427979 L483.459869385,233.932250977 L484.338684082,234.337463379 L485.001739502,235.178237915 L485.449432373,236.419845581 L485.702758789,237.967895508 L485.795196533,239.663116455 L485.782836914,241.325500488 L485.725830078,242.790435791 L485.66607666,243.964401245 L485.662811279,244.78163147 L485.763885498,245.23348999 L485.987335205,245.345657349 L486.244018555,245.266357422 L486.45324707,245.130508423 M496.91027832,235.798599243 L496.865814209,235.485992432 L496.672241211,235.030853271 L496.239593506,234.565567017 L495.520874023,234.307830811 L494.544616699,234.372619629 L493.391723633,234.825942993 L492.175537109,235.66116333 L491.003692627,236.832580566 L489.982818604,238.248901367 L489.206298828,239.790542603 L488.742034912,241.321960449 L488.624389648,242.704696655 L488.854187012,243.81652832 L489.402099609,244.561965942 L490.227661133,244.871948242 L491.275695801,244.705947876 L492.471374512,244.059646606 L493.716247559,242.976623535 L494.901428223,241.557952881 L495.93536377,239.954055786 L496.760925293,238.348083496 L497.355865479,236.930709839 L497.741760254,235.83265686 L497.943359375,235.123382568 L497.979705811,234.826721191 L497.870849609,234.953857422 L497.632354736,235.540725708 L497.305480957,236.621902466 L496.987945557,238.123519897 L496.774475098,239.877182007 L496.746582031,241.654312134 L496.9609375,243.239761353 L497.437316895,244.486404419 L498.179199219,245.313400269 L499.194244385,245.656402588 L500.459533691,245.469909668 L501.918518066,244.734130859 L503.486083984,243.482894897 L505.065765381,241.799743652 L506.56552124,239.797653198 L507.917724609,237.600112915 L509.071624756,235.336761475 L509.97869873,233.145217896 L510.608337402,231.174484253 L510.951751709,229.555831909 L511.012298584,228.377838135 L510.807556152,227.69519043 L510.362670898,227.54586792 L509.701751709,227.964309692 L508.88192749,228.973861694 L507.990692139,230.541793823 L507.128387451,232.556243896 L506.401702881,234.854217529 L505.901184082,237.246566772 L505.673400879,239.558517456 L505.802215576,241.649475098 L506.309265137,243.393920898 L507.145782471,244.703033447 L507.988708496,245.515090942 L508.6043396,245.898300171 M537.295532227,226.837524414 L537.106079102,226.523696899 L536.621887207,226.033660889 L535.772216797,225.491287231 L534.585021973,225.104949951 L533.182983398,225.0 L531.715942383,225.234405518 L530.342651367,225.795288086 L529.195495605,226.638885498 L528.396606445,227.717666626 L528.024902344,228.981018066 L528.129089355,230.403167725 L528.709716797,231.968338013 L529.710998535,233.670410156 L531.016296387,235.491455078 L532.460083008,237.39125061 L533.853759766,239.296035767 L535.023376465,241.117767334 L535.844116211,242.769668579 L536.237976074,244.192245483 L536.172729492,245.348617554 L535.648681641,246.216903687 L534.698913574,246.783859253 L533.388061523,247.051605225 L531.81842041,247.008789062 L530.163085938,246.695297241 L528.623168945,246.195053101 L527.489379883,245.711456299 L526.853149414,245.376266479 M547.045349121,236.285079956 L546.964172363,235.979156494 L546.667236328,235.494186401 L546.054504395,234.954284668 L545.101135254,234.586486816 L543.891113281,234.55178833 L542.54901123,234.948944092 L541.22442627,235.790039062 L540.032836914,237.023696899 L539.076782227,238.557052612 L538.433288574,240.260513306 L538.149963379,241.984405518 L538.233520508,243.566085815 L538.665161133,244.856491089 L539.3984375,245.7318573 L540.379577637,246.11038208 L541.550048828,245.938827515 L542.837158203,245.215011597 L544.14666748,244.005386353 L545.375488281,242.455444336 L546.432373047,240.765350342 L547.253662109,239.159317017 L547.832580566,237.8097229 L548.18536377,236.819198608 L548.333679199,236.237091064 L548.303771973,236.095550537 L548.125488281,236.423126221 L547.830932617,237.257003784 L547.507507324,238.574584961 L547.24420166,240.243560791 L547.131835938,242.054656982 L547.221801758,243.766601562 L547.531311035,245.173828125 L548.042602539,246.146255493 L548.748779297,246.609725952 L549.635131836,246.518203735 L550.693908691,245.867980957 L551.858032227,244.694580078 L553.047302246,243.117858887 L554.171386719,241.315750122 L555.153015137,239.507644653 L555.942321777,237.906280518 L556.530090332,236.660644531 L556.899780273,235.852996826 L557.053833008,235.543670654 L556.999755859,235.768234253 L556.749511719,236.561782837 L556.329223633,237.903167725 L555.799438477,239.643630981 L555.227905273,241.528015137 L554.688659668,243.265258789 L554.233642578,244.6300354 L553.90057373,245.522476196 L553.712280273,245.933410645 L553.696777344,245.880645752 L553.89050293,245.355407715 L554.3359375,244.333816528 L555.045532227,242.875061035 L556.014099121,241.137008667 L557.200439453,239.346008301 L558.525146484,237.733886719 L559.896911621,236.468917847 L561.21307373,235.612182617 L562.380615234,235.174819946 L563.337646484,235.144256592 L564.053527832,235.517883301 L564.518737793,236.296890259 L564.755859375,237.478240967 L564.79510498,238.9868927 L564.702636719,240.689117432 L564.560424805,242.413009644 L564.452514648,244.009368896 L564.494140625,245.328308105 L564.756713867,246.273757935 L565.246948242,246.799514771 L565.769165039,246.992141724 L566.164733887,246.989501953 M574.674316406,227.844573975 L574.65032959,227.95866394 L574.548339844,228.373794556 L574.330322266,229.262573242 L573.985412598,230.70489502 L573.544067383,232.645568848 L573.03894043,234.9453125 L572.504150391,237.412506104 L571.959960938,239.852081299 L571.434814453,242.054443359 L570.960632324,243.843139648 L570.613037109,245.030563354 L570.412963867,245.636932373 M573.412597656,235.48425293 L574.000610352,235.423873901 L574.983154297,235.355163574 L576.263061523,235.303939819 L577.601257324,235.286727905 L578.89074707,235.269104004 L580.04675293,235.234710693 L581.026000977,235.175994873 L581.730957031,235.092453003 L582.111633301,234.99546814 L582.167663574,234.891845703 L582.03894043,234.801605225 L581.870849609,234.742279053 " fill="none" stroke="black" stroke-linecap="round" stroke-width="1.5" /><path d="M0,0 M456.415435791,285.175689697 L456.431091309,285.543609619 L456.430145264,286.334564209 L456.385803223,287.621826172 L456.275695801,289.345489502 L456.104217529,291.425537109 L455.882995605,293.74520874 L455.632049561,296.178161621 L455.416717529,298.551269531 L455.305236816,300.639953613 L455.350585938,302.240539551 L455.48840332,303.225616455 L455.635681152,303.667816162 M467.110778809,286.833343506 L466.753631592,286.948608398 L466.052185059,287.311004639 L464.972412109,288.022460938 L463.598327637,289.098388672 L462.017089844,290.455108643 L460.394744873,291.966888428 L458.934570312,293.498413086 L457.84161377,294.936035156 L457.274291992,296.199035645 L457.309753418,297.245239258 L457.930786133,298.069519043 L459.059387207,298.694519043 L460.574493408,299.148040771 L462.317718506,299.449890137 L464.132507324,299.626281738 L465.887878418,299.641082764 L467.45803833,299.458953857 L468.758361816,299.074737549 L469.652404785,298.649047852 L470.134155273,298.314788818 M471.943481445,293.015899658 L471.917694092,293.226226807 L471.857177734,293.714019775 L471.74987793,294.551055908 L471.610900879,295.708648682 L471.490478516,297.097320557 L471.449157715,298.554443359 L471.547424316,299.890441895 L471.829467773,300.929412842 L472.305786133,301.522796631 L472.975982666,301.573150635 L473.837219238,301.048828125 L474.853088379,299.986694336 L475.958831787,298.517456055 L477.052124023,296.835754395 L478.020751953,295.177062988 L478.771575928,293.746368408 L479.268615723,292.675476074 L479.527557373,292.041046143 L479.599853516,291.90435791 L479.535888672,292.289886475 L479.388000488,293.226135254 L479.198150635,294.648071289 L479.024261475,296.383239746 L478.971313477,298.193634033 L479.108276367,299.824462891 L479.450378418,301.072509766 L479.841491699,301.842803955 L480.144348145,302.19631958 M485.240081787,292.574401855 L485.129943848,292.962738037 L484.941802979,293.766387939 L484.693389893,295.004180908 L484.443511963,296.523803711 L484.24105835,298.118682861 L484.126312256,299.57019043 L484.120483398,300.699035645 L484.23815918,301.374786377 L484.481933594,301.511535645 L484.869018555,301.073303223 L485.429260254,300.082275391 L486.16809082,298.656890869 L487.070922852,296.993743896 L488.104431152,295.321105957 L489.208862305,293.843200684 L490.328826904,292.709716797 L491.41784668,292.016876221 L492.422027588,291.816802979 L493.297637939,292.131744385 L494.004608154,292.94329834 L494.500823975,294.177276611 L494.774902344,295.710205078 L494.85168457,297.381958008 L494.830047607,298.990234375 L494.829956055,300.339324951 L494.947418213,301.290985107 L495.130401611,301.816955566 L495.30368042,302.015106201 M504.268371582,294.122802734 L504.109832764,293.835266113 L503.783813477,293.432769775 L503.248382568,293.05267334 L502.504486084,292.912780762 L501.562530518,293.126373291 L500.486236572,293.75390625 L499.390380859,294.768676758 L498.429321289,296.080474854 L497.758239746,297.526000977 L497.485748291,298.916107178 L497.646850586,300.059570312 L498.212890625,300.805847168 L499.11038208,301.054504395 L500.242828369,300.764434814 L501.510925293,299.959442139 L502.801635742,298.745178223 L503.986328125,297.280975342 L504.959197998,295.782745361 L505.655700684,294.452148438 L506.071716309,293.426239014 L506.259033203,292.779632568 L506.286956787,292.548309326 L506.211212158,292.745941162 L506.07208252,293.413482666 L505.896820068,294.547546387 L505.733184814,296.054077148 L505.645690918,297.776184082 L505.722595215,299.49609375 L506.01083374,300.986053467 L506.495849609,302.09487915 L506.984924316,302.756195068 L507.339904785,303.039367676 M513.001525879,286.233093262 L513.048156738,286.540039062 L513.08795166,287.229370117 L513.078735352,288.380371094 L512.97869873,289.95010376 L512.797485352,291.839477539 L512.58026123,293.909759521 L512.396240234,296.008972168 L512.349060059,297.967437744 L512.504943848,299.613769531 L512.86907959,300.829071045 L513.274841309,301.55380249 L513.588012695,301.87411499 M539.883666992,286.175323486 L539.588317871,285.855926514 L538.977172852,285.441101074 L537.996826172,285.086364746 L536.700073242,285.0 L535.191345215,285.234558105 L533.653442383,285.795379639 L532.311157227,286.63494873 L531.392944336,287.699859619 L531.068115234,288.915100098 L531.41027832,290.204589844 L532.396362305,291.505249023 L533.899536133,292.785308838 L535.722045898,294.040924072 L537.616516113,295.268676758 L539.336303711,296.456726074 L540.676147461,297.580810547 L541.49230957,298.612091064 L541.71105957,299.530151367 L541.308959961,300.320648193 L540.297912598,300.963226318 L538.739135742,301.433166504 L536.760803223,301.707885742 L534.552368164,301.787414551 L532.380493164,301.675262451 L530.510437012,301.403106689 L529.141662598,301.029663086 L528.346313477,300.687042236 L528.018005371,300.45513916 M549.94543457,293.4894104 L549.711730957,293.268615723 L549.23626709,292.983215332 L548.483398438,292.771240234 L547.483703613,292.821624756 L546.282104492,293.228851318 L544.983215332,294.019683838 L543.736572266,295.135681152 L542.720397949,296.466796875 L542.098999023,297.864532471 L541.963317871,299.153900146 L542.330993652,300.177459717 L543.151733398,300.798217773 L544.335021973,300.923248291 L545.760131836,300.516876221 L547.291687012,299.619232178 L548.781860352,298.339874268 L550.091247559,296.854919434 L551.114685059,295.37701416 L551.809814453,294.094421387 L552.193481445,293.138153076 L552.32208252,292.590179443 L552.274780273,292.494110107 L552.12121582,292.877716064 L551.914245605,293.764953613 L551.712402344,295.100250244 L551.579956055,296.741149902 L551.563110352,298.490142822 L551.734619141,300.100372314 L552.11541748,301.360565186 L552.670166016,302.16003418 L553.203796387,302.536346436 L553.583374023,302.629150391 M557.147644043,293.043609619 L557.186523438,293.327514648 L557.217285156,293.961730957 L557.203918457,295.000579834 L557.118530273,296.355560303 L556.990783691,297.86038208 L556.864440918,299.306243896 L556.793273926,300.502716064 L556.817626953,301.301544189 L556.961547852,301.601013184 L557.247619629,301.352508545 L557.713439941,300.561767578 L558.375,299.314147949 L559.23034668,297.77746582 L560.251403809,296.161315918 L561.37689209,294.66986084 L562.534484863,293.470397949 L563.66003418,292.674560547 L564.690124512,292.349456787 L565.576293945,292.528015137 L566.284667969,293.210205078 L566.784912109,294.347412109 L567.069641113,295.842102051 L567.168212891,297.554138184 L567.159545898,299.287414551 L567.137695312,300.820983887 L567.18347168,301.982421875 L567.276489258,302.681640625 L567.372009277,302.984558105 M574.551513672,286.128204346 L574.587890625,286.331237793 L574.617553711,286.842010498 L574.60369873,287.765258789 L574.508605957,289.111968994 L574.336547852,290.829620361 L574.102294922,292.815765381 L573.847106934,294.936523438 L573.629638672,297.047454834 L573.492797852,298.974578857 L573.455444336,300.56262207 L573.48425293,301.632659912 L573.530273438,302.188934326 " fill="none" stroke="black" stroke-linecap="round" stroke-width="1.5" /><path d="M0,0 M429.483093262,345.016235352 L429.359222412,345.835998535 L429.148651123,347.263183594 L428.888671875,349.205688477 L428.660858154,351.373046875 L428.51776123,353.646331787 L428.468444824,355.908233643 L428.469085693,358.068725586 L428.50491333,359.98147583 L428.574890137,361.494934082 L428.707824707,362.517578125 L428.862304688,363.064483643 L428.996368408,363.261260986 M443.212982178,347.159301758 L442.745605469,347.197814941 L441.825927734,347.37512207 L440.452301025,347.746948242 L438.785675049,348.312011719 L436.969482422,349.000518799 L435.152435303,349.732147217 L433.450073242,350.431182861 L431.960601807,351.058746338 L430.772277832,351.588775635 L429.95199585,352.011962891 L429.543151855,352.349395752 L429.570678711,352.643432617 L430.041229248,352.941802979 L430.933898926,353.281646729 L432.199676514,353.703613281 L433.756958008,354.227661133 L435.510253906,354.865325928 L437.363189697,355.613555908 L439.230163574,356.445739746 L441.041320801,357.31036377 L442.744354248,358.14730835 L444.303924561,358.887664795 L445.699157715,359.48059082 L446.944000244,359.848083496 L448.04006958,359.942871094 L448.984008789,359.7578125 L449.668457031,359.45602417 L450.064910889,359.184814453 M452.084259033,351.897369385 L451.94921875,352.300933838 L451.768829346,353.00201416 L451.623352051,353.963531494 L451.619049072,355.038543701 L451.81060791,356.166442871 L452.202545166,357.258758545 L452.771026611,358.238342285 L453.478729248,359.004730225 L454.286376953,359.487030029 L455.158172607,359.6328125 L456.077880859,359.439361572 L457.028625488,358.921783447 L457.987609863,358.121856689 L458.913330078,357.104187012 L459.751800537,355.962768555 L460.46295166,354.812103271 L461.024505615,353.776947021 L461.439941406,352.952606201 L461.712188721,352.395355225 L461.852416992,352.135375977 L461.880096436,352.192779541 L461.842071533,352.591583252 L461.797729492,353.337036133 L461.822418213,354.374389648 L461.968109131,355.586639404 L462.273193359,356.834381104 L462.750152588,357.988037109 L463.390472412,358.950836182 L464.164642334,359.656555176 L465.034790039,360.050323486 L465.954040527,360.091888428 L466.880065918,359.769012451 L467.767028809,359.104217529 L468.571533203,358.157958984 L469.253631592,357.019470215 L469.792480469,355.809417725 L470.185943604,354.666534424 L470.448638916,353.709350586 L470.603912354,353.041168213 L470.672851562,352.721069336 L470.670776367,352.765136719 L470.616668701,353.164459229 L470.523651123,353.880493164 L470.408294678,354.822631836 L470.290771484,355.885437012 L470.177124023,356.928131104 L470.06829834,357.828308105 L469.959472656,358.491088867 L469.847045898,358.859863281 L469.740325928,358.903381348 L469.667022705,358.621246338 L469.662445068,358.025909424 L469.770812988,357.178466797 L470.030700684,356.16229248 L470.47958374,355.08114624 L471.144348145,354.033508301 L472.044311523,353.106323242 L473.179016113,352.368530273 L474.523376465,351.886169434 L476.02746582,351.7059021 L477.625946045,351.8543396 L479.239807129,352.323272705 L480.805419922,353.081665039 L482.266204834,354.0675354 L483.584381104,355.200256348 L484.748535156,356.384613037 L485.75970459,357.5206604 L486.664642334,358.504241943 L487.511413574,359.258148193 L488.319824219,359.740020752 L488.961975098,359.977600098 L489.370452881,360.050140381 M498.994995117,352.405548096 L498.572143555,352.022613525 L497.744384766,351.520812988 L496.508392334,351.083068848 L495.004852295,350.948913574 L493.369354248,351.174835205 L491.749328613,351.741790771 L490.285400391,352.576293945 L489.108123779,353.602294922 L488.339111328,354.728424072 L488.062225342,355.854248047 L488.311187744,356.880981445 L489.0496521,357.705718994 L490.187805176,358.242156982 L491.585693359,358.418884277 L493.092376709,358.212768555 L494.564971924,357.651916504 L495.88458252,356.817871094 L496.965637207,355.845397949 L497.769195557,354.895477295 L498.290527344,354.115356445 L498.569641113,353.61630249 L498.677307129,353.458770752 L498.702148438,353.655883789 L498.731781006,354.202056885 L498.84954834,355.058013916 L499.11895752,356.151031494 L499.576599121,357.367767334 L500.281494141,358.5652771 L501.233642578,359.593017578 L502.367523193,360.339782715 L503.367675781,360.768005371 L504.037963867,360.940795898 M509.871643066,345.6199646 M509.981719971,347.731842041 L509.995178223,348.551269531 L510.008178711,349.877166748 L510.024230957,351.560913086 L510.06161499,353.27822876 L510.158752441,354.934265137 L510.338439941,356.45022583 L510.63885498,357.746398926 L511.058929443,358.695892334 L511.568389893,359.237792969 L512.022521973,359.442840576 L512.33013916,359.450012207 M547.587219238,346.004760742 L546.776550293,345.766693115 L545.434936523,345.439910889 L543.723632812,345.134643555 L542.017822266,345.0 L540.504943848,345.099090576 L539.34552002,345.44317627 L538.641235352,346.023406982 L538.49621582,346.832489014 L538.956298828,347.850128174 L540.01776123,349.036132812 L541.600830078,350.362335205 L543.556518555,351.790344238 L545.674499512,353.286529541 L547.711181641,354.792388916 L549.426391602,356.231781006 L550.637817383,357.516296387 L551.225830078,358.584899902 L551.134643555,359.403045654 L550.350097656,359.958312988 L548.899597168,360.240692139 L546.85760498,360.246124268 L544.36517334,359.974639893 L541.613037109,359.444061279 L538.826965332,358.68862915 L536.219726562,357.751251221 L533.971069336,356.68572998 L532.199645996,355.560516357 L531.061157227,354.421295166 L530.63067627,353.326599121 L530.896118164,352.335906982 L531.477233887,351.599121094 L532.031860352,351.167480469 M563.703125,351.939910889 L563.327087402,351.624542236 L562.586975098,351.203887939 L561.469116211,350.825286865 L560.084411621,350.68838501 L558.543945312,350.858001709 L556.981201172,351.338653564 L555.532043457,352.084594727 L554.336242676,353.051055908 L553.515441895,354.164642334 L553.148864746,355.336547852 L553.267272949,356.481903076 L553.827453613,357.488494873 L554.753540039,358.258880615 L555.940673828,358.715301514 L557.283447266,358.805023193 L558.672119141,358.516021729 L560.011169434,357.885009766 L561.204345703,356.975036621 L562.195007324,355.902984619 L562.951538086,354.820526123 L563.486572266,353.877197266 L563.821411133,353.198242188 L564.004699707,352.873901367 L564.08605957,352.94708252 L564.129516602,353.424194336 L564.200561523,354.275482178 L564.364013672,355.408508301 L564.696411133,356.706726074 L565.230102539,358.017852783 L565.933837891,359.197662354 L566.585998535,360.048614502 L567.035888672,360.525360107 M570.439208984,352.613647461 L570.407958984,353.121826172 L570.365234375,353.978912354 L570.322265625,355.081939697 L570.298400879,356.188934326 L570.298278809,357.174743652 L570.309570312,357.939178467 L570.319824219,358.426574707 L570.325195312,358.580780029 L570.333618164,358.371856689 L570.382507324,357.807098389 L570.529907227,356.955047607 L570.834228516,355.917053223 L571.349365234,354.816070557 L572.104064941,353.760406494 L573.093505859,352.845306396 L574.286132812,352.145782471 L575.632507324,351.727874756 L577.071044922,351.633758545 L578.540161133,351.886810303 L579.98236084,352.466918945 L581.349365234,353.327178955 L582.61114502,354.397979736 L583.76171875,355.598754883 L584.816833496,356.838653564 L585.805603027,358.023803711 L586.757385254,359.045623779 L587.697143555,359.813934326 L588.672668457,360.2059021 L589.686584473,360.164428711 L590.70703125,359.709716797 L591.529907227,359.129241943 L592.04510498,358.65536499 M597.237548828,346.424407959 L597.114501953,347.230438232 L596.919311523,348.557037354 L596.689086914,350.265991211 L596.487976074,352.052642822 L596.335144043,353.821136475 L596.227050781,355.493835449 L596.139343262,357.0284729 L596.063415527,358.293792725 L596.008728027,359.189178467 L595.994995117,359.68270874 L596.013244629,359.861083984 L596.044555664,359.86138916 " fill="none" stroke="black" stroke-linecap="round" stroke-width="1.5" /><path d="M0,0 M433.433959961,405.001586914 L433.49005127,405.214782715 L433.584533691,405.771972656 L433.700836182,406.808013916 L433.789093018,408.335021973 L433.815887451,410.283935547 L433.751159668,412.529663086 L433.582427979,414.938476562 L433.338134766,417.381561279 L433.076599121,419.7449646 L432.846801758,421.874511719 L432.683868408,423.651000977 L432.617614746,424.916473389 L432.655822754,425.586151123 L432.797454834,425.669067383 L432.972442627,425.434387207 L433.117858887,425.131561279 M445.605010986,405.209594727 L445.63079834,405.192810059 L445.486083984,405.316314697 L444.966827393,405.724639893 L443.893554688,406.527709961 L442.247711182,407.697540283 L440.192565918,409.130310059 L437.96661377,410.661407471 L435.874694824,412.130645752 L434.157958984,413.414031982 L432.968383789,414.444030762 L432.380340576,415.207305908 L432.406921387,415.748809814 L432.997711182,416.139953613 L434.112030029,416.452178955 L435.641662598,416.74206543 L437.453796387,417.059020996 L439.39755249,417.447387695 L441.327697754,417.94329834 L443.135375977,418.571594238 L444.755950928,419.320892334 L446.12298584,420.138458252 L447.221496582,420.953765869 L448.041290283,421.694793701 L448.620422363,422.257415771 L449.028594971,422.571350098 L449.333557129,422.601287842 L449.539672852,422.462768555 L449.667388916,422.287261963 M453.482147217,413.91394043 L453.493743896,414.111724854 L453.498687744,414.578216553 L453.479217529,415.388580322 L453.429626465,416.511505127 L453.376586914,417.854034424 L453.367889404,419.277374268 L453.457336426,420.631835938 L453.686981201,421.783752441 L454.080780029,422.636779785 L454.65246582,423.110412598 L455.402313232,423.151000977 L456.331176758,422.723297119 L457.411621094,421.835845947 L458.595031738,420.55645752 L459.809265137,419.017486572 L460.976074219,417.398620605 L461.99597168,415.895782471 L462.80178833,414.664428711 L463.354248047,413.782440186 L463.666687012,413.27722168 L463.784240723,413.157287598 L463.786071777,413.446533203 L463.717956543,414.187194824 L463.612762451,415.373291016 L463.500061035,416.880706787 L463.425354004,418.532073975 L463.422851562,420.13180542 L463.549865723,421.508758545 L463.814666748,422.558013916 L464.1875,423.24432373 L464.538269043,423.594573975 L464.784912109,423.713439941 M469.813232422,414.199401855 L469.872070312,414.38180542 L469.967285156,414.852661133 L470.070251465,415.692657471 L470.133056641,416.868652344 L470.121765137,418.250335693 L470.040802002,419.660369873 L469.923126221,420.922088623 L469.817016602,421.915161133 L469.754882812,422.559844971 L469.754821777,422.807098389 L469.821380615,422.629669189 L469.979492188,422.005401611 L470.273071289,420.957122803 L470.752197266,419.595458984 L471.448577881,418.071868896 L472.373138428,416.550811768 L473.506225586,415.17779541 L474.804443359,414.053405762 L476.210266113,413.255187988 L477.656677246,412.856170654 L479.06842041,412.89831543 L480.370880127,413.386260986 L481.499755859,414.286346436 L482.397491455,415.52154541 L483.038818359,416.977508545 L483.441467285,418.518066406 L483.647064209,420.002532959 L483.751098633,421.290466309 L483.854309082,422.277832031 L484.02520752,422.918182373 L484.219177246,423.243743896 L484.382354736,423.352111816 M495.052764893,415.532623291 L494.916320801,415.262420654 L494.602722168,414.905914307 L494.042144775,414.61050415 L493.208679199,414.590423584 L492.112060547,414.946075439 L490.846069336,415.711151123 L489.567077637,416.822143555 L488.457183838,418.170227051 L487.67565918,419.593322754 L487.324737549,420.925506592 L487.443115234,422.021942139 L488.011260986,422.771179199 L488.967468262,423.090454102 L490.223449707,422.936706543 L491.664459229,422.310455322 L493.160186768,421.274536133 L494.581390381,419.944641113 L495.806274414,418.492858887 L496.748291016,417.113464355 L497.380828857,415.976257324 L497.734191895,415.169616699 L497.870422363,414.724853516 L497.870361328,414.635528564 L497.799041748,414.920562744 L497.696380615,415.614654541 L497.604980469,416.71295166 L497.578918457,418.090698242 L497.684020996,419.572174072 L497.969360352,420.964569092 L498.457519531,422.133666992 L499.120788574,423.015411377 L499.946533203,423.517791748 L500.882568359,423.571990967 L501.878356934,423.1824646 L502.700866699,422.626251221 L503.229705811,422.150390625 M507.969543457,405.711273193 L508.007995605,405.76461792 L508.055389404,406.041931152 L508.074584961,406.69708252 L508.013977051,407.816223145 L507.854400635,409.349456787 L507.620178223,411.181182861 L507.371154785,413.159942627 L507.19052124,415.140350342 L507.148956299,417.000091553 L507.288269043,418.642974854 L507.590698242,419.998046875 L508.024353027,421.02142334 L508.525360107,421.696075439 L509.034118652,422.043731689 L509.435546875,422.156707764 L509.68737793,422.148040771 M546.393371582,406.640594482 L546.096069336,406.351898193 L545.540527344,405.922088623 L544.701904297,405.454986572 L543.61895752,405.122131348 L542.289428711,405.0 L540.77331543,405.130706787 L539.190002441,405.514801025 L537.716186523,406.137298584 L536.539367676,406.960540771 L535.81060791,407.935852051 L535.622192383,409.015136719 L536.012695312,410.146942139 L536.972290039,411.296234131 L538.440612793,412.434936523 L540.306274414,413.556640625 L542.404968262,414.669219971 L544.542175293,415.788574219 L546.515869141,416.912384033 L548.159484863,418.032318115 L549.364685059,419.120819092 L550.075622559,420.153533936 L550.274353027,421.103942871 L549.961547852,421.95135498 L549.137451172,422.666290283 L547.816162109,423.221069336 L546.051086426,423.586120605 L543.944702148,423.750396729 L541.643615723,423.719207764 L539.305175781,423.519165039 L537.078674316,423.190429688 L535.067871094,422.785888672 L533.387878418,422.336334229 L532.140930176,421.878601074 L531.391967773,421.444061279 L531.064086914,421.109283447 L531.00958252,420.906219482 M560.455688477,415.523834229 L560.205688477,415.306274414 L559.737060547,415.018157959 L559.022644043,414.778503418 L558.089538574,414.765167236 L556.939331055,415.077026367 L555.633117676,415.771972656 L554.279296875,416.831573486 L553.040588379,418.178710938 L552.083312988,419.671600342 L551.535339355,421.138916016 L551.46295166,422.421020508 L551.863952637,423.393463135 L552.683898926,423.96194458 L553.84362793,424.067230225 L555.250793457,423.685913086 L556.800842285,422.843200684 L558.363464355,421.617370605 L559.802734375,420.139221191 L561.00769043,418.574188232 L561.913208008,417.111297607 L562.510864258,415.903686523 L562.849243164,415.035797119 L562.992675781,414.538513184 L563.00579834,414.418029785 L562.949279785,414.690002441 L562.864990234,415.395751953 L562.788024902,416.515808105 L562.768554688,417.929351807 L562.859985352,419.461547852 L563.099609375,420.927490234 L563.5078125,422.182647705 L564.103637695,423.100891113 L564.851928711,423.603546143 L565.69342041,423.668426514 L566.410888672,423.483062744 L566.877380371,423.244873047 M570.139160156,415.154602051 L570.184204102,415.314361572 L570.255981445,415.736907959 L570.3359375,416.508911133 L570.385009766,417.605865479 L570.385070801,418.9090271 L570.338623047,420.246582031 L570.275634766,421.44519043 L570.229003906,422.387115479 L570.223876953,422.995178223 L570.274475098,423.212036133 L570.404174805,423.00189209 L570.65637207,422.339324951 L571.089111328,421.258880615 L571.74621582,419.895263672 L572.638549805,418.418945312 L573.74798584,417.007629395 L575.023498535,415.805664062 L576.402954102,414.906280518 L577.817321777,414.374053955 L579.194946289,414.260986328 L580.464355469,414.580657959 L581.570800781,415.31350708 L582.46887207,416.406738281 L583.137023926,417.77230835 L583.591918945,419.290710449 L583.876831055,420.820343018 L584.051391602,422.225921631 L584.206604004,423.328460693 L584.404724121,423.999145508 L584.676513672,424.184936523 L584.946289062,424.06439209 L585.145263672,423.844268799 M591.155883789,405.866668701 L591.184692383,405.871734619 L591.252441406,406.061981201 L591.351318359,406.58895874 L591.445373535,407.554992676 L591.491516113,408.925567627 L591.466064453,410.61050415 L591.388183594,412.494171143 L591.307495117,414.469085693 L591.274902344,416.433349609 L591.306396484,418.275909424 L591.389099121,419.889648438 L591.468017578,421.146697998 L591.501647949,421.961425781 L591.469116211,422.319946289 L591.405334473,422.366821289 L591.344238281,422.273162842 M587.76171875,414.913513184 L588.012207031,414.774902344 L588.664672852,414.571533203 L589.847167969,414.348388672 L591.538024902,414.171081543 L593.58984375,414.047668457 L595.789367676,413.977752686 L597.930358887,413.956817627 L599.869445801,413.982940674 L601.49810791,414.048187256 L602.7578125,414.132385254 L603.571411133,414.203796387 L603.981323242,414.246185303 " fill="none" stroke="black" stroke-linecap="round" stroke-width="1.5" /><path d="M0,0 M421.070526123,466.445404053 L421.14541626,466.629241943 L421.262695312,467.089996338 L421.400512695,467.944976807 L421.505432129,469.233703613 L421.554534912,470.956359863 L421.528137207,473.050415039 L421.421081543,475.43548584 L421.247161865,478.010040283 L421.039123535,480.665313721 L420.823455811,483.257019043 L420.642303467,485.628143311 L420.517089844,487.609771729 L420.452331543,489.084991455 L420.442138672,490.023681641 L420.461517334,490.499420166 L420.483398438,490.665771484 M433.246948242,466.379180908 L433.264709473,466.493041992 L433.162109375,466.802734375 L432.805297852,467.399658203 L432.082702637,468.311828613 L430.981506348,469.509368896 L429.574310303,470.919525146 L427.966949463,472.44708252 L426.274749756,473.998413086 L424.624389648,475.4793396 L423.148498535,476.781860352 L421.970428467,477.818237305 L421.176757812,478.542541504 L420.78012085,478.971710205 L420.725189209,479.176086426 L420.967376709,479.24887085 L421.489959717,479.271057129 L422.307617188,479.316467285 L423.425964355,479.442687988 L424.805450439,479.701263428 L426.347412109,480.128753662 L427.946716309,480.749725342 L429.505584717,481.56552124 L430.953613281,482.561920166 L432.248931885,483.700317383 L433.362060547,484.920562744 L434.269104004,486.139373779 L434.956573486,487.264709473 L435.429504395,488.203094482 L435.714355469,488.887054443 L435.867919922,489.295379639 L435.938232422,489.477508545 L435.966308594,489.52041626 M440.653717041,476.761566162 L440.645629883,476.922851562 L440.640686035,477.300292969 L440.644836426,477.962585449 L440.660064697,478.916809082 L440.687774658,480.139404297 L440.737426758,481.575561523 L440.836303711,483.145263672 L441.017608643,484.744018555 L441.314788818,486.257781982 L441.751647949,487.581268311 L442.327545166,488.617370605 L443.031066895,489.298553467 L443.850463867,489.58215332 L444.765167236,489.440643311 L445.760559082,488.869567871 L446.814849854,487.900665283 L447.877838135,486.582061768 L448.903869629,485.008239746 L449.848999023,483.300292969 L450.684051514,481.588439941 L451.390930176,480.010894775 L451.948120117,478.684112549 L452.33895874,477.682250977 L452.57208252,477.035583496 L452.669281006,476.742492676 L452.680664062,476.79901123 L452.648498535,477.22869873 L452.598419189,478.052093506 L452.545776367,479.256134033 L452.504943848,480.753662109 L452.486450195,482.412872314 L452.511474609,484.08581543 L452.59552002,485.643280029 L452.73260498,486.979553223 L452.910064697,488.038726807 L453.120117188,488.754608154 L453.349029541,489.108978271 L453.587921143,489.130371094 L453.788452148,488.979003906 L453.917114258,488.797454834 M459.195129395,476.982421875 L459.237762451,477.134368896 L459.307495117,477.527770996 L459.383666992,478.255767822 L459.427246094,479.336334229 L459.409667969,480.722564697 L459.321350098,482.31463623 L459.174224854,483.988250732 L459.007476807,485.602172852 L458.859558105,487.017303467 L458.762481689,488.123779297 L458.725494385,488.870117188 L458.729553223,489.226257324 L458.74987793,489.187042236 L458.790863037,488.730773926 L458.874206543,487.84664917 L459.04473877,486.578674316 L459.346496582,485.056732178 L459.785614014,483.40814209 L460.357543945,481.757171631 L461.061462402,480.184539795 L461.893249512,478.75668335 L462.848602295,477.539855957 L463.916870117,476.62020874 L465.052429199,476.052093506 L466.214294434,475.873840332 L467.365386963,476.094696045 L468.464508057,476.710327148 L469.471435547,477.690551758 L470.344970703,478.98236084 L471.042755127,480.501220703 L471.55090332,482.145111084 L471.888946533,483.80291748 L472.08984375,485.368103027 L472.201843262,486.744415283 L472.25982666,487.866455078 L472.297546387,488.664154053 L472.340332031,489.107391357 L472.41796875,489.22052002 L472.504638672,489.143066406 L472.578979492,489.011322021 M483.994110107,478.418518066 L483.85559082,478.175750732 L483.584259033,477.83883667 L483.14666748,477.515686035 L482.539001465,477.372161865 L481.748962402,477.482879639 L480.813964844,477.897247314 L479.810699463,478.617889404 L478.839477539,479.632141113 L477.993408203,480.890808105 L477.345489502,482.323394775 L476.947143555,483.840179443 L476.84463501,485.341217041 L477.057495117,486.715576172 L477.584899902,487.857025146 L478.396209717,488.672180176 L479.446990967,489.095581055 L480.665893555,489.090270996 L481.982696533,488.65524292 L483.306335449,487.824279785 L484.55670166,486.665557861 L485.656616211,485.2734375 L486.564849854,483.758544922 L487.24710083,482.241638184 L487.707824707,480.852050781 L487.96585083,479.699371338 L488.066589355,478.841033936 L488.05682373,478.284362793 L487.995422363,478.017028809 L487.9269104,478.048461914 L487.886901855,478.423858643 L487.890625,479.186920166 L487.948913574,480.313049316 L488.063140869,481.70993042 L488.242980957,483.250793457 L488.508636475,484.815307617 L488.86706543,486.296630859 L489.298858643,487.606445312 L489.765869141,488.663604736 L490.214996338,489.41998291 L490.599487305,489.870788574 L490.910369873,490.054748535 L491.149902344,490.046386719 L491.320709229,489.929748535 L491.443115234,489.721466064 L491.536315918,489.418060303 L491.621551514,488.997039795 L491.696746826,488.576904297 L491.754333496,488.261291504 M497.248626709,465.0 L497.333618164,465.236602783 L497.486907959,465.691375732 L497.691741943,466.386779785 L497.891784668,467.298828125 L498.043579102,468.444915771 L498.12210083,469.8409729 L498.131439209,471.49005127 L498.09375,473.353942871 L498.042205811,475.363372803 L497.990631104,477.43536377 L497.952178955,479.481231689 L497.928955078,481.42086792 L497.929382324,483.184326172 L497.957641602,484.710540771 L498.020080566,485.951446533 L498.107788086,486.882843018 L498.209075928,487.506866455 L498.303588867,487.863555908 L498.37310791,488.023956299 L498.410675049,488.069702148 M533.798095703,467.311248779 L533.486694336,467.099151611 L532.889648438,466.803527832 L531.982910156,466.510009766 L530.832824707,466.34576416 L529.498779297,466.357971191 L528.062744141,466.560424805 L526.626220703,466.939422607 L525.309814453,467.479644775 L524.212646484,468.144592285 L523.415893555,468.898681641 L522.996704102,469.721710205 L522.998474121,470.5965271 L523.453979492,471.519104004 L524.368347168,472.473907471 L525.7109375,473.441040039 L527.411132812,474.408203125 L529.37109375,475.386962891 L531.458312988,476.394165039 L533.528564453,477.452911377 L535.444702148,478.567169189 L537.098266602,479.72769165 L538.418334961,480.915802002 L539.374511719,482.117767334 L539.961669922,483.302337646 L540.18939209,484.442047119 L540.067260742,485.502105713 L539.600341797,486.44342041 L538.789855957,487.232421875 L537.640808105,487.848022461 L536.171386719,488.273071289 L534.416503906,488.497558594 L532.421569824,488.521911621 L530.249328613,488.354278564 L527.976623535,488.017852783 L525.700866699,487.553344727 L523.524230957,487.01159668 L521.547485352,486.427886963 L519.860229492,485.843322754 L518.514404297,485.291534424 L517.609008789,484.791992188 L517.209106445,484.363067627 L517.31262207,484.012573242 L517.666564941,483.767242432 L518.033996582,483.630096436 M550.667663574,479.541168213 L550.419799805,479.310272217 L549.972473145,478.983734131 L549.321228027,478.664581299 L548.516113281,478.512542725 L547.56427002,478.605621338 L546.512817383,478.996948242 L545.427246094,479.691986084 L544.392578125,480.674316406 L543.49597168,481.89642334 L542.815673828,483.289154053 L542.412597656,484.760467529 L542.348999023,486.217010498 L542.651245117,487.545288086 L543.306884766,488.63168335 L544.279418945,489.377105713 L545.497680664,489.713439941 L546.870239258,489.602905273 L548.314086914,489.057342529 L549.740844727,488.121459961 L551.063842773,486.869018555 L552.219848633,485.399658203 L553.156494141,483.836151123 L553.838562012,482.302978516 L554.268554688,480.92755127 L554.484436035,479.816619873 L554.535644531,479.019897461 L554.484741211,478.548095703 L554.395996094,478.407409668 L554.30871582,478.605957031 L554.255004883,479.175506592 L554.261352539,480.130828857 L554.34362793,481.417755127 L554.507385254,482.91998291 L554.773498535,484.503265381 L555.140258789,486.027679443 L555.58392334,487.379241943 L556.057250977,488.474090576 L556.500793457,489.264465332 L556.86151123,489.739593506 L557.138671875,489.910491943 L557.345458984,489.818664551 L557.506347656,489.522613525 L557.62109375,489.187164307 L557.68927002,488.932739258 M560.652648926,477.859130859 L560.690307617,477.914642334 L560.772827148,478.129577637 L560.893859863,478.604980469 L561.018432617,479.40133667 L561.104553223,480.5027771 L561.123657227,481.840423584 L561.077880859,483.310821533 L560.999816895,484.80456543 L560.924316406,486.205291748 L560.87310791,487.402038574 L560.852050781,488.32208252 L560.848144531,488.914642334 L560.853515625,489.145874023 L560.870544434,488.994995117 L560.920471191,488.447662354 L561.037109375,487.515228271 L561.254516602,486.28717041 L561.595214844,484.872558594 L562.075134277,483.384429932 L562.700866699,481.916656494 L563.478027344,480.549072266 L564.397399902,479.350097656 L565.432495117,478.40335083 L566.545898438,477.773132324 L567.691772461,477.503723145 L568.829101562,477.61126709 L569.916931152,478.095489502 L570.90637207,478.930664062 L571.754272461,480.074615479 L572.431945801,481.457336426 L572.930541992,482.990325928 L573.27142334,484.567169189 L573.497802734,486.084320068 L573.649169922,487.43963623 L573.77130127,488.557861328 L573.898010254,489.383605957 L574.038635254,489.906280518 L574.187744141,490.155487061 L574.313049316,490.224884033 L574.389587402,490.208587646 M581.263366699,465.815734863 L581.261413574,465.872772217 L581.289245605,466.098571777 L581.366516113,466.601654053 L581.49230957,467.448669434 L581.637023926,468.635375977 L581.767822266,470.125701904 L581.864624023,471.864837646 L581.925292969,473.789001465 L581.964294434,475.838897705 L581.996704102,477.95791626 L582.028991699,480.079589844 L582.063293457,482.134460449 L582.092468262,484.04385376 L582.112426758,485.713623047 L582.125061035,487.070281982 L582.139587402,488.07321167 L582.156188965,488.716186523 L582.175415039,489.039306641 L582.189575195,489.14630127 L582.196960449,489.141937256 M577.067504883,476.855377197 L577.384521484,476.858886719 L578.069580078,476.852539062 L579.190612793,476.82723999 L580.691101074,476.777282715 L582.479248047,476.70880127 L584.424499512,476.641265869 L586.40057373,476.594696045 L588.297546387,476.577148438 L590.018859863,476.589050293 L591.477844238,476.618469238 L592.622314453,476.650665283 L593.401611328,476.673736572 L593.815979004,476.683105469 L593.918945312,476.681030273 L593.851257324,476.67477417 L593.737915039,476.66973877 " fill="none" stroke="black" stroke-linecap="round" stroke-width="1.5" /><path d="M0,0 M443.905181885,530.192871094 L443.938415527,530.365478516 L443.996459961,530.832275391 L444.063751221,531.74432373 L444.104858398,533.167114258 L444.082305908,535.084716797 L443.95980835,537.373779297 L443.730743408,539.852661133 L443.431976318,542.324157715 L443.113647461,544.612487793 L442.833587646,546.55670166 L442.621307373,548.07623291 L442.496765137,549.05670166 L442.459350586,549.452941895 L442.510406494,549.3046875 L442.596221924,548.90435791 L442.676483154,548.505249023 M454.031036377,529.660705566 L454.130584717,529.546142578 L454.17300415,529.462890625 L454.024658203,529.539978027 L453.537841797,529.932434082 L452.666351318,530.703735352 L451.419403076,531.841552734 L449.884155273,533.256286621 L448.188201904,534.844970703 L446.494232178,536.484741211 L444.975402832,538.060058594 L443.770507812,539.464477539 L442.955200195,540.617980957 L442.561431885,541.47857666 L442.582000732,542.060913086 L442.9894104,542.416992188 L443.769042969,542.605529785 L444.879730225,542.678771973 L446.239990234,542.694458008 L447.746704102,542.719482422 L449.286560059,542.826965332 L450.74407959,543.067382812 L452.048706055,543.458557129 L453.141326904,543.971923828 L453.982025146,544.544250488 L454.558532715,545.100158691 L454.89932251,545.573059082 L455.045196533,545.921630859 L455.077270508,546.084777832 L455.059570312,546.022766113 L455.041473389,545.719238281 L455.036651611,545.338195801 L455.044616699,545.020019531 M458.884887695,534.895996094 L458.943847656,534.750732422 L459.004089355,534.613769531 L459.018890381,534.650512695 L458.92477417,535.084594727 L458.698303223,536.06262207 L458.352844238,537.598449707 L457.942108154,539.549987793 L457.552215576,541.676086426 L457.276184082,543.678405762 L457.167053223,545.31463623 L457.244750977,546.460510254 L457.499176025,547.07635498 L457.912872314,547.167602539 L458.490081787,546.717712402 L459.245330811,545.683898926 L460.175323486,544.081970215 L461.265380859,542.04888916 L462.466217041,539.838745117 L463.700317383,537.76574707 L464.863311768,536.072937012 L465.850341797,534.87878418 L466.575317383,534.226501465 L466.992736816,534.143066406 L467.095703125,534.673034668 L466.9190979,535.867736816 L466.515625,537.669921875 L465.9793396,539.868164062 L465.434356689,542.149414062 L465.002471924,544.192993164 L464.759216309,545.780578613 L464.721099854,546.847595215 L464.87600708,547.334594727 L465.187408447,547.251647949 L465.615386963,546.648742676 L466.018371582,545.888671875 L466.3019104,545.267211914 M471.252380371,533.886474609 L471.409210205,533.655334473 L471.599761963,533.458679199 L471.744049072,533.519592285 L471.737487793,534.106811523 L471.559051514,535.314453125 L471.214630127,537.097717285 L470.761199951,539.262207031 L470.275177002,541.539916992 L469.850341797,543.619262695 L469.554992676,545.268432617 L469.412719727,546.394836426 L469.40045166,546.996520996 L469.483154297,547.098815918 L469.654388428,546.662963867 L469.942565918,545.607666016 L470.40512085,543.922790527 L471.105682373,541.765014648 L472.076843262,539.407958984 L473.305450439,537.159790039 L474.727386475,535.250610352 L476.234161377,533.804870605 L477.696350098,532.886352539 L478.98223877,532.553955078 L479.978057861,532.854370117 L480.61706543,533.805908203 L480.880310059,535.358337402 L480.808044434,537.366394043 L480.498809814,539.612182617 L480.078674316,541.84375 L479.669433594,543.822509766 L479.366271973,545.379699707 L479.20123291,546.449401855 L479.155731201,547.059143066 L479.190185547,547.300537109 L479.293029785,547.171569824 L479.469573975,546.658813477 L479.73651123,545.768676758 L480.007446289,544.838989258 L480.212249756,544.136413574 M488.45211792,533.838562012 L488.64730835,533.530029297 L489.012420654,533.07232666 L489.547698975,532.574707031 L490.197387695,532.207336426 L490.917114258,532.008361816 L491.66418457,531.968505859 L492.394714355,532.034973145 L493.053405762,532.165039062 L493.581878662,532.340332031 L493.911712646,532.576293945 L493.964294434,532.906616211 L493.68951416,533.387084961 L493.064147949,534.072387695 L492.104156494,535.002319336 L490.873443604,536.210327148 L489.465026855,537.715087891 L487.99508667,539.505187988 L486.598480225,541.495056152 L485.412384033,543.502563477 L484.550842285,545.297119141 L484.087677002,546.673706055 L484.032745361,547.504943848 L484.350097656,547.751708984 L484.983734131,547.392272949 L485.882232666,546.399291992 L486.992889404,544.803649902 L488.26272583,542.739929199 L489.618591309,540.441711426 L490.956176758,538.206726074 L492.152313232,536.297241211 L493.103759766,534.843017578 L493.744140625,533.885803223 L494.065216064,533.432250977 L494.11618042,533.498046875 L493.955444336,534.151733398 L493.633880615,535.454406738 L493.224060059,537.318908691 L492.804748535,539.537475586 L492.459533691,541.829956055 L492.274597168,543.92364502 L492.288787842,545.63885498 L492.480560303,546.908691406 L492.80960083,547.721862793 L493.223052979,548.104797363 L493.689453125,548.080444336 L494.219543457,547.648132324 L494.83190918,546.796020508 L495.529510498,545.54309082 L496.312164307,543.955566406 L497.168182373,542.131652832 L498.085968018,540.174438477 L499.063720703,538.168579102 L500.084259033,536.176391602 L501.104675293,534.250244141 L502.069824219,532.449707031 L502.915374756,530.835998535 L503.582244873,529.470214844 L504.045776367,528.390319824 L504.303741455,527.600158691 L504.365539551,527.080749512 L504.241424561,526.828430176 L503.927642822,526.875183105 L503.41317749,527.303405762 L502.712677002,528.198791504 L501.8644104,529.605224609 L500.934692383,531.495910645 L500.009735107,533.77545166 L499.182495117,536.292358398 L498.542358398,538.869873047 L498.168731689,541.320495605 L498.112335205,543.475402832 L498.392456055,545.207824707 L498.99597168,546.449401855 L499.889404297,547.188110352 L501.025146484,547.446960449 L502.346099854,547.266052246 L503.779510498,546.706176758 L505.240600586,545.856323242 L506.640930176,544.832702637 L507.906494141,543.767089844 L508.982727051,542.77520752 L509.846313477,541.940612793 L510.490722656,541.303283691 L510.92074585,540.875488281 L511.162231445,540.638793945 L511.263061523,540.551757812 L511.281036377,540.548461914 L511.269989014,540.574768066 M535.954284668,526.636474609 L535.784667969,526.371398926 L535.448608398,525.971984863 L534.917663574,525.526916504 L534.20123291,525.182739258 L533.290039062,525.0 L532.202392578,525.024169922 L530.990600586,525.271850586 L529.736572266,525.761291504 L528.528137207,526.491760254 L527.450927734,527.444946289 L526.575683594,528.58807373 L525.969543457,529.876403809 L525.707702637,531.260620117 L525.840698242,532.689941406 L526.379455566,534.113220215 L527.297973633,535.497192383 L528.518066406,536.831054688 L529.924926758,538.12701416 L531.381530762,539.412597656 L532.74005127,540.711120605 L533.860595703,542.019958496 L534.646240234,543.31829834 L535.038574219,544.576660156 L535.020385742,545.769775391 L534.599182129,546.879272461 L533.800048828,547.889099121 L532.657836914,548.773010254 L531.23248291,549.49987793 L529.601318359,550.03704834 L527.86529541,550.365783691 L526.13671875,550.485168457 L524.519775391,550.409973145 L523.098266602,550.165710449 L521.929504395,549.778808594 L521.032226562,549.272277832 L520.463378906,548.641235352 L520.258666992,547.910095215 L520.417663574,547.127075195 L520.742736816,546.476928711 L521.05279541,546.062194824 M544.063720703,536.319335938 L544.055236816,536.049072266 L543.992492676,535.63659668 L543.825378418,535.167785645 L543.50579834,534.790405273 L543.01171875,534.581787109 L542.334228516,534.616882324 L541.49041748,534.963806152 L540.524536133,535.709472656 L539.497009277,536.913208008 L538.483886719,538.57434082 L537.574829102,540.606079102 L536.862609863,542.817687988 L536.42175293,544.94543457 L536.282836914,546.735778809 L536.428771973,548.019287109 L536.810913086,548.734436035 L537.379272461,548.886291504 L538.101379395,548.480773926 L538.959411621,547.506774902 L539.925109863,545.990539551 L540.969360352,544.053100586 L542.055725098,541.911193848 L543.143005371,539.823852539 L544.157226562,538.015869141 L545.025756836,536.611816406 L545.680236816,535.646911621 L546.080383301,535.129333496 L546.223693848,535.095031738 L546.142456055,535.618835449 L545.862548828,536.772521973 L545.43737793,538.515441895 L544.943725586,540.666381836 L544.47644043,542.953857422 L544.131103516,545.091064453 L543.971496582,546.859008789 L544.012817383,548.144287109 L544.233703613,548.897094727 L544.600402832,549.096618652 L545.099304199,548.733093262 L545.721801758,547.790649414 L546.457275391,546.305358887 L547.302124023,544.396179199 L548.243591309,542.253173828 L549.27166748,540.100830078 L550.360107422,538.159179688 L551.433227539,536.574035645 L552.390197754,535.428283691 L553.136474609,534.767211914 L553.606506348,534.629089355 L553.798400879,535.060546875 L553.731445312,536.106140137 L553.436218262,537.723388672 L552.966918945,539.753479004 L552.403930664,541.952880859 L551.84161377,544.036743164 L551.377380371,545.765136719 L551.059143066,547.024414062 L550.891845703,547.799255371 L550.854003906,548.108642578 L550.932495117,547.95489502 L551.143493652,547.270141602 L551.537231445,546.002624512 L552.163696289,544.23248291 L553.054199219,542.172241211 L554.19519043,540.095336914 L555.522277832,538.250366211 L556.936218262,536.791931152 L558.318908691,535.785339355 L559.555603027,535.26776123 L560.551818848,535.265380859 L561.249755859,535.800170898 L561.627685547,536.873046875 L561.709594727,538.442932129 L561.556213379,540.374206543 L561.266723633,542.475402832 L560.950927734,544.519836426 L560.707763672,546.307128906 L560.588745117,547.708618164 L560.601501465,548.691650391 L560.742736816,549.189147949 L560.993591309,549.197570801 L561.332519531,548.745239258 L561.652587891,548.135192871 L561.878295898,547.620788574 M569.179870605,527.770812988 L569.187011719,527.887329102 L569.169067383,528.248168945 L569.098388672,528.988952637 L568.945251465,530.17791748 L568.701904297,531.805603027 L568.372802734,533.800476074 L567.984985352,536.053100586 L567.583984375,538.430114746 L567.218505859,540.802856445 L566.928222656,543.036071777 L566.734985352,545.000671387 L566.631347656,546.574584961 L566.593444824,547.679504395 L566.595581055,548.307495117 L566.608886719,548.565917969 L566.61932373,548.612792969 " fill="none" stroke="black" stroke-linecap="round" stroke-width="1.5" /></svg>