<?xml version="1.0" encoding="utf-8" ?>
<svg baseProfile="full" height="100%" version="1.1" viewBox="0,0,1000,120" width="100%" xmlns="http://www.w3.org/2000/svg" xmlns:ev="http://www.w3.org/2001/xml-events" xmlns:xlink="http://www.w3.org/1999/xlink"><defs /><rect fill="white" height="120" width="1000" x="0" y="0" /><path d="M0,0 M390.224517822,67.4985046387 L390.241363525,67.4752578735 L390.267425537,67.4474868774 L390.295227051,67.4243621826 M418.632049561,46.8877258301 L418.665924072,46.8672714233 L418.717956543,46.8649520874 L418.796569824,46.9448394775 L418.875976562,47.1967658997 L418.922210693,47.7360725403 L418.856414795,48.6751403809 L418.58203125,50.0842208862 L418.040100098,51.9885482788 L417.242767334,54.3468513489 L416.242919922,57.0324783325 L415.139221191,59.8805770874 L414.041381836,62.6736526489 L413.05569458,65.1639480591 L412.274597168,67.1423110962 L411.754455566,68.5040130615 L411.479400635,69.2789001465 L411.381591797,69.5952758789 L411.402069092,69.5550994873 L411.525177002,69.1627883911 L411.806945801,68.342338562 L412.355041504,67.0277404785 L413.256256104,65.2482452393 L414.547302246,63.1181411743 L416.220458984,60.7750701904 L418.222564697,58.3545608521 L420.486328125,55.974067688 L422.925018311,53.7439651489 L425.435852051,51.7812576294 L427.86517334,50.1870803833 L430.032012939,49.0123252869 L431.756164551,48.2710723877 L432.924591064,47.9209098816 L433.5390625,47.8641548157 L433.739898682,47.9781265259 L433.724212646,48.1290817261 L433.655639648,48.2338600159 M421.905303955,57.3468360901 L422.033599854,57.554145813 L422.284301758,58.0393638611 L422.661132812,58.8773803711 L423.120788574,60.0422019958 L423.647583008,61.4631347656 L424.218414307,63.0278778076 L424.851837158,64.6109237671 L425.582885742,66.0867233276 L426.456420898,67.3319625854 L427.505828857,68.2190322876 L428.756469727,68.6379394531 L430.208892822,68.5133666992 L431.844421387,67.8109054565 L433.61050415,66.5670547485 L435.433898926,64.890953064 L437.223571777,62.9452209473 L438.887634277,60.9154319763 L440.347564697,58.9919548035 L441.52456665,57.3431053162 L442.370147705,56.0811653137 L442.888000488,55.2415237427 L443.121765137,54.8128204346 L443.134124756,54.7821769714 L442.977813721,55.1758575439 L442.648620605,56.0615539551 L442.153137207,57.4492683411 L441.557861328,59.2371025085 L440.977355957,61.2267913818 L440.551025391,63.178943634 L440.394622803,64.879989624 L440.551116943,66.1936264038 L441.022216797,67.034614563 L441.805419922,67.3560256958 L442.884338379,67.1359710693 L444.23324585,66.3863677979 L445.797454834,65.1696853638 L447.484436035,63.6067504883 L449.179107666,61.8543815613 L450.780578613,60.0915184021 L452.176574707,58.4992370605 L453.277526855,57.2195587158 L454.040283203,56.3204574585 L454.460876465,55.8183441162 L454.568115234,55.7083015442 L454.41998291,56.0122451782 L454.04397583,56.7957878113 L453.479492188,58.0821876526 L452.829742432,59.7659492493 L452.224761963,61.6367073059 L451.810943604,63.4454689026 L451.708984375,64.9797744751 L451.973083496,66.1100006104 L452.614532471,66.7651138306 L453.635925293,66.9015808105 L455.006286621,66.4996109009 L456.684753418,65.5900192261 L458.586334229,64.2596893311 L460.600067139,62.6437149048 L462.614044189,60.9043884277 L464.511779785,59.2236976624 L466.165527344,57.767036438 L467.47958374,56.6526298523 L468.387390137,55.9498519897 L468.868560791,55.6947517395 L468.962432861,55.9067344666 L468.712646484,56.6147155762 L468.147766113,57.8208351135 L467.329376221,59.4312400818 L466.381225586,61.2515983582 L465.459899902,63.0206451416 L464.731536865,64.4899368286 L464.27520752,65.5255661011 L464.080627441,66.0981063843 L464.099334717,66.2210693359 L464.331054688,65.9000320435 L464.830352783,65.1121063232 L465.681640625,63.8687553406 L466.903320312,62.3001899719 L468.449584961,60.6029777527 L470.221008301,58.9863510132 L472.104187012,57.6159934998 L473.992675781,56.5930862427 L475.788635254,55.9755630493 L477.388214111,55.8025436401 L478.703063965,56.0736465454 L479.68170166,56.7652816772 L480.297607422,57.8208427429 L480.559509277,59.1617126465 L480.521240234,60.6782226562 L480.290893555,62.2313575745 L480.011535645,63.67137146 L479.820373535,64.8887176514 L479.814086914,65.7991943359 L480.043273926,66.3474197388 L480.536254883,66.4923324585 L481.324707031,66.2045593262 L482.444763184,65.4836425781 L483.884796143,64.4041366577 L485.594299316,63.0775909424 L487.496459961,61.635925293 L489.515625,60.2070465088 L491.581207275,58.8982429504 L493.637390137,57.7996902466 L495.607086182,56.9875030518 L497.415893555,56.4948310852 L498.989501953,56.296257019 L500.266448975,56.311504364 L501.202148438,56.438835144 L501.798095703,56.5898208618 L502.101257324,56.7085113525 L502.200317383,56.7759933472 L502.16204834,56.7789497375 L502.001831055,56.7102355957 L501.675994873,56.5861854553 L501.110778809,56.4585876465 L500.255554199,56.4231033325 L499.096435547,56.6032676697 L497.664978027,57.1028137207 L496.041900635,57.9834365845 L494.358551025,59.236869812 L492.780426025,60.7675285339 L491.499053955,62.4089851379 L490.674377441,63.9663772583 L490.406738281,65.2495269775 L490.720031738,66.1114425659 L491.577636719,66.4730224609 L492.896636963,66.2967147827 L494.570129395,65.5980682373 L496.471099854,64.4634017944 L498.437561035,63.0270652771 L500.284362793,61.4664459229 L501.830749512,60.0010757446 L502.952087402,58.8019218445 L503.628723145,57.9551124573 L503.920349121,57.491443634 L503.910430908,57.4094200134 L503.661529541,57.7326507568 L503.198547363,58.5294418335 L502.572387695,59.8102874756 L501.923828125,61.4341964722 L501.430603027,63.1730575562 L501.267089844,64.7715911865 L501.555053711,66.0258712769 L502.337341309,66.8105545044 L503.604614258,67.0471420288 L505.328399658,66.6628723145 L507.444274902,65.6433334351 L509.851196289,64.0363006592 L512.425415039,61.9536743164 L515.03112793,59.5336952209 L517.530090332,56.9238510132 L519.803222656,54.2699508667 L521.745483398,51.7278823853 L523.260559082,49.4541244507 L524.296691895,47.5752601624 L524.83203125,46.172958374 L524.869140625,45.2981758118 L524.429199219,45.0 L523.531982422,45.3469657898 L522.205078125,46.411895752 L520.549560547,48.1852340698 L518.718444824,50.5591430664 L516.920166016,53.3314857483 L515.384155273,56.2526168823 L514.312866211,59.0742721558 L513.845947266,61.5982818604 L514.049194336,63.673286438 L515.010620117,65.1626358032 L516.669006348,66.008895874 L518.83996582,66.2406234741 L520.826171875,66.1096420288 L522.181030273,65.8726119995 M556.56036377,48.6170196533 L556.460510254,48.3626403809 L556.227416992,47.9816513062 L555.810180664,47.5603523254 L555.163513184,47.2407302856 L554.245666504,47.0866203308 L553.041748047,47.1510391235 L551.58605957,47.4567222595 L549.990844727,48.0199661255 L548.42401123,48.8246994019 L547.056396484,49.8258857727 L546.043945312,50.9686431885 L545.499389648,52.2025108337 L545.489440918,53.4877853394 L546.045043945,54.7932701111 L547.141540527,56.094127655 L548.683044434,57.3788566589 L550.511779785,58.6485290527 L552.421020508,59.9133872986 L554.188720703,61.183013916 L555.624023438,62.4466171265 L556.598144531,63.6809501648 L557.040222168,64.8530578613 L556.931884766,65.9309539795 L556.280212402,66.8872299194 L555.098510742,67.68359375 L553.430541992,68.2694473267 L551.380187988,68.6027145386 L549.099975586,68.650390625 L546.78326416,68.4200515747 L544.624389648,67.9647293091 L542.750427246,67.3562088013 L541.289306641,66.6393737793 L540.328857422,65.8722991943 L539.894042969,65.0995864868 L539.828063965,64.4786071777 L539.940612793,64.08984375 M568.405883789,60.026966095 L568.37890625,59.774887085 L568.290039062,59.3566703796 L568.090393066,58.8244361877 L567.730651855,58.3019104004 L567.163330078,57.8660545349 L566.363037109,57.6027870178 L565.331726074,57.5873527527 L564.107116699,57.8948478699 L562.756958008,58.5716209412 L561.373901367,59.6262435913 L560.067077637,61.0094718933 L558.953491211,62.6080474854 L558.149353027,64.25756073 L557.753540039,65.7761993408 L557.822998047,66.9953231812 L558.369995117,67.7963409424 L559.365905762,68.1066055298 L560.742614746,67.8948135376 L562.413696289,67.1765899658 L564.269104004,66.0231933594 L566.175964355,64.5544662476 L567.99206543,62.9330558777 L569.566772461,61.3536643982 L570.785583496,59.9998092651 L571.606201172,58.9848937988 L572.042114258,58.3596534729 L572.152099609,58.1403465271 L572.001525879,58.3379974365 L571.620727539,59.0007209778 L571.057312012,60.1461639404 L570.419494629,61.6626091003 L569.84942627,63.3345832825 L569.500793457,64.9155578613 L569.488830566,66.1965942383 L569.850341797,67.0641784668 L570.578857422,67.4705963135 L571.670043945,67.3850402832 L573.104858398,66.7981948853 L574.830627441,65.7582702637 L576.759216309,64.3781204224 L578.764038086,62.8241157532 L580.715759277,61.2903862 L582.489624023,59.9522247314 L583.981079102,58.9247894287 L585.117736816,58.2857513428 L585.859436035,58.073474884 L586.200866699,58.3098220825 L586.173278809,59.0076446533 L585.799194336,60.1365089417 L585.130004883,61.5837593079 L584.287902832,63.1688461304 L583.429992676,64.6613616943 L582.717285156,65.8733596802 L582.256469727,66.6968307495 L582.071777344,67.0887756348 L582.146118164,67.0431289673 L582.499023438,66.5570373535 L583.180297852,65.6389007568 L584.23248291,64.3742218018 L585.637207031,62.9209747314 L587.313293457,61.4614715576 L589.127807617,60.1675949097 L590.948181152,59.1592979431 L592.658874512,58.5030975342 L594.163757324,58.2394142151 L595.380737305,58.3838348389 L596.255249023,58.9271850586 L596.755859375,59.8413467407 L596.890197754,61.0683403015 L596.721801758,62.5045433044 L596.371826172,64.0007400513 L595.990112305,65.3874969482 L595.711914062,66.5386581421 L595.621459961,67.3707275391 L595.76361084,67.8389434814 L596.178100586,67.9049606323 L596.91003418,67.51512146 L597.998046875,66.6311798096 L599.434875488,65.287689209 L601.154602051,63.5579681396 L603.063842773,61.5575180054 L605.075195312,59.4035568237 L607.113891602,57.1954956055 L609.118530273,55.029548645 L611.03112793,53.0181350708 L612.761291504,51.2753143311 L614.19921875,49.9061813354 L615.265258789,48.9492111206 L615.920410156,48.4000091553 L616.175964355,48.2436294556 L616.090209961,48.4889068604 L615.692626953,49.1931152344 L614.97253418,50.407661438 L613.955932617,52.0892715454 L612.703552246,54.1270866394 L611.321899414,56.3703346252 L609.947998047,58.6556053162 L608.699584961,60.8470726013 L607.662902832,62.823348999 L606.901855469,64.4645309448 L606.432250977,65.6803436279 L606.223266602,66.467590332 L606.192871094,66.8214569092 L606.237426758,66.8894500732 L606.287780762,66.8265609741 M604.663635254,60.1152114868 L604.59588623,60.042881012 L604.597045898,59.968547821 L604.803955078,59.9249992371 L605.378845215,59.9363861084 L606.402160645,59.9717674255 L607.872497559,59.9853096008 L609.701660156,59.9474868774 L611.786743164,59.8425064087 L614.038879395,59.655834198 L615.927246094,59.4594993591 L617.172363281,59.3085174561 " fill="none" stroke="black" stroke-linecap="round" stroke-width="1.5" /></svg>