<?xml version="1.0" encoding="utf-8" ?>
<svg baseProfile="full" height="100%" version="1.1" viewBox="0,0,1000,120" width="100%" xmlns="http://www.w3.org/2000/svg" xmlns:ev="http://www.w3.org/2001/xml-events" xmlns:xlink="http://www.w3.org/1999/xlink"><defs /><rect fill="white" height="120" width="1000" x="0" y="0" /><path d="M0,0 M283.797424316,67.8622131348 L283.808441162,67.8417663574 L283.819732666,67.8102874756 L283.851257324,67.7686157227 L283.930084229,67.7251358032 L284.070831299,67.6725540161 L284.240753174,67.6312255859 L284.386077881,67.6054611206 M312.895385742,50.1509666443 L312.895812988,50.1011924744 L312.853393555,50.106464386 L312.731750488,50.2714996338 L312.493530273,50.7200164795 L312.121887207,51.518573761 L311.600036621,52.6940994263 L310.922698975,54.2437171936 L310.093200684,56.1382751465 L309.137756348,58.317527771 L308.09564209,60.6872024536 L307.026153564,63.1089553833 L306.004974365,65.4242477417 L305.122131348,67.4692840576 L304.455841064,69.1161956787 L304.046539307,70.3125686646 L303.888122559,71.0765991211 L303.958404541,71.4727020264 L304.266906738,71.5776290894 L304.868774414,71.4239959717 L305.840179443,71.0311431885 L307.220733643,70.4412841797 L308.97479248,69.7253341675 L310.988830566,68.9762496948 L313.123291016,68.2941055298 L315.237823486,67.7430114746 L317.228637695,67.3638153076 L319.033782959,67.1730041504 L320.60168457,67.1542892456 L321.885650635,67.2701721191 L322.856964111,67.4729537964 L323.504272461,67.7143859863 L323.85269165,67.966506958 L323.969940186,68.2245178223 L323.919128418,68.4878540039 L323.760559082,68.7696609497 L323.543701172,69.0802383423 L323.311096191,69.4298248291 L323.094543457,69.824760437 L322.921813965,70.2665481567 L322.800018311,70.7340087891 L322.725738525,71.2034683228 L322.691589355,71.6456985474 L322.692810059,72.0414199829 L322.717773438,72.3711624146 L322.752197266,72.6209716797 L322.784088135,72.7768554688 L322.809295654,72.8538360596 L322.830993652,72.8761520386 L322.851623535,72.874382019 L322.871063232,72.865737915 L322.881469727,72.8458633423 L322.883575439,72.8081817627 L322.888275146,72.7717437744 L322.904907227,72.7471313477 L322.931030273,72.7415542603 L322.96282959,72.7573394775 L322.986724854,72.775390625 L323.002105713,72.7871398926 L323.016479492,72.8021774292 L323.036621094,72.8204650879 L323.059753418,72.8427658081 L323.084197998,72.8688430786 L323.103637695,72.8930969238 L323.116973877,72.9125366211 L323.12979126,72.936340332 L323.14630127,72.9619750977 L323.167175293,72.9915008545 L323.189147949,73.0177612305 L323.209716797,73.0419387817 L323.223876953,73.0616149902 L323.233123779,73.0841064453 L323.240661621,73.1049423218 L323.252197266,73.1290893555 L323.265319824,73.1489105225 L323.280792236,73.1674957275 L323.294006348,73.1833267212 L323.303527832,73.1970977783 L323.311431885,73.2067260742 L323.322570801,73.2183685303 L323.333312988,73.2274780273 L323.345031738,73.2385635376 L323.356781006,73.2510986328 L323.369628906,73.2621917725 L323.385101318,73.2708969116 L323.402893066,73.2771148682 L323.417022705,73.2752456665 L323.425964355,73.2663116455 L323.431793213,73.2545471191 L323.439758301,73.2460174561 L323.453338623,73.2453918457 L323.473449707,73.2539520264 L323.496246338,73.267539978 L323.514343262,73.2762908936 L323.525817871,73.2801513672 L323.530883789,73.2813796997 L323.532226562,73.2834701538 L323.537017822,73.2922744751 L323.547790527,73.3062744141 L323.563903809,73.3196182251 L323.583740234,73.3319473267 L323.603057861,73.3396911621 L323.62020874,73.3468856812 L323.637145996,73.3581161499 L323.650939941,73.3676681519 L323.664276123,73.377243042 L323.676330566,73.3858642578 L323.686706543,73.3892669678 L323.69909668,73.3930358887 L323.716552734,73.4008865356 L323.733947754,73.4077529907 L323.751525879,73.4178466797 L323.767120361,73.4308624268 L323.778015137,73.4418106079 L323.785888672,73.4487686157 L323.795349121,73.4539794922 L323.803009033,73.4552459717 L323.808959961,73.4554901123 M328.797241211,57.243560791 L328.811645508,57.2720184326 L328.810791016,57.2992401123 L328.792236328,57.3183822632 L328.759002686,57.3186187744 L328.740600586,57.3105583191 L328.74420166,57.3005523682 L328.768127441,57.2881546021 L328.792633057,57.2664375305 L328.813690186,57.2415657043 L328.828765869,57.2172966003 L328.843383789,57.1976509094 L328.853515625,57.1848983765 L328.863922119,57.1737213135 L328.86819458,57.1584701538 L328.872619629,57.1368103027 L328.877502441,57.1157684326 L328.882019043,57.0994186401 M330.141296387,59.8070144653 L330.190917969,59.7049560547 L330.259765625,59.5590362549 L330.331481934,59.3990440369 L330.382873535,59.2707748413 L330.412536621,59.1839675903 L330.421691895,59.1200141907 L330.42477417,59.0718955994 L330.42388916,59.0312309265 L330.425140381,58.9926872253 L330.432067871,58.959438324 L330.440979004,58.9382476807 L330.448486328,58.9225502014 L330.456054688,58.9143829346 L330.459655762,58.9045600891 L330.459777832,58.8918952942 L330.461425781,58.880695343 L330.465393066,58.874584198 L330.473144531,58.8713340759 L330.479949951,58.8645973206 L330.485473633,58.8520622253 L330.486633301,58.834602356 L330.487243652,58.818649292 L330.489074707,58.8097190857 L330.493896484,58.806854248 L330.496368408,58.8028450012 L330.501373291,58.7957382202 L330.506652832,58.7829704285 L330.514404297,58.7673339844 L330.524658203,58.7526512146 L330.536590576,58.7408981323 L330.548248291,58.7322425842 L330.562286377,58.725944519 L330.575592041,58.718624115 L330.589233398,58.7096939087 L330.602600098,58.7001609802 L330.613067627,58.6899986267 L330.621612549,58.6804924011 L330.625183105,58.6698265076 L330.62512207,58.6567802429 L330.625549316,58.6425895691 L330.629455566,58.6288948059 L330.638336182,58.6171340942 L330.652496338,58.6085624695 L330.663818359,58.5996704102 L330.673583984,58.5900306702 L330.681854248,58.5795516968 L330.687194824,58.567779541 L330.692871094,58.5573692322 L330.701080322,58.5492858887 L330.709228516,58.5405197144 L330.718933105,58.5307044983 L330.730773926,58.5202255249 L330.740997314,58.5086212158 L330.750549316,58.4984703064 L330.758453369,58.4895362854 L330.764801025,58.4810218811 L330.769744873,58.4710426331 L330.777832031,58.4602470398 L330.790405273,58.4489822388 L330.807250977,58.4396247864 L330.822723389,58.4310913086 L330.835632324,58.4237861633 L330.844238281,58.4151916504 L330.851318359,58.4055519104 L330.859344482,58.3964309692 L330.867889404,58.3892211914 L330.875488281,58.3832015991 L330.884277344,58.3767738342 L330.895080566,58.3683395386 L330.907745361,58.3572387695 L330.920013428,58.3449211121 L330.929077148,58.3322067261 L330.936737061,58.3223648071 L330.946472168,58.3145751953 L330.958831787,58.3082046509 L330.973846436,58.3019180298 L330.988494873,58.2939796448 L330.999572754,58.2828140259 L331.007629395,58.2697982788 L331.016357422,58.2566108704 L331.026092529,58.2448005676 L331.039306641,58.2358818054 L331.052856445,58.2279663086 L331.066253662,58.2194061279 L331.07635498,58.2075538635 L331.087005615,58.1941070557 L331.099609375,58.1817512512 L331.11541748,58.171207428 L331.128875732,58.1607475281 L331.14050293,58.1500282288 L331.145874023,58.1367874146 L331.149902344,58.1236953735 L331.155456543,58.1150894165 L331.166351318,58.1113204956 L331.181060791,58.1110725403 L331.196960449,58.1101722717 L331.210327148,58.1034889221 L331.222198486,58.0916481018 L331.232177734,58.0785102844 L331.243682861,58.0655899048 L331.259399414,58.0556983948 L331.275695801,58.0462493896 L331.291137695,58.0349006653 L331.305236816,58.0215568542 L331.314666748,58.0071487427 L331.320495605,57.9901885986 L331.327941895,57.973991394 L331.336853027,57.9587402344 L331.347259521,57.9448623657 L331.359802246,57.9335823059 L331.371154785,57.924861908 L331.381652832,57.9174842834 L331.393585205,57.9115753174 L331.408905029,57.9068603516 L331.423065186,57.9030838013 L331.434051514,57.9009246826 M334.890594482,56.3268623352 L334.91003418,56.3022270203 L334.944274902,56.2524757385 L334.9949646,56.1852073669 L335.05291748,56.112739563 L335.11114502,56.0596313477 L335.16986084,56.0220069885 L335.215301514,56.0008010864 L335.243286133,55.989818573 M334.569366455,57.6845092773 L334.376464844,58.3561477661 L334.056030273,59.5355911255 L333.652313232,61.1370697021 L333.274139404,62.8815765381 L333.002563477,64.5932922363 L332.916229248,66.112739563 L333.062591553,67.3396835327 L333.472320557,68.1755905151 L334.157440186,68.5498199463 L335.125823975,68.404258728 L336.381195068,67.7027130127 L337.903076172,66.4626617432 L339.645446777,64.7865905762 L341.521636963,62.8365402222 L343.434448242,60.8118362427 L345.284515381,58.9134292603 L346.959075928,57.3044586182 L348.351470947,56.0840568542 L349.401428223,55.3054122925 L350.07824707,54.9849662781 L350.4012146,55.1489830017 L350.411102295,55.8538589478 L350.132629395,57.1428337097 L349.609802246,58.9721183777 L348.947570801,61.18176651 L348.304382324,63.5197982788 L347.854431152,65.7023925781 L347.721069336,67.5083999634 L347.939575195,68.8149795532 L348.476074219,69.5750656128 L349.273956299,69.7743682861 L350.30065918,69.4126434326 L351.521606445,68.4988021851 L352.870300293,67.1106491089 L354.244018555,65.3967285156 L355.522979736,63.5431976318 L356.602294922,61.7207489014 L357.434051514,60.0682678223 L358.014678955,58.6843948364 L358.367248535,57.6351509094 L358.532226562,56.9516906738 L358.577331543,56.6402053833 L358.584991455,56.6788101196 L358.655090332,57.0458297729 L358.891967773,57.7005767822 L359.392578125,58.5361480713 L360.230926514,59.3900985718 L361.453857422,60.0885391235 L363.052642822,60.4829864502 L364.955810547,60.4977073669 L367.03125,60.1301994324 L369.106018066,59.4264564514 L370.984405518,58.4749794006 L372.492889404,57.3966941833 L373.503234863,56.317035675 L373.950408936,55.3541755676 L373.828735352,54.6177711487 L373.175354004,54.2238121033 L372.050476074,54.2951583862 L370.554748535,54.9313545227 L368.845581055,56.1536331177 L367.143859863,57.8807258606 L365.706085205,59.9318008423 L364.776367188,62.0825653076 L364.526977539,64.1122741699 L365.011322021,65.840965271 L366.288848877,67.0882644653 L368.25,67.7566986084 L370.670074463,67.8417129517 L372.819763184,67.6031265259 L374.256774902,67.3005599976 M395.665740967,46.7701263428 L395.690338135,46.6857299805 L395.718475342,46.6520500183 L395.7137146,46.823513031 L395.609130859,47.3933525085 L395.343902588,48.4947891235 L394.888763428,50.1490287781 L394.255584717,52.2806091309 L393.497650146,54.7528152466 L392.688293457,57.3943138123 L391.889007568,60.0280799866 L391.153381348,62.4715194702 L390.524108887,64.5378799438 L390.031585693,66.0848236084 L389.688049316,67.0575714111 L389.492736816,67.5333404541 L389.409484863,67.6842269897 M389.070587158,48.4683227539 L389.366882324,48.0971565247 L390.053283691,47.5469589233 L391.22064209,46.9411430359 L392.840637207,46.4794654846 L394.810668945,46.2360916138 L396.977081299,46.2797622681 L399.176361084,46.6527519226 L401.262817383,47.408706665 L403.102416992,48.5696754456 L404.591918945,50.1131134033 L405.635131836,51.9823379517 L406.159729004,54.0977554321 L406.128723145,56.3706207275 L405.546569824,58.7007026672 L404.45880127,60.9744148254 L402.949951172,63.0719337463 L401.123596191,64.8778533936 L399.097839355,66.2904510498 L397.007263184,67.2603530884 L394.993286133,67.7104873657 L393.213043213,67.6339263916 L391.799530029,67.105140686 L390.881317139,66.454246521 L390.424804688,65.9349594116 M405.843048096,63.5141868591 L406.380828857,63.3989830017 L407.36340332,63.105014801 L408.738433838,62.5725746155 L410.289611816,61.7908821106 L411.868408203,60.7945632935 L413.330932617,59.6724586487 L414.56930542,58.5414237976 L415.501373291,57.5120391846 L416.065124512,56.6708145142 L416.229736328,56.0709342957 L415.986602783,55.758430481 L415.338989258,55.8064842224 L414.312744141,56.3091430664 L413.004089355,57.318611145 L411.579650879,58.7917671204 L410.256011963,60.5830307007 L409.256225586,62.478931427 L408.746734619,64.2616195679 L408.809265137,65.7495880127 L409.45489502,66.8040542603 L410.638305664,67.3302307129 L412.270263672,67.2793807983 L414.241638184,66.6603317261 L416.424743652,65.5459442139 L418.68572998,64.0637741089 L420.896514893,62.3821601868 L422.947265625,60.6990356445 L424.7265625,59.2028961182 L426.14642334,58.0317878723 L427.157043457,57.2834129333 L427.736755371,57.0120201111 L427.895263672,57.2496376038 L427.676635742,58.0252914429 L427.119903564,59.312210083 L426.313598633,60.9666976929 L425.410766602,62.7591934204 L424.575317383,64.4198074341 L423.93536377,65.7363128662 L423.566772461,66.5977172852 L423.484710693,66.9638519287 L423.702728271,66.8177185059 L424.268432617,66.1496658325 L425.226959229,64.9998474121 L426.552886963,63.5084838867 L428.154968262,61.8786849976 L429.896026611,60.3315811157 L431.625305176,59.051574707 L433.224304199,58.1531715393 L434.612915039,57.7022361755 L435.715209961,57.7316360474 L436.467407227,58.2324295044 L436.825317383,59.1665992737 L436.772949219,60.4538803101 L436.367736816,61.952041626 L435.753601074,63.46043396 L435.102172852,64.782081604 L434.576324463,65.7604751587 L434.294067383,66.2996444702 L434.317474365,66.3617401123 L434.701782227,65.9305725098 L435.504119873,65.0126571655 L436.721099854,63.7123947144 L438.288787842,62.2104187012 L440.077148438,60.71509552 L441.914978027,59.4217758179 L443.647338867,58.4638710022 L445.16619873,57.9086227417 L446.377044678,57.79429245 L447.218017578,58.1262817383 L447.653167725,58.8782272339 L447.682952881,59.9866027832 L447.375305176,61.3420066833 L446.877624512,62.7939300537 L446.349945068,64.1760253906 L445.950622559,65.3424530029 L445.795715332,66.1886978149 L445.955596924,66.6496047974 L446.478210449,66.688369751 L447.393981934,66.2933044434 L448.678039551,65.5041732788 L450.255187988,64.4213256836 L452.00958252,63.1895751953 L453.818359375,61.9679298401 L455.569885254,60.8954849243 L457.180541992,60.0684967041 L458.595062256,59.5417671204 L459.768798828,59.317943573 L460.673217773,59.3402938843 L461.309020996,59.5126037598 L461.697998047,59.7368659973 L461.896362305,59.9353065491 L461.974304199,60.0597610474 L461.984069824,60.0919418335 L461.929138184,60.0106468201 L461.775878906,59.8149299622 L461.458618164,59.5493469238 L460.916809082,59.3059501648 L460.100952148,59.1996879578 L459.011657715,59.3509407043 L457.697875977,59.8306312561 L456.278930664,60.6518249512 L454.913208008,61.7587852478 L453.78314209,63.0450820923 L453.041381836,64.364074707 L452.792785645,65.564201355 L453.078552246,66.5101165771 L453.881774902,67.0974731445 L455.123901367,67.253112793 L456.694396973,66.9502182007 L458.439422607,66.2096862793 L460.178833008,65.1070632935 L461.731689453,63.7660903931 L462.941711426,62.3340568542 L463.706268311,60.9533653259 L464.007904053,59.7407112122 L463.925933838,58.7794189453 L463.612915039,58.1036453247 L463.244628906,57.7142524719 L462.984313965,57.5829849243 L462.954284668,57.6524353027 L463.242797852,57.8457870483 L463.943237305,58.0757102966 L465.115905762,58.22838974 L466.749755859,58.2147865295 L468.751342773,57.9940261841 L470.961212158,57.5711174011 L473.195251465,56.9938354492 L475.323669434,56.2934837341 L477.228393555,55.5064315796 L478.828125,54.6798019409 L479.944091797,53.9993743896 L480.558868408,53.5645713806 M489.088317871,63.1329307556 L489.543457031,62.7782745361 L490.408569336,62.0683059692 L491.681274414,60.9792823792 L493.218322754,59.5711479187 L494.923400879,57.8856887817 L496.696594238,55.9856643677 L498.46182251,53.9474182129 L500.131164551,51.8772163391 L501.615234375,49.913143158 L502.822357178,48.1746177673 L503.691711426,46.7572937012 L504.20123291,45.7175712585 L504.348632812,45.1104660034 L504.136352539,45.0 L503.549407959,45.468788147 L502.561401367,46.6107368469 L501.173095703,48.4572753906 L499.435119629,50.9630050659 L497.432739258,54.0282478333 L495.282897949,57.5110015869 L493.100952148,61.2541465759 L490.996398926,65.1023406982 L489.06817627,68.8687744141 L487.417114258,72.3310852051 L486.126525879,75.2599334717 L485.240112305,77.4859313965 L484.756164551,78.9199676514 L484.636169434,79.5430297852 L484.827026367,79.388458252 L485.307983398,78.4861831665 L486.069519043,76.881477356 L487.069488525,74.7126617432 L488.238616943,72.1806640625 L489.482116699,69.506477356 L490.70916748,66.8998336792 L491.862548828,64.5385513306 L492.89453125,62.5662689209 L493.750823975,61.0914421082 L494.399291992,60.1599349976 L494.842651367,59.7523727417 L495.135253906,59.7966766357 L495.379211426,60.2163162231 L495.695922852,60.922454834 L496.193786621,61.7688446045 L496.969207764,62.5725631714 L498.092254639,63.1581459045 L499.583618164,63.3985214233 L501.40612793,63.2518386841 L503.464263916,62.7628974915 L505.605651855,62.015045166 L507.640655518,61.1385421753 L509.378540039,60.2793617249 L510.66506958,59.5615272522 L511.436584473,59.055316925 L511.753601074,58.764503479 L511.752563477,58.6423683167 L511.549530029,58.660358429 L511.195556641,58.8142089844 L510.673431396,59.125617981 L509.949279785,59.6218261719 L509.049499512,60.3001556396 L508.042236328,61.1384773254 L507.017150879,62.1081161499 L506.069458008,63.168170929 L505.284973145,64.2644882202 L504.742553711,65.3307495117 L504.520141602,66.2781829834 L504.666015625,67.0213470459 L505.202362061,67.4791259766 L506.111022949,67.5899047852 L507.325805664,67.3173141479 L508.740386963,66.6705093384 L510.207824707,65.6945953369 L511.571838379,64.475730896 L512.696105957,63.1196136475 L513.48034668,61.7453460693 L513.872253418,60.4647827148 L513.882995605,59.3770294189 L513.570495605,58.5484352112 L513.043945312,58.0183067322 L512.440063477,57.7982749939 L511.897399902,57.8724327087 L511.543060303,58.1905403137 L511.498779297,58.6588134766 L511.876403809,59.143196106 L512.764343262,59.5008277893 L514.186706543,59.6250572205 L516.074157715,59.4730834961 L518.265197754,59.0820388794 L520.521118164,58.5501823425 L522.585205078,57.9931106567 L524.252563477,57.5160102844 L525.389709473,57.2111282349 L525.948486328,57.1547813416 L525.952026367,57.4135246277 L525.443237305,58.0461387634 L524.495117188,59.0568237305 L523.246643066,60.3743476868 L521.893493652,61.8366470337 L520.659973145,63.2290115356 L519.716247559,64.3608093262 L519.13885498,65.111869812 L518.925598145,65.4235229492 L519.039306641,65.287109375 L519.468383789,64.6944961548 L520.226501465,63.6722946167 L521.285949707,62.3289871216 L522.595458984,60.8271331787 L524.088134766,59.337223053 L525.687255859,58.0035247803 L527.339599609,56.9101638794 L529.005126953,56.0987625122 L530.627929688,55.5869865417 L532.169006348,55.3643341064 L533.606262207,55.3848419189 L534.924560547,55.5730705261 L536.125,55.8410873413 L537.199584961,56.0993995667 L538.134887695,56.2797393799 L538.943054199,56.327205658 L539.62890625,56.2284431458 L540.198364258,56.0046844482 L540.605224609,55.7641372681 L540.837890625,55.584312439 M557.201171875,61.0851593018 L557.213134766,61.0266571045 L557.239868164,60.965221405 L557.272216797,60.9590759277 L557.285339355,61.1018180847 L557.230041504,61.4885940552 L557.049255371,62.2078552246 L556.692077637,63.32289505 L556.120849609,64.8624649048 L555.320068359,66.8069000244 L554.30657959,69.0875091553 L553.117431641,71.6006622314 L551.816223145,74.2115631104 L550.496398926,76.729019165 L549.272399902,78.9289016724 L548.258666992,80.6479415894 L547.543701172,81.7801513672 L547.164733887,82.2827606201 L547.116088867,82.1698455811 L547.380981445,81.4271011353 L547.956298828,80.0263366699 L548.845947266,78.0530166626 L550.039428711,75.6479110718 L551.498535156,72.9845123291 L553.166259766,70.2468032837 L554.986694336,67.5827713013 L556.916992188,65.1077804565 L558.922485352,62.959197998 L560.95489502,61.2535552979 L562.944213867,60.0707778931 L564.808227539,59.4467658997 L566.463012695,59.3752479553 L567.827880859,59.8070907593 L568.830444336,60.6619720459 L569.400634766,61.8416671753 L569.475463867,63.2342376709 L569.018798828,64.7075576782 L568.045410156,66.1247024536 L566.6328125,67.3489379883 L564.924621582,68.2649688721 L563.109375,68.8035964966 L561.384399414,68.9526977539 L559.919250488,68.7311401367 L558.84362793,68.1974029541 L558.233642578,67.4195098877 L558.124267578,66.4767990112 L558.517333984,65.4602737427 L559.37487793,64.4701309204 L560.630493164,63.5907173157 L562.197021484,62.892868042 L563.968688965,62.4084739685 L565.841552734,62.1405715942 L567.72644043,62.0727348328 L569.541748047,62.1769866943 L571.225952148,62.4171333313 L572.729248047,62.7585067749 L573.999267578,63.1645851135 L574.998901367,63.6076049805 L575.69354248,64.0771636963 L576.060302734,64.5843811035 L576.094238281,65.1588363647 L575.817871094,65.8285369873 L575.271728516,66.5914154053 L574.559326172,67.3879318237 L573.817626953,68.1251296997 L573.187011719,68.7070999146 L572.759521484,69.0995483398 L572.562255859,69.299079895 L572.554443359,69.3008880615 L572.700317383,69.0540084839 L573.002685547,68.4976196289 L573.479553223,67.591217041 L574.135375977,66.4053421021 L574.944946289,65.056602478 L575.86328125,63.6772842407 L576.826843262,62.3802719116 L577.768676758,61.2577362061 L578.615844727,60.3713989258 L579.30065918,59.7731628418 L579.791015625,59.4789085388 L580.130615234,59.4774551392 L580.397827148,59.7412834167 L580.68548584,60.2269248962 L581.082214355,60.8585090637 L581.656982422,61.5248374939 L582.465454102,62.1059341431 L583.548828125,62.4949417114 L584.901184082,62.6189460754 L586.464599609,62.4519424438 L588.125488281,62.0072631836 L589.734802246,61.3344039917 L591.139770508,60.5117378235 L592.218566895,59.634475708 L592.898193359,58.7906646729 L593.157226562,58.0553894043 L593.004089355,57.5021324158 L592.453979492,57.2059631348 L591.527404785,57.2486801147 L590.276062012,57.7010345459 L588.807250977,58.5755996704 L587.288574219,59.8133735657 L585.919189453,61.2979888916 L584.882446289,62.8773155212 L584.312255859,64.4104614258 L584.277587891,65.7784805298 L584.799377441,66.8776626587 L585.861938477,67.6254806519 L587.416137695,67.9543228149 L589.382568359,67.8282623291 L591.647216797,67.257270813 L594.071655273,66.3013839722 L596.517333984,65.0578384399 L598.861816406,63.6471366882 L601.010925293,62.1893157959 L602.907104492,60.8095817566 L604.515014648,59.6179847717 L605.829956055,58.7155227661 L606.87701416,58.1771278381 L607.696777344,58.0487098694 L608.335693359,58.3489761353 L608.826416016,59.0732841492 L609.170166016,60.1709251404 L609.354614258,61.5511360168 L609.37512207,63.0839347839 L609.221984863,64.6256713867 L608.897338867,66.0485153198 L608.394348145,67.2529602051 L607.708129883,68.1703033447 L606.857421875,68.7675170898 L605.896850586,69.0452270508 L604.905151367,69.0426864624 L603.983520508,68.8322677612 L603.218261719,68.5102844238 L602.659851074,68.1711349487 L602.335449219,67.8924942017 L602.25769043,67.7241973877 L602.452270508,67.6785354614 L602.97088623,67.7303390503 L603.878479004,67.8286514282 L605.201599121,67.8986587524 L606.930297852,67.8628234863 L609.000244141,67.6579284668 L611.312011719,67.2353668213 L613.740600586,66.5638046265 L616.14440918,65.631149292 L618.361694336,64.4659729004 L620.240722656,63.1442832947 L621.65826416,61.7846565247 L622.55267334,60.5144577026 L622.925537109,59.4385032654 L622.81842041,58.629989624 L622.286987305,58.1597976685 L621.388244629,58.0991516113 L620.195922852,58.5129508972 L618.826782227,59.4144554138 L617.453979492,60.7355804443 L616.274291992,62.3256340027 L615.471313477,63.997718811 L615.175476074,65.5626831055 L615.452758789,66.8661346436 L616.307739258,67.7884750366 L617.706542969,68.2481231689 L619.571166992,68.2017593384 L621.786987305,67.6629333496 L624.209472656,66.7024841309 L626.677734375,65.4432449341 L629.036865234,64.0342254639 L631.165405273,62.644657135 L632.95300293,61.4258346558 L634.325195312,60.4853134155 L635.247924805,59.9014434814 L635.715332031,59.7217407227 L635.75,59.9728050232 L635.405761719,60.6813278198 L634.731506348,61.8099250793 L633.823120117,63.2205543518 L632.833862305,64.7115478516 L631.933837891,66.0620727539 L631.243286133,67.1112670898 L630.831176758,67.7893981934 L630.712280273,68.0681610107 L630.90435791,67.9313430786 L631.465942383,67.3646469116 L632.463745117,66.3953475952 L633.872802734,65.1381225586 L635.607666016,63.7677574158 L637.530090332,62.4619255066 L639.481262207,61.3714065552 L641.332214355,60.5900840759 L642.985900879,60.1640472412 L644.349182129,60.1171188354 L645.357849121,60.4463920593 L645.971557617,61.1214561462 L646.181274414,62.0968513489 L646.030029297,63.3014183044 L645.621582031,64.621963501 L645.108337402,65.9284973145 L644.648376465,67.092414856 L644.356445312,68.0345535278 L644.291503906,68.7115631104 L644.469909668,69.1027374268 L644.915100098,69.1811523438 L645.667358398,68.910736084 L646.766601562,68.2598495483 L648.205749512,67.2513504028 L649.937194824,65.9198303223 L651.883483887,64.319442749 L653.973876953,62.5092163086 L656.145935059,60.5439910889 L658.342529297,58.4843635559 L660.491210938,56.4188804626 L662.52154541,54.4439353943 L664.337402344,52.6758728027 L665.837158203,51.2323074341 L666.943481445,50.1767272949 L667.619750977,49.534286499 L667.872741699,49.3139190674 L667.746154785,49.5321273804 L667.24407959,50.2420883179 L666.353637695,51.4931488037 L665.094970703,53.2340927124 L663.541503906,55.3490524292 L661.824279785,57.6722793579 L660.112243652,60.021736145 L658.551635742,62.2456741333 L657.250854492,64.208152771 L656.271972656,65.7761001587 L655.626159668,66.8892745972 L655.274047852,67.534538269 L655.149658203,67.7313842773 L655.178466797,67.5221252441 L655.290161133,66.9373703003 L655.414306641,66.0261917114 L655.478637695,64.9134750366 L655.409057617,63.7448539734 L655.154602051,62.6638145447 L654.692749023,61.7914352417 L654.041748047,61.2031402588 L653.250366211,60.9508399963 L652.386352539,61.0693664551 L651.541748047,61.5508155823 L650.834838867,62.3401184082 L650.395263672,63.3419647217 L650.354248047,64.436378479 L650.817504883,65.5012207031 L651.842041016,66.4101791382 L653.436340332,67.0540924072 L655.557983398,67.3535003662 L658.108642578,67.2708511353 L660.944213867,66.8175735474 L663.889343262,66.0546112061 L666.751586914,65.0725784302 L669.361083984,63.9817008972 L671.570129395,62.9100074768 L673.272338867,61.9823608398 L674.435668945,61.2762413025 L675.075439453,60.8313369751 L675.242492676,60.6617927551 L675.016113281,60.7764625549 L674.435668945,61.2078285217 L673.543457031,61.9943504333 L672.435302734,63.0953369141 L671.22479248,64.4143981934 L670.064453125,65.8101806641 L669.125976562,67.1242675781 L668.510864258,68.239906311 L668.27722168,69.0891571045 L668.452148438,69.6095046997 L669.026123047,69.7676010132 L669.979980469,69.542755127 L671.279785156,68.928352356 L672.817993164,67.9700393677 L674.454711914,66.7483291626 L676.032958984,65.3609771729 L677.415649414,63.9252853394 L678.504760742,62.5714225769 L679.25592041,61.4112167358 L679.683959961,60.5274505615 L679.842895508,59.9583740234 L679.786743164,59.7147216797 L679.547607422,59.8039474487 L679.123168945,60.2603721619 L678.50970459,61.0891914368 L677.782104492,62.2282333374 L677.057006836,63.5523033142 L676.476379395,64.9092559814 L676.171630859,66.1600570679 L676.230834961,67.2086105347 L676.694824219,67.9756698608 L677.58984375,68.3826599121 L678.906005859,68.3573608398 L680.605529785,67.8590240479 L682.619384766,66.8959350586 L684.85345459,65.5202941895 L687.208374023,63.8099555969 L689.600585938,61.8491592407 L691.959838867,59.7176971436 L694.223937988,57.5073852539 L696.334838867,55.334526062 L698.200195312,53.3473510742 L699.723754883,51.6969833374 L700.838256836,50.4759216309 L701.512329102,49.7259178162 L701.754394531,49.4549789429 L701.604309082,49.6725120544 L701.058044434,50.4219245911 L700.106933594,51.7350463867 L698.787475586,53.5447540283 L697.186950684,55.7258605957 L695.443847656,58.0999755859 L693.725524902,60.4791145325 L692.170471191,62.7005500793 L690.891479492,64.6303405762 L689.951904297,66.157585144 L689.359619141,67.2276382446 L689.080322266,67.8117828369 L689.057922363,67.9083175659 L689.230834961,67.5294036865 L689.553710938,66.7221984863 L689.942993164,65.5910263062 L690.298217773,64.2884902954 L690.516723633,62.9693946838 L690.519226074,61.7743110657 L690.261901855,60.8049163818 L689.746704102,60.1365318298 L688.988952637,59.8332672119 L688.038879395,59.940448761 L686.985229492,60.4619369507 L685.964416504,61.35389328 L685.138061523,62.5135574341 L684.662841797,63.8032302856 L684.657836914,65.076789856 L685.194824219,66.1953048706 L686.297607422,67.0402069092 L687.955871582,67.5251617432 L690.11328125,67.5927429199 L692.67199707,67.236038208 L695.483703613,66.4961471558 L698.369018555,65.4563598633 L701.152832031,64.2342147827 L703.658874512,62.9752464294 L705.72265625,61.8250427246 L707.245422363,60.9026870728 L708.168701172,60.2840881348 L708.494445801,60.0193405151 L708.289123535,60.1382369995 L707.619506836,60.667175293 L706.578979492,61.5955924988 L705.345458984,62.8280677795 L704.122436523,64.1966171265 L703.13092041,65.5259094238 L702.557983398,66.6588897705 L702.508666992,67.4932556152 L703.021728516,67.9617767334 L704.104370117,68.0104751587 L705.708496094,67.6123809814 L707.739562988,66.8068161011 L710.042724609,65.6853485107 L712.435180664,64.3772125244 L714.741271973,63.0151481628 L716.798217773,61.7230262756 L718.476074219,60.6054000854 L719.705444336,59.7297058105 L720.45111084,59.1458854675 L720.721069336,58.8889083862 L720.561767578,58.989906311 L720.000366211,59.4869308472 L719.080383301,60.3985862732 L717.914245605,61.6538276672 L716.65234375,63.1327705383 L715.495483398,64.6689300537 L714.647949219,66.0970306396 L714.24822998,67.2823257446 L714.368286133,68.1303710938 L715.027099609,68.5569915771 L716.177978516,68.518699646 L717.739990234,68.0041656494 L719.573364258,67.057434082 L721.489257812,65.7671661377 L723.276611328,64.2528533936 L724.745849609,62.6396179199 L725.762817383,61.0560874939 L726.272827148,59.6202735901 L726.275756836,58.4432754517 L725.81652832,57.6195373535 L724.971130371,57.2160263062 L723.85748291,57.2550468445 L722.635986328,57.7019424438 L721.503295898,58.4544944763 L720.639282227,59.3632965088 L720.188964844,60.2663116455 L720.249023438,61.0171966553 L720.882751465,61.5037002563 L722.123168945,61.6500473022 L724.214538574,61.3423500061 L726.390869141,60.834777832 L728.088012695,60.3575973511 " fill="none" stroke="black" stroke-linecap="round" stroke-width="1.5" /></svg>