<?xml version="1.0" encoding="utf-8" ?>
<svg baseProfile="full" height="100%" version="1.1" viewBox="0,0,1000,120" width="100%" xmlns="http://www.w3.org/2000/svg" xmlns:ev="http://www.w3.org/2001/xml-events" xmlns:xlink="http://www.w3.org/1999/xlink"><defs /><rect fill="white" height="120" width="1000" x="0" y="0" /><path d="M0,0 M453.996917725,49.8661193848 M454.17565918,52.6563796997 L454.117919922,53.838142395 L454.015625,55.7908363342 L453.876861572,58.2999267578 L453.730712891,60.8570518494 L453.596588135,63.2525520325 L453.493347168,65.3182373047 L453.436309814,66.9289321899 L453.435577393,67.9444122314 L453.494903564,68.3361968994 L453.57623291,68.3112335205 L453.646209717,68.1200790405 M464.711181641,49.0351219177 L464.797180176,48.9084777832 L464.80480957,48.8255844116 L464.589782715,48.9355316162 L463.993896484,49.4108886719 L462.979248047,50.3167190552 L461.576263428,51.6281280518 L459.906646729,53.2408943176 L458.133270264,55.0333251953 L456.446716309,56.8610992432 L455.017669678,58.5886917114 L453.985992432,60.1082191467 L453.416442871,61.3503799438 L453.327178955,62.3008308411 L453.690673828,62.9982223511 L454.449859619,63.5002365112 L455.534942627,63.8497238159 L456.864501953,64.0745239258 L458.335845947,64.192199707 L459.846862793,64.2240982056 L461.321746826,64.1454086304 L462.681152344,63.9331665039 L463.864837646,63.5725326538 L464.719421387,63.193649292 L465.206176758,62.9028816223 M468.476135254,54.0903205872 L468.473114014,54.0995407104 L468.429656982,54.2879486084 L468.303924561,54.8250541687 L468.062561035,55.8477478027 L467.709197998,57.3566398621 L467.283721924,59.2482719421 L466.860076904,61.3259811401 L466.53024292,63.354839325 L466.368865967,65.1250076294 L466.416015625,66.4970397949 L466.675231934,67.4019622803 L467.129180908,67.8168945312 L467.762451172,67.7085037231 L468.572357178,67.0200424194 L469.55267334,65.7180404663 L470.678894043,63.8666954041 L471.896331787,61.6572685242 L473.135559082,59.3732337952 L474.303375244,57.3105201721 L475.307067871,55.6687164307 L476.069091797,54.5285797119 L476.538665771,53.9105186462 L476.698913574,53.8414955139 L476.574035645,54.3932266235 L476.193084717,55.6426048279 L475.620513916,57.5320091248 L474.956817627,59.8430938721 L474.328094482,62.2650756836 L473.853973389,64.4861831665 L473.608428955,66.2941207886 L473.580505371,67.6259536743 L473.738769531,68.4151763916 L474.02557373,68.6583175659 L474.398010254,68.4109954834 L474.73727417,67.9585266113 L474.973449707,67.5424957275 M480.520690918,54.200340271 L480.54284668,54.2304992676 L480.545959473,54.4882164001 L480.48135376,55.1698150635 L480.297729492,56.410949707 L479.972351074,58.1790008545 L479.529663086,60.3135566711 L479.031280518,62.5674324036 L478.562744141,64.6635284424 L478.19934082,66.3898620605 L477.981719971,67.6432647705 L477.907409668,68.4002990723 L477.952056885,68.6634368896 L478.09765625,68.4036712646 L478.365386963,67.5242385864 L478.808532715,65.984085083 L479.483947754,63.9007873535 L480.428466797,61.524307251 L481.632385254,59.1541252136 L483.039642334,57.0517730713 L484.556396484,55.3716773987 L486.053771973,54.1906585693 L487.396575928,53.5637626648 L488.467041016,53.5344848633 L489.187194824,54.1278038025 L489.535400391,55.3371353149 L489.543579102,57.0887489319 L489.279632568,59.2126693726 L488.853790283,61.4887123108 L488.385803223,63.6812210083 L487.981658936,65.5843505859 L487.705047607,67.0838012695 L487.592468262,68.0784606934 L487.634033203,68.5355453491 L487.805725098,68.5062561035 L488.007263184,68.2359313965 L488.166381836,67.9414596558 M497.11618042,54.8596763611 L497.300964355,54.5493888855 L497.63494873,54.1105651855 L498.107788086,53.6597938538 L498.66027832,53.3586425781 L499.267150879,53.2353935242 L499.898895264,53.2745552063 L500.515625,53.4254264832 L501.059204102,53.663066864 L501.456848145,53.9790115356 L501.627685547,54.3861579895 L501.507659912,54.9289245605 L501.049804688,55.655216217 L500.238922119,56.6076774597 L499.113037109,57.8172988892 L497.755889893,59.299156189 L496.283538818,61.0366592407 L494.847686768,62.949508667 L493.599365234,64.8640136719 L492.662353516,66.5671539307 L492.116088867,67.8667602539 L491.991210938,68.6381454468 L492.259521484,68.8318481445 L492.883361816,68.420501709 L493.814819336,67.3738479614 L494.988494873,65.7345428467 L496.3230896,63.6551322937 L497.734436035,61.3900642395 L499.092926025,59.2451095581 L500.27255249,57.4698257446 L501.17565918,56.1711769104 L501.748596191,55.3664741516 L501.995605469,55.0505828857 L501.981872559,55.2505645752 L501.758209229,56.0391616821 L501.375915527,57.4558753967 L500.905975342,59.3970108032 L500.427734375,61.6414985657 L500.028961182,63.9178962708 L499.783782959,65.9905014038 L499.726867676,67.6651763916 L499.840667725,68.8301925659 L500.079742432,69.4482650757 L500.324645996,69.6500701904 L500.5,69.6252822876 M508.072113037,47.6610527039 L508.101318359,47.8674926758 L508.101593018,48.4328155518 L508.024810791,49.5039291382 L507.826446533,51.1124343872 L507.50894165,53.1878166199 L507.095397949,55.5929985046 L506.635406494,58.1643791199 L506.184082031,60.7436676025 L505.794586182,63.1792449951 L505.507354736,65.3106765747 L505.338043213,67.0246810913 L505.284637451,68.2034759521 L505.33001709,68.8047943115 L505.452636719,68.8855133057 L505.586883545,68.6926498413 L505.689971924,68.4462890625 M531.59979248,47.6928520203 L531.44152832,47.3314399719 L531.124633789,46.7589263916 L530.633422852,46.0826683044 L529.992858887,45.5014762878 L529.220275879,45.1164360046 L528.337585449,45.0 L527.389892578,45.1832122803 L526.450866699,45.6961555481 L525.614440918,46.5520553589 L524.967712402,47.7437782288 L524.575866699,49.2399291992 L524.474243164,50.986656189 L524.675537109,52.9138221741 L525.155700684,54.9453315735 L525.860961914,57.0074501038 L526.699768066,59.0368423462 L527.556152344,60.9822502136 L528.312866211,62.8062782288 L528.874267578,64.4850769043 L529.169189453,66.003944397 L529.167236328,67.3538589478 L528.865722656,68.5275650024 L528.284179688,69.5178909302 L527.459533691,70.3150634766 L526.44519043,70.9099121094 L525.303710938,71.2949981689 L524.105895996,71.4731750488 L522.920043945,71.4271850586 L521.829589844,71.1734771729 L520.911499023,70.7599029541 L520.277893066,70.3513183594 L519.940185547,70.0609664917 M538.089355469,55.8765945435 L538.076721191,55.6188545227 L538.005737305,55.2402153015 L537.827880859,54.8419265747 L537.492736816,54.5947151184 L536.973022461,54.6040916443 L536.253417969,54.9705734253 L535.367858887,55.770072937 L534.380981445,57.0543479919 L533.385375977,58.8062019348 L532.480712891,60.9199523926 L531.763427734,63.1971626282 L531.289489746,65.3789825439 L531.095397949,67.2162780762 L531.184082031,68.5311889648 L531.535888672,69.2375717163 L532.123413086,69.3149261475 L532.927185059,68.7545318604 L533.91015625,67.5600738525 L535.034301758,65.8050842285 L536.245117188,63.675579071 L537.473327637,61.4540367126 L538.618469238,59.4427566528 L539.580566406,57.8551063538 L540.286010742,56.7539749146 L540.706726074,56.1106452942 L540.862915039,55.8927001953 L540.804443359,56.1281013489 L540.555419922,56.9081878662 L540.143066406,58.2936401367 L539.624633789,60.2038650513 L539.075012207,62.4310417175 L538.59954834,64.7011642456 L538.290283203,66.7476959229 L538.177185059,68.3972473145 L538.241638184,69.5854949951 L538.462036133,70.2280578613 L538.792663574,70.3117141724 L539.208007812,69.8885192871 L539.586242676,69.2820281982 L539.848144531,68.7640228271 M545.325622559,55.3629112244 L545.477172852,55.1242599487 L545.664001465,54.8981781006 L545.802307129,54.8985939026 L545.780334473,55.3940734863 L545.564453125,56.4986915588 L545.153198242,58.1998252869 L544.598754883,60.3355445862 L543.980834961,62.6829719543 L543.401550293,64.9516677856 L542.946960449,66.8863143921 L542.663208008,68.3456039429 L542.549743652,69.2810134888 L542.582397461,69.6820678711 L542.744873047,69.5361557007 L543.051086426,68.7691345215 L543.543823242,67.3291168213 L544.277709961,65.3126907349 L545.28729248,62.9569015503 L546.564758301,60.5655593872 L548.05065918,58.4252967834 L549.637756348,56.7126464844 L551.194213867,55.5181808472 L552.580566406,54.9097175598 L553.672058105,54.9443283081 L554.385986328,55.6559753418 L554.694885254,57.0278663635 L554.628601074,58.9524688721 L554.279785156,61.2387084961 L553.780151367,63.6517944336 L553.265991211,65.9502563477 L552.845581055,67.9470214844 L552.595092773,69.4529418945 L552.53112793,70.3536529541 L552.627502441,70.6363677979 L552.782592773,70.5370788574 L552.916015625,70.3069763184 M561.395507812,48.4654045105 L561.422119141,48.4154968262 L561.431335449,48.5121040344 L561.384216309,48.9467048645 L561.23626709,49.9045753479 L560.971923828,51.4295654297 L560.593017578,53.4578361511 L560.131408691,55.8405189514 L559.640014648,58.4049453735 L559.179016113,60.9844512939 L558.800842285,63.4409599304 L558.534545898,65.6447372437 L558.377319336,67.4348526001 L558.305786133,68.662979126 L558.286010742,69.3244247437 L558.286560059,69.5507125854 " fill="none" stroke="black" stroke-linecap="round" stroke-width="2" /></svg>