<?xml version="1.0" encoding="utf-8" ?>
<svg baseProfile="full" height="100%" version="1.1" viewBox="0,0,1000,120" width="100%" xmlns="http://www.w3.org/2000/svg" xmlns:ev="http://www.w3.org/2001/xml-events" xmlns:xlink="http://www.w3.org/1999/xlink"><defs /><rect fill="white" height="120" width="1000" x="0" y="0" /><path d="M0,0 M419.675354004,46.6899528503 L419.684631348,46.7420539856 L419.72265625,46.9709091187 L419.798522949,47.5203781128 L419.886627197,48.487651825 L419.943939209,49.8930358887 L419.938720703,51.6935119629 L419.845550537,53.8138237 L419.674285889,56.1730232239 L419.458312988,58.6979484558 L419.220031738,61.2746887207 L419.001037598,63.7714881897 L418.833953857,66.0324859619 L418.728057861,67.9172515869 L418.674346924,69.337638855 L418.650115967,70.2959442139 L418.655609131,70.7691192627 L418.71661377,70.7857589722 L418.858764648,70.3929214478 L419.027893066,69.8633117676 L419.170135498,69.4146194458 M431.827758789,46.6168060303 L431.908355713,46.6946372986 L431.954345703,46.9307594299 L431.857788086,47.4095878601 L431.496124268,48.1792068481 L430.812438965,49.2186889648 L429.791778564,50.4711761475 L428.47644043,51.853553772 L426.951171875,53.2842445374 L425.323028564,54.6872253418 L423.735534668,55.9826965332 L422.328979492,57.0727043152 L421.225250244,57.891746521 L420.483795166,58.4101142883 L420.098968506,58.6593208313 L419.987335205,58.7144622803 L420.082550049,58.6572685242 L420.359619141,58.5565490723 L420.847351074,58.4840011597 L421.575592041,58.4985198975 L422.559631348,58.6643218994 L423.742675781,59.0321388245 L425.049163818,59.6311798096 L426.397369385,60.4616737366 L427.722808838,61.5033874512 L428.967712402,62.7046394348 L430.108276367,64.0069580078 L431.105072021,65.3232116699 L431.93548584,66.5589141846 L432.583435059,67.6242675781 L433.055358887,68.4528884888 L433.354949951,69.0211791992 L433.530456543,69.3021011353 L433.622894287,69.2876205444 L433.686645508,68.9962692261 L433.736877441,68.6154098511 L433.779632568,68.296081543 M438.655975342,56.775188446 L438.624206543,56.911277771 L438.578582764,57.273223877 L438.522735596,57.9514923096 L438.470214844,58.9625968933 L438.42956543,60.2595252991 L438.424926758,61.7676925659 L438.492797852,63.3885269165 L438.675140381,65.0126724243 L438.993713379,66.5219573975 L439.46081543,67.7954559326 L440.073455811,68.7383804321 L440.820465088,69.2968902588 L441.69644165,69.4446640015 L442.677398682,69.1728897095 L443.729766846,68.4850082397 L444.805511475,67.4070587158 L445.852142334,66.0070724487 L446.822052002,64.389465332 L447.692382812,62.6811294556 L448.438964844,61.0126647949 L449.055267334,59.5186691284 L449.527099609,58.2995491028 L449.850921631,57.4149742126 L450.038635254,56.8766899109 L450.117553711,56.6781806946 L450.124847412,56.8203773499 L450.092773438,57.3399848938 L450.041656494,58.2585258484 L449.985565186,59.5452156067 L449.939819336,61.0970802307 L449.920501709,62.7827339172 L449.95010376,64.4625091553 L450.036682129,66.0193252563 L450.174346924,67.3569412231 L450.33883667,68.4184341431 L450.51083374,69.1327896118 L450.677490234,69.4849853516 L450.837493896,69.5037918091 L450.965576172,69.3493347168 L451.049499512,69.1662063599 M456.205932617,56.8811912537 L456.235351562,56.9219894409 L456.287780762,57.1126937866 L456.353363037,57.5587654114 L456.400756836,58.323135376 L456.40032959,59.3907089233 L456.340545654,60.6997184753 L456.229400635,62.1759147644 L456.087249756,63.7237663269 L455.951629639,65.2480697632 L455.844848633,66.625289917 L455.77947998,67.7426605225 L455.753845215,68.5290298462 L455.75479126,68.9539031982 L455.764709473,69.0090408325 L455.791442871,68.6932601929 L455.855102539,67.9884109497 L455.98840332,66.9136276245 L456.221313477,65.5504608154 L456.575500488,64.0077667236 L457.058776855,62.3994483948 L457.679901123,60.8194885254 L458.443756104,59.3385887146 L459.342773438,58.0271377563 L460.360351562,56.965927124 L461.468414307,56.2245597839 L462.628845215,55.8482589722 L463.803222656,55.856803894 L464.948272705,56.2518920898 L466.013000488,57.0119476318 L466.955596924,58.0981216431 L467.739959717,59.4490623474 L468.348358154,60.9777908325 L468.785949707,62.5827140808 L469.070343018,64.1577301025 L469.231628418,65.5982589722 L469.310302734,66.819732666 L469.339111328,67.7671813965 L469.345611572,68.4274291992 L469.342529297,68.8302078247 L469.356994629,68.986618042 L469.416259766,68.9178161621 L469.54776001,68.6517486572 L469.700592041,68.3337783813 L469.828369141,68.0792541504 M482.512878418,58.9506225586 L482.396606445,58.6619415283 L482.15435791,58.2364387512 L481.746337891,57.7807846069 L481.159179688,57.4716148376 L480.377655029,57.3941802979 L479.427185059,57.6058731079 L478.362762451,58.1245994568 L477.263824463,58.955997467 L476.220153809,60.0733642578 L475.320831299,61.4247627258 L474.64932251,62.9370384216 L474.266113281,64.5070343018 L474.217010498,66.0187835693 L474.518707275,67.352180481 L475.160522461,68.395072937 L476.108093262,69.0598983765 L477.304595947,69.2929763794 L478.667480469,69.0715789795 L480.112121582,68.4177780151 L481.541870117,67.3902282715 L482.863067627,66.0771331787 L484.001586914,64.5858001709 L484.905303955,63.0356903076 L485.554382324,61.5427055359 L485.964874268,60.2220001221 L486.175170898,59.1676521301 L486.241271973,58.4147071838 L486.222473145,57.9598388672 L486.159179688,57.7900047302 L486.081726074,57.9060325623 L486.007446289,58.3458862305 L485.951965332,59.1520271301 L485.938873291,60.2889709473 L485.991210938,61.667049408 L486.12487793,63.1681213379 L486.350921631,64.6719055176 L486.653381348,66.0822753906 L487.006988525,67.3332214355 L487.391998291,68.3621063232 L487.784515381,69.1262817383 L488.171539307,69.6197433472 L488.540771484,69.8633575439 L488.861602783,69.9094924927 L489.124206543,69.7816085815 L489.33795166,69.5020904541 L489.516479492,69.0896453857 L489.650726318,68.6864395142 L489.73828125,68.3899002075 M495.373413086,45.0 L495.409729004,45.0767936707 L495.473815918,45.3131256104 L495.557342529,45.7969322205 L495.635406494,46.5824584961 L495.686340332,47.677482605 L495.698242188,49.070854187 L495.669158936,50.7308807373 L495.61151123,52.6091537476 L495.547912598,54.6429481506 L495.493499756,56.7529220581 L495.457946777,58.8454475403 L495.444854736,60.8340644836 L495.455596924,62.6356048584 L495.487182617,64.1789550781 L495.540161133,65.4145584106 L495.60836792,66.320854187 L495.682128906,66.9090423584 L495.750976562,67.2327575684 L495.808105469,67.3702545166 L495.846221924,67.3929519653 L495.86529541,67.3593139648 L495.87286377,67.2991027832 L495.874084473,67.2398223877 L495.873809814,67.196685791 M533.421691895,47.6249160767 L533.159118652,47.4138183594 L532.651916504,47.1080970764 L531.878173828,46.7872505188 L530.873779297,46.5703964233 L529.654846191,46.499786377 L528.264892578,46.6014862061 L526.784179688,46.8753128052 L525.333190918,47.3195762634 L524.043884277,47.9171295166 L523.023010254,48.6374664307 L522.354980469,49.4531936646 L522.104248047,50.3443031311 L522.323608398,51.2909431458 L523.048828125,52.2687606812 L524.286010742,53.2494735718 L525.991271973,54.2158927917 L528.062988281,55.1732406616 L530.353515625,56.150680542 L532.686035156,57.1832046509 L534.889892578,58.2909812927 L536.823852539,59.4726409912 L538.395812988,60.7066764832 L539.555236816,61.9700241089 L540.284423828,63.2383346558 L540.579406738,64.484046936 L540.447814941,65.670501709 L539.895874023,66.7529678345 L538.941345215,67.6807403564 L537.598754883,68.4149093628 L535.890197754,68.9130630493 L533.855651855,69.1505737305 L531.564331055,69.1298446655 L529.106262207,68.8705978394 L526.601135254,68.4191513062 L524.161254883,67.8300552368 L521.891662598,67.1411895752 L519.888793945,66.395904541 L518.237121582,65.6493453979 L516.969604492,64.9425582886 L516.16619873,64.3104171753 L515.858459473,63.7790107727 L516.025695801,63.3524856567 L516.410705566,63.0617904663 L516.786987305,62.9066429138 M550.37310791,59.3006210327 L550.164489746,59.0327453613 L549.790527344,58.6422462463 L549.237121582,58.2256507874 L548.535888672,57.9451637268 L547.678222656,57.8795928955 L546.69732666,58.0880737305 L545.651428223,58.6008262634 L544.629394531,59.4408607483 L543.713195801,60.5871696472 L542.981628418,61.9883117676 L542.497070312,63.5609931946 L542.316772461,65.1964950562 L542.483520508,66.7711486816 L543.01171875,68.1558914185 L543.885803223,69.2288970947 L545.060546875,69.8942718506 L546.461791992,70.0893936157 L547.997375488,69.7940826416 L549.5703125,69.0333251953 L551.079833984,67.875289917 L552.434997559,66.4227752686 L553.563476562,64.8023605347 L554.418273926,63.1501922607 L554.988830566,61.6093673706 L555.30645752,60.3123550415 L555.432128906,59.3450622559 L555.433654785,58.738609314 L555.37689209,58.4970359802 L555.311340332,58.6180038452 L555.269592285,59.1204490662 L555.277587891,60.0238609314 L555.356140137,61.2846794128 L555.510375977,62.7927589417 L555.748962402,64.4097595215 L556.080749512,65.998046875 L556.495727539,67.4423980713 L556.962280273,68.6560287476 L557.42767334,69.57787323 L557.83203125,70.1892852783 L558.152099609,70.4506225586 L558.402282715,70.3666915894 L558.611572266,69.9684524536 L558.770568848,69.4814529419 L558.872802734,69.0880050659 M561.553527832,57.737827301 L561.586303711,57.7843780518 L561.659057617,57.9979553223 L561.762634277,58.4926872253 L561.867614746,59.3405418396 L561.932067871,60.5233650208 L561.93359375,61.9649925232 L561.876586914,63.5532913208 L561.792480469,65.1526641846 L561.716308594,66.6193237305 L561.672851562,67.822555542 L561.663696289,68.6808013916 L561.67590332,69.1585159302 L561.69543457,69.255279541 L561.724731445,68.9707794189 L561.786132812,68.3012619019 L561.910888672,67.2663116455 L562.133789062,65.9522857666 L562.483154297,64.4725494385 L562.97857666,62.9437522888 L563.635131836,61.4605751038 L564.457519531,60.0953140259 L565.435302734,58.9142837524 L566.53729248,57.9942550659 L567.720947266,57.3986816406 L568.935302734,57.1689300537 L570.136535645,57.3242034912 L571.278930664,57.8606300354 L572.320373535,58.7522888184 L573.220336914,59.9515380859 L573.950927734,61.3873443604 L574.500183105,62.96849823 L574.883056641,64.5935211182 L575.130615234,66.1594238281 L575.282531738,67.5673675537 L575.378051758,68.7353820801 L575.448303223,69.6060333252 L575.508972168,70.1649475098 L575.567199707,70.4467315674 L575.614501953,70.5409317017 L575.64465332,70.5425567627 M583.461303711,46.2787590027 L583.489501953,46.4395523071 L583.554199219,46.83152771 L583.658630371,47.5321502686 L583.78527832,48.5570144653 L583.906188965,49.8872184753 L583.991821289,51.4897193909 L584.027770996,53.3216323853 L584.017456055,55.3262939453 L583.98059082,57.4334449768 L583.937805176,59.5595397949 L583.904541016,61.6143379211 L583.885131836,63.5121383667 L583.884887695,65.1697692871 L583.898803711,66.5168533325 L583.927368164,67.5286941528 L583.955810547,68.1659317017 L583.965637207,68.4257354736 L583.939819336,68.3410491943 L583.897338867,68.0953674316 L583.855102539,67.8471755981 M579.219360352,57.0782852173 L579.286193848,57.0808906555 L579.571655273,57.0900535583 L580.217651367,57.1024093628 L581.309570312,57.1076698303 L582.813537598,57.0941696167 L584.612548828,57.0632553101 L586.547607422,57.0298118591 L588.465820312,57.0067596436 L590.228881836,57.0052490234 L591.731018066,57.0215644836 L592.90814209,57.0465393066 L593.706359863,57.0670433044 L594.106506348,57.0766410828 L594.221740723,57.0749435425 L594.183959961,57.0692596436 " fill="none" stroke="black" stroke-linecap="round" stroke-width="2" /></svg>