<?xml version="1.0" encoding="utf-8" ?>
<svg baseProfile="full" height="100%" version="1.1" viewBox="0,0,1000,120" width="100%" xmlns="http://www.w3.org/2000/svg" xmlns:ev="http://www.w3.org/2001/xml-events" xmlns:xlink="http://www.w3.org/1999/xlink"><defs /><rect fill="white" height="120" width="1000" x="0" y="0" /><path d="M0,0 M397.150604248,64.6286697388 L397.168792725,64.6090698242 L397.197723389,64.5744400024 L397.231750488,64.5313339233 L397.264709473,64.4958267212 L397.279876709,64.4646682739 L397.298706055,64.4505233765 L397.315795898,64.4444351196 L397.327484131,64.4360122681 L397.332794189,64.4214553833 L397.335510254,64.4039154053 L397.339447021,64.3823471069 L397.3465271,64.3573150635 L397.357849121,64.3322906494 L397.371002197,64.3090896606 L397.383789062,64.2892684937 L397.39654541,64.2750854492 L397.409088135,64.2632904053 L397.420593262,64.2512893677 L397.43270874,64.2390441895 L397.44720459,64.2229919434 L397.460540771,64.2075500488 L397.470672607,64.1963348389 M423.972991943,45.0570755005 L423.905914307,45.0058097839 L423.812194824,45.0 L423.687927246,45.1724128723 L423.497833252,45.6888618469 L423.162078857,46.6901092529 L422.619567871,48.2240791321 L421.837768555,50.2515640259 L420.847167969,52.6879692078 L419.704315186,55.4107475281 L418.475341797,58.2614860535 L417.253936768,61.0625991821 L416.155578613,63.5857162476 L415.285766602,65.6084136963 L414.703033447,67.0196609497 L414.401855469,67.8255157471 L414.331115723,68.0939178467 L414.452636719,67.8891296387 L414.803222656,67.1916046143 L415.47442627,65.935005188 L416.547210693,64.1404418945 L418.06137085,61.9154205322 L419.985656738,59.4216156006 L422.237945557,56.831615448 L424.729187012,54.2841949463 L427.355651855,51.8937416077 L429.998779297,49.7953605652 L432.497741699,48.1001815796 L434.661987305,46.8848571777 L436.321594238,46.1500320435 L437.392730713,45.8209877014 L437.928344727,45.7438812256 L438.107116699,45.7752075195 M425.319091797,56.2110977173 L425.498413086,56.4334106445 L425.812805176,56.9445114136 L426.244262695,57.8167228699 L426.724395752,59.0183639526 L427.240600586,60.4740104675 L427.781738281,62.0620002747 L428.369750977,63.6574134827 L429.100158691,65.0926055908 L430.032043457,66.2056427002 L431.161956787,66.8755950928 L432.188171387,67.1519699097 L432.896270752,67.1780853271 M441.738769531,55.5199775696 L441.616821289,55.6177711487 L441.351013184,55.9700393677 L440.899078369,56.7197608948 L440.285400391,57.9171638489 L439.577911377,59.4730567932 L438.910491943,61.2256622314 L438.430084229,62.9608688354 L438.269805908,64.4772186279 L438.493896484,65.6124191284 L439.119750977,66.2400512695 L440.126281738,66.2816619873 L441.481414795,65.7182312012 L443.12310791,64.5860290527 L444.953491211,63.0022315979 L446.833526611,61.1528968811 L448.586456299,59.2863998413 L450.039581299,57.6527824402 L451.087860107,56.4161758423 L451.703063965,55.6489982605 L451.914428711,55.3694648743 L451.790985107,55.5804138184 L451.381195068,56.325881958 L450.736633301,57.6224937439 L449.974304199,59.3459129333 L449.271453857,61.2555770874 L448.815155029,63.0646820068 L448.766113281,64.5188903809 L449.199615479,65.4669799805 L450.118896484,65.8400878906 L451.491119385,65.6034851074 L453.252288818,64.7702865601 L455.296386719,63.4317054749 L457.482818604,61.7512245178 L459.652069092,59.946849823 L461.627716064,58.259311676 L463.256896973,56.8706703186 L464.442810059,55.8951339722 L465.14364624,55.4025535583 L465.372314453,55.4344673157 L465.186676025,56.0234413147 L464.631652832,57.1834907532 L463.787261963,58.800075531 L462.804321289,60.6419219971 L461.867950439,62.411895752 L461.133026123,63.8573532104 L460.694671631,64.8315353394 L460.561401367,65.2931976318 L460.72744751,65.2325210571 L461.240661621,64.6417922974 L462.175598145,63.5381698608 L463.540496826,62.0449333191 L465.274475098,60.3679542542 L467.235809326,58.743019104 L469.245941162,57.3791122437 L471.152923584,56.4090003967 L472.842498779,55.8921890259 L474.22076416,55.8600730896 L475.230560303,56.3093833923 L475.837036133,57.2067756653 L476.043792725,58.4813766479 L475.916473389,60.0070610046 L475.58416748,61.5985145569 L475.211914062,63.0596809387 L474.948730469,64.2276535034 L474.868682861,65.0207138062 L474.984313965,65.42527771 L475.277618408,65.4556121826 L475.747314453,65.1200180054 L476.415557861,64.439163208 L477.308135986,63.4673042297 L478.41885376,62.3150634766 L479.730926514,61.1111564636 L481.219177246,59.9736785889 L482.866577148,58.9870033264 L484.645202637,58.2072715759 L486.50680542,57.6602210999 L488.375274658,57.3515853882 L490.172973633,57.2526397705 L491.804870605,57.3018913269 L493.178070068,57.4213600159 L494.211181641,57.5514564514 L494.88079834,57.6467857361 L495.20324707,57.6872062683 L495.244842529,57.6700172424 L495.040893555,57.5973129272 L494.58190918,57.4884147644 L493.82421875,57.4097557068 L492.755615234,57.454284668 L491.379852295,57.7259750366 L489.778076172,58.3060569763 L488.07611084,59.2213096619 L486.439727783,60.4225273132 L485.057006836,61.7961616516 L484.09262085,63.1780204773 L483.640014648,64.3973846436 L483.729492188,65.3066177368 L484.3309021,65.8022155762 L485.387695312,65.8206329346 L486.834289551,65.3503875732 L488.558410645,64.4380569458 L490.407501221,63.200012207 L492.203826904,61.8012046814 L493.758880615,60.4320793152 L494.940093994,59.2611579895 L495.71383667,58.3863601685 L496.115905762,57.8475952148 L496.20324707,57.6632537842 L496.037445068,57.8594779968 L495.643005371,58.4906196594 L495.069396973,59.5769577026 L494.439971924,61.0046653748 L493.928375244,62.56508255 L493.700408936,64.0212402344 L493.884735107,65.1667709351 L494.541015625,65.8764801025 L495.679931641,66.0752563477 L497.2840271,65.6976470947 L499.302032471,64.721282959 L501.645385742,63.1925392151 L504.183319092,61.2072792053 L506.773254395,58.9037742615 L509.265686035,56.4254188538 L511.525756836,53.9154129028 L513.432617188,51.5246925354 L514.893981934,49.4145317078 L515.856201172,47.7011795044 L516.316040039,46.4617538452 L516.299804688,45.7374687195 L515.845825195,45.5671157837 L514.980712891,46.0139465332 L513.733215332,47.1445922852 L512.182006836,48.9383544922 L510.468139648,51.2809829712 L508.789916992,53.9673919678 L507.367034912,56.7479553223 L506.393432617,59.3871078491 L506.000183105,61.7017707825 L506.255615234,63.5548439026 L507.139221191,64.8782806396 L508.661621094,65.6086044312 L510.705993652,65.7571411133 L513.065124512,65.4081802368 L515.092346191,64.8843841553 L516.417053223,64.4413299561 M549.074890137,48.7195205688 L548.99420166,48.4712753296 L548.788574219,48.0964889526 L548.393798828,47.6743545532 L547.762268066,47.3469848633 L546.858642578,47.1812667847 L545.687255859,47.2387237549 L544.300048828,47.5465927124 L542.809753418,48.1193237305 L541.365356445,48.9360694885 L540.128601074,49.9562149048 L539.241943359,51.1281967163 L538.81036377,52.4026908875 L538.899291992,53.7358894348 L539.532104492,55.0934295654 L540.665710449,56.4462165833 L542.193481445,57.7799491882 L543.942504883,59.0899085999 L545.69708252,60.3758392334 L547.248352051,61.6354980469 L548.427490234,62.8582267761 L549.120361328,64.0186386108 L549.273681641,65.0889358521 L548.872131348,66.0384674072 L547.925048828,66.8352890015 L546.476501465,67.4482116699 L544.614501953,67.848236084 L542.485107422,68.0172042847 L540.270507812,67.9542922974 L538.168823242,67.6918792725 L536.345092773,67.2830047607 L534.896057129,66.7937774658 L533.948059082,66.2506637573 L533.573303223,65.6773147583 L533.768554688,65.0807800293 L534.235351562,64.5861358643 L534.694519043,64.2629699707 M560.768981934,60.4479637146 L560.757324219,60.1848869324 L560.679321289,59.7503471375 L560.475646973,59.2030067444 L560.08581543,58.6780586243 L559.464477539,58.2605743408 L558.588378906,58.0404396057 L557.468078613,58.0921020508 L556.145385742,58.486618042 L554.706542969,59.2602844238 L553.26763916,60.3998260498 L551.959716797,61.8227500916 L550.916381836,63.38514328 L550.257446289,64.9062423706 L550.065917969,66.2103881836 L550.379272461,67.1497116089 L551.18182373,67.622467041 L552.421264648,67.570098877 L554.008728027,66.9874038696 L555.82598877,65.9388504028 L557.72668457,64.5536651611 L559.536193848,63.0209960938 L561.072509766,61.5579910278 L562.211303711,60.3509635925 L562.920532227,59.4969711304 L563.237243652,59.0277709961 L563.245422363,58.9328384399 L563.014831543,59.2294311523 L562.580444336,59.9604148865 L562.000061035,61.1179656982 L561.409179688,62.5563583374 L560.963928223,64.0562744141 L560.825012207,65.3770141602 L561.102355957,66.3391952515 L561.826782227,66.8451004028 L562.983215332,66.8486022949 L564.540405273,66.3295669556 L566.422119141,65.3403015137 L568.510375977,64.0009155273 L570.661132812,62.498046875 L572.690795898,61.0468711853 L574.426025391,59.830242157 L575.74786377,58.9719238281 L576.59161377,58.5400161743 L576.950805664,58.5595970154 L576.876831055,59.0388183594 L576.419006348,59.9648208618 L575.654602051,61.2456512451 L574.73248291,62.6997184753 L573.829101562,64.0951461792 L573.106567383,65.2329559326 L572.658325195,65.9975585938 L572.495422363,66.3554916382 L572.597351074,66.3004226685 L572.998596191,65.8198242188 L573.767456055,64.9244232178 L574.944702148,63.7079696655 L576.484375,62.3406944275 L578.269226074,61.0191230774 L580.133117676,59.9111480713 L581.92401123,59.1172409058 L583.524597168,58.681968689 L584.846801758,58.6254768372 L585.822509766,58.9529075623 L586.411743164,59.6507453918 L586.607421875,60.6777420044 L586.454589844,61.9518280029 L586.06439209,63.3418083191 L585.595581055,64.6897964478 L585.209228516,65.8520507812 L585.010070801,66.7413024902 L585.039245605,67.3300857544 L585.301269531,67.6246032715 L585.803344727,67.6168518066 L586.575927734,67.2800827026 L587.657043457,66.5884933472 L589.039306641,65.5512390137 L590.677185059,64.2103271484 L592.505493164,62.631439209 L594.459838867,60.8745956421 L596.494262695,58.993309021 L598.571899414,57.0431900024 L600.634155273,55.0964698792 L602.608215332,53.2439346313 L604.387512207,51.6052093506 L605.852539062,50.2912368774 L606.919372559,49.3565788269 L607.561157227,48.8101348877 L607.800537109,48.6424560547 L607.693969727,48.8626747131 L607.252563477,49.5323257446 L606.45690918,50.7093925476 L605.316040039,52.3603744507 L603.893188477,54.3781776428 L602.304321289,56.6028709412 L600.703063965,58.8569526672 L599.223388672,60.9871940613 L597.970336914,62.8535346985 L597.012329102,64.327041626 L596.375732422,65.3521499634 L596.031005859,65.9261169434 L595.906677246,66.0787582397 L595.916503906,65.8530883789 L595.980712891,65.2764358521 L596.026184082,64.3935928345 L595.994445801,63.3246498108 L595.845336914,62.2199478149 L595.562744141,61.2285804749 L595.190368652,60.460849762 L594.798706055,59.9470901489 L594.474609375,59.6722946167 L594.293945312,59.6104545593 L594.356079102,59.7296218872 L594.771850586,59.9895057678 L595.681945801,60.3279953003 L597.163513184,60.6440162659 L599.199645996,60.8461036682 L601.641113281,60.8802909851 L604.271057129,60.746547699 L606.846313477,60.4894142151 L609.158325195,60.1656303406 L611.072143555,59.8126296997 L612.383666992,59.5207214355 L613.091552734,59.3337478638 " fill="none" stroke="black" stroke-linecap="round" stroke-width="2" /></svg>