<?xml version="1.0" encoding="utf-8" ?>
<svg baseProfile="full" height="100%" version="1.1" viewBox="0,0,1000,120" width="100%" xmlns="http://www.w3.org/2000/svg" xmlns:ev="http://www.w3.org/2001/xml-events" xmlns:xlink="http://www.w3.org/1999/xlink"><defs /><rect fill="white" height="120" width="1000" x="0" y="0" /><path d="M0,0 M456.71572876,45.3948860168 L456.731658936,45.7421302795 L456.740509033,46.5094528198 L456.716674805,47.7839126587 L456.631835938,49.5167808533 L456.480255127,51.626914978 L456.266082764,53.9883613586 L456.010772705,56.4660301208 L455.783935547,58.8790473938 L455.6590271,61.0016326904 L455.69052124,62.6269798279 L455.817657471,63.6277885437 L455.958343506,64.0773925781 M467.671173096,46.6747665405 L467.709228516,46.6321258545 L467.623657227,46.707069397 L467.258056641,47.0399093628 L466.461639404,47.7372207642 L465.225708008,48.7800712585 L463.635314941,50.078792572 L461.875793457,51.5060119629 L460.177612305,52.9395141602 L458.759094238,54.2798614502 L457.783203125,55.4543838501 L457.366516113,56.4338264465 L457.54296875,57.2334365845 L458.28125,57.8994903564 L459.502044678,58.4767150879 L461.059783936,58.9998245239 L462.817260742,59.4830055237 L464.606628418,59.9152069092 L466.274658203,60.2711486816 L467.525085449,60.5128898621 L468.260253906,60.6360740662 M472.061706543,53.7094573975 L472.049194336,53.932182312 L472.009277344,54.4501266479 L471.930114746,55.3387641907 L471.823486328,56.5629920959 L471.738708496,58.018119812 L471.729919434,59.5340118408 L471.855682373,60.9168205261 L472.160003662,61.9831085205 L472.658630371,62.5831718445 L473.352600098,62.6146125793 L474.232177734,62.0443649292 L475.248779297,60.9169502258 L476.33026123,59.3708496094 L477.388122559,57.6251029968 L478.318084717,55.9348754883 L479.040008545,54.5086631775 L479.522125244,53.4832878113 L479.771728516,52.9322662354 L479.830749512,52.8966712952 L479.759155273,53.4060211182 L479.601470947,54.4697875977 L479.412200928,55.986995697 L479.261901855,57.7699394226 L479.251495361,59.5537452698 L479.447509766,61.0694160461 L479.859619141,62.1355400085 L480.306030273,62.7260780334 L480.642852783,62.9472808838 M485.18270874,53.4897384644 L485.190612793,53.7690658569 L485.17956543,54.4115753174 L485.117950439,55.4751014709 L484.991027832,56.8696098328 L484.831573486,58.412525177 L484.68548584,59.8812942505 L484.604034424,61.0773353577 L484.627716064,61.8576049805 L484.761901855,62.1178359985 L485.014068604,61.8098754883 L485.41229248,60.9387588501 L485.979919434,59.6007881165 L486.735809326,57.9776229858 L487.677490234,56.2922210693 L488.763000488,54.7505645752 L489.929321289,53.5151023865 L491.108276367,52.6922492981 L492.23059082,52.3540267944 L493.233764648,52.5357818604 L494.061523438,53.23254776 L494.665130615,54.3829307556 L495.020202637,55.8704414368 L495.142578125,57.5357513428 L495.12701416,59.1836738586 L495.092712402,60.6125793457 L495.146911621,61.6774978638 L495.267974854,62.3121833801 L495.397827148,62.5876808167 M505.062988281,54.933391571 L504.942993164,54.588180542 L504.662902832,54.0926170349 L504.161560059,53.5970115662 L503.41796875,53.3418540955 L502.44329834,53.4520797729 L501.300262451,53.9971313477 L500.110961914,54.9634399414 L499.035400391,56.2763328552 L498.238220215,57.7805595398 L497.841491699,59.2801437378 L497.904296875,60.5730781555 L498.406555176,61.4844055176 L499.277099609,61.896648407 L500.412902832,61.7537002563 L501.700683594,61.0637626648 L503.014678955,59.9191665649 L504.23840332,58.4760475159 L505.258850098,56.9476585388 L506.007049561,55.5545425415 L506.472229004,54.4524116516 L506.688476562,53.7362937927 L506.721313477,53.4593200684 L506.643768311,53.6439285278 L506.503540039,54.326171875 L506.347625732,55.5007019043 L506.23348999,57.0507392883 L506.210601807,58.8060340881 L506.362365723,60.5278091431 L506.72454834,61.9739875793 L507.272216797,62.9900436401 L507.806945801,63.5521354675 L508.18927002,63.7568817139 M513.755493164,46.4163398743 L513.807678223,46.6976203918 L513.859741211,47.3582344055 L513.868164062,48.4992179871 L513.787597656,50.0907707214 L513.631713867,52.0392799377 L513.446777344,54.1975135803 L513.301391602,56.3957176208 L513.290039062,58.4579162598 L513.465576172,60.2105331421 L513.824890137,61.520942688 L514.214355469,62.3187217712 L514.50958252,62.6827659607 M539.956481934,46.6108131409 L539.718566895,46.258102417 L539.232116699,45.7614326477 L538.444152832,45.268157959 L537.375732422,45.0 L536.067260742,45.0365142822 L534.637817383,45.4157180786 L533.265197754,46.1106872559 L532.163330078,47.0825538635 L531.525390625,48.2614097595 L531.482177734,49.5661849976 L532.077148438,50.9212722778 L533.257568359,52.2781410217 L534.88092041,53.6091041565 L536.740478516,54.907787323 L538.599975586,56.165271759 L540.236083984,57.3623847961 L541.472961426,58.4738693237 L542.191040039,59.4757041931 L542.324707031,60.3492622375 L541.858703613,61.0828933716 L540.806030273,61.6520042419 L539.234313965,62.0264587402 L537.275634766,62.1883926392 L535.123840332,62.1227378845 L533.04119873,61.8617210388 L531.284667969,61.4813041687 L530.095825195,61.1281280518 L529.487792969,60.8920707703 M550.097473145,54.3048477173 L549.88470459,54.0493202209 L549.44708252,53.6980743408 L548.745483398,53.3882331848 L547.802978516,53.3235244751 L546.664306641,53.6116600037 L545.428588867,54.3037719727 L544.240234375,55.3648033142 L543.269836426,56.7005157471 L542.675231934,58.1583518982 L542.5390625,59.5517463684 L542.875488281,60.7002563477 L543.630981445,61.4556236267 L544.716369629,61.7151565552 L546.024353027,61.4319763184 L547.446472168,60.6271781921 L548.852722168,59.3972625732 L550.118591309,57.9048271179 L551.137634277,56.3690109253 L551.857421875,54.996673584 L552.281982422,53.936214447 L552.464660645,53.2834091187 L552.477661133,53.0912055969 L552.395019531,53.3837890625 L552.268005371,54.1901664734 L552.149108887,55.4719657898 L552.08581543,57.0917701721 L552.123535156,58.8581390381 L552.33001709,60.5157470703 L552.733642578,61.8310813904 L553.304199219,62.6735801697 L553.849121094,63.0759658813 L554.231994629,63.1758956909 M557.482910156,53.5268783569 L557.522216797,53.8088912964 L557.562011719,54.449054718 L557.569213867,55.5047683716 L557.517456055,56.8805427551 L557.433959961,58.3946800232 L557.360229492,59.8264770508 L557.336120605,60.988948822 L557.391845703,61.7524871826 L557.536865234,62.035118103 L557.777832031,61.7948188782 L558.143554688,61.0343933105 L558.658691406,59.8236351013 L559.333129883,58.3263587952 L560.162719727,56.7467880249 L561.121337891,55.2813911438 L562.158508301,54.0844955444 L563.223632812,53.2594566345 L564.260986328,52.8684082031 L565.21887207,52.9559555054 L566.049499512,53.5295639038 L566.711730957,54.5537223816 L567.175476074,55.9459915161 L567.440551758,57.5838432312 L567.555664062,59.2973060608 L567.598266602,60.8810462952 L567.645141602,62.154914856 L567.707336426,62.9767990112 L567.76953125,63.3724250793 M574.490112305,46.2499160767 L574.521606445,46.4800834656 L574.544555664,47.0426483154 L574.527893066,48.0384941101 L574.440856934,49.4620742798 L574.294128418,51.2479248047 L574.108642578,53.2882461548 L573.925292969,55.4495849609 L573.790527344,57.5829467773 L573.741943359,59.5595703125 L573.75567627,61.0392227173 L573.79876709,61.9113807678 " fill="none" stroke="black" stroke-linecap="round" stroke-width="2" /></svg>