<?xml version="1.0" encoding="utf-8" ?>
<svg baseProfile="full" height="100%" version="1.1" viewBox="0,0,1000,120" width="100%" xmlns="http://www.w3.org/2000/svg" xmlns:ev="http://www.w3.org/2001/xml-events" xmlns:xlink="http://www.w3.org/1999/xlink"><defs /><rect fill="white" height="120" width="1000" x="0" y="0" /><path d="M0,0 M431.1847229,48.2140388489 L431.204223633,48.1502189636 L431.245666504,48.171005249 L431.307098389,48.4175071716 L431.372192383,49.0367088318 L431.410980225,50.1018867493 L431.410736084,51.6189689636 L431.341918945,53.5535354614 L431.206695557,55.8569068909 L431.015045166,58.4519577026 L430.786834717,61.2279243469 L430.536712646,64.0495223999 L430.31072998,66.737739563 L430.152984619,69.0903320312 L430.111999512,70.9402008057 L430.153991699,72.131690979 L430.229492188,72.7159118652 M444.750366211,50.7937545776 L444.955780029,50.5304412842 L445.10345459,50.310382843 L444.987060547,50.3279380798 L444.386322021,50.7800521851 L443.265777588,51.6494407654 L441.664093018,52.8414382935 L439.709625244,54.2097587585 L437.55758667,55.645450592 L435.391479492,57.0166664124 L433.410308838,58.216545105 L431.794067383,59.1808242798 L430.645751953,59.8895797729 L430.007507324,60.37865448 L429.865753174,60.7269210815 L430.171142578,61.0151748657 L430.890869141,61.3066215515 L431.994812012,61.6445388794 L433.413879395,62.0538597107 L435.056243896,62.5544509888 L436.808319092,63.1604614258 L438.552246094,63.868019104 L440.200683594,64.6564254761 L441.686401367,65.494140625 L442.969909668,66.34375 L444.022125244,67.146774292 L444.837585449,67.8390197754 L445.371887207,68.3241424561 L445.65222168,68.5849075317 M450.736358643,60.8596076965 L450.72467041,60.5303993225 L450.707519531,60.1197471619 L450.668151855,59.7988395691 L450.5859375,59.7925643921 L450.440246582,60.1797904968 L450.212554932,60.9760551453 L449.95211792,62.114818573 L449.725097656,63.5231132507 L449.613067627,65.0739974976 L449.70993042,66.62550354 L450.080718994,68.0398788452 L450.759429932,69.1858291626 L451.758300781,69.9435958862 L453.041320801,70.232421875 L454.539306641,70.0128707886 L456.163421631,69.3075180054 L457.79119873,68.1822891235 L459.306976318,66.7552490234 L460.612823486,65.1761932373 L461.639831543,63.6218833923 L462.3565979,62.2558135986 L462.78036499,61.1996612549 L462.956207275,60.5206680298 L462.953430176,60.2549705505 L462.848480225,60.4160270691 L462.69720459,61.0205192566 L462.539581299,62.0454521179 L462.418273926,63.3952522278 L462.375549316,64.9187088013 L462.459106445,66.4512786865 L462.694519043,67.8421707153 L463.101287842,68.9524307251 L463.648895264,69.6869049072 L464.280273438,70.0087127686 L464.819763184,70.0399856567 L465.172241211,69.9426651001 M468.426452637,61.3408050537 L468.451507568,61.2865257263 L468.491333008,61.3329696655 L468.529296875,61.6069297791 L468.536102295,62.2279090881 L468.484985352,63.1977577209 L468.373962402,64.4398956299 L468.220672607,65.8245010376 L468.054443359,67.1976165771 L467.903411865,68.4006881714 L467.77545166,69.3192443848 L467.671081543,69.8669586182 L467.593078613,69.9959030151 L467.565948486,69.7003631592 L467.630249023,68.9895095825 L467.83001709,67.9239196777 L468.186706543,66.6123275757 L468.710449219,65.175567627 L469.393554688,63.7292823792 L470.231811523,62.3762741089 L471.220275879,61.1910514832 L472.342895508,60.25522995 L473.568023682,59.6401863098 L474.85168457,59.3929367065 L476.136962891,59.530254364 L477.36529541,60.0411186218 L478.478607178,60.8881607056 L479.419494629,62.0156555176 L480.145751953,63.3438110352 L480.644561768,64.7756576538 L480.937561035,66.2024536133 L481.06539917,67.5190124512 L481.121643066,68.6288986206 L481.19708252,69.4633789062 L481.358703613,69.9999694824 L481.554931641,70.2739486694 L481.725463867,70.3684997559 M494.316253662,65.8000564575 L494.464752197,65.2802047729 L494.577575684,64.4586791992 L494.511169434,63.4574394226 L494.119812012,62.513458252 L493.370574951,61.7134284973 L492.292724609,61.1143722534 L490.95199585,60.741027832 L489.438201904,60.6643066406 L487.861846924,60.9214897156 L486.362091064,61.5316352844 L485.074035645,62.4698028564 L484.117706299,63.6532478333 L483.591186523,64.9675369263 L483.568756104,66.2861709595 L484.073913574,67.4614105225 L485.090942383,68.3663101196 L486.55078125,68.9005355835 L488.328155518,69.0096817017 L490.262237549,68.6976928711 L492.176086426,68.0221099854 L493.902282715,67.0746231079 L495.312805176,65.9752960205 L496.337036133,64.86302948 L496.973968506,63.8778610229 L497.283691406,63.1209983826 L497.354034424,62.6512527466 L497.283752441,62.4919319153 L497.154449463,62.6501274109 L497.024749756,63.1356964111 L496.952148438,63.9435005188 L496.994598389,65.0097808838 L497.217895508,66.2442245483 L497.650909424,67.5088272095 L498.267089844,68.6654129028 L498.853393555,69.5126571655 L499.264312744,69.9953689575 M506.454071045,47.3234329224 L506.522766113,46.6924285889 L506.600402832,45.885269165 L506.648712158,45.1978034973 L506.619384766,45.0 L506.516967773,45.3652496338 L506.347717285,46.2825546265 L506.129760742,47.6586647034 L505.887451172,49.4495697021 L505.646606445,51.5707244873 L505.424377441,53.9110031128 L505.238189697,56.3646354675 L505.092834473,58.8205757141 L504.994384766,61.1624183655 L504.951416016,63.2866821289 L504.966705322,65.1046447754 L505.06463623,66.538444519 L505.256347656,67.5432052612 L505.543151855,68.1271972656 L505.828063965,68.380241394 L506.038208008,68.4343490601 M542.775146484,50.6784095764 L542.739929199,50.1939697266 L542.566162109,49.4364395142 L542.151062012,48.5319252014 L541.400024414,47.6984024048 L540.281738281,47.0131759644 L538.808349609,46.5325012207 L537.059753418,46.2840385437 L535.178833008,46.3249588013 L533.350585938,46.6950073242 L531.758972168,47.3966369629 L530.572814941,48.4111938477 L529.915771484,49.6885452271 L529.879394531,51.1636123657 L530.525390625,52.7680625916 L531.859863281,54.4409408569 L533.814941406,56.138633728 L536.236694336,57.8379478455 L538.892211914,59.5205230713 L541.50982666,61.1639633179 L543.832092285,62.7270431519 L545.652282715,64.1615524292 L546.839355469,65.4244995117 L547.330200195,66.4932861328 L547.111877441,67.3596420288 L546.200866699,68.0279541016 L544.647888184,68.4991455078 L542.548522949,68.7818145752 L540.04901123,68.8881225586 L537.336303711,68.8405456543 L534.618774414,68.6635971069 L532.080200195,68.3884658813 L529.925415039,68.0396270752 L528.324890137,67.6599807739 L527.370483398,67.2971725464 L526.962219238,67.0246353149 L526.898986816,66.8681945801 M558.294372559,63.7141876221 L558.287780762,63.2731399536 L558.16809082,62.5795288086 L557.835388184,61.7506484985 L557.215270996,61.0082511902 L556.300720215,60.4512634277 L555.133972168,60.1596870422 L553.795837402,60.1771087646 L552.392089844,60.5504798889 L551.043823242,61.2850875854 L549.886779785,62.345287323 L549.044311523,63.646396637 L548.61932373,65.0698318481 L548.682128906,66.4717712402 L549.262695312,67.7031555176 L550.338317871,68.6263275146 L551.835510254,69.1402130127 L553.627746582,69.1871414185 L555.555358887,68.7696914673 L557.443359375,67.9429016113 L559.134155273,66.8074951172 L560.502441406,65.5034713745 L561.475341797,64.1977462769 L562.058532715,63.0490264893 L562.315673828,62.1755332947 L562.343444824,61.6512908936 L562.25177002,61.5099258423 L562.12487793,61.7632102966 L562.017150879,62.4135932922 L561.991088867,63.4198188782 L562.090637207,64.6741333008 L562.341430664,66.0343933105 L562.777648926,67.3333129883 L563.378479004,68.4176864624 L564.080749512,69.1973571777 L564.69128418,69.6477127075 L565.092895508,69.8334503174 M567.839538574,61.2041625977 L567.866699219,61.1773109436 L567.926513672,61.2854309082 L568.013916016,61.6593551636 L568.105285645,62.3973274231 L568.165649414,63.4613418579 L568.180236816,64.7362289429 L568.154052734,66.0597915649 L568.097167969,67.2718276978 L568.028869629,68.233291626 L567.971435547,68.8482894897 L567.946594238,69.0483703613 L567.99420166,68.8072967529 L568.162841797,68.1361160278 L568.489562988,67.1002883911 L569.005493164,65.8122634888 L569.727294922,64.4132385254 L570.648071289,63.0437240601 L571.742553711,61.8301315308 L572.966430664,60.8712348938 L574.26171875,60.2486305237 L575.566162109,60.0136222839 L576.820129395,60.1835441589 L577.968933105,60.7443733215 L578.962036133,61.6531906128 L579.75567627,62.8401489258 L580.333068848,64.2162322998 L580.705505371,65.6693878174 L580.93182373,67.0700683594 L581.086791992,68.2828674316 L581.235412598,69.2038192749 L581.36920166,69.7695388794 L581.469726562,70.0284347534 M588.47076416,47.8905487061 L588.485046387,47.8549041748 L588.53326416,47.9979057312 L588.620605469,48.4925537109 L588.732421875,49.4756660461 L588.83380127,50.9356689453 L588.893737793,52.7976799011 L588.898742676,54.9569969177 L588.84954834,57.3077659607 L588.751403809,59.7245330811 L588.605224609,62.0777626038 L588.411376953,64.2321624756 L588.171081543,66.0491790771 L587.905639648,67.4221496582 L587.644470215,68.3070678711 L587.444091797,68.7531433105 L587.32611084,68.8993606567 M584.632507324,61.3373336792 L584.819274902,61.0689201355 L585.339050293,60.6958007812 L586.318847656,60.3101654053 L587.77923584,60.0438270569 L589.627441406,59.9108695984 L591.71472168,59.8926048279 L593.892883301,59.9643363953 L596.073852539,60.1212921143 L597.817871094,60.2895050049 L598.925842285,60.4191131592 " fill="none" stroke="black" stroke-linecap="round" stroke-width="2" /></svg>