<?xml version="1.0" encoding="utf-8" ?>
<svg baseProfile="full" height="100%" version="1.1" viewBox="0,0,1000,120" width="100%" xmlns="http://www.w3.org/2000/svg" xmlns:ev="http://www.w3.org/2001/xml-events" xmlns:xlink="http://www.w3.org/1999/xlink"><defs /><rect fill="white" height="120" width="1000" x="0" y="0" /><path d="M0,0 M375.384857178,47.7089347839 L375.300323486,47.4466133118 L375.103118896,47.0102157593 L374.736358643,46.4515304565 L374.144165039,45.8935203552 L373.256988525,45.4118270874 L372.035827637,45.0933036804 L370.504211426,45.0 L368.741729736,45.1724700928 L366.881164551,45.6187210083 L365.076904297,46.3188476562 L363.468444824,47.2444610596 L362.176269531,48.3607025146 L361.307037354,49.626953125 L360.949523926,50.9932098389 L361.158691406,52.3988189697 L361.956176758,53.792350769 L363.293945312,55.1410942078 L365.046203613,56.4362487793 L367.026916504,57.7014389038 L369.022644043,58.9704017639 L370.814239502,60.2512779236 L372.23147583,61.5484046936 L373.149841309,62.8521766663 L373.484436035,64.1441345215 L373.196258545,65.4041976929 L372.295471191,66.5934295654 L370.849334717,67.6327438354 L368.984069824,68.4470443726 L366.866546631,68.9639511108 L364.674804688,69.1354904175 L362.574890137,68.9671173096 L360.743255615,68.4569702148 L359.334289551,67.6598815918 L358.439453125,66.6838150024 L358.010406494,65.8233108521 L357.897155762,65.2514038086 M379.502502441,58.219039917 L379.504394531,58.2117538452 L379.455383301,58.3359260559 L379.299926758,58.7325363159 L378.989532471,59.5290679932 L378.520935059,60.7368431091 L377.962097168,62.2802314758 L377.440948486,63.9958114624 L377.096221924,65.6688613892 L377.047668457,67.0974349976 L377.360656738,68.121307373 L378.039398193,68.6237640381 L379.072235107,68.5498657227 L380.442108154,67.9002304077 L382.084594727,66.7263641357 L383.893829346,65.1644592285 L385.724853516,63.4123764038 L387.390930176,61.7118301392 L388.73614502,60.2743797302 L389.685546875,59.2252616882 L390.225524902,58.6066398621 L390.389099121,58.4233436584 L390.251525879,58.6832618713 L389.865966797,59.4368515015 L389.294006348,60.6890640259 L388.661437988,62.3203926086 L388.113861084,64.1118240356 L387.797637939,65.8027877808 L387.845703125,67.1724319458 L388.322753906,68.0907745361 L389.243377686,68.4831085205 L390.607147217,68.3031616211 L392.36026001,67.5306777954 L394.417388916,66.1900100708 L396.671234131,64.3604812622 L398.997741699,62.1565322876 L401.286437988,59.7089118958 L403.446533203,57.1654052734 L405.388946533,54.6782188416 L407.031280518,52.4120025635 L408.305236816,50.5226135254 L409.168884277,49.1097640991 L409.630126953,48.2058868408 L409.722412109,47.8064460754 L409.479797363,47.9096412659 L408.923858643,48.5520477295 L408.073577881,49.7853012085 L406.976623535,51.6061630249 L405.741088867,53.925403595 L404.508056641,56.5732879639 L403.438171387,59.3240623474 L402.676208496,61.939704895 L402.309143066,64.2109451294 L402.362121582,65.9777526855 L402.802185059,67.1491546631 L403.549743652,67.698600769 L404.519042969,67.6359786987 L405.620727539,66.997505188 L406.74017334,65.8649215698 L407.748535156,64.3787612915 L408.509216309,62.7182312012 L408.932952881,61.0810279846 L409.011871338,59.6392021179 L408.83795166,58.5128288269 L408.541320801,57.7563056946 L408.264068604,57.3742141724 L408.111785889,57.3117218018 L408.178955078,57.4887046814 L408.545715332,57.8003005981 L409.31048584,58.1226043701 L410.508636475,58.3171615601 L412.109100342,58.2866592407 L413.991394043,57.996006012 L415.954559326,57.5055809021 L417.757843018,56.9452285767 L419.207397461,56.4297332764 L420.178741455,56.0561752319 L420.642486572,55.9109191895 L420.65411377,56.0859451294 L420.268554688,56.7142677307 L419.52746582,57.9357719421 L418.477600098,59.7746162415 L417.199127197,62.1773223877 L415.787597656,64.9927368164 L414.362365723,68.0070037842 L413.015350342,70.9997787476 L411.819824219,73.7253265381 L410.845947266,75.9524612427 L410.142425537,77.5608673096 L409.720031738,78.5076675415 L409.569580078,78.8042449951 L409.663513184,78.4813995361 L409.999237061,77.4980010986 L410.618438721,75.8533325195 L411.543029785,73.6744155884 L412.765167236,71.1566314697 L414.251403809,68.5233078003 L415.945037842,65.9833984375 L417.800628662,63.6620979309 L419.789306641,61.6512641907 L421.851470947,60.053981781 L423.892486572,58.9438362122 L425.803253174,58.3577957153 L427.473144531,58.2967796326 L428.808959961,58.7207107544 L429.736175537,59.5571060181 L430.188781738,60.7119064331 L430.112670898,62.0628318787 L429.49899292,63.4693183899 L428.400512695,64.7824478149 L426.936279297,65.8690414429 L425.265777588,66.625 L423.567626953,66.990852356 L422.005432129,66.9549255371 L420.72052002,66.5567626953 L419.816589355,65.8701477051 L419.359924316,64.9964599609 L419.369384766,64.0340042114 L419.836791992,63.0792655945 L420.721160889,62.2126312256 L421.960998535,61.4886474609 L423.479736328,60.9346618652 L425.196105957,60.5528945923 L427.028564453,60.3207244873 L428.901977539,60.2132415771 L430.740600586,60.2083702087 L432.462432861,60.283164978 L433.996459961,60.4265060425 L435.277770996,60.6253852844 L436.261535645,60.8739738464 L436.920593262,61.1747207642 L437.248474121,61.5521011353 L437.250091553,62.0401802063 L436.96661377,62.6832847595 L436.45526123,63.4902915955 L435.799682617,64.4246902466 L435.109619141,65.3798065186 L434.499603271,66.233833313 L434.044250488,66.8922958374 L433.782226562,67.3039855957 L433.704833984,67.4303970337 L433.783813477,67.2327880859 L434.024353027,66.650352478 L434.45892334,65.6654205322 L435.099761963,64.3561706543 L435.944885254,62.8599967957 L436.958740234,61.329498291 L438.087585449,59.8945617676 L439.297241211,58.64453125 L440.563659668,57.6393203735 L441.856658936,56.9269180298 L443.15838623,56.5191459656 L444.451538086,56.3903846741 L445.731292725,56.4830360413 L447.002929688,56.7221984863 L448.26574707,57.0223960876 L449.51675415,57.3063621521 L450.72946167,57.5196266174 L451.84161377,57.6384811401 L452.764892578,57.6690444946 L453.419006348,57.6357765198 L453.777099609,57.5641479492 L453.876708984,57.4715576172 L453.768127441,57.3805656433 L453.471435547,57.3340988159 L452.943939209,57.3962059021 L452.136169434,57.6538696289 L451.050689697,58.1850967407 L449.749633789,59.0256118774 L448.358001709,60.1613998413 L447.038757324,61.5225868225 L445.951721191,62.9833030701 L445.2449646,64.3982849121 L445.029785156,65.6198806763 L445.353027344,66.5229263306 L446.197265625,67.0159835815 L447.489746094,67.0500030518 L449.108581543,66.6127624512 L450.891357422,65.7467193604 L452.657592773,64.5400695801 L454.232513428,63.1197433472 L455.464935303,61.6156463623 L456.273620605,60.1670913696 L456.649780273,58.8915863037 L456.675048828,57.8867683411 L456.481140137,57.1994438171 L456.21484375,56.8301010132 L456.001220703,56.7327575684 L455.946044922,56.8500518799 L456.135620117,57.1084594727 L456.682678223,57.4286193848 L457.664001465,57.7027359009 L459.106445312,57.8285751343 L460.958221436,57.742855072 L463.095397949,57.4408149719 L465.324310303,56.9857177734 L467.414916992,56.4903068542 L469.135803223,56.0571327209 L470.338226318,55.7469940186 L470.974029541,55.5748329163 L471.103637695,55.5298271179 L470.80166626,55.6248817444 L470.089263916,55.9156188965 L468.969970703,56.4698410034 L467.499816895,57.3167495728 L465.802246094,58.4302062988 L464.075531006,59.7445831299 L462.523895264,61.1665916443 L461.310974121,62.6002883911 L460.555114746,63.9582824707 L460.341461182,65.1481170654 L460.722045898,66.0798416138 L461.709625244,66.6728363037 L463.275939941,66.8603363037 L465.340515137,66.6140365601 L467.766082764,65.9583816528 L470.374450684,64.9560852051 L472.971252441,63.6910362244 L475.363769531,62.2501983643 L477.389709473,60.7343711853 L478.92300415,59.2574386597 L479.903381348,57.9279212952 L480.333465576,56.8337860107 L480.261291504,56.0390739441 L479.751708984,55.6016273499 L478.861999512,55.5872421265 L477.649291992,56.0595741272 L476.221099854,57.0230102539 L474.742523193,58.3970298767 L473.421356201,60.0226821899 L472.466278076,61.7138938904 L472.028411865,63.292011261 L472.188842773,64.6172409058 L472.966400146,65.5749282837 L474.333190918,66.0797119141 L476.221710205,66.0791625977 L478.524780273,65.5808944702 L481.088317871,64.6523666382 L483.739562988,63.4074363708 L486.31237793,61.9815864563 L488.679718018,60.5112915039 L490.763153076,59.1207389832 L492.510375977,57.9213066101 L493.888092041,56.9937171936 L494.902648926,56.3949890137 L495.59954834,56.1630706787 L496.054138184,56.3160438538 L496.353820801,56.861618042 L496.541503906,57.7797012329 L496.615478516,58.9916305542 L496.560180664,60.3901443481 L496.356079102,61.8520240784 L495.988952637,63.2532463074 L495.460083008,64.4973449707 L494.77734375,65.510055542 L493.973999023,66.2378540039 L493.1171875,66.6683120728 L492.289550781,66.8240356445 L491.584899902,66.774559021 L491.054443359,66.6138076782 L490.721984863,66.4239883423 L490.608917236,66.257484436 L490.754119873,66.1201782227 L491.218841553,65.9694595337 L492.098876953,65.7614440918 L493.427856445,65.4420852661 L495.185577393,64.9645004272 L497.295288086,64.2977142334 L499.645996094,63.4242782593 L502.113342285,62.3426589966 L504.594604492,61.0870323181 L506.976013184,59.7120742798 L509.163848877,58.3081741333 L511.062438965,56.9941825867 L512.591308594,55.8871612549 L513.706115723,55.0648422241 L514.41809082,54.5621376038 L514.79083252,54.3813896179 L514.946716309,54.522605896 L514.994506836,55.0088005066 L515.005371094,55.8517684937 L515.010498047,57.0086517334 L515.002197266,58.3896217346 L514.948425293,59.8852500916 L514.809570312,61.3888702393 L514.531738281,62.8234405518 L514.05871582,64.1225967407 L513.354309082,65.215927124 L512.422973633,66.0397491455 L511.306762695,66.5520782471 L510.08581543,66.7471237183 L508.852172852,66.6596984863 L507.701721191,66.3120117188 L506.725036621,65.7604370117 L505.991241455,65.0789108276 L505.539031982,64.472076416 L505.332214355,64.0660171509 M530.06048584,65.0077819824 L530.640014648,64.8045120239 L531.691223145,64.3971405029 L533.154907227,63.7582359314 L534.803344727,62.9135742188 L536.495849609,61.8827056885 L538.107910156,60.7169342041 L539.544616699,59.4834861755 L540.714233398,58.2759628296 L541.535766602,57.1838951111 L541.963012695,56.256778717 L541.996948242,55.5242042542 L541.655151367,55.0110397339 L540.958496094,54.7658081055 L539.92755127,54.8773803711 L538.608886719,55.4324760437 L537.096191406,56.4520950317 L535.543762207,57.8828353882 L534.127929688,59.5927886963 L533.026977539,61.4115753174 L532.374938965,63.1712532043 L532.264038086,64.7292404175 L532.726989746,65.9642868042 L533.756103516,66.7791442871 L535.30645752,67.0957183838 L537.312744141,66.8775024414 L539.675109863,66.1419448853 L542.264953613,64.9724349976 L544.927001953,63.4949531555 L547.510192871,61.8474769592 L549.896484375,60.1574821472 L551.996337891,58.5567131042 L553.72845459,57.1654624939 L555.031311035,56.0782051086 L555.88861084,55.3467254639 L556.342041016,54.9855613708 L556.483337402,54.9874649048 L556.381225586,55.3607292175 L556.038879395,56.1107330322 L555.414550781,57.19947052 L554.466918945,58.539024353 L553.200439453,60.0125541687 L551.676147461,61.4907455444 L549.994995117,62.8607635498 L548.272094727,64.0336380005 L546.637939453,64.9206619263 L545.230773926,65.4881820679 L544.164916992,65.7520751953 L543.491271973,65.7675476074 L543.210144043,65.6062850952 L543.280944824,65.3320007324 L543.684082031,64.9635009766 L544.44732666,64.5418014526 L545.600585938,64.087272644 L547.13470459,63.6114616394 L549.004699707,63.1111488342 L551.117797852,62.5654067993 L553.364318848,61.9349060059 L555.623168945,61.2065124512 L557.758850098,60.381526947 L559.623535156,59.4904785156 L561.098266602,58.5903282166 L562.107910156,57.740447998 L562.643005371,56.980266571 L562.739990234,56.3291549683 L562.470336914,55.811504364 L561.890930176,55.4736595154 L561.048034668,55.4026565552 L559.979614258,55.6858291626 L558.744873047,56.3622741699 L557.440551758,57.4047203064 L556.194580078,58.7241821289 L555.135192871,60.1945343018 L554.379455566,61.6954536438 L554.005249023,63.1177368164 L554.056762695,64.3631591797 L554.565490723,65.3514709473 L555.537353516,66.005065918 L556.960571289,66.2634887695 L558.798828125,66.1013641357 L560.977294922,65.5362548828 L563.389587402,64.6358795166 L565.91607666,63.5106086731 L568.43347168,62.2798690796 L570.830871582,61.063129425 L573.020751953,59.9729385376 L574.917602539,59.0932579041 L576.440979004,58.4711685181 L577.535827637,58.1077003479 L578.203125,57.9530105591 L578.51184082,57.9344520569 L578.596740723,57.9835548401 L578.577331543,58.0416755676 L578.521606445,58.0699157715 L578.432067871,58.0488967896 L578.273071289,57.9719161987 L577.998962402,57.8625869751 L577.569702148,57.7668571472 L576.938842773,57.7543182373 L576.069763184,57.9113082886 L574.945739746,58.3245773315 L573.601501465,59.0465049744 L572.136047363,60.0849838257 L570.695617676,61.3718338013 L569.450683594,62.778213501 L568.558654785,64.1429824829 L568.124633789,65.3119659424 L568.195739746,66.154510498 L568.769104004,66.5811080933 L569.812133789,66.5377044678 L571.266845703,66.0111541748 L573.044799805,65.0430526733 L575.015625,63.7349243164 L577.014648438,62.2273635864 L578.864013672,60.6837043762 L580.406616211,59.2791595459 L581.536743164,58.1486244202 L582.242492676,57.3565330505 L582.568237305,56.9187965393 L582.586975098,56.8298034668 L582.359191895,57.1005477905 L581.909912109,57.782913208 L581.268188477,58.8838996887 L580.539794922,60.2986526489 L579.864562988,61.8410263062 L579.404296875,63.2969551086 L579.28918457,64.482749939 L579.587646484,65.2856521606 L580.320556641,65.6391677856 L581.491271973,65.5075683594 L583.06640625,64.8969650269 L584.967773438,63.8792800903 L587.07409668,62.5843162537 L589.240600586,61.1732254028 L591.324890137,59.8154792786 L593.187927246,58.6561164856 L594.72479248,57.7873306274 L595.851135254,57.261806488 L596.529907227,57.1136322021 L596.767150879,57.3675270081 L596.604187012,58.0462684631 L596.079284668,59.1339492798 L595.263061523,60.5376243591 L594.272888184,62.075252533 L593.277954102,63.5279273987 L592.442382812,64.7124176025 L591.871459961,65.524307251 L591.595336914,65.9255371094 L591.599975586,65.9113540649 L591.903198242,65.4694747925 L592.56640625,64.5981903076 L593.630859375,63.3653297424 L595.069885254,61.9124145508 L596.800354004,60.4150314331 L598.682739258,59.0403518677 L600.585754395,57.9163131714 L602.402404785,57.1223487854 L604.029968262,56.7036628723 L605.376708984,56.678188324 L606.380432129,57.0341300964 L606.989501953,57.7347640991 L607.184204102,58.7344779968 L606.978149414,59.9623336792 L606.432739258,61.3085327148 L605.674499512,62.6258583069 L604.878295898,63.7686042786 L604.19909668,64.6243591309 L603.750061035,65.1273269653 L603.582946777,65.2398071289 L603.721496582,64.947845459 L604.205322266,64.2436752319 L605.081604004,63.1763076782 L606.352661133,61.8642082214 L607.971801758,60.4591293335 L609.830200195,59.1066398621 L611.787841797,57.9352149963 L613.71307373,57.0320854187 L615.480285645,56.4476966858 L616.98223877,56.20860672 L618.143920898,56.3114852905 L618.919067383,56.7311172485 L619.297912598,57.4397964478 L619.312133789,58.4072341919 L619.013916016,59.5603713989 L618.505187988,60.8002243042 L617.921813965,62.011756897 L617.400268555,63.0858459473 L617.043334961,63.9461669922 L616.896057129,64.5752029419 L616.946716309,64.984703064 L617.176452637,65.1981124878 L617.596374512,65.2214355469 L618.248535156,65.0358276367 L619.180969238,64.6120147705 L620.403259277,63.950012207 L621.886108398,63.0869903564 L623.562561035,62.0826683044 L625.356628418,61.0027885437 L627.190124512,59.9151992798 L628.976989746,58.8947982788 L630.598022461,58.0223884583 L631.943847656,57.3677635193 L632.93182373,56.9823684692 L633.52935791,56.9079933167 L633.748352051,57.18567276 L633.623168945,57.8730697632 L633.16192627,59.0165519714 L632.379638672,60.6128425598 L631.311035156,62.6119003296 L630.018920898,64.9244766235 L628.58581543,67.4261932373 L627.099914551,69.9949188232 L625.633361816,72.4736404419 L624.275390625,74.6674575806 L623.124389648,76.4113464355 L622.271484375,77.5829315186 L621.774475098,78.1103820801 L621.645690918,77.9967803955 L621.869995117,77.2535247803 L622.445983887,75.9002532959 L623.373779297,74.0354690552 L624.649353027,71.8017730713 L626.247375488,69.3590393066 L628.119995117,66.8724822998 L630.211853027,64.4736633301 L632.468505859,62.2573127747 L634.826904297,60.3233146667 L637.211975098,58.7578010559 L639.533081055,57.6177368164 L641.695251465,56.9310188293 L643.606384277,56.6930236816 L645.188476562,56.8639297485 L646.374755859,57.3868980408 L647.113342285,58.1995544434 L647.363952637,59.2247505188 L647.11517334,60.3755760193 L646.387634277,61.5509605408 L645.25378418,62.6415290833 L643.82421875,63.5478630066 L642.243530273,64.2035293579 L640.657226562,64.572013855 L639.204772949,64.6633758545 L637.986450195,64.522605896 L637.07043457,64.2357711792 L636.468017578,63.9014282227 L636.142456055,63.6108779907 L636.038330078,63.4272155762 L636.125915527,63.3899650574 L636.411193848,63.4970054626 L636.965209961,63.7317657471 L637.868041992,64.0217132568 L639.178955078,64.2480010986 L640.940307617,64.2726516724 L643.161315918,63.9796600342 L645.803833008,63.290222168 L648.79284668,62.1931114197 L652.003540039,60.7123222351 L655.264343262,58.9037055969 L658.398925781,56.8468437195 L661.241271973,54.6463470459 L663.649963379,52.4238739014 L665.525756836,50.3217887878 L666.825073242,48.4714698792 L667.539001465,46.981174469 L667.689147949,45.934803009 L667.306762695,45.4038772583 L666.426574707,45.4582138062 L665.102661133,46.1679382324 L663.433044434,47.5431365967 L661.566589355,49.5098304749 L659.691223145,51.907749176 L658.005187988,54.5225982666 L656.692749023,57.1294364929 L655.893981934,59.5354156494 L655.6953125,61.5825538635 L656.130310059,63.1633300781 L657.180236816,64.2080001831 L658.78314209,64.6910095215 L660.83215332,64.6192474365 L663.161376953,64.041519165 L665.562744141,63.0517044067 L667.811584473,61.7850723267 L669.702026367,60.3914794922 L671.095458984,59.0180931091 L671.924316406,57.7777252197 L672.179626465,56.7644042969 L671.886108398,56.0621490479 L671.084228516,55.753288269 L669.840515137,55.9156036377 L668.2890625,56.5795440674 L666.641906738,57.6900482178 L665.170043945,59.1194610596 L664.144958496,60.6936683655 L663.788757324,62.2386703491 L664.242980957,63.6148605347 L665.53717041,64.7163619995 L667.719421387,65.4292144775 L670.837585449,65.6630706787 L673.855529785,65.5792541504 L676.073120117,65.3688583374 " fill="none" stroke="black" stroke-linecap="round" stroke-width="1.5" /></svg>