<?xml version="1.0" encoding="UTF-8"?>
<svg width="700pt" height="700pt" version="1.1" viewBox="0 0 700 700" xmlns="http://www.w3.org/2000/svg" xmlns:xlink="http://www.w3.org/1999/xlink">
 <defs>
  <symbol id="s" overflow="visible">
   <path d="m4.3594-0.26562c-0.21875 0.125-0.45312 0.21484-0.70312 0.26562-0.24219 0.0625-0.49609 0.09375-0.76562 0.09375-0.78125 0-1.4062-0.21875-1.875-0.65625-0.46094-0.44531-0.6875-1.0508-0.6875-1.8125 0-0.75781 0.22656-1.3594 0.6875-1.7969 0.46875-0.4375 1.0938-0.65625 1.875-0.65625 0.26953 0 0.52344 0.03125 0.76562 0.09375 0.25 0.054687 0.48438 0.13672 0.70312 0.25v0.98438c-0.21875-0.15625-0.44531-0.26953-0.67188-0.34375-0.21875-0.070312-0.44922-0.10938-0.6875-0.10938-0.4375 0-0.78125 0.14062-1.0312 0.42188s-0.375 0.66797-0.375 1.1562c0 0.49219 0.125 0.875 0.375 1.1562s0.59375 0.42188 1.0312 0.42188c0.23828 0 0.46875-0.035156 0.6875-0.10938 0.22656-0.070312 0.45312-0.1875 0.67188-0.34375z"/>
  </symbol>
  <symbol id="b" overflow="visible">
   <path d="m3.1875-2.5938c-0.09375-0.039062-0.19531-0.070312-0.29688-0.09375-0.09375-0.03125-0.19531-0.046875-0.29688-0.046875-0.29297 0-0.51562 0.09375-0.67188 0.28125s-0.23438 0.46094-0.23438 0.8125v1.6406h-1.1406v-3.5625h1.1406v0.57812c0.14453-0.22656 0.3125-0.39453 0.5-0.5 0.1875-0.11328 0.41406-0.17188 0.6875-0.17188 0.039062 0 0.082031 0.007812 0.125 0.015625 0.039062 0 0.10156 0.007813 0.1875 0.015625z"/>
  </symbol>
  <symbol id="a" overflow="visible">
   <path d="m4.1094-1.7969v0.32812h-2.6719c0.03125 0.27344 0.12891 0.47656 0.29688 0.60938 0.16406 0.125 0.39453 0.1875 0.6875 0.1875 0.23828 0 0.48438-0.03125 0.73438-0.09375 0.25-0.070313 0.50781-0.17969 0.78125-0.32812v0.875c-0.27344 0.10547-0.54297 0.18359-0.8125 0.23438-0.27344 0.050781-0.54297 0.078125-0.8125 0.078125-0.63672 0-1.1367-0.16016-1.5-0.48438-0.35547-0.33203-0.53125-0.79688-0.53125-1.3906 0-0.58203 0.17188-1.0391 0.51562-1.375 0.35156-0.33203 0.83594-0.5 1.4531-0.5 0.5625 0 1.0078 0.17188 1.3438 0.51562 0.34375 0.33594 0.51562 0.78125 0.51562 1.3438zm-1.1719-0.375c0-0.21875-0.0625-0.39062-0.1875-0.51562-0.125-0.13281-0.29297-0.20312-0.5-0.20312-0.21875 0-0.40234 0.0625-0.54688 0.1875-0.13672 0.125-0.21875 0.30469-0.25 0.53125z"/>
  </symbol>
  <symbol id="i" overflow="visible">
   <path d="m2.1406-1.6094c-0.24219 0-0.42188 0.042969-0.54688 0.125-0.11719 0.085937-0.17188 0.20312-0.17188 0.35938 0 0.14844 0.046875 0.26172 0.14062 0.34375 0.10156 0.074219 0.23828 0.10938 0.40625 0.10938 0.21875 0 0.39844-0.070313 0.54688-0.21875 0.14453-0.15625 0.21875-0.34766 0.21875-0.57812v-0.14062zm1.75-0.42188v2.0312h-1.1562v-0.53125c-0.15625 0.21875-0.32812 0.38281-0.51562 0.48438-0.1875 0.09375-0.41797 0.14062-0.6875 0.14062-0.375 0-0.67969-0.10156-0.90625-0.3125-0.23047-0.21875-0.34375-0.5-0.34375-0.84375 0-0.42578 0.14062-0.73438 0.42188-0.92188 0.28906-0.19531 0.74219-0.29688 1.3594-0.29688h0.67188v-0.09375c0-0.17578-0.074219-0.30469-0.21875-0.39062-0.13672-0.082031-0.35547-0.125-0.65625-0.125-0.25 0-0.48047 0.027344-0.6875 0.078125-0.21094 0.042969-0.40234 0.11719-0.57812 0.21875v-0.875c0.23828-0.0625 0.48438-0.10938 0.73438-0.14062s0.49219-0.046875 0.73438-0.046875c0.64453 0 1.1094 0.13281 1.3906 0.39062 0.28906 0.25 0.4375 0.66406 0.4375 1.2344z"/>
  </symbol>
  <symbol id="c" overflow="visible">
   <path d="m1.7969-4.5781v1.0156h1.1719v0.8125h-1.1719v1.5156c0 0.16797 0.03125 0.28125 0.09375 0.34375 0.0625 0.054687 0.19141 0.078125 0.39062 0.078125h0.57812v0.8125h-0.96875c-0.44922 0-0.76562-0.09375-0.95312-0.28125s-0.28125-0.50391-0.28125-0.95312v-1.5156h-0.57812v-0.8125h0.57812v-1.0156z"/>
  </symbol>
  <symbol id="h" overflow="visible">
   <path d="m2.9688-3.0469v-1.9062h1.1406v4.9531h-1.1406v-0.51562c-0.15625 0.21094-0.32812 0.36719-0.51562 0.46875-0.1875 0.09375-0.40625 0.14062-0.65625 0.14062-0.4375 0-0.79688-0.17188-1.0781-0.51562-0.28125-0.35156-0.42188-0.80469-0.42188-1.3594 0-0.55078 0.14062-1 0.42188-1.3438 0.28125-0.35156 0.64062-0.53125 1.0781-0.53125 0.25 0 0.46875 0.054688 0.65625 0.15625 0.1875 0.09375 0.35938 0.24609 0.51562 0.45312zm-0.75 2.3125c0.25 0 0.4375-0.085937 0.5625-0.26562 0.125-0.17578 0.1875-0.4375 0.1875-0.78125 0-0.33203-0.0625-0.58594-0.1875-0.76562-0.125-0.1875-0.3125-0.28125-0.5625-0.28125-0.24219 0-0.42969 0.09375-0.5625 0.28125-0.125 0.17969-0.1875 0.43359-0.1875 0.76562 0 0.34375 0.0625 0.60547 0.1875 0.78125 0.13281 0.17969 0.32031 0.26562 0.5625 0.26562z"/>
  </symbol>
  <symbol id="g" overflow="visible">
   <path d="m2.4375-0.73438c0.25 0 0.4375-0.085937 0.5625-0.26562 0.125-0.17578 0.1875-0.4375 0.1875-0.78125 0-0.33203-0.0625-0.58594-0.1875-0.76562-0.125-0.1875-0.3125-0.28125-0.5625-0.28125-0.24219 0-0.42969 0.09375-0.5625 0.28125-0.125 0.17969-0.1875 0.43359-0.1875 0.76562 0 0.34375 0.0625 0.60547 0.1875 0.78125 0.13281 0.17969 0.32031 0.26562 0.5625 0.26562zm-0.75-2.3125c0.15625-0.20703 0.32812-0.35938 0.51562-0.45312 0.19531-0.10156 0.41406-0.15625 0.65625-0.15625 0.44531 0 0.8125 0.17969 1.0938 0.53125 0.28125 0.34375 0.42188 0.79297 0.42188 1.3438 0 0.55469-0.14062 1.0078-0.42188 1.3594-0.28125 0.34375-0.64844 0.51562-1.0938 0.51562-0.24219 0-0.46094-0.046875-0.65625-0.14062-0.1875-0.10156-0.35938-0.25781-0.51562-0.46875v0.51562h-1.1406v-4.9531h1.1406z"/>
  </symbol>
  <symbol id="f" overflow="visible">
   <path d="m0.078125-3.5625h1.1406l0.95312 2.4219 0.8125-2.4219h1.1406l-1.5 3.9062c-0.14844 0.39453-0.32422 0.67188-0.53125 0.82812-0.19922 0.15625-0.46094 0.23438-0.78125 0.23438h-0.65625v-0.75h0.35938c0.1875 0 0.32031-0.03125 0.40625-0.09375 0.09375-0.0625 0.16406-0.17188 0.21875-0.32812l0.03125-0.09375z"/>
  </symbol>
  <symbol id="e" overflow="visible">
   <path d="m0.54688-3.5625h1.1406v3.5625h-1.1406zm0-1.3906h1.1406v0.9375h-1.1406z"/>
  </symbol>
  <symbol id="k" overflow="visible">
   <path d="m4.125-2.1719v2.1719h-1.1406v-1.6562c0-0.3125-0.011719-0.52344-0.03125-0.64062-0.011719-0.11328-0.03125-0.20312-0.0625-0.26562-0.042969-0.070312-0.10547-0.12891-0.1875-0.17188-0.074219-0.039063-0.15625-0.0625-0.25-0.0625-0.24219 0-0.42969 0.09375-0.5625 0.28125-0.13672 0.1875-0.20312 0.44531-0.20312 0.76562v1.75h-1.1406v-3.5625h1.1406v0.51562c0.16406-0.20703 0.34375-0.35938 0.53125-0.45312 0.19531-0.10156 0.41406-0.15625 0.65625-0.15625 0.40625 0 0.71094 0.13281 0.92188 0.39062 0.21875 0.25 0.32812 0.61719 0.32812 1.0938z"/>
  </symbol>
  <symbol id="j" overflow="visible">
   <path d="m2.8906-4.9531v0.75h-0.625c-0.16797 0-0.28125 0.03125-0.34375 0.09375-0.0625 0.054687-0.09375 0.15234-0.09375 0.29688v0.25h0.96875v0.8125h-0.96875v2.75h-1.1406v-2.75h-0.5625v-0.8125h0.5625v-0.25c0-0.38281 0.10938-0.67188 0.32812-0.85938s0.55078-0.28125 1-0.28125z"/>
  </symbol>
  <symbol id="d" overflow="visible">
   <path d="m2.25-2.8281c-0.26172 0-0.46094 0.089844-0.59375 0.26562-0.125 0.17969-0.1875 0.4375-0.1875 0.78125s0.0625 0.60938 0.1875 0.79688c0.13281 0.17969 0.33203 0.26562 0.59375 0.26562 0.23828 0 0.42578-0.085938 0.5625-0.26562 0.13281-0.1875 0.20312-0.45312 0.20312-0.79688s-0.070313-0.60156-0.20312-0.78125c-0.13672-0.17578-0.32422-0.26562-0.5625-0.26562zm0-0.82812c0.60156 0 1.0781 0.16797 1.4219 0.5 0.35156 0.33594 0.53125 0.79297 0.53125 1.375 0 0.58594-0.17969 1.043-0.53125 1.375-0.34375 0.33594-0.82031 0.5-1.4219 0.5-0.625 0-1.1094-0.16406-1.4531-0.5-0.34375-0.33203-0.51562-0.78906-0.51562-1.375 0-0.58203 0.17188-1.0391 0.51562-1.375 0.34375-0.33203 0.82812-0.5 1.4531-0.5z"/>
  </symbol>
  <symbol id="r" overflow="visible">
   <path d="m3.8438-2.9688c0.14453-0.21875 0.31641-0.38281 0.51562-0.5 0.19531-0.125 0.41406-0.1875 0.65625-0.1875 0.40625 0 0.71875 0.13281 0.9375 0.39062 0.21875 0.25 0.32812 0.61719 0.32812 1.0938v2.1719h-1.1562v-1.8594-0.078125c0.007812-0.03125 0.015625-0.078125 0.015625-0.14062 0-0.25-0.042969-0.42969-0.125-0.54688-0.074219-0.11328-0.19531-0.17188-0.35938-0.17188-0.21094 0-0.375 0.09375-0.5 0.28125-0.11719 0.17969-0.17188 0.43359-0.17188 0.76562v1.75h-1.1562v-1.8594c0-0.39453-0.039063-0.64844-0.10938-0.76562-0.0625-0.11328-0.17969-0.17188-0.34375-0.17188-0.21875 0-0.39062 0.09375-0.51562 0.28125-0.11719 0.17969-0.17188 0.43359-0.17188 0.76562v1.75h-1.1406v-3.5625h1.1406v0.51562c0.13281-0.19531 0.28906-0.34766 0.46875-0.45312 0.1875-0.10156 0.39062-0.15625 0.60938-0.15625 0.25 0 0.46875 0.0625 0.65625 0.1875 0.1875 0.11719 0.32812 0.28125 0.42188 0.5z"/>
  </symbol>
  <symbol id="q" overflow="visible">
   <path d="m4.125-2.1719v2.1719h-1.1406v-1.6562c0-0.3125-0.011719-0.52344-0.03125-0.64062-0.011719-0.11328-0.03125-0.20312-0.0625-0.26562-0.042969-0.070312-0.10547-0.12891-0.1875-0.17188-0.074219-0.039063-0.15625-0.0625-0.25-0.0625-0.24219 0-0.42969 0.09375-0.5625 0.28125-0.13672 0.1875-0.20312 0.44531-0.20312 0.76562v1.75h-1.1406v-4.9531h1.1406v1.9062c0.16406-0.20703 0.34375-0.35938 0.53125-0.45312 0.19531-0.10156 0.41406-0.15625 0.65625-0.15625 0.40625 0 0.71094 0.13281 0.92188 0.39062 0.21875 0.25 0.32812 0.61719 0.32812 1.0938z"/>
  </symbol>
  <symbol id="p" overflow="visible">
   <path d="m0.59375-4.75h1.375l1.7188 3.2656v-3.2656h1.1719v4.75h-1.375l-1.7188-3.2656v3.2656h-1.1719z"/>
  </symbol>
  <symbol id="o" overflow="visible">
   <path d="m0.51562-1.3906v-2.1719h1.1406v0.35938c0 0.1875-0.007812 0.42969-0.015625 0.71875v0.59375c0 0.28125 0.003906 0.48438 0.015625 0.60938 0.019531 0.125 0.050781 0.21875 0.09375 0.28125 0.039062 0.074219 0.097656 0.13281 0.17188 0.17188 0.082031 0.042969 0.17188 0.0625 0.26562 0.0625 0.23828 0 0.42578-0.085937 0.5625-0.26562 0.13281-0.1875 0.20312-0.44141 0.20312-0.76562v-1.7656h1.1406v3.5625h-1.1406v-0.51562c-0.17969 0.21094-0.35938 0.36719-0.54688 0.46875-0.1875 0.09375-0.40234 0.14062-0.64062 0.14062-0.40625 0-0.71875-0.125-0.9375-0.375-0.21094-0.25781-0.3125-0.62891-0.3125-1.1094z"/>
  </symbol>
  <symbol id="n" overflow="visible">
   <path d="m0.59375-4.75h2.0312c0.60156 0 1.0664 0.13672 1.3906 0.40625 0.33203 0.27344 0.5 0.65234 0.5 1.1406 0 0.5-0.16797 0.88672-0.5 1.1562-0.32422 0.27344-0.78906 0.40625-1.3906 0.40625h-0.79688v1.6406h-1.2344zm1.2344 0.89062v1.3281h0.67188c0.23828 0 0.42188-0.054688 0.54688-0.17188 0.13281-0.11328 0.20312-0.28125 0.20312-0.5 0-0.20703-0.070312-0.36719-0.20312-0.48438-0.125-0.11328-0.30859-0.17188-0.54688-0.17188z"/>
  </symbol>
  <symbol id="m" overflow="visible">
   <path d="m0.54688-3.5625h1.1406v3.5c0 0.47656-0.11719 0.84375-0.34375 1.0938-0.23047 0.25-0.5625 0.375-1 0.375h-0.5625v-0.75h0.20312c0.21875 0 0.36328-0.054688 0.4375-0.15625 0.082031-0.09375 0.125-0.28125 0.125-0.5625zm0-1.3906h1.1406v0.9375h-1.1406z"/>
  </symbol>
  <symbol id="l" overflow="visible">
   <path d="m3.4219-3.4531v0.9375c-0.15625-0.11328-0.3125-0.19141-0.46875-0.23438-0.15625-0.050781-0.32031-0.078125-0.48438-0.078125-0.3125 0-0.55859 0.09375-0.73438 0.28125-0.17969 0.17969-0.26562 0.43359-0.26562 0.76562 0 0.33594 0.085938 0.59375 0.26562 0.78125 0.17578 0.1875 0.42188 0.28125 0.73438 0.28125 0.1875 0 0.35938-0.023438 0.51562-0.078125 0.15625-0.050781 0.30078-0.12891 0.4375-0.23438v0.92188c-0.17969 0.074219-0.35938 0.125-0.54688 0.15625-0.17969 0.03125-0.35938 0.046875-0.54688 0.046875-0.63672 0-1.1367-0.16016-1.5-0.48438-0.36719-0.33203-0.54688-0.79688-0.54688-1.3906 0-0.58203 0.17969-1.0391 0.54688-1.375 0.36328-0.33203 0.86328-0.5 1.5-0.5 0.1875 0 0.36719 0.023438 0.54688 0.0625 0.1875 0.03125 0.36719 0.078125 0.54688 0.14062z"/>
  </symbol>
 </defs>
 <g>
  <path d="m500.01 483.43c-6 0-10.957 4.957-10.957 10.957s4.957 10.957 10.957 10.957 10.957-4.957 10.957-10.957-4.957-10.957-10.957-10.957z"/>
  <path d="m204.95 303.94c-6 0-10.957 4.957-10.957 10.957s4.957 10.957 10.957 10.957 10.957-4.957 10.957-10.957-4.957-10.957-10.957-10.957z"/>
  <path d="m488.93 313.98c6 0 10.957-4.957 10.957-10.957s-4.957-10.957-10.957-10.957-10.957 4.957-10.957 10.957c-0.003906 6 4.9531 10.957 10.957 10.957z"/>
  <path d="m181.2 479.52c-6 0-10.957 4.957-10.957 10.957s4.957 10.957 10.957 10.957 10.957-4.957 10.957-10.957-4.957-10.957-10.957-10.957z"/>
  <path d="m644.41 498.3c-2.7383-16.305-6.7812-33.914-11.871-52.438l-41.613 3.9141-7.6953 21.652c-0.52344 1.4336-1.5664 2.4766-3 2.8711-0.52344 0.12891-0.91406 0.26172-1.4336 0.26172-0.91406 0-1.957-0.26172-2.7383-0.78125l-31.699-22.176c-2.0859-1.4336-2.6094-4.4336-1.1758-6.5234 1.4336-2.0859 4.4336-2.6094 6.5234-1.1758l26.609 18.652 6.6523-18.652c0.65234-1.6953 2.2188-2.8711 4.043-3.1289l42.918-3.9141c-7.8281-26.742-17.742-54.918-29.352-83.223l-58.832 14.348-7.3047 35.09c-0.39062 2.0859-2.3477 3.6523-4.4336 3.7812l-58.57 1.5664h-0.12891c-2.4766 0-4.5664-1.957-4.6953-4.5664-0.12891-2.6094 1.957-4.6953 4.5664-4.8281l54.785-1.4336 7.1758-34.309c0.39062-1.8281 1.6953-3.1289 3.5234-3.6523l60.266-14.742c-11.871-28.305-25.438-56.484-39.918-83.223-42.523-78.398-84.789-127.18-110.36-127.18-19.438 0-30.262 32.48-30.262 91.312 0 18 0.26172 36.004 0.65234 53.223 0 1.6953-0.91406 3.3906-2.3477 4.1758-1.5664 0.78125-3.3906 0.78125-4.8281-0.12891l-24.523-16.18c-1.3047-0.91406-2.0859-2.3477-2.0859-3.9141l-0.003906-262.98h-59.09v262.98c0 1.5664-0.78125 3-2.0859 3.9141l-32.09 20.871c-1.4336 0.91406-3.3906 1.043-4.8281 0.12891-1.4336-0.91406-2.4766-2.4766-2.3477-4.1758 0.52344-18.133 0.78125-37.176 0.78125-58.18 0-58.832-10.695-91.312-30.262-91.312-25.566 0-67.832 48.656-110.36 127.18-14.609 26.871-28.176 55.309-40.047 83.613l58.832 14.348c1.6953 0.39062 3.1289 1.8281 3.5234 3.6523l7.1758 34.309 54.785 1.4336c2.6094 0.12891 4.6953 2.2188 4.5664 4.8281-0.12891 2.6094-2.2188 4.5664-4.6953 4.5664h-0.12891l-58.57-1.5664c-2.2188 0-4.043-1.5664-4.4336-3.7812l-7.3047-35.09-57.395-13.957c-11.609 28.305-21.523 56.484-29.352 83.094l41.219 3.7812c1.8281 0.12891 3.3906 1.4336 4.043 3.1289l6.6523 18.652 26.609-18.652c2.0859-1.4336 5.0859-0.91406 6.5234 1.1758 1.4336 2.0859 0.91406 5.0859-1.1758 6.5234l-31.699 22.176c-0.78125 0.52344-1.6953 0.78125-2.7383 0.78125-0.52344 0-0.91406-0.12891-1.4336-0.26172-1.4336-0.39062-2.4766-1.5664-3-2.8711l-7.5703-21.516-39.918-3.6523c-5.0859 18.395-9.1328 36.004-11.871 52.309-2.4766 15 0.26172 27.523 8.3477 37.047 13.305 15.785 41.613 24.523 79.57 24.523 58.438 0 113.1-20.09 115.18-32.219 6.1328-35.219 13.695-84.008 18.914-147.93 0.12891-1.6953 1.1758-3.1289 2.6094-3.7812 28.957-14.348 51.918-20.742 74.613-20.742 20.742 0 41.219 5.3477 64.57 16.828 1.4336 0.78125 2.4766 2.2188 2.6094 3.7812 5.2188 66.137 13.043 115.84 19.176 151.71 2.0859 12.133 56.742 32.219 115.18 32.219 37.961 0 66.266-8.7383 79.57-24.523 8.2227-9.5195 10.965-22.043 8.4844-37.043zm-155.49-215.5c11.219 0 20.348 9.1328 20.348 20.348 0 11.219-9.1328 20.348-20.348 20.348-11.219 0-20.348-9.1328-20.348-20.348-0.003906-11.348 9.1289-20.348 20.348-20.348zm-283.98 52.438c-11.219 0-20.348-9.1328-20.348-20.348 0-11.219 9.1328-20.348 20.348-20.348 11.219 0 20.348 9.1328 20.348 20.348 0 11.219-9.1289 20.348-20.348 20.348zm-23.742 175.45c-11.219 0-20.348-9.1328-20.348-20.348 0-11.219 9.1328-20.348 20.348-20.348 11.219 0 20.348 9.1328 20.348 20.348-0.12891 11.348-9.1289 20.348-20.348 20.348zm318.81 4.043c-11.219 0-20.348-9.1328-20.348-20.348 0-11.219 9.1328-20.348 20.348-20.348 11.219 0 20.348 9.1328 20.348 20.348 0 11.219-9.1289 20.348-20.348 20.348z"/>
  <use x="54.671875" y="579.566406" xlink:href="#s"/>
  <use x="59.460938" y="579.566406" xlink:href="#b"/>
  <use x="62.675781" y="579.566406" xlink:href="#a"/>
  <use x="67.097656" y="579.566406" xlink:href="#i"/>
  <use x="71.5" y="579.566406" xlink:href="#c"/>
  <use x="74.617188" y="579.566406" xlink:href="#a"/>
  <use x="79.042969" y="579.566406" xlink:href="#h"/>
  <use x="85.980469" y="579.566406" xlink:href="#g"/>
  <use x="90.648438" y="579.566406" xlink:href="#f"/>
  <use x="97.171875" y="579.566406" xlink:href="#e"/>
  <use x="99.40625" y="579.566406" xlink:href="#g"/>
  <use x="104.078125" y="579.566406" xlink:href="#b"/>
  <use x="107.292969" y="579.566406" xlink:href="#i"/>
  <use x="111.695312" y="579.566406" xlink:href="#k"/>
  <use x="116.335938" y="579.566406" xlink:href="#h"/>
  <use x="121.007813" y="579.566406" xlink:href="#e"/>
  <use x="123.242188" y="579.566406" xlink:href="#j"/>
  <use x="126.078125" y="579.566406" xlink:href="#f"/>
  <use x="54.671875" y="586.089844" xlink:href="#j"/>
  <use x="57.511719" y="586.089844" xlink:href="#b"/>
  <use x="60.726563" y="586.089844" xlink:href="#d"/>
  <use x="65.207031" y="586.089844" xlink:href="#r"/>
  <use x="74.273438" y="586.089844" xlink:href="#c"/>
  <use x="77.390625" y="586.089844" xlink:href="#q"/>
  <use x="82.035156" y="586.089844" xlink:href="#a"/>
  <use x="88.730469" y="586.089844" xlink:href="#p"/>
  <use x="94.1875" y="586.089844" xlink:href="#d"/>
  <use x="98.667969" y="586.089844" xlink:href="#o"/>
  <use x="103.3125" y="586.089844" xlink:href="#k"/>
  <use x="110.226563" y="586.089844" xlink:href="#n"/>
  <use x="115.007812" y="586.089844" xlink:href="#b"/>
  <use x="118.222656" y="586.089844" xlink:href="#d"/>
  <use x="122.703125" y="586.089844" xlink:href="#m"/>
  <use x="124.941406" y="586.089844" xlink:href="#a"/>
  <use x="129.363281" y="586.089844" xlink:href="#l"/>
  <use x="133.230469" y="586.089844" xlink:href="#c"/>
 </g>
</svg>
