<?xml version="1.0" encoding="UTF-8"?>
<svg width="700pt" height="700pt" version="1.1" viewBox="0 0 700 700" xmlns="http://www.w3.org/2000/svg" xmlns:xlink="http://www.w3.org/1999/xlink">
 <defs>
  <symbol id="t" overflow="visible">
   <path d="m0.29688-0.015625c-0.023437 0.011719-0.042969 0.015625-0.0625 0.015625h-0.046875c-0.054688 0-0.09375-0.0078125-0.125-0.03125-0.03125-0.03125-0.046875-0.070312-0.046875-0.125 0-0.050781 0.015625-0.09375 0.046875-0.125s0.070312-0.046875 0.125-0.046875c0.019531 0 0.035156 0.007813 0.046875 0.015625 0.019531 0 0.039063 0.007812 0.0625 0.015625v0.0625c-0.023437-0.007813-0.042969-0.015625-0.0625-0.015625-0.011719-0.007812-0.023437-0.015625-0.03125-0.015625-0.03125 0-0.058594 0.011719-0.078125 0.03125-0.011719 0.011719-0.015625 0.039063-0.015625 0.078125 0 0.03125 0.003906 0.058594 0.015625 0.078125 0.019531 0.023438 0.046875 0.03125 0.078125 0.03125h0.03125c0.019531-0.0078125 0.039063-0.019531 0.0625-0.03125z"/>
  </symbol>
  <symbol id="d" overflow="visible">
   <path d="m0.21875-0.17188h-0.03125c0-0.007813-0.007812-0.015625-0.015625-0.015625-0.023437 0-0.039063 0.011719-0.046875 0.03125-0.011719 0.011719-0.015625 0.027344-0.015625 0.046875v0.10938h-0.078125v-0.23438h0.078125v0.03125l0.03125-0.03125c0.007813-0.007813 0.023437-0.015625 0.046875-0.015625h0.015625 0.015625z"/>
  </symbol>
  <symbol id="a" overflow="visible">
   <path d="m0.26562-0.125v0.03125h-0.17188c0.007812 0.023438 0.015625 0.039062 0.015625 0.046875h0.046875 0.046875c0.019531-0.0078125 0.039063-0.019531 0.0625-0.03125v0.0625c-0.023437 0.011719-0.042969 0.015625-0.0625 0.015625h-0.046875c-0.042969 0-0.078125-0.0078125-0.10938-0.03125-0.023438-0.019531-0.03125-0.046875-0.03125-0.078125 0-0.039063 0.0078125-0.070313 0.03125-0.09375 0.03125-0.03125 0.066406-0.046875 0.10938-0.046875 0.03125 0 0.054688 0.015625 0.078125 0.046875 0.019531 0.023437 0.03125 0.046875 0.03125 0.078125zm-0.0625-0.015625c0-0.019531-0.007813-0.03125-0.015625-0.03125-0.011719-0.007813-0.023438-0.015625-0.03125-0.015625-0.023438 0-0.039062 0.007812-0.046875 0.015625 0 0-0.007813 0.011719-0.015625 0.03125z"/>
  </symbol>
  <symbol id="c" overflow="visible">
   <path d="m0.14062-0.10938c-0.011719 0-0.023437 0.007813-0.03125 0.015625-0.011719 0-0.015625 0.0078125-0.015625 0.015625v0.03125h0.03125c0.019531 0 0.035156-0.0039062 0.046875-0.015625 0.007813-0.0078125 0.015625-0.019531 0.015625-0.03125v-0.015625zm0.125-0.03125v0.14062h-0.078125v-0.03125c-0.011719 0.011719-0.027344 0.023438-0.046875 0.03125h-0.03125c-0.03125 0-0.058594-0.0039062-0.078125-0.015625-0.011719-0.0078125-0.015625-0.03125-0.015625-0.0625 0-0.019531 0.0078125-0.035156 0.03125-0.046875 0.019531-0.019531 0.050781-0.03125 0.09375-0.03125h0.046875c0-0.007812-0.007812-0.015625-0.015625-0.015625-0.011719-0.007813-0.027344-0.015625-0.046875-0.015625h-0.046875c-0.023438 0-0.03125 0.007812-0.03125 0.015625v-0.0625h0.03125c0.019531-0.007813 0.039063-0.015625 0.0625-0.015625 0.039063 0 0.070313 0.011719 0.09375 0.03125 0.019531 0.023438 0.03125 0.046875 0.03125 0.078125z"/>
  </symbol>
  <symbol id="b" overflow="visible">
   <path d="m0.125-0.3125v0.078125h0.078125v0.046875h-0.078125v0.10938 0.03125h0.03125 0.03125v0.046875h-0.0625c-0.03125 0-0.054688-0.0039062-0.0625-0.015625-0.011719-0.019531-0.015625-0.039062-0.015625-0.0625v-0.10938h-0.046875v-0.046875h0.046875v-0.078125z"/>
  </symbol>
  <symbol id="f" overflow="visible">
   <path d="m0.20312-0.20312v-0.125h0.0625v0.32812h-0.0625v-0.03125c-0.011719 0.011719-0.027344 0.023438-0.046875 0.03125h-0.03125c-0.03125 0-0.058594-0.0078125-0.078125-0.03125-0.023438-0.019531-0.03125-0.046875-0.03125-0.078125 0-0.039063 0.0078125-0.070313 0.03125-0.09375 0.019531-0.03125 0.046875-0.046875 0.078125-0.046875 0.007812 0 0.019531 0.007812 0.03125 0.015625 0.019531 0.011719 0.035156 0.023437 0.046875 0.03125zm-0.046875 0.15625c0.007812 0 0.019531-0.0039062 0.03125-0.015625 0.007812-0.0078125 0.015625-0.023438 0.015625-0.046875 0-0.03125-0.007813-0.050781-0.015625-0.0625-0.011719-0.007813-0.023438-0.015625-0.03125-0.015625-0.023438 0-0.039062 0.007812-0.046875 0.015625-0.011719 0.011719-0.015625 0.03125-0.015625 0.0625 0 0.023438 0.0039062 0.039062 0.015625 0.046875 0.007813 0.011719 0.023437 0.015625 0.046875 0.015625z"/>
  </symbol>
  <symbol id="k" overflow="visible">
   <path d="m0.15625-0.046875c0.019531 0 0.035156-0.0039062 0.046875-0.015625 0.007813-0.0078125 0.015625-0.023438 0.015625-0.046875 0-0.03125-0.007812-0.050781-0.015625-0.0625-0.011719-0.007813-0.027344-0.015625-0.046875-0.015625-0.011719 0-0.023438 0.007812-0.03125 0.015625-0.011719 0.011719-0.015625 0.03125-0.015625 0.0625 0 0.011719 0.003906 0.027344 0.015625 0.046875 0.007812 0.011719 0.019531 0.015625 0.03125 0.015625zm-0.046875-0.15625 0.03125-0.03125c0.019531-0.007813 0.035156-0.015625 0.046875-0.015625 0.03125 0 0.054688 0.015625 0.078125 0.046875 0.019531 0.023437 0.03125 0.054687 0.03125 0.09375 0 0.03125-0.011719 0.058594-0.03125 0.078125-0.023437 0.023438-0.046875 0.03125-0.078125 0.03125h-0.046875c-0.011719-0.0078125-0.023437-0.019531-0.03125-0.03125v0.03125h-0.078125v-0.32812h0.078125z"/>
  </symbol>
  <symbol id="j" overflow="visible">
   <path d="m0-0.23438h0.078125l0.0625 0.15625 0.0625-0.15625h0.078125l-0.10938 0.25c-0.011719 0.03125-0.023437 0.050781-0.03125 0.0625-0.011719 0.0078125-0.027344 0.015625-0.046875 0.015625h-0.046875v-0.046875h0.015625c0.019531 0 0.03125-0.0078125 0.03125-0.015625 0.007812 0 0.015625-0.0078125 0.015625-0.015625v-0.015625z"/>
  </symbol>
  <symbol id="i" overflow="visible">
   <path d="m0.03125-0.32812h0.078125v0.32812h-0.078125z"/>
  </symbol>
  <symbol id="h" overflow="visible">
   <path d="m0.28125-0.14062v0.14062h-0.078125v-0.10938-0.03125c0-0.007813-0.007813-0.019531-0.015625-0.03125h-0.015625c0-0.007813-0.007813-0.015625-0.015625-0.015625-0.011719 0-0.023438 0.007812-0.03125 0.015625-0.011719 0.011719-0.015625 0.03125-0.015625 0.0625v0.10938h-0.078125v-0.32812h0.078125v0.125l0.03125-0.03125c0.019531-0.007813 0.035156-0.015625 0.046875-0.015625 0.03125 0 0.050781 0.011719 0.0625 0.03125 0.019531 0.023438 0.03125 0.046875 0.03125 0.078125z"/>
  </symbol>
  <symbol id="s" overflow="visible">
   <path d="m0.03125-0.23438h0.078125v0.23438h-0.078125zm0-0.09375h0.078125v0.0625h-0.078125z"/>
  </symbol>
  <symbol id="g" overflow="visible">
   <path d="m0.28125-0.14062v0.14062h-0.078125v-0.10938-0.03125c0-0.007813-0.007813-0.019531-0.015625-0.03125h-0.015625c0-0.007813-0.007813-0.015625-0.015625-0.015625-0.011719 0-0.023438 0.007812-0.03125 0.015625-0.011719 0.011719-0.015625 0.03125-0.015625 0.0625v0.10938h-0.078125v-0.23438h0.078125v0.03125l0.03125-0.03125c0.019531-0.007813 0.035156-0.015625 0.046875-0.015625 0.03125 0 0.050781 0.011719 0.0625 0.03125 0.019531 0.023438 0.03125 0.046875 0.03125 0.078125z"/>
  </symbol>
  <symbol id="r" overflow="visible">
   <path d="m0.1875-0.32812v0.046875h-0.03125c-0.011719 0-0.023438 0.007812-0.03125 0.015625v0.015625 0.015625h0.0625v0.046875h-0.0625v0.1875h-0.078125v-0.1875h-0.046875v-0.046875h0.046875v-0.015625c0-0.03125 0.0039062-0.050781 0.015625-0.0625 0.019531-0.007812 0.046875-0.015625 0.078125-0.015625z"/>
  </symbol>
  <symbol id="e" overflow="visible">
   <path d="m0.15625-0.1875c-0.023438 0-0.039062 0.007812-0.046875 0.015625-0.011719 0.011719-0.015625 0.03125-0.015625 0.0625 0 0.023438 0.0039062 0.039062 0.015625 0.046875 0.007813 0.011719 0.023437 0.015625 0.046875 0.015625 0.007812 0 0.019531-0.0039062 0.03125-0.015625 0.007812-0.0078125 0.015625-0.023438 0.015625-0.046875 0-0.03125-0.007813-0.050781-0.015625-0.0625-0.011719-0.007813-0.023438-0.015625-0.03125-0.015625zm0-0.0625c0.039062 0 0.070312 0.015625 0.09375 0.046875 0.019531 0.023437 0.03125 0.054687 0.03125 0.09375 0 0.03125-0.011719 0.058594-0.03125 0.078125-0.023438 0.023438-0.054688 0.03125-0.09375 0.03125-0.042969 0-0.078125-0.0078125-0.10938-0.03125-0.023438-0.019531-0.03125-0.046875-0.03125-0.078125 0-0.039063 0.0078125-0.070313 0.03125-0.09375 0.03125-0.03125 0.066406-0.046875 0.10938-0.046875z"/>
  </symbol>
  <symbol id="q" overflow="visible">
   <path d="m0.26562-0.20312c0-0.007813 0.003906-0.019531 0.015625-0.03125 0.019531-0.007813 0.035156-0.015625 0.046875-0.015625 0.03125 0 0.050781 0.011719 0.0625 0.03125 0.019531 0.023438 0.03125 0.046875 0.03125 0.078125v0.14062h-0.078125v-0.125-0.015625c0-0.007813-0.007812-0.019531-0.015625-0.03125 0-0.007813-0.007813-0.015625-0.015625-0.015625-0.011719 0-0.023438 0.007812-0.03125 0.015625-0.011719 0.011719-0.015625 0.03125-0.015625 0.0625v0.10938h-0.078125v-0.125c0-0.019531-0.007812-0.035156-0.015625-0.046875 0-0.007813-0.007813-0.015625-0.015625-0.015625-0.011719 0-0.023438 0.007812-0.03125 0.015625-0.011719 0.011719-0.015625 0.03125-0.015625 0.0625v0.10938h-0.078125v-0.23438h0.078125v0.03125l0.03125-0.03125c0.007813-0.007813 0.023437-0.015625 0.046875-0.015625 0.019531 0 0.035156 0.007812 0.046875 0.015625 0.007813 0.011719 0.019531 0.023437 0.03125 0.03125z"/>
  </symbol>
  <symbol id="p" overflow="visible">
   <path d="m0.046875-0.32812h0.078125l0.125 0.21875v-0.21875h0.078125v0.32812h-0.09375l-0.125-0.21875v0.21875h-0.0625z"/>
  </symbol>
  <symbol id="o" overflow="visible">
   <path d="m0.03125-0.09375v-0.14062h0.078125v0.015625 0.046875 0.046875 0.046875 0.015625c0.007813 0 0.015625 0.0078125 0.015625 0.015625h0.03125c0.007812 0 0.019531-0.0039062 0.03125-0.015625 0.007812-0.019531 0.015625-0.039062 0.015625-0.0625v-0.10938h0.0625v0.23438h-0.0625v-0.03125c-0.023437 0.011719-0.039063 0.023438-0.046875 0.03125h-0.046875c-0.023438 0-0.042969-0.0039062-0.0625-0.015625-0.011719-0.019531-0.015625-0.046875-0.015625-0.078125z"/>
  </symbol>
  <symbol id="n" overflow="visible">
   <path d="m0.046875-0.32812h0.125c0.039063 0 0.070313 0.011719 0.09375 0.03125 0.019531 0.023437 0.03125 0.046875 0.03125 0.078125 0 0.042969-0.011719 0.074219-0.03125 0.09375-0.023437 0.011719-0.054687 0.015625-0.09375 0.015625h-0.046875v0.10938h-0.078125zm0.078125 0.0625v0.09375h0.046875 0.03125c0.007813-0.007813 0.015625-0.023437 0.015625-0.046875 0-0.007812-0.007812-0.019531-0.015625-0.03125-0.011719-0.007812-0.023437-0.015625-0.03125-0.015625z"/>
  </symbol>
  <symbol id="m" overflow="visible">
   <path d="m0.03125-0.23438h0.078125v0.23438c0 0.03125-0.011719 0.050781-0.03125 0.0625-0.011719 0.019531-0.03125 0.03125-0.0625 0.03125h-0.03125v-0.046875h0.015625c0.0078125 0 0.015625-0.0078125 0.015625-0.015625 0.0078125 0 0.015625-0.011719 0.015625-0.03125zm0-0.09375h0.078125v0.0625h-0.078125z"/>
  </symbol>
  <symbol id="l" overflow="visible">
   <path d="m0.23438-0.23438v0.0625h-0.03125c-0.011719-0.007813-0.027344-0.015625-0.046875-0.015625-0.011719 0-0.027344 0.007812-0.046875 0.015625-0.011719 0.011719-0.015625 0.03125-0.015625 0.0625 0 0.011719 0.0039062 0.027344 0.015625 0.046875 0.019531 0.011719 0.035156 0.015625 0.046875 0.015625h0.046875c0.007813-0.0078125 0.019531-0.015625 0.03125-0.015625v0.0625h-0.046875-0.03125c-0.042969 0-0.078125-0.0078125-0.10938-0.03125-0.023438-0.019531-0.03125-0.046875-0.03125-0.078125 0-0.039063 0.0078125-0.070313 0.03125-0.09375 0.03125-0.03125 0.066406-0.046875 0.10938-0.046875 0.007812 0 0.019531 0.007812 0.03125 0.015625h0.046875z"/>
  </symbol>
 </defs>
 <g>
  <path d="m129.53 529.66v30.336h440.94v-30.336z"/>
  <path d="m526.85 467.07c-31.121-15.996-49.129-9.0039-69.148-55.859h-217.5c-20.02 46.855-38.027 39.863-69.234 55.859-17.922 9.2656-22.379 33.918-22.902 52.887h401.77c-0.61328-18.969-4.9844-43.621-22.992-52.887z"/>
  <path d="m471.16 401.51c18.883 0 21.766-30.07-1.5742-30.336-80.773-0.69922-161.98 0.085938-242.85 0.085938-18.969 0-21.066 29.199 0 30.246 77.102 4.0195 166.01 0 244.42 0z"/>
  <path d="m241.78 361.56h214.88c2.0977-18.27 5.2461-34.531 8.2188-50.18 6.293-32.957 12.152-63.555 7.5195-104.38-8.3047-66.523-22.73-88.816-35.84-109.1-12.938-19.93-25.352-31.559-43.445-46.855-23.164-19.582-40.211-44.672-71.859-51.051-6.207 11.891-7.6055 14.25-7.082 47.207-29.723 11.539-63.555 17.746-78.938 47.207-20.719 39.512-41.262 35.055-69.496 57.695-0.26172 20.457 4.9844 43.535 21.418 57.172 11.539-0.96094 22.203-4.7188 32.957-8.3906 35.93-12.414 48.516-4.8945 81.387-9.3555l8.8281-1.2227c-10.227 21.504-20.98 41.785-32.695 62.504-20.543 36.453-35.316 62.504-35.84 108.75z"/>
  <use x="129.53125" y="561.3125" xlink:href="#t"/>
  <use x="129.851563" y="561.3125" xlink:href="#d"/>
  <use x="130.066406" y="561.3125" xlink:href="#a"/>
  <use x="130.363281" y="561.3125" xlink:href="#c"/>
  <use x="130.660156" y="561.3125" xlink:href="#b"/>
  <use x="130.867188" y="561.3125" xlink:href="#a"/>
  <use x="131.164062" y="561.3125" xlink:href="#f"/>
  <use x="131.628906" y="561.3125" xlink:href="#k"/>
  <use x="131.941406" y="561.3125" xlink:href="#j"/>
  <use x="132.378906" y="561.3125" xlink:href="#i"/>
  <use x="132.53125" y="561.3125" xlink:href="#c"/>
  <use x="132.824219" y="561.3125" xlink:href="#f"/>
  <use x="133.136719" y="561.3125" xlink:href="#h"/>
  <use x="133.449219" y="561.3125" xlink:href="#s"/>
  <use x="133.597656" y="561.3125" xlink:href="#g"/>
  <use x="133.910156" y="561.3125" xlink:href="#c"/>
  <use x="129.53125" y="561.75" xlink:href="#r"/>
  <use x="129.722656" y="561.75" xlink:href="#d"/>
  <use x="129.9375" y="561.75" xlink:href="#e"/>
  <use x="130.238281" y="561.75" xlink:href="#q"/>
  <use x="130.84375" y="561.75" xlink:href="#b"/>
  <use x="131.054688" y="561.75" xlink:href="#h"/>
  <use x="131.367188" y="561.75" xlink:href="#a"/>
  <use x="131.8125" y="561.75" xlink:href="#p"/>
  <use x="132.179688" y="561.75" xlink:href="#e"/>
  <use x="132.480469" y="561.75" xlink:href="#o"/>
  <use x="132.792969" y="561.75" xlink:href="#g"/>
  <use x="133.253906" y="561.75" xlink:href="#n"/>
  <use x="133.574219" y="561.75" xlink:href="#d"/>
  <use x="133.789062" y="561.75" xlink:href="#e"/>
  <use x="134.089844" y="561.75" xlink:href="#m"/>
  <use x="134.242188" y="561.75" xlink:href="#a"/>
  <use x="134.535156" y="561.75" xlink:href="#l"/>
  <use x="134.796875" y="561.75" xlink:href="#b"/>
 </g>
</svg>
