<?xml version="1.0" encoding="UTF-8"?>
<svg width="700pt" height="700pt" version="1.1" viewBox="0 0 700 700" xmlns="http://www.w3.org/2000/svg" xmlns:xlink="http://www.w3.org/1999/xlink">
 <defs>
  <symbol id="t" overflow="visible">
   <path d="m3.6562-0.21875c-0.1875 0.09375-0.38672 0.16797-0.59375 0.21875-0.19922 0.050781-0.40625 0.078125-0.625 0.078125-0.66797 0-1.1992-0.17969-1.5938-0.54688-0.38672-0.375-0.57812-0.87891-0.57812-1.5156 0-0.64453 0.19141-1.1484 0.57812-1.5156 0.39453-0.375 0.92578-0.5625 1.5938-0.5625 0.21875 0 0.42578 0.027344 0.625 0.078125 0.20703 0.054687 0.40625 0.125 0.59375 0.21875v0.82812c-0.1875-0.125-0.375-0.21875-0.5625-0.28125-0.17969-0.0625-0.37109-0.09375-0.57812-0.09375-0.36719 0-0.65625 0.12109-0.875 0.35938-0.21094 0.23047-0.3125 0.55469-0.3125 0.96875 0 0.40625 0.10156 0.73047 0.3125 0.96875 0.21875 0.23047 0.50781 0.34375 0.875 0.34375 0.20703 0 0.39844-0.023437 0.57812-0.078125 0.1875-0.0625 0.375-0.16016 0.5625-0.29688z"/>
  </symbol>
  <symbol id="d" overflow="visible">
   <path d="m2.6875-2.1719c-0.085938-0.039063-0.16797-0.070313-0.25-0.09375-0.085938-0.019531-0.16797-0.03125-0.25-0.03125-0.25 0-0.44531 0.085937-0.57812 0.25-0.125 0.15625-0.1875 0.38281-0.1875 0.67188v1.375h-0.96875v-2.9844h0.96875v0.48438c0.11328-0.19531 0.25-0.33594 0.40625-0.42188 0.16406-0.09375 0.35938-0.14062 0.57812-0.14062h0.10938c0.039063 0 0.09375 0.007812 0.15625 0.015625z"/>
  </symbol>
  <symbol id="a" overflow="visible">
   <path d="m3.4375-1.5v0.26562h-2.2344c0.03125 0.23047 0.11328 0.40234 0.25 0.51562 0.13281 0.10547 0.32812 0.15625 0.57812 0.15625 0.20703 0 0.41406-0.023438 0.625-0.078125 0.20703-0.0625 0.42188-0.15625 0.64062-0.28125v0.73438c-0.21875 0.09375-0.44531 0.16406-0.67188 0.20312-0.23047 0.039062-0.45312 0.0625-0.67188 0.0625-0.54297 0-0.96484-0.13281-1.2656-0.40625-0.30469-0.28125-0.45312-0.67188-0.45312-1.1719 0-0.47656 0.14453-0.85938 0.4375-1.1406 0.30078-0.28125 0.70703-0.42188 1.2188-0.42188 0.46875 0 0.84375 0.14062 1.125 0.42188s0.42188 0.66406 0.42188 1.1406zm-0.96875-0.32812c0-0.17578-0.058594-0.31641-0.17188-0.42188-0.10547-0.11328-0.24219-0.17188-0.40625-0.17188-0.1875 0-0.33984 0.054687-0.45312 0.15625-0.11719 0.10547-0.1875 0.25-0.21875 0.4375z"/>
  </symbol>
  <symbol id="j" overflow="visible">
   <path d="m1.7969-1.3438c-0.19922 0-0.35156 0.039062-0.45312 0.10938-0.09375 0.0625-0.14062 0.16406-0.14062 0.29688 0 0.11719 0.035156 0.21094 0.10938 0.28125 0.082031 0.0625 0.19531 0.09375 0.34375 0.09375 0.17578 0 0.32812-0.0625 0.45312-0.1875s0.1875-0.28516 0.1875-0.48438v-0.10938zm1.4688-0.35938v1.7031h-0.96875v-0.4375c-0.125 0.17969-0.27344 0.30859-0.4375 0.39062-0.15625 0.082031-0.35156 0.125-0.57812 0.125-0.3125 0-0.57031-0.085938-0.76562-0.26562-0.1875-0.1875-0.28125-0.42188-0.28125-0.70312 0-0.35156 0.11719-0.61328 0.35938-0.78125 0.23828-0.16406 0.61719-0.25 1.1406-0.25h0.5625v-0.0625c0-0.15625-0.0625-0.26562-0.1875-0.32812-0.11719-0.070312-0.29688-0.10938-0.54688-0.10938-0.21094 0-0.40234 0.023437-0.57812 0.0625-0.17969 0.042969-0.33984 0.10156-0.48438 0.17188v-0.71875c0.19531-0.050781 0.39844-0.085938 0.60938-0.10938 0.20703-0.03125 0.41406-0.046875 0.625-0.046875 0.53906 0 0.92969 0.10938 1.1719 0.32812 0.23828 0.21094 0.35938 0.55469 0.35938 1.0312z"/>
  </symbol>
  <symbol id="c" overflow="visible">
   <path d="m1.5-3.8438v0.85938h0.98438v0.67188h-0.98438v1.2812c0 0.13672 0.023438 0.23047 0.078125 0.28125 0.0625 0.042969 0.17578 0.0625 0.34375 0.0625h0.48438v0.6875h-0.8125c-0.38672 0-0.65625-0.078125-0.8125-0.23438s-0.23438-0.42188-0.23438-0.79688v-1.2812h-0.46875v-0.67188h0.46875v-0.85938z"/>
  </symbol>
  <symbol id="i" overflow="visible">
   <path d="m2.5-2.5469v-1.6094h0.95312v4.1562h-0.95312v-0.4375c-0.13672 0.17969-0.28125 0.30859-0.4375 0.39062-0.15625 0.082031-0.33984 0.125-0.54688 0.125-0.375 0-0.68359-0.14453-0.92188-0.4375-0.23047-0.28906-0.34375-0.67188-0.34375-1.1406 0-0.45703 0.11328-0.83203 0.34375-1.125 0.23828-0.28906 0.54688-0.4375 0.92188-0.4375 0.19531 0 0.375 0.042969 0.53125 0.125 0.16406 0.085938 0.31641 0.21484 0.45312 0.39062zm-0.64062 1.9375c0.20703 0 0.36328-0.070313 0.46875-0.21875 0.11328-0.15625 0.17188-0.37891 0.17188-0.67188 0-0.28125-0.058594-0.49219-0.17188-0.64062-0.10547-0.15625-0.26172-0.23438-0.46875-0.23438-0.19922 0-0.35547 0.078125-0.46875 0.23438-0.10547 0.14844-0.15625 0.35938-0.15625 0.64062 0 0.29297 0.050781 0.51562 0.15625 0.67188 0.11328 0.14844 0.26953 0.21875 0.46875 0.21875z"/>
  </symbol>
  <symbol id="h" overflow="visible">
   <path d="m2.0469-0.60938c0.20703 0 0.36328-0.070313 0.46875-0.21875 0.11328-0.15625 0.17188-0.37891 0.17188-0.67188 0-0.28125-0.058594-0.49219-0.17188-0.64062-0.10547-0.15625-0.26172-0.23438-0.46875-0.23438-0.19922 0-0.35547 0.078125-0.46875 0.23438-0.10547 0.14844-0.15625 0.35938-0.15625 0.64062 0 0.29297 0.050781 0.51562 0.15625 0.67188 0.11328 0.14844 0.26953 0.21875 0.46875 0.21875zm-0.625-1.9375c0.125-0.17578 0.26562-0.30469 0.42188-0.39062 0.16406-0.082031 0.35156-0.125 0.5625-0.125 0.36328 0 0.66406 0.14844 0.90625 0.4375 0.23828 0.29297 0.35938 0.66797 0.35938 1.125 0 0.46875-0.12109 0.85156-0.35938 1.1406-0.24219 0.29297-0.54297 0.4375-0.90625 0.4375-0.21094 0-0.39844-0.042969-0.5625-0.125-0.15625-0.082031-0.29688-0.21094-0.42188-0.39062v0.4375h-0.96875v-4.1562h0.96875z"/>
  </symbol>
  <symbol id="g" overflow="visible">
   <path d="m0.0625-2.9844h0.95312l0.8125 2.0156 0.6875-2.0156h0.95312l-1.2656 3.2656c-0.125 0.33203-0.27344 0.56641-0.4375 0.70312-0.16797 0.13281-0.39062 0.20312-0.67188 0.20312h-0.54688v-0.64062h0.29688c0.16406 0 0.28516-0.027344 0.35938-0.078125 0.070313-0.054688 0.12891-0.14062 0.17188-0.26562l0.03125-0.09375z"/>
  </symbol>
  <symbol id="f" overflow="visible">
   <path d="m0.5-3.9844h1.0312v3.5938c0 0.5-0.13672 0.86719-0.40625 1.1094-0.27344 0.25-0.67969 0.375-1.2188 0.375h-0.21875v-0.78125h0.17188c0.20703 0 0.36328-0.0625 0.46875-0.1875 0.11328-0.11719 0.17188-0.28516 0.17188-0.51562z"/>
  </symbol>
  <symbol id="s" overflow="visible">
   <path d="m0.45312-2.9844h0.96875v2.9844h-0.96875zm0-1.1719h0.96875v0.78125h-0.96875z"/>
  </symbol>
  <symbol id="e" overflow="visible">
   <path d="m3.4688-1.8281v1.8281h-0.96875v-1.3906c0-0.25781-0.007812-0.4375-0.015625-0.53125-0.011719-0.10156-0.03125-0.17578-0.0625-0.21875-0.03125-0.0625-0.085937-0.10938-0.15625-0.14062-0.0625-0.039062-0.13281-0.0625-0.20312-0.0625-0.21094 0-0.37109 0.078125-0.48438 0.23438-0.10547 0.15625-0.15625 0.37109-0.15625 0.64062v1.4688h-0.96875v-2.9844h0.96875v0.4375c0.13281-0.17578 0.28516-0.30469 0.45312-0.39062 0.16406-0.082031 0.34375-0.125 0.53125-0.125 0.34375 0 0.60156 0.10938 0.78125 0.32812 0.1875 0.21094 0.28125 0.51172 0.28125 0.90625z"/>
  </symbol>
  <symbol id="b" overflow="visible">
   <path d="m1.875-2.375c-0.21094 0-0.37109 0.078125-0.48438 0.23438-0.10547 0.14844-0.15625 0.35938-0.15625 0.64062 0 0.29297 0.050781 0.51562 0.15625 0.67188 0.11328 0.14844 0.27344 0.21875 0.48438 0.21875 0.20703 0 0.36719-0.070313 0.48438-0.21875 0.11328-0.15625 0.17188-0.37891 0.17188-0.67188 0-0.28125-0.058594-0.49219-0.17188-0.64062-0.11719-0.15625-0.27734-0.23438-0.48438-0.23438zm0-0.6875c0.51953 0 0.92188 0.14062 1.2031 0.42188 0.28906 0.27344 0.4375 0.65234 0.4375 1.1406 0 0.5-0.14844 0.89062-0.4375 1.1719-0.28125 0.27344-0.68359 0.40625-1.2031 0.40625-0.51172 0-0.91406-0.13281-1.2031-0.40625-0.29297-0.28125-0.4375-0.67188-0.4375-1.1719 0-0.48828 0.14453-0.86719 0.4375-1.1406 0.28906-0.28125 0.69141-0.42188 1.2031-0.42188z"/>
  </symbol>
  <symbol id="r" overflow="visible">
   <path d="m2.4219-4.1562v0.625h-0.51562c-0.13672 0-0.23438 0.027344-0.29688 0.078125-0.054687 0.054687-0.078125 0.13672-0.078125 0.25v0.21875h0.82812v0.67188h-0.82812v2.3125h-0.95312v-2.3125h-0.46875v-0.67188h0.46875v-0.21875c0-0.32031 0.085937-0.5625 0.26562-0.71875 0.1875-0.15625 0.47266-0.23438 0.85938-0.23438z"/>
  </symbol>
  <symbol id="q" overflow="visible">
   <path d="m3.2344-2.5c0.11328-0.17578 0.25391-0.3125 0.42188-0.40625 0.16406-0.10156 0.35156-0.15625 0.5625-0.15625 0.33203 0 0.58594 0.10938 0.76562 0.32812 0.1875 0.21094 0.28125 0.51172 0.28125 0.90625v1.8281h-0.96875v-1.5625c0.007813-0.019531 0.015625-0.039062 0.015625-0.0625v-0.10938c0-0.21875-0.03125-0.375-0.09375-0.46875s-0.16406-0.14062-0.29688-0.14062c-0.1875 0-0.33594 0.078125-0.4375 0.23438-0.09375 0.14844-0.14062 0.35938-0.14062 0.64062v1.4688h-0.96875v-1.5625c0-0.33203-0.03125-0.54688-0.09375-0.64062-0.054688-0.09375-0.15234-0.14062-0.29688-0.14062-0.17969 0-0.32031 0.078125-0.42188 0.23438-0.09375 0.14844-0.14062 0.35938-0.14062 0.64062v1.4688h-0.96875v-2.9844h0.96875v0.4375c0.11328-0.17578 0.24219-0.30469 0.39062-0.39062 0.15625-0.082031 0.32812-0.125 0.51562-0.125 0.20703 0 0.39062 0.054688 0.54688 0.15625 0.15625 0.09375 0.27344 0.23047 0.35938 0.40625z"/>
  </symbol>
  <symbol id="p" overflow="visible">
   <path d="m3.4688-1.8281v1.8281h-0.96875v-1.3906c0-0.25781-0.007812-0.4375-0.015625-0.53125-0.011719-0.10156-0.03125-0.17578-0.0625-0.21875-0.03125-0.0625-0.085937-0.10938-0.15625-0.14062-0.0625-0.039062-0.13281-0.0625-0.20312-0.0625-0.21094 0-0.37109 0.078125-0.48438 0.23438-0.10547 0.15625-0.15625 0.37109-0.15625 0.64062v1.4688h-0.96875v-4.1562h0.96875v1.6094c0.13281-0.17578 0.28516-0.30469 0.45312-0.39062 0.16406-0.082031 0.34375-0.125 0.53125-0.125 0.34375 0 0.60156 0.10938 0.78125 0.32812 0.1875 0.21094 0.28125 0.51172 0.28125 0.90625z"/>
  </symbol>
  <symbol id="o" overflow="visible">
   <path d="m0.5-3.9844h1.1562l1.4375 2.7344v-2.7344h0.98438v3.9844h-1.1562l-1.4375-2.7344v2.7344h-0.98438z"/>
  </symbol>
  <symbol id="n" overflow="visible">
   <path d="m0.42188-1.1719v-1.8125h0.96875v0.29688 0.60938 0.48438c0 0.24219 0.003906 0.41797 0.015625 0.53125 0.007812 0.10547 0.03125 0.17969 0.0625 0.21875 0.039062 0.0625 0.09375 0.11719 0.15625 0.15625 0.0625 0.03125 0.13281 0.046875 0.21875 0.046875 0.19531 0 0.35156-0.078125 0.46875-0.23438 0.11328-0.15625 0.17188-0.36719 0.17188-0.64062v-1.4688h0.95312v2.9844h-0.95312v-0.4375c-0.14844 0.17969-0.30469 0.30859-0.46875 0.39062-0.15625 0.082031-0.33594 0.125-0.53125 0.125-0.34375 0-0.60938-0.10156-0.79688-0.3125-0.17969-0.21875-0.26562-0.53125-0.26562-0.9375z"/>
  </symbol>
  <symbol id="m" overflow="visible">
   <path d="m0.5-3.9844h1.7031c0.50781 0 0.89844 0.11719 1.1719 0.34375 0.26953 0.21875 0.40625 0.53906 0.40625 0.95312 0 0.41797-0.13672 0.74219-0.40625 0.96875-0.27344 0.21875-0.66406 0.32812-1.1719 0.32812h-0.67188v1.3906h-1.0312zm1.0312 0.75v1.1094h0.5625c0.19531 0 0.34766-0.046875 0.45312-0.14062 0.11328-0.10156 0.17188-0.24219 0.17188-0.42188 0-0.17578-0.058594-0.3125-0.17188-0.40625-0.10547-0.09375-0.25781-0.14062-0.45312-0.14062z"/>
  </symbol>
  <symbol id="l" overflow="visible">
   <path d="m0.45312-2.9844h0.96875v2.9375c0 0.39453-0.10156 0.69531-0.29688 0.90625-0.1875 0.21875-0.46484 0.32812-0.82812 0.32812h-0.48438v-0.64062h0.17188c0.17578 0 0.29688-0.042969 0.35938-0.125 0.070312-0.074219 0.10938-0.23047 0.10938-0.46875zm0-1.1719h0.96875v0.78125h-0.96875z"/>
  </symbol>
  <symbol id="k" overflow="visible">
   <path d="m2.875-2.8906v0.76562c-0.125-0.082031-0.25781-0.14453-0.39062-0.1875-0.13672-0.039062-0.27344-0.0625-0.40625-0.0625-0.27344 0-0.48047 0.078125-0.625 0.23438-0.14844 0.15625-0.21875 0.37109-0.21875 0.64062 0 0.28125 0.070313 0.5 0.21875 0.65625 0.14453 0.15625 0.35156 0.23438 0.625 0.23438 0.14453 0 0.28516-0.019531 0.42188-0.0625 0.13281-0.039063 0.25781-0.10938 0.375-0.20312v0.78125c-0.14844 0.0625-0.29688 0.10156-0.45312 0.125-0.15625 0.03125-0.3125 0.046875-0.46875 0.046875-0.54297 0-0.96484-0.13281-1.2656-0.40625-0.30469-0.28125-0.45312-0.67188-0.45312-1.1719 0-0.48828 0.14844-0.86719 0.45312-1.1406 0.30078-0.28125 0.72266-0.42188 1.2656-0.42188 0.15625 0 0.3125 0.015625 0.46875 0.046875 0.15625 0.023437 0.30469 0.0625 0.45312 0.125z"/>
  </symbol>
 </defs>
 <g>
  <path d="m191.49 373.89c-0.75 0.003906-1.4922-0.14453-2.1875-0.4375-1.332-0.57031-2.3867-1.6484-2.9258-2.9961-0.53906-1.3477-0.52344-2.8555 0.050782-4.1875 6.8359-15.938 5.7188-25.934-18.867-46.648-16.23-13.66-18.594-28.031-16.492-38.402l-8.3047 2.0664c-0.21875 0.054688-0.44141 0.097656-0.66406 0.12109-8.3906 0.98438-14.625-0.95312-18.594-5.7734-6.8477-8.4102-2.7227-21.645-2.1875-23.121l12.383-38.281c-5.0195-6.3203-9.1875-15.543-9.7109-16.711-11.758-27.18-21.438-66.719-0.875-100.98l-0.003907-0.007812c7.0312-11.766 16.848-21.621 28.59-28.699 3.2812-8.6172 17.816-39.289 61.383-51.734 19.621-5.6094 44.211-8.4531 65.777-7.6562 30.109 1.1602 54.688 8.75 73.184 22.719 24.203 18.254 36.465 46.504 36.465 83.934 0 3.0195-2.4492 5.4688-5.4688 5.4688s-5.4688-2.4492-5.4688-5.4688c0-33.809-10.805-59.062-32.113-75.184-38.227-28.777-101.34-21.309-129.37-13.289-43.859 12.523-54.219 45.191-54.688 46.57-0.43359 1.457-1.4492 2.6719-2.8125 3.3477-10.922 6.2188-20.016 15.199-26.371 26.043-14.305 24.25-13.703 54.688 1.793 90.496 1.3789 3.0938 5.8633 12.109 9.7227 15.969h0.003907c1.4414 1.4492 1.9531 3.5781 1.332 5.5234l-13.355 41.344c-0.95312 2.9219-2.1094 9.8438 0.32812 12.82 1.6836 2.0664 5.4688 2.1875 8.4453 1.8359l18.441-4.5938c2.2344-0.55078 4.5742 0.35547 5.8516 2.2656 1.2812 1.9141 1.2266 4.4219-0.13281 6.2773-1.1602 1.6523-11.035 16.996 9.9844 34.695 26.316 22.16 31.633 36.574 21.875 59.324h0.003906c-0.84766 2.0234-2.8242 3.3477-5.0234 3.3555z"/>
  <path d="m300.18 259.78c-0.48047 0-0.96094-0.066406-1.4219-0.19922-1.4023-0.375-2.5938-1.293-3.3203-2.5508-0.72266-1.2578-0.91797-2.75-0.53906-4.1523 0.79687-2.9766 1.4453-6.9766 0-9.1445-2.1094-3.1172-9.2734-3.9375-16.211-4.7344-4.8633-0.41016-9.6797-1.2578-14.395-2.5273-5.6016-1.707-12.566-4.4609-16.758-10.641-4.1875-6.1797-4.6602-15.082-1.0938-23.09 3.1172-7.043 8.3125-12.031 13.332-16.922 4.8008-4.625 9.3281-9 11.363-14.656 3.5664-9.8438 1.7617-22.082-8.5625-26.316s-24.586-3.1602-34.375-0.71094c-14.953 3.6953-45.203 3.6875-52.785-22.828-9.1641-31.867 12-47.41 12.898-48.023 2.4336-1.4609 5.582-0.8125 7.2422 1.4922 1.6641 2.3008 1.2852 5.4922-0.86719 7.3438-0.72266 0.53516-15.719 12.031-8.8164 36.18 6.5625 23.066 38.281 15.555 39.617 15.215 5.5547-1.3906 24.992-5.4141 41.168 1.2148 7.6445 3.1016 13.43 9.5625 15.672 17.5 2.0859 7.4648 1.75 15.395-0.96094 22.652-2.8984 8.0508-8.5742 13.52-14.055 18.824-4.4609 4.3086-8.6836 8.3789-10.938 13.477-2 4.5156-1.9258 9.418 0.16406 12.512 2.2734 3.3594 7.0234 5.1406 10.938 6.332 4.082 1.0586 8.2461 1.7656 12.445 2.1094 9.375 1.0938 19.074 2.1875 24.062 9.4609 3.0938 4.5508 3.5977 10.488 1.5312 18.133v0.003907c-0.64844 2.4062-2.8438 4.0703-5.3359 4.0469z"/>
  <path d="m159.69 546.88h-72.188c-1.4727 0-2.8828-0.59375-3.9141-1.6484-1.0312-1.0547-1.5898-2.4805-1.5547-3.9531 0-0.51563 1.2031-52.434 0-84.777-1.2578-33.906 11.016-58.867 11.539-59.914 0.27344-0.53516 26.852-53.715 34.039-69.289 7.7344-16.746 23.648-22.684 26.184-23.539l5.8945-2.5352c2.7773-1.207 6.0117 0.066406 7.2188 2.8438s-0.066406 6.0117-2.8438 7.2188l-6.1797 2.625c-0.17578 0.074219-0.35547 0.14062-0.53516 0.19531-0.12109 0-13.648 4.4609-19.797 17.773-7.2617 15.738-33.086 67.406-34.18 69.594v0.003906c-7.5195 17.195-11.074 35.863-10.402 54.621 0.98438 26.348 0.39453 65.43 0.12109 79.844h60.309l-10.062-71.422c-0.21875-1.457 0.16406-2.9414 1.0547-4.1172 0.89062-1.1719 2.2188-1.9375 3.6797-2.1172 1.1719-0.16406 29.727-4.7891 25.855-53.199h0.003907c-0.09375-1.1094 0.15625-2.2227 0.71875-3.1836 2.3398-4.0586 6.0703-12.086 6.0703-16.32 0-1.8945 0.98438-3.6562 2.5977-4.6523 1.6133-0.99609 3.6289-1.0859 5.3242-0.23438 8.2148 3.7148 17.008 5.9961 25.996 6.7461 2.7109 0.21484 4.8555 2.3867 5.0312 5.0977l2.4375 36.543h0.003906c0.03125 0.30078 0.03125 0.60547 0 0.90625-0.015625 1.4258 0.48438 2.8047 1.4102 3.8828 1.793 1.8906 5.207 2.2852 7.7656 2.2852 9.9648 0 11.398-8.75 11.594-10.75 0.12109-2.3203 1.8828-39.375-0.82031-54.535-3.0859-2.0469-12.195-6.9883-29.324-7.8438v0.003906c-3.0195-0.15234-5.3477-2.7227-5.1953-5.7422 0.15234-3.0195 2.7227-5.3477 5.7422-5.1953 26.055 1.3008 36.992 11.223 37.449 11.648 0.79297 0.73438 1.3477 1.6914 1.5977 2.7461 3.6758 15.641 1.5625 57.793 1.4766 59.578v-0.003906c-0.003907 0.046875-0.003907 0.097656 0 0.14453-0.55859 7.2188-5.9844 20.879-22.508 20.879-6.9883 0-12.348-2-15.938-5.9609-2.8242-3.2148-4.3125-7.3828-4.168-11.66l-2.1094-31.633c-6.3789-0.88281-12.648-2.4336-18.703-4.625-1.3906 4.3867-3.1992 8.625-5.4023 12.664 1.0938 16.594-0.85156 38.621-15.445 52.73-4.1797 4.0586-9.1797 7.168-14.668 9.1211l10.293 72.922c0.22266 1.5781-0.25391 3.1758-1.3047 4.3711-1.0508 1.1992-2.5703 1.8789-4.1641 1.8633z"/>
  <path d="m170.86 222.09c-2.1406 0.015624-4.2773-0.14844-6.3867-0.48047-2.9531-0.55859-4.9023-3.3906-4.3672-6.3477 0.53516-2.957 3.3516-4.9258 6.3125-4.4141 0.13281 0 12.645 2.1094 20.191-4.8555v-0.003906c2.2344-1.9023 5.5742-1.707 7.5664 0.45312 1.9922 2.1562 1.9258 5.5-0.15234 7.5781-7.3281 6.7812-16.918 8.0703-23.164 8.0703z"/>
  <path d="m137.55 471.11c-6.543 0.011719-12.984-1.6133-18.738-4.7344-2.5586-1.4805-3.4766-4.7266-2.0742-7.3281 1.4023-2.6016 4.6172-3.6172 7.2617-2.2969 6.957 3.7891 15.184 4.4883 22.684 1.9375 2.793-1.1523 5.9922 0.17969 7.1406 2.9727 1.1523 2.793-0.17969 5.9922-2.9727 7.1445-4.2578 1.5703-8.7656 2.3516-13.301 2.3047z"/>
  <path d="m418.14 229.89h-0.19531c-3.0234-0.050781-5.4297-2.5391-5.3789-5.5625 0.054688-3.0195 2.543-5.4258 5.5625-5.375 0.078125 0 13.617 0 22.008-8.8281 5.2188-5.4688 7.5352-13.508 6.8906-23.777-0.44922-7.2305-2.832-12.73-7.0977-16.352-7.4609-6.3438-18.594-5.4688-18.746-5.4688h-0.003906c-3.0039 0.30469-5.6836-1.8867-5.9883-4.8945-0.30078-3.0039 1.8906-5.6836 4.8945-5.9883 0.64453-0.066407 15.836-1.4453 26.918 7.9727 6.5625 5.6211 10.281 13.695 10.938 23.996 0.84375 13.484-2.5039 24.281-9.9531 32.078-11.242 11.828-27.781 12.199-29.848 12.199z"/>
  <path d="m613.59 546.88h-418.66c-3.0234 0-5.4688-2.4492-5.4688-5.4688v-23.211c0-69.629 24.293-84.066 27.059-85.488l4.9766 9.7344h0.10938c-0.054688 0-5.25 3.0859-10.434 13.715-4.9102 10.051-10.773 28.996-10.773 62.094v17.688h407.73l0.16406-205.56-0.16406-91.941c0-3.0195 2.4492-5.4688 5.4688-5.4688 1.4492 0 2.8398 0.57422 3.8672 1.6016 1.0273 1.0273 1.6016 2.418 1.6016 3.8672l0.16406 91.941-0.16406 211.03c0 1.4492-0.57422 2.8398-1.6016 3.8672-1.0273 1.0273-2.418 1.6016-3.8672 1.6016z"/>
  <path d="m483.72 273.44c-20.465 0-33.316-7.0859-34.094-7.5352-47.141-27.148-46.297-77.492-46.234-79.625h0.003907c0.035156-1.25 0.49609-2.4531 1.3125-3.4023 8.2031-9.582 12.086-22.312 10.129-33.238-1.6172-8.9688-6.9453-16.211-15.434-20.922-20.879-11.594-37.09 1.957-37.254 2.0898v-0.003907c-2.2969 1.9258-5.7148 1.6484-7.668-0.62891-1.9492-2.2734-1.707-5.6953 0.54688-7.6719 0.89844-0.76562 22.227-18.594 49.688-3.3477 11.453 6.3672 18.672 16.23 20.879 28.559 2.4492 13.66-1.75 28.723-11.254 40.664 0.25 8.75 3.5547 46.637 40.711 68.031 0.19531 0.097656 24.062 13.027 58.176 0.6875v0.003906c2.8438-1.0273 5.9805 0.44531 7.0078 3.2852 1.0234 2.8438-0.44531 5.9805-3.2891 7.0078-10.637 3.9336-21.883 5.9805-33.227 6.0469z"/>
  <path d="m335.22 546.88c-2.8555 0.007812-5.2383-2.1836-5.4688-5.0312-2.7891-34.539 7.9609-70.516 8.4102-72.023 0.87891-2.8945 3.9336-4.5273 6.8281-3.6523 2.8906 0.875 4.5273 3.9297 3.6523 6.8242-0.10938 0.35156-10.609 35.547-7.9961 67.977 0.25391 3.0039-1.9727 5.6445-4.9766 5.9062z"/>
  <path d="m121.57 182.25c-2.0352 0-3.9023-1.1328-4.8438-2.9414-3.0508-5.8398-3.1836-16.996 2.5703-26.152 4.625-7.3711 14.469-16 35.098-15.312 8.6641 0.28516 14.625-1.6094 17.73-5.6094 4.7578-6.1484 2.0469-16.023 2.0117-16.121-0.84766-2.8984 0.8125-5.9375 3.7109-6.7891 2.9023-0.84766 5.9414 0.81641 6.7891 3.7148 0.1875 0.61328 4.375 15.312-3.8711 25.891-5.3711 6.9336-14.359 10.25-26.719 9.8438s-21.031 3.1406-25.484 10.227c-3.8594 6.1367-3.2812 13.125-2.1875 15.312h-0.003906c0.89062 1.6953 0.82422 3.7305-0.16406 5.3672-0.99219 1.6367-2.7656 2.6367-4.6797 2.6367z"/>
  <path d="m158.59 203.44c-2.4219 0.003906-4.5625-1.5859-5.2539-3.9062s0.22656-4.8242 2.2578-6.1445c1.0938-0.73438 28.012-17.938 53.461-5.8203 1.4141 0.55469 2.5312 1.6719 3.0898 3.0859 0.55469 1.4141 0.5 2.9922-0.15234 4.3633-0.65625 1.3711-1.8516 2.4062-3.3008 2.8594-1.4453 0.45312-3.0195 0.28516-4.3398-0.46484-19.852-9.4492-42.57 4.9766-42.797 5.1172v0.003906c-0.87891 0.58594-1.9102 0.89844-2.9648 0.90625z"/>
  <path d="m541.41 165.16c-1.4492 0.10547-2.8828-0.37109-3.9805-1.3242-1.1016-0.94922-1.7773-2.3008-1.8828-3.75-0.21484-3.0195 2.0547-5.6445 5.0742-5.8633 39.125-5.6875 67.508-34.223 67.508-67.812 0-37.996-37.285-68.906-83.125-68.906s-83.125 30.91-83.125 68.906c0 26.742 18.953 51.309 48.277 62.562 2.8203 1.082 4.2305 4.2461 3.1523 7.0664-1.082 2.8203-4.2461 4.2305-7.0664 3.1484-33.602-12.895-55.301-41.465-55.301-72.777 0-44.023 42.195-79.844 94.062-79.844s94.062 35.82 94.062 79.844c0 39.07-32.32 72.188-76.848 78.672-0.26562 0.050781-0.53906 0.074219-0.80859 0.078125z"/>
  <path d="m275.32 418.77c-8.4336 0-15.465-3.4688-19.961-9.8984-7.0977-10.16-6.9336-26.117 0.42578-42.656 2.5938-5.8398 2.8438-10.477 0.75391-14.219-3.5859-6.3438-13.848-9.7344-22.246-10.785-16.023-2-25.156-9.668-27.867-44.406-0.72266-9.3281-3.3906-15.477-7.918-18.242-6.5625-4.0039-15.664-0.27344-15.75-0.23047h-0.003906c-2.7773 1.1836-5.9922-0.10547-7.1758-2.8867-1.1836-2.7773 0.10938-5.9922 2.8906-7.1758 0.57812-0.25 14.285-5.9844 25.66 0.90625 7.7539 4.6914 12.195 13.703 13.203 26.797 2.4922 32.406 10.172 33.371 18.32 34.387 6.8672 0.85156 23.582 4.1562 30.406 16.266 3.8594 6.8125 3.7617 14.887-0.28516 23.984-5.6094 12.645-6.1797 25.156-1.4453 31.98 2.6562 3.8047 6.8242 5.5469 12.391 5.1719v0.007813c3.0195-0.19922 5.6289 2.0859 5.8281 5.1055 0.19922 3.0195-2.0859 5.6328-5.1055 5.832-0.72266 0.042968-1.4219 0.0625-2.1211 0.0625z"/>
  <path d="m368.05 546.88c-2.4258 0-4.5586-1.5977-5.2422-3.9219-0.68359-2.3281 0.24219-4.8242 2.2773-6.1406 40.383-26.031 72.996-57.969 96.93-94.805 19.238-29.766 33-62.734 40.633-97.344 13.344-59.742 5.0312-105.91 4.9453-106.37h-0.003906c-0.53125-2.875 1.2891-5.6602 4.1367-6.3242 66.719-15.562 102.2 0.77734 103.68 1.4883 2.4609 1.4297 3.4141 4.5078 2.1914 7.0781-1.2227 2.5664-4.2109 3.7695-6.8711 2.7656-0.32812-0.15234-32.133-14.523-91.57-1.8164 1.8711 14.055 5.4688 54.688-5.8281 105.52v0.003906c-7.9219 35.863-22.191 70.023-42.133 100.86-24.785 38.195-58.484 71.18-100.18 98.043-0.875 0.59766-1.9062 0.92969-2.9648 0.95312z"/>
  <path d="m512.97 195.78c-18.691 0-33.906-13.246-33.906-29.531 0.027344-6.6406 2.5078-13.035 6.9688-17.961 0.94531-1.1211 2.3047-1.8164 3.7695-1.9258 1.4688-0.10938 2.9141 0.375 4.0195 1.3477 1.1016 0.96875 1.7695 2.3438 1.8477 3.8086 0.082031 1.4688-0.43359 2.9062-1.4258 3.9883-2.6875 2.9375-4.1992 6.7617-4.2422 10.742 0 10.25 10.305 18.594 22.969 18.594s22.969-8.3438 22.969-18.594c0.13281-3.2578-0.74219-6.4766-2.5039-9.2188-1.5547-2.5938-0.71094-5.9531 1.8789-7.5039 2.5938-1.5547 5.9531-0.71094 7.5039 1.8789 2.7891 4.4375 4.2031 9.6055 4.0586 14.844 0 16.285-15.215 29.531-33.906 29.531z"/>
  <path d="m480.16 239.03c-12.664 0-22.969-9.1016-22.969-20.277 0-11.18 10.305-20.277 22.969-20.277s22.969 9.1016 22.969 20.277c0 11.18-10.305 20.277-22.969 20.277zm0-29.617c-6.6406 0-12.031 4.1875-12.031 9.3398s5.3906 9.3398 12.031 9.3398 12.031-4.1875 12.031-9.3398-5.3906-9.3398-12.031-9.3398z"/>
  <path d="m557.14 111.56c-7.2617 0.042969-14.305-2.4766-19.895-7.1094-0.14062-0.10938-0.26172-0.23047-0.39453-0.35156l-11.855-12.086-11.879 12.098c-0.12109 0.12109-0.24219 0.24219-0.37109 0.35156-5.5938 4.625-12.637 7.1367-19.895 7.0977-16.309 0-29.531-12.262-29.531-27.344s13.266-27.344 29.531-27.344c7.6406-0.058594 15.031 2.7305 20.727 7.832l0.23047 0.21875 11.242 11.484 12.195-12.395c0.14844-0.14844 0.30469-0.29297 0.46875-0.42578 5.5234-4.3828 12.375-6.75 19.426-6.7148 16.309 0 29.531 12.262 29.531 27.344s-13.223 27.344-29.531 27.344zm-12.664-15.312c3.5898 2.875 8.0664 4.4219 12.664 4.375 10.27 0 18.594-7.3594 18.594-16.406s-8.3672-16.406-18.594-16.406c-4.4531-0.035156-8.793 1.4102-12.336 4.1133l-12.098 12.293zm-51.625-28.438c-10.27 0-18.594 7.3594-18.594 16.406s8.3672 16.406 18.594 16.406c4.5977 0.046875 9.0742-1.5 12.664-4.375l11.824-12.031-11.266-11.496c-3.6562-3.2031-8.3633-4.9531-13.223-4.9102z"/>
  <path d="m453.55 546.88c-2.4062 0-4.5312-1.5703-5.2344-3.875-0.70312-2.3008 0.18359-4.7891 2.1797-6.1328 46.703-31.367 68.031-91.797 68.238-92.398h0.003906c0.47266-1.375 1.4688-2.5 2.7734-3.1367 1.3047-0.63672 2.8086-0.72656 4.1797-0.25391 2.8594 0.98438 4.375 4.0977 3.3906 6.9531-0.90625 2.6133-22.684 64.465-72.492 97.914-0.89453 0.60938-1.957 0.93359-3.0391 0.92969z"/>
  <path d="m320.77 451.26c-1.9492 0-3.75-1.0352-4.7305-2.7227-0.97656-1.6875-0.98438-3.7656-0.019531-5.457 4.6484-8.1367 5.8516-16.723 3.2812-23.57-2.5703-6.8477-8.3789-11.734-17.422-14.906-22.105-7.7344-18.594-29.891-17.5-37.188l0.15234-0.99609c2.2852-14.578 4.2656-27.168-5.3711-38.105-4.4961-5.0859-9.8438-6.6289-16.09-8.4102-4.6914-1.3438-10.02-2.8672-15.105-6.1484-10.73-6.9141-11.004-19.25-11.254-30.121-0.31641-14.219-1.3242-19.754-10.762-21.219-2.9531-0.49609-4.957-3.2773-4.4961-6.2383 0.46094-2.957 3.2188-4.9961 6.1836-4.5703 19.371 3.0195 19.742 19.688 20.016 31.773 0.24219 10.828 0.78906 17.664 6.2344 21.176 3.7305 2.4062 7.8438 3.5859 12.207 4.8359 6.8672 1.9688 14.668 4.1992 21.273 11.691 13.039 14.789 10.469 31.184 7.9727 47.031l-0.15234 0.98438c-2.3086 14.711 0.57812 21.766 10.293 25.156 15.312 5.3477 21.516 14.59 24.062 21.406 3.6953 9.8984 2.1875 21.875-4.0469 32.812l-0.003907-0.003906c-0.96094 1.7109-2.7617 2.7773-4.7227 2.7891z"/>
  <path d="m319.2 327.7c-0.32812-0.003907-0.66016-0.03125-0.98438-0.089844-2.9648-0.55078-4.918-3.3984-4.375-6.3633 0.6875-3.7969 1.6641-13.484-4.2227-21.25-4.4609-5.8945-11.922-9.3828-22.172-10.359-10.641-1.0156-18.125-4.8984-22.227-11.562-6.2578-10.16-1.5742-22.52-1.3672-23.035h0.003907c1.0898-2.8164 4.2539-4.2188 7.0703-3.1328 2.8203 1.0898 4.2227 4.2539 3.1367 7.0703-0.078125 0.19531-2.8984 7.9531 0.50391 13.41 2.1875 3.543 6.9023 5.6875 13.922 6.3555 13.387 1.2578 23.438 6.2109 29.793 14.645 5.9844 7.9062 8.2695 18.781 6.2578 29.816-0.46875 2.5859-2.7109 4.4727-5.3398 4.4961z"/>
  <path d="m367.12 415.89c-0.25391 0-0.50391-0.019531-0.75391-0.054688-0.69922-0.097656-17.293-2.5586-26.445-18.023-8.125-13.703-7.6562-32.68 1.3555-56.414 7.2188-19.008 7.8086-35.133 1.7383-47.93-7.6562-16.188-23.789-21.711-23.953-21.766-2.875-0.94141-4.4414-4.0312-3.5-6.9023 0.9375-2.8711 4.0273-4.4375 6.9023-3.5 0.83203 0.27344 20.574 6.8906 30.352 27.344 7.4805 15.629 7.0312 34.695-1.3242 56.688-7.7773 20.453-8.5 36.246-2.1875 46.945 6.5078 10.938 18.418 12.754 18.539 12.773 2.8359 0.40625 4.8789 2.9297 4.6836 5.7891-0.19531 2.8594-2.5625 5.082-5.4297 5.0938z"/>
  <path d="m392.38 378.5c-1.0156-0.003906-2.0156-0.29297-2.875-0.83203-15.07-9.3633-19.043-27.551-11.812-54.062 5.5781-20.465 3.8711-36.477-5.0859-47.578-3.7461-4.6992-8.707-8.2852-14.34-10.371-2.9023-0.84375-4.5742-3.8789-3.7305-6.7812s3.8789-4.5703 6.7812-3.7305c7.7969 2.707 14.664 7.5703 19.809 14.023 14.043 17.422 11.625 40.785 7.1094 57.312-5.7969 21.297-3.4336 35.395 7.043 41.902 2.0781 1.2891 3.0508 3.8008 2.375 6.1523-0.67188 2.3555-2.8281 3.9727-5.2734 3.9648z"/>
  <path d="m387.84 209.77c-2.7773-0.007812-5.1055-2.0938-5.4219-4.8516-0.3125-2.7578 1.4922-5.3125 4.1953-5.9414 6.707-1.7461 12.066-6.7812 14.219-13.367 1.0352-3.0664 1.2344-6.3555 0.57031-9.5273-0.66406-3.168-2.1641-6.1016-4.3438-8.4961-5.3359-6.3125-16.285-6.3438-24.543-5.2734-6.1758 0.82812-12.25 2.293-18.121 4.375-2.8242 1.0703-5.9844-0.34766-7.0547-3.1719-1.0742-2.8242 0.34766-5.9844 3.1719-7.0547 1.5977-0.61328 39.168-14.578 54.906 4.0156 6.8789 7.7969 9.0898 18.668 5.7969 28.535-3.3984 10.188-11.75 17.941-22.16 20.574-0.39844 0.10547-0.80469 0.16797-1.2148 0.18359z"/>
  <path d="m365.9 245.14c-0.23828 0.019531-0.48047 0.019531-0.72266 0-2.9922-0.39062-5.1016-3.1289-4.7109-6.125 0.98438-7.5469 0-13.027-2.8125-16.273-4.9219-5.6016-16.066-5.6016-25.91-5.6016-7.6016 0-18.527-1.0078-25.582-9.6562-7.0547-8.6523-8.5195-23.328-4.168-44.484 2.875-13.969 1.2891-24.531-4.8438-32.277-8.4531-10.676-26.414-16.484-53.375-17.25-14.613-0.42578-24.062-4.7344-28.031-12.84-6.5625-13.422 5.3047-30.516 6.6836-32.43l-0.003907 0.003906c1.7734-2.4453 5.1914-2.9922 7.6406-1.2188 2.4453 1.7695 2.9922 5.1914 1.2188 7.6367-2.4922 3.4688-8.8906 14.797-5.7305 21.188 2.5703 5.1953 11.496 6.5625 18.527 6.7266 30.777 0.875 50.945 7.875 61.645 21.395 8.1484 10.305 10.5 24.184 6.9766 41.277-3.5977 17.5-2.9414 29.379 1.9375 35.359 3.1719 3.8945 8.4531 5.6328 17.105 5.6328 11.562 0 25.945 0 34.125 9.3203 5.0977 5.7969 6.8789 13.945 5.4688 24.906-0.37891 2.707-2.6992 4.7227-5.4375 4.7109z"/>
  <path d="m330.52 125.62c-2.9062 0.003906-5.3125-2.2695-5.4688-5.1719-1.4336-26.445-16.691-28.711-34.355-31.324-8.5625-1.2695-17.414-2.582-24.195-7.1094-5.7539-3.8281-9.1562-9.0781-9.8438-15.18-0.65625-5.8281 1.0938-12.25 5.2266-19.062l0.003907-0.003906c1.7656-2.9219 3.8047-5.6719 6.082-8.2148 2.0664-2.207 5.5312-2.3242 7.7383-0.25781 2.207 2.0664 2.3242 5.5312 0.25781 7.7383-2.625 2.8008-9.2305 11.57-8.4336 18.594 0.33984 2.8672 1.9805 5.25 5.043 7.2969 4.7461 3.1602 12.031 4.2422 19.688 5.3906 17.621 2.6133 41.758 6.1914 43.672 41.562 0.078125 1.4492-0.42188 2.8711-1.3945 3.9492-0.96875 1.0781-2.3281 1.7266-3.7773 1.8047z"/>
  <path d="m353.69 96.348c-2.7305-0.007812-5.0352-2.0234-5.4062-4.7227-2.4492-17.707-8.3438-18.594-18.113-20.137-6.6953-1.0273-15.027-2.3203-21.961-9.8438-4.2695-4.3359-6.3672-10.355-5.7188-16.406 0.71094-6.0586 4.125-12.238 10.129-18.352v-0.003907c2.5781-2.6328 5.3984-5.0195 8.4219-7.1289 1.1992-0.875 2.7031-1.2266 4.168-0.96875 1.4648 0.25781 2.7578 1.1016 3.5898 2.332 0.82812 1.2344 1.1211 2.75 0.80859 4.2031-0.3125 1.4531-1.2031 2.7188-2.4648 3.5-3.543 2.4062-12.93 10.258-13.793 17.707-0.31641 2.7656 0.60156 5.2188 2.8984 7.7109 4.375 4.7031 9.5586 5.4688 15.598 6.4414 10.566 1.6289 23.711 3.6641 27.266 29.445 0.39062 2.9766-1.6953 5.7109-4.668 6.125-0.25 0.050781-0.50391 0.082031-0.75391 0.097656z"/>
  <use x="70" y="576.40625" xlink:href="#t"/>
  <use x="74.011719" y="576.40625" xlink:href="#d"/>
  <use x="76.710938" y="576.40625" xlink:href="#a"/>
  <use x="80.417969" y="576.40625" xlink:href="#j"/>
  <use x="84.109375" y="576.40625" xlink:href="#c"/>
  <use x="86.722656" y="576.40625" xlink:href="#a"/>
  <use x="90.433594" y="576.40625" xlink:href="#i"/>
  <use x="96.25" y="576.40625" xlink:href="#h"/>
  <use x="100.167969" y="576.40625" xlink:href="#g"/>
  <use x="105.636719" y="576.40625" xlink:href="#f"/>
  <use x="107.667969" y="576.40625" xlink:href="#s"/>
  <use x="109.542969" y="576.40625" xlink:href="#e"/>
  <use x="113.4375" y="576.40625" xlink:href="#b"/>
  <use x="70" y="581.875" xlink:href="#r"/>
  <use x="72.378906" y="581.875" xlink:href="#d"/>
  <use x="75.078125" y="581.875" xlink:href="#b"/>
  <use x="78.832031" y="581.875" xlink:href="#q"/>
  <use x="86.4375" y="581.875" xlink:href="#c"/>
  <use x="89.050781" y="581.875" xlink:href="#p"/>
  <use x="92.941406" y="581.875" xlink:href="#a"/>
  <use x="98.554688" y="581.875" xlink:href="#o"/>
  <use x="103.132812" y="581.875" xlink:href="#b"/>
  <use x="106.890625" y="581.875" xlink:href="#n"/>
  <use x="110.785156" y="581.875" xlink:href="#e"/>
  <use x="116.582031" y="581.875" xlink:href="#m"/>
  <use x="120.589844" y="581.875" xlink:href="#d"/>
  <use x="123.285156" y="581.875" xlink:href="#b"/>
  <use x="127.042969" y="581.875" xlink:href="#l"/>
  <use x="128.917969" y="581.875" xlink:href="#a"/>
  <use x="132.625" y="581.875" xlink:href="#k"/>
  <use x="135.867188" y="581.875" xlink:href="#c"/>
 </g>
</svg>
