<?xml version="1.0" encoding="UTF-8"?>
<svg width="700pt" height="700pt" version="1.1" viewBox="0 0 700 700" xmlns="http://www.w3.org/2000/svg" xmlns:xlink="http://www.w3.org/1999/xlink">
 <defs>
  <symbol id="v" overflow="visible">
   <path d="m18.766-1.125c-0.96875 0.5-1.9805 0.875-3.0312 1.125-1.043 0.25781-2.1367 0.39062-3.2812 0.39062-3.3984 0-6.0898-0.94531-8.0781-2.8438-1.9922-1.9062-2.9844-4.4844-2.9844-7.7344 0-3.2578 0.99219-5.8359 2.9844-7.7344 1.9883-1.9062 4.6797-2.8594 8.0781-2.8594 1.1445 0 2.2383 0.13281 3.2812 0.39062 1.0508 0.25 2.0625 0.625 3.0312 1.125v4.2188c-0.98047-0.65625-1.9453-1.1406-2.8906-1.4531-0.94922-0.3125-1.9492-0.46875-3-0.46875-1.875 0-3.3516 0.60547-4.4219 1.8125-1.0742 1.1992-1.6094 2.8555-1.6094 4.9688 0 2.1055 0.53516 3.7617 1.6094 4.9688 1.0703 1.1992 2.5469 1.7969 4.4219 1.7969 1.0508 0 2.0508-0.14844 3-0.45312 0.94531-0.3125 1.9102-0.80078 2.8906-1.4688z"/>
  </symbol>
  <symbol id="b" overflow="visible">
   <path d="m13.734-11.141c-0.4375-0.19531-0.87109-0.34375-1.2969-0.4375-0.41797-0.10156-0.83984-0.15625-1.2656-0.15625-1.2617 0-2.2305 0.40625-2.9062 1.2188-0.67969 0.80469-1.0156 1.9531-1.0156 3.4531v7.0625h-4.8906v-15.312h4.8906v2.5156c0.625-1 1.3438-1.7266 2.1562-2.1875 0.82031-0.46875 1.8008-0.70312 2.9375-0.70312 0.16406 0 0.34375 0.011719 0.53125 0.03125 0.19531 0.011719 0.47656 0.039062 0.84375 0.078125z"/>
  </symbol>
  <symbol id="a" overflow="visible">
   <path d="m17.641-7.7031v1.4062h-11.453c0.125 1.1484 0.53906 2.0078 1.25 2.5781 0.70703 0.57422 1.7031 0.85938 2.9844 0.85938 1.0312 0 2.082-0.14844 3.1562-0.45312 1.082-0.3125 2.1914-0.77344 3.3281-1.3906v3.7656c-1.1562 0.4375-2.3125 0.76562-3.4688 0.98438-1.1562 0.22656-2.3125 0.34375-3.4688 0.34375-2.7734 0-4.9297-0.70312-6.4688-2.1094-1.5312-1.4062-2.2969-3.3789-2.2969-5.9219 0-2.5 0.75391-4.4609 2.2656-5.8906 1.5078-1.4375 3.582-2.1562 6.2188-2.1562 2.4062 0 4.332 0.73047 5.7812 2.1875 1.4453 1.4492 2.1719 3.3828 2.1719 5.7969zm-5.0312-1.625c0-0.92578-0.27344-1.6719-0.8125-2.2344-0.54297-0.57031-1.25-0.85938-2.125-0.85938-0.94922 0-1.7188 0.26562-2.3125 0.79688s-0.96484 1.2969-1.1094 2.2969z"/>
  </symbol>
  <symbol id="e" overflow="visible">
   <path d="m9.2188-6.8906c-1.0234 0-1.793 0.17188-2.3125 0.51562-0.51172 0.34375-0.76562 0.85547-0.76562 1.5312 0 0.625 0.20703 1.1172 0.625 1.4688 0.41406 0.34375 0.98828 0.51562 1.7188 0.51562 0.92578 0 1.7031-0.32812 2.3281-0.98438 0.63281-0.66406 0.95312-1.4922 0.95312-2.4844v-0.5625zm7.4688-1.8438v8.7344h-4.9219v-2.2656c-0.65625 0.92969-1.3984 1.6055-2.2188 2.0312-0.82422 0.41406-1.8242 0.625-3 0.625-1.5859 0-2.8711-0.45703-3.8594-1.375-0.99219-0.92578-1.4844-2.1289-1.4844-3.6094 0-1.7891 0.61328-3.1016 1.8438-3.9375 1.2383-0.84375 3.1797-1.2656 5.8281-1.2656h2.8906v-0.39062c0-0.76953-0.30859-1.332-0.92188-1.6875-0.61719-0.36328-1.5703-0.54688-2.8594-0.54688-1.0547 0-2.0312 0.10547-2.9375 0.3125-0.89844 0.21094-1.7305 0.52344-2.5 0.9375v-3.7344c1.0391-0.25 2.0859-0.44141 3.1406-0.57812 1.0625-0.13281 2.125-0.20312 3.1875-0.20312 2.7578 0 4.75 0.54688 5.9688 1.6406 1.2266 1.0859 1.8438 2.8555 1.8438 5.3125z"/>
  </symbol>
  <symbol id="c" overflow="visible">
   <path d="m7.7031-19.656v4.3438h5.0469v3.5h-5.0469v6.5c0 0.71094 0.14062 1.1875 0.42188 1.4375s0.83594 0.375 1.6719 0.375h2.5156v3.5h-4.1875c-1.9375 0-3.3125-0.39844-4.125-1.2031-0.80469-0.8125-1.2031-2.1797-1.2031-4.1094v-6.5h-2.4219v-3.5h2.4219v-4.3438z"/>
  </symbol>
  <symbol id="k" overflow="visible">
   <path d="m12.766-13.078v-8.2031h4.9219v21.281h-4.9219v-2.2188c-0.66797 0.90625-1.4062 1.5703-2.2188 1.9844s-1.7578 0.625-2.8281 0.625c-1.8867 0-3.4336-0.75-4.6406-2.25-1.2109-1.5-1.8125-3.4258-1.8125-5.7812 0-2.3633 0.60156-4.2969 1.8125-5.7969 1.207-1.5 2.7539-2.25 4.6406-2.25 1.0625 0 2 0.21484 2.8125 0.64062 0.82031 0.42969 1.5664 1.0859 2.2344 1.9688zm-3.2188 9.9219c1.0391 0 1.8359-0.37891 2.3906-1.1406 0.55078-0.76953 0.82812-1.8828 0.82812-3.3438 0-1.457-0.27734-2.5664-0.82812-3.3281-0.55469-0.76953-1.3516-1.1562-2.3906-1.1562-1.043 0-1.8398 0.38672-2.3906 1.1562-0.55469 0.76172-0.82812 1.8711-0.82812 3.3281 0 1.4609 0.27344 2.5742 0.82812 3.3438 0.55078 0.76172 1.3477 1.1406 2.3906 1.1406z"/>
  </symbol>
  <symbol id="j" overflow="visible">
   <path d="m10.5-3.1562c1.0508 0 1.8516-0.37891 2.4062-1.1406 0.55078-0.76953 0.82812-1.8828 0.82812-3.3438 0-1.457-0.27734-2.5664-0.82812-3.3281-0.55469-0.76953-1.3555-1.1562-2.4062-1.1562-1.0547 0-1.8594 0.38672-2.4219 1.1562-0.55469 0.77344-0.82812 1.8828-0.82812 3.3281 0 1.4492 0.27344 2.5586 0.82812 3.3281 0.5625 0.77344 1.3672 1.1562 2.4219 1.1562zm-3.25-9.9219c0.67578-0.88281 1.4219-1.5391 2.2344-1.9688 0.82031-0.42578 1.7656-0.64062 2.8281-0.64062 1.8945 0 3.4453 0.75 4.6562 2.25 1.207 1.5 1.8125 3.4336 1.8125 5.7969 0 2.3555-0.60547 4.2812-1.8125 5.7812-1.2109 1.5-2.7617 2.25-4.6562 2.25-1.0625 0-2.0078-0.21094-2.8281-0.625-0.8125-0.42578-1.5586-1.0859-2.2344-1.9844v2.2188h-4.8906v-21.281h4.8906z"/>
  </symbol>
  <symbol id="i" overflow="visible">
   <path d="m0.34375-15.312h4.8906l4.125 10.391 3.5-10.391h4.8906l-6.4375 16.766c-0.64844 1.6953-1.4023 2.8828-2.2656 3.5625-0.86719 0.6875-2 1.0312-3.4062 1.0312h-2.8438v-3.2188h1.5312c0.83203 0 1.4375-0.13672 1.8125-0.40625 0.38281-0.26172 0.67969-0.73047 0.89062-1.4062l0.14062-0.42188z"/>
  </symbol>
  <symbol id="h" overflow="visible">
   <path d="m7.8281-16.438v12.453h1.8906c2.1562 0 3.8008-0.53125 4.9375-1.5938 1.1328-1.0625 1.7031-2.6133 1.7031-4.6562 0-2.0195-0.57031-3.5547-1.7031-4.6094-1.125-1.0625-2.7734-1.5938-4.9375-1.5938zm-5.25-3.9688h5.5469c3.0938 0 5.3984 0.21875 6.9219 0.65625 1.5195 0.4375 2.8203 1.1875 3.9062 2.25 0.95703 0.91797 1.6641 1.9805 2.125 3.1875 0.46875 1.1992 0.70312 2.5586 0.70312 4.0781 0 1.543-0.23438 2.918-0.70312 4.125-0.46094 1.2109-1.168 2.2773-2.125 3.2031-1.0938 1.0547-2.4062 1.8047-3.9375 2.25-1.5312 0.4375-3.8281 0.65625-6.8906 0.65625h-5.5469z"/>
  </symbol>
  <symbol id="g" overflow="visible">
   <path d="m2.1875-5.9688v-9.3438h4.9219v1.5312c0 0.83594-0.007813 1.875-0.015625 3.125-0.011719 1.25-0.015625 2.0859-0.015625 2.5 0 1.2422 0.03125 2.1328 0.09375 2.6719 0.070313 0.54297 0.17969 0.93359 0.32812 1.1719 0.20703 0.32422 0.47266 0.57422 0.79688 0.75 0.32031 0.16797 0.69141 0.25 1.1094 0.25 1.0195 0 1.8203-0.39062 2.4062-1.1719 0.58203-0.78125 0.875-1.8672 0.875-3.2656v-7.5625h4.8906v15.312h-4.8906v-2.2188c-0.74219 0.89844-1.5234 1.5586-2.3438 1.9844-0.82422 0.41406-1.7344 0.625-2.7344 0.625-1.7617 0-3.1055-0.53906-4.0312-1.625-0.92969-1.082-1.3906-2.6602-1.3906-4.7344z"/>
  </symbol>
  <symbol id="u" overflow="visible">
   <path d="m14.312-14.828v3.7188c-1.043-0.4375-2.0547-0.76562-3.0312-0.98438-0.98047-0.21875-1.9023-0.32812-2.7656-0.32812-0.92969 0-1.6211 0.11719-2.0781 0.34375-0.44922 0.23047-0.67188 0.58984-0.67188 1.0781 0 0.38672 0.17188 0.68359 0.51562 0.89062 0.34375 0.21094 0.95703 0.36719 1.8438 0.46875l0.85938 0.125c2.5078 0.32422 4.1953 0.85156 5.0625 1.5781 0.86328 0.73047 1.2969 1.8711 1.2969 3.4219 0 1.6367-0.60547 2.8672-1.8125 3.6875-1.1992 0.8125-2.9922 1.2188-5.375 1.2188-1.0234 0-2.0742-0.078125-3.1562-0.23438-1.0742-0.15625-2.1797-0.39453-3.3125-0.71875v-3.7188c0.96875 0.48047 1.9609 0.83984 2.9844 1.0781 1.0312 0.23047 2.0781 0.34375 3.1406 0.34375 0.95703 0 1.6758-0.12891 2.1562-0.39062 0.47656-0.26953 0.71875-0.66406 0.71875-1.1875 0-0.4375-0.16797-0.75781-0.5-0.96875-0.33594-0.21875-0.99609-0.38281-1.9844-0.5l-0.85938-0.10938c-2.1797-0.26953-3.7031-0.77344-4.5781-1.5156-0.875-0.73828-1.3125-1.8594-1.3125-3.3594 0-1.625 0.55078-2.8281 1.6562-3.6094 1.1133-0.78906 2.8203-1.1875 5.125-1.1875 0.89453 0 1.8359 0.074219 2.8281 0.21875 1 0.13672 2.082 0.35156 3.25 0.64062z"/>
  </symbol>
  <symbol id="t" overflow="visible">
   <path d="m2.3594-15.312h4.8906v15.312h-4.8906zm0-5.9688h4.8906v4h-4.8906z"/>
  </symbol>
  <symbol id="f" overflow="visible">
   <path d="m2.3594-21.281h4.8906v21.281h-4.8906z"/>
  </symbol>
  <symbol id="s" overflow="visible">
   <path d="m12.422-21.281v3.2188h-2.7031c-0.6875 0-1.1719 0.125-1.4531 0.375-0.27344 0.25-0.40625 0.6875-0.40625 1.3125v1.0625h4.1875v3.5h-4.1875v11.812h-4.8906v-11.812h-2.4375v-3.5h2.4375v-1.0625c0-1.6641 0.46094-2.8984 1.3906-3.7031 0.92578-0.80078 2.3672-1.2031 4.3281-1.2031z"/>
  </symbol>
  <symbol id="d" overflow="visible">
   <path d="m9.6406-12.188c-1.0859 0-1.9141 0.39062-2.4844 1.1719-0.57422 0.78125-0.85938 1.9062-0.85938 3.375s0.28516 2.5938 0.85938 3.375c0.57031 0.77344 1.3984 1.1562 2.4844 1.1562 1.0625 0 1.875-0.38281 2.4375-1.1562 0.57031-0.78125 0.85938-1.9062 0.85938-3.375s-0.28906-2.5938-0.85938-3.375c-0.5625-0.78125-1.375-1.1719-2.4375-1.1719zm0-3.5c2.6328 0 4.6914 0.71484 6.1719 2.1406 1.4766 1.418 2.2188 3.3867 2.2188 5.9062 0 2.5117-0.74219 4.4805-2.2188 5.9062-1.4805 1.418-3.5391 2.125-6.1719 2.125-2.6484 0-4.7148-0.70703-6.2031-2.125-1.4922-1.4258-2.2344-3.3945-2.2344-5.9062 0-2.5195 0.74219-4.4883 2.2344-5.9062 1.4883-1.4258 3.5547-2.1406 6.2031-2.1406z"/>
  </symbol>
  <symbol id="r" overflow="visible">
   <path d="m16.547-12.766c0.61328-0.94531 1.3477-1.6719 2.2031-2.1719 0.85156-0.5 1.7891-0.75 2.8125-0.75 1.7578 0 3.0977 0.54688 4.0156 1.6406 0.92578 1.0859 1.3906 2.6562 1.3906 4.7188v9.3281h-4.9219v-7.9844-0.35938c0.007813-0.13281 0.015625-0.32031 0.015625-0.5625 0-1.082-0.16406-1.8633-0.48438-2.3438-0.3125-0.48828-0.82422-0.73438-1.5312-0.73438-0.92969 0-1.6484 0.38672-2.1562 1.1562-0.51172 0.76172-0.77344 1.8672-0.78125 3.3125v7.5156h-4.9219v-7.9844c0-1.6953-0.14844-2.7852-0.4375-3.2656-0.29297-0.48828-0.8125-0.73438-1.5625-0.73438-0.9375 0-1.6641 0.38672-2.1719 1.1562-0.51172 0.76172-0.76562 1.8594-0.76562 3.2969v7.5312h-4.9219v-15.312h4.9219v2.2344c0.60156-0.86328 1.2891-1.5156 2.0625-1.9531 0.78125-0.4375 1.6406-0.65625 2.5781-0.65625 1.0625 0 2 0.25781 2.8125 0.76562 0.8125 0.51172 1.4258 1.2305 1.8438 2.1562z"/>
  </symbol>
  <symbol id="q" overflow="visible">
   <path d="m17.75-9.3281v9.3281h-4.9219v-7.1094c0-1.3438-0.03125-2.2656-0.09375-2.7656s-0.16797-0.86719-0.3125-1.1094c-0.1875-0.3125-0.44922-0.55469-0.78125-0.73438-0.32422-0.17578-0.69531-0.26562-1.1094-0.26562-1.0234 0-1.8242 0.39844-2.4062 1.1875-0.58594 0.78125-0.875 1.8711-0.875 3.2656v7.5312h-4.8906v-21.281h4.8906v8.2031c0.73828-0.88281 1.5195-1.5391 2.3438-1.9688 0.83203-0.42578 1.75-0.64062 2.75-0.64062 1.7695 0 3.1133 0.54688 4.0312 1.6406 0.91406 1.0859 1.375 2.6562 1.375 4.7188z"/>
  </symbol>
  <symbol id="p" overflow="visible">
   <path d="m2.5781-20.406h5.875l7.4219 14v-14h4.9844v20.406h-5.875l-7.4219-14v14h-4.9844z"/>
  </symbol>
  <symbol id="o" overflow="visible">
   <path d="m17.75-9.3281v9.3281h-4.9219v-7.1406c0-1.3203-0.03125-2.2344-0.09375-2.7344s-0.16797-0.86719-0.3125-1.1094c-0.1875-0.3125-0.44922-0.55469-0.78125-0.73438-0.32422-0.17578-0.69531-0.26562-1.1094-0.26562-1.0234 0-1.8242 0.39844-2.4062 1.1875-0.58594 0.78125-0.875 1.8711-0.875 3.2656v7.5312h-4.8906v-15.312h4.8906v2.2344c0.73828-0.88281 1.5195-1.5391 2.3438-1.9688 0.83203-0.42578 1.75-0.64062 2.75-0.64062 1.7695 0 3.1133 0.54688 4.0312 1.6406 0.91406 1.0859 1.375 2.6562 1.375 4.7188z"/>
  </symbol>
  <symbol id="n" overflow="visible">
   <path d="m2.5781-20.406h8.7344c2.5938 0 4.582 0.57812 5.9688 1.7344 1.3945 1.1484 2.0938 2.7891 2.0938 4.9219 0 2.1367-0.69922 3.7812-2.0938 4.9375-1.3867 1.1562-3.375 1.7344-5.9688 1.7344h-3.4844v7.0781h-5.25zm5.25 3.8125v5.7031h2.9219c1.0195 0 1.8047-0.25 2.3594-0.75 0.5625-0.5 0.84375-1.2031 0.84375-2.1094 0-0.91406-0.28125-1.6172-0.84375-2.1094-0.55469-0.48828-1.3398-0.73438-2.3594-0.73438z"/>
  </symbol>
  <symbol id="m" overflow="visible">
   <path d="m2.3594-15.312h4.8906v15.031c0 2.0508-0.49609 3.6172-1.4844 4.7031-0.98047 1.082-2.4062 1.625-4.2812 1.625h-2.4219v-3.2188h0.85938c0.92578 0 1.5625-0.21094 1.9062-0.625 0.35156-0.41797 0.53125-1.2461 0.53125-2.4844zm0-5.9688h4.8906v4h-4.8906z"/>
  </symbol>
  <symbol id="l" overflow="visible">
   <path d="m14.719-14.828v3.9844c-0.65625-0.45703-1.3242-0.79688-2-1.0156-0.66797-0.21875-1.3594-0.32812-2.0781-0.32812-1.3672 0-2.4336 0.40234-3.2031 1.2031-0.76172 0.79297-1.1406 1.9062-1.1406 3.3438 0 1.4297 0.37891 2.543 1.1406 3.3438 0.76953 0.79297 1.8359 1.1875 3.2031 1.1875 0.75781 0 1.4844-0.10938 2.1719-0.32812 0.6875-0.22656 1.3203-0.56641 1.9062-1.0156v4c-0.76172 0.28125-1.5391 0.48828-2.3281 0.625-0.78125 0.14453-1.5742 0.21875-2.375 0.21875-2.7617 0-4.9219-0.70703-6.4844-2.125-1.5547-1.4141-2.3281-3.3828-2.3281-5.9062 0-2.5312 0.77344-4.5039 2.3281-5.9219 1.5625-1.4141 3.7227-2.125 6.4844-2.125 0.80078 0 1.5938 0.074219 2.375 0.21875 0.78125 0.13672 1.5547 0.35156 2.3281 0.64062z"/>
  </symbol>
 </defs>
 <g>
  <path d="m121.3 301.89h2.2383c2.1836 0 2.1836 0.83984 4.3125 2.5195 0.47656 0.5 1.1328 0.77734 1.8203 0.77734s1.3438-0.27734 1.8203-0.77734c0 0 2.9688-2.9688 3.9219-3.0234s2.2383 0 3.1914-1.0078c0.95313-1.0078-0.78516-6.0469-1.9023-7.5039-1.1211-1.457-1.0078-2.0703-1.0625-4.6484h-0.003907c0.058594-1.8008-0.89062-3.4883-2.4648-4.3672-1.3438-1.0625-0.61719-3.9219 0-4.7031 1.2578-1.1445 1.5391-3.0156 0.67188-4.4805-0.41406-0.70703-0.48047-1.5625-0.1875-2.3242 0.29297-0.76172 0.92188-1.3477 1.6992-1.5938 1.3516-0.47266 2.3281-1.6641 2.5195-3.082 0-1.6797-1.457-3.3047-2.9688-4.1445-1.5117-0.83984-3.1367-3.2461-1.2891-3.6406 1.8477-0.39062 2.1289-3.1367 3.8633-3.1367 1.7344 0 0 2.2969 3.3047 3.1367 3.3047 0.83984 2.5742-5.1523 3.5859-7.6719 1.168-2.4531 3.1445-4.4336 5.6016-5.5977 2.1289-1.1758 0.72656-3.6406 0-4.8711-0.77734-2.0195-0.77734-4.2539 0-6.2734 0.78516-1.9609 5.6016-4.5352 6.0469-5.0977 0.44922-0.55859 0.72656-1.9023 2.6328-1.5664 1.9023 0.33594 3.1367-2.4648 6.8867-2.9102v-0.003906c2.2812-0.375 4.6094 0.25781 6.3867 1.7383 1.7344 1.0078 1.625-1.3438 1.6797-1.9609 0.054688-0.61719 0.50391-2.7422 2.6328-2.2969 2.1289 0.44922 3.9766 0.61719 3.9766 0.61719h6.1055c2.9102 0 2.4062 0.83984 4.4805 0.83984 2.0703 0 3.6406-2.5195 4.4805-4.4258 0.83984-1.9023 0.83984-1.2891 2.9688-1.6797s3.6953-4.1445 4.5352-5.1523l-0.003906 0.003907c0.92188-1.0781 2.2734-1.6953 3.6953-1.6836 1.5117 0 3.5859-3.0234 4.4805-4.0898v0.003906c0.55469-0.62891 1.1953-1.1758 1.9023-1.625 0.96875-0.11328 1.9453-0.11328 2.9141 0 2.1289 0 2.9102-0.50391 3.5859-3.1367 0.67188-2.6328 2.5195-2.4062 2.5195-2.4062h6.7188c1.5156 0.16797 2.8828 0.98437 3.75 2.2383 0.55859 1.1211-0.67188 1.2891-1.457 2.4648-0.78516 1.1758 0.50391 4.0898 0.50391 4.0898 0.066406 1.5664 0.28906 3.125 0.67188 4.6484 0.32031 3.7227 0.45312 7.4609 0.39453 11.199-0.44922 3.3672-3.3242 5.8789-6.7227 5.8789-5.0391 0-7.6719-7.7852-8.0078-8.9609-0.16406-2.125-0.16406-4.2578 0-6.3828 0 0 0-2.5742-0.61719-2.0703h0.003906c-1.0195 1.332-1.5508 2.9688-1.5117 4.6445 0 2.3516-2.2383 3.3047-3.3594 3.5273l-0.003907 0.003907c-1.7812 1.1172-3.3398 2.5586-4.5898 4.2539-0.77344 2.5938-1.0195 5.3164-0.72656 8.0078 0.14062 0.60938 0.52734 1.1328 1.0664 1.4492 0.53906 0.31641 1.1875 0.40234 1.7891 0.23047 1.0625-0.33594 0.72656-3.4727 0.83984-4.5352 0.11328-1.0625 0.61719-1.8477 2.1289-1.457 1.5117 0.39062 1.793 5.0977 1.793 5.0977h-0.003906c0.57812 0.84766 1.2109 1.6523 1.9062 2.4062 1.625 1.9609 2.5195-1.5664 2.9688-2.6875 0.44922-1.1211 2.5195-1.0625 3.3594-0.72656 1.4766 0.40234 3.0156 0.51562 4.5352 0.33594 1.793 0 1.3984 0 2.1836 0.61719 0.78516 0.61719 0.78516 1.7344 0 3.6953-0.78516 1.9609 0.44922 2.1289 0.44922 2.1289s4.7617-6.6094 7.3359-7.6172c2.5742-1.0078 2.9688-4.1445 4.3672-4.2578 1.3984-0.11328 1.5664 2.9102 2.0703 3.5273 0.50391 0.61719-0.10938 2.8008-0.10938 2.8008-0.070312 0.49219-0.33594 0.92969-0.73828 1.2148-0.40234 0.28906-0.90625 0.39453-1.3906 0.29688-1.625 0-0.78516-1.1211-2.1289-1.457-1.3438-0.33594-1.7344 1.9609-1.7344 1.9609-0.54297 1.668-0.27344 3.4922 0.72656 4.9297 1.3984 1.2305 1.3984 0 3.9219-0.89453v-0.003906c1.7695-0.84375 3.8281-0.84375 5.5977 0 2.6914 0.55469 5.4297 0.82031 8.1758 0.78516 1.0781 0.17188 2.1328 0.47266 3.1367 0.89844 1.0625 0.55859 0 1.5117 0 1.5117s-2.2383 0.95312-2.1836 2.3516c0.054687 1.3984 2.6328 0.83984 4.4258 1.5664h-0.003906c2.1992 0.67969 4.4766 1.0742 6.7773 1.1758 1.5664 0 1.6797 1.3438 0.78516 3.0781s1.0078 1.625 1.1211 1.457c0.57422-0.85937 1.3672-1.5547 2.293-2.0156 1.5664-0.89453 0.72656-2.2383 1.2891-3.3047 0.55859-1.0625 1.0625-1.3984 3.6953 0v0.003906c3.4141 3.6445 6.0781 7.9258 7.8398 12.598 0.44922 1.7344 1.5117 2.5742 2.6328 2.1836s0.55859-2.5742 0.55859-2.5742c-0.25781-0.60156-0.37109-1.2539-0.33594-1.9062 0-0.61719 1.1211-0.61719 0-2.1289v0.003907c-0.63281-0.76563-0.82422-1.8047-0.50391-2.7461 0 0 1.5664-2.5742 2.2969-3.5273 0.43359-0.76953 0.64453-1.6406 0.61719-2.5195 0 0 0-2.0703 1.0078-2.0703v-0.003906c0.51172 0.019531 1.0156-0.16406 1.3984-0.50391l2.2969-1.793s3.2461-4.3672 4.7617-4.2578c1.5117 0.11328 1.0625 0 1.3984-1.0625 0.33594-1.0625 1.6797-2.1836 2.4648-2.0156 0.78516 0.16797 1.7344 1.1758 0.55859 1.9023-1.1758 0.72656-0.55859 1.6797-0.55859 1.6797v0.003906c0.91406 0.78125 1.4961 1.8828 1.625 3.082-0.32031 1.8281-1.1992 3.5117-2.5234 4.8125-0.70703 1.1133-1.2539 2.3203-1.6211 3.5859-0.64844 2.3672-1.4531 4.6836-2.4102 6.9453-0.62891 1.1562-1.0117 2.4336-1.1172 3.75-0.12109 1.3789-0.12109 2.7656 0 4.1445-0.015625 1.4336-0.48438 2.8281-1.3477 3.9766l-3.6406 3.3594c-1.793 1.6797-6.9453 0.28125-8.9609 0.28125-2.0156 0-0.50391 1.2891-0.50391 1.2891s3.7539 4.4805 5.6016 4.6484 6.0469-3.1367 7.3359-4.0898c1.4102-1.1719 2.4102-2.7617 2.8594-4.5352 0.26562-1.6094 1.5234-2.8711 3.1328-3.1367 2.0703-0.50391 2.9688 0.89453 3.3594 2.3516h0.003906c0.29688 1.3125 0.16016 2.6914-0.39453 3.918 0 0-2.4648 3.3047 0.50391 3.8086 2.9688 0.50391 2.5742-2.2383 1.3984-3.0781-1.1758-0.83984 0-2.2383 0.44922-3.0781v-0.003906c0.70312-1.0742 0.96484-2.3789 0.73047-3.6406-0.44922-1.6797-2.9688-2.8008-2.9688-2.8008v0.003906c-1.1484 0.015625-2.293-0.097656-3.418-0.33594-1.793-0.44922-0.28125-3.5859-0.28125-3.6953 0-0.11328 2.0156-4.6484 2.6328-5.6016 0.45312-1.0586 0.64453-2.2109 0.5625-3.3594 0 0-0.39062-3.4141 1.625-3.5273 1.1562-0.039063 2.1641-0.80469 2.5195-1.9062 0 0 0.39062-5.6016 1.457-4.3672 1.0625 1.2305-2.0156 7.6719-2.0156 7.6719s-2.8008 3.4727 0.72656 3.9766 3.2461-0.28125 2.2383-2.4062c-1.0078-2.1289 0.67188-1.9023 2.7422-3.3047 2.0703-1.3984 2.9688 0 2.9688 0 0.80078 1.1953 1.6797 2.3359 2.6328 3.4141 0.72656 0.61719 2.5195 1.9023 3.5273 0.44922 1.0078-1.457-0.61719-4.1992-1.793-7.3359s2.2969-3.4141 2.2969-3.4141 6.5508 0 8.625 0.33594c2.0703 0.33594 1.625-1.5664 1.625-1.5664v-0.003907c-0.8125-1.1133-1.2969-2.4336-1.3984-3.8086 0-1.457 4.7031-4.8164 7.0547-5.9375 2.2188-0.92188 4.5547-1.5469 6.9453-1.8477 1.6797-0.28125 1.2891-1.3438 2.2969-1.3438 1.0078 0 0 1.1758 1.2891 1.5664s0.95312-0.72656 1.625-1.2891c0.67188-0.55859 2.4062 0 2.4062 0s-0.61719 0 0-1.7344 3.9219-0.78516 3.1914-1.457l-0.003906 0.003906c-0.99609-1.1797-1.4258-2.7344-1.1758-4.2578 0.43359-1.5508 1.6445-2.7617 3.1914-3.1914 1.6797-0.50391 3.3594 1.5117 3.3594 1.625 0 0.11328-0.95312 1.2305 0 1.625 0.95312 0.39062 1.2891 0.78516 2.1289 2.2383 0.83984 1.457 2.5195 0 4.4258-0.95312 1.9023-0.95312 3.9219 0.61719 4.9297 1.3984 1.0078 0.78516 2.9102 3.1367 2.4648 4.2578h-0.003906c-0.48047 1.2461-0.67188 2.5898-0.55859 3.9219 0 2.6875-1.9609 3.4141-2.9688 4.7031-0.60156 0.88672-0.98828 1.9023-1.1211 2.9688 0 0-3.1914 4.1992-4.4258 5.6016l0.003906-0.003906c-0.72266 0.94141-0.95312 2.168-0.61719 3.3047 0 0 6.3828-4.8164 7.7852-6.3828 1.3984-1.5664 0-2.8555 1.3438-3.6953 1.3438-0.83984 2.1289 0.72656 3.4141 1.6797 1.2891 0.95312 2.1836 0 2.1836 0s2.6875-3.1367 4.4805-3.2461c1.793-0.11328 2.1289 0.72656 3.6406 1.5117v-0.003906c1.8086 0.57031 3.7148 0.76172 5.6016 0.5625 1.0625 0 2.9688-0.33594 2.6328-2.8008-0.035157-1.3828-0.55078-2.7109-1.457-3.7539-0.67188-1.0078 0.89453-1.9023 1.9023-1.9609 1.0078-0.054688 0.95312 0.78516 2.7422 1.457 1.793 0.67188 1.3984 0 3.0781-0.83984 1.6797-0.83984 4.5352 1.457 5.6016 2.6875 1.0625 1.2305 0 1.793 0 1.793s-3.0781 0.83984-0.39062 1.457c2.6875 0.61719 3.0234 2.2383 5.6016 3.1367 2.5742 0.89453 3.8086 1.0078 3.8633-0.78516 0.054687-1.793-2.0156-3.6953-1.1758-4.8164 0.83984-1.1211 2.0156 0 3.2461 0 1.2305 0 1.5117-0.55859 1.625-2.2969 0.11328-1.7344 2.0156-1.3984 2.1289-1.3984 0.11328 0 4.1445 0 4.0898-0.39062-0.054688-0.39062-1.8477-1.1758-1.9023-1.9023-0.054688-0.72656 2.2383-0.33594 2.2383-0.33594s3.5859-0.95312 0-3.0781c-3.5859-2.1289-1.9609-6.9453-1.9609-6.9453s3.3594-2.5742 4.9297-3.5859c1.5664-1.0078 2.0156 0 2.0156 0s2.1289 4.3125 3.0781 3.3594c0.95312-0.95312 0.55859-2.9102 0.50391-3.4727-0.58984-1.043-0.58984-2.3164 0-3.3594 0.95312-1.5664 2.4648-1.2305 2.8008-0.61719 0.38672 1.0312 1.3125 1.7656 2.4062 1.9023 1.2773-0.046875 2.4609-0.6875 3.1953-1.7344 0.19922-0.25781 0.51172-0.41016 0.83984-0.41016s0.63672 0.15234 0.83984 0.41016c0.39063 0.61719 1.5117 0.44922 2.2383 0.39062 0.72656-0.054688 1.5664-1.9609 2.3516-2.9688 0.78516-1.0078 0.44922-2.8555 1.8477-5.6016v0.003907c0.58594-1.5703 1.7773-2.8398 3.3047-3.5273 1.0352-0.48047 2.1641-0.72656 3.3047-0.73047 2.1836 0 2.9688 2.2969 4.0898 2.5195l-0.003906 0.003906c1.4922 0.046876 2.9766-0.19922 4.3711-0.73047 1.5664-0.44922 0.33594-0.95312-0.55859-1.7344-0.89453-0.78516-0.78516-2.3516 0-3.5859 0.78516-1.2305 3.5859-4.9844 4.1445-6.1055l-0.003906 0.003907c0.43359-1.6172 0.31641-3.332-0.33594-4.875-0.55859-0.78516 0-2.5195 0.55859-2.6875s0.89453 0 1.0625 1.5117c0.16797 1.5117 2.4062 1.625 4.0898 1.2891 1.6797-0.33594 3.3047-3.3047 1.9023-4.3672h0.003906c-1.543-0.89062-3.3281-1.2617-5.0977-1.0664-2.1836 0-1.2305-3.6953-1.2305-3.6953s1.6797-3.8086 3.5273-7.1133v0.003907c1.4219-2.3203 3.1758-4.4141 5.207-6.2188 0 0 8.3984-8.457 10.305-10.246 0.92578-1.0078 2.1719-1.6602 3.5273-1.8477 1.8594 0.25781 3.7422 0.25781 5.6016 0 1.457-0.50391 1.5664-3.2461 0.44922-2.8555-1.0312 0.47656-2.2188 0.47656-3.25 0-0.95312-0.50391-0.55859-3.2461-0.44922-4.1445 1.4531-2.418 3.5742-4.3633 6.1055-5.6016 1.8477-0.39062 2.5195 1.2305 3.0234 2.8008 1.6406 2.1992 3.9648 3.793 6.6094 4.5352 2.2969 0.55859 1.0625 2.1836 1.0625 2.1836-0.70703 0.085937-1.2344 0.6875-1.2305 1.4023-0.058594 0.83203-0.48828 1.5938-1.1758 2.0703 0 0-2.7422 1.5117-4.2578 2.5195-1.5117 1.0078-0.83984 2.8008-0.78516 4.3672h0.003906c0.10156 0.84375-0.45703 1.625-1.2891 1.793h-2.8008s-2.0703 0.83984-1.9609 2.0703v0.003906c0.11328 0.71484 0.73438 1.2383 1.457 1.2305h4.0312c1.9961 0.55469 3.5625 2.1016 4.1445 4.0898 0.19531 1.0156-0.16797 2.0625-0.95312 2.7422-0.83984 0.66797-1.5273 1.5078-2.0156 2.4648-0.72656 1.2891 0 2.8555 0.89453 2.8555s1.2305-1.8477 2.0703-3.0781c0.83984-1.2305 1.625-0.89453 1.625-0.89453l4.5391-0.003906c0.63281 0.074219 1.2695-0.085938 1.793-0.44922 1.6602-1.4062 3.9492-1.8125 5.9922-1.0625 1.5664 0.89453 0 4.1445-0.61719 4.8711-0.61719 0.72656-0.89453 0.44922-0.78516 2.1289 0.5 2.4141 1.3672 4.7383 2.5781 6.8867 1.0195 2.6055 1.7695 5.3086 2.2383 8.0664 1.2656 3.0039 2.9844 5.8008 5.0977 8.2852 0.61719 0.72656 0 1.2891-1.3984 1.2891-1.3984 0-2.5195 0.44922-3.9219 2.4648-1.3984 2.0156 0 5.6016 0 5.6016s1.3438 3.3047 0.83984 3.9219c-0.50391 0.61719-2.1289 0-2.1289 0v-0.003906c0.15625 0.57812 0.40234 1.125 0.72656 1.625 0.38672 0.61719 0.38672 1.3984 0 2.0156-0.44922 0.89844-0.97656 1.7617-1.5664 2.5742-0.83984 1.0625 0 2.0156 1.6797 2.8008 1.2422 0.90625 2.1953 2.1484 2.7461 3.5859 0 0 3.8086 4.7617 4.7617 4.7617s1.457-0.61719 1.8477-2.0703c0.39063-1.457 1.2305 0 2.1836 1.2891l-0.003906-0.003906c0.50391 0.72656 1.3047 1.1992 2.1836 1.2852 1.6055 0.066407 3.2031 0.29297 4.7617 0.67188 0.95313 0.50391 0.61719 1.793 0 4.3672-0.61719 2.5742 4.7617 3.2461 7.0547 4.4258 2.2969 1.1758 0.61719 3.3594 0 5.6016-0.61719 2.2383 2.1836 4.9297 4.5352 5.6016l0.003906-0.003906c0.58203 0.17969 1.0469 0.625 1.2461 1.1992 0.19922 0.57813 0.10938 1.2148-0.23828 1.7148 0 0-1.5664 1.625-1.0625 3.0781 0.50391 1.457 2.0703 1.2891 3.9766 2.7422l-0.003907 0.003906c1.2461 0.99609 2.1289 2.3711 2.5195 3.918 0.58594 2.0742 0.77734 4.2422 0.5625 6.3828-0.058593 1.0664-2.8008-0.10938-2.8008-0.10938l-11.199-4.5938c-3.2461-1.2891-8.5664-4.3125-11.535-5.9375l-0.003906 0.003907c-3.9062-3.1836-7.2891-6.9648-10.023-11.203-0.98437-2.9375-1.4414-6.0273-1.3438-9.125-0.11328-1.6602-0.65234-3.2617-1.5664-4.6484 0 0-3.8086-6.832-4.0898-7.7266v-0.003906c-0.65625-2.0469-1.0312-4.1758-1.1172-6.3281 0.27734-1.582-0.58594-3.1406-2.0742-3.75-1.582-1.0547-3.0273-2.2969-4.3125-3.6953-0.54297-1.5938-0.87891-3.25-1.0078-4.9297-0.94531 0.79297-1.7891 1.6953-2.5195 2.6875-0.55859 0.95312 0 4.4258 1.6797 4.7031 1.6797 0.28125 3.7539 1.9609 3.3047 2.0703-0.44922 0.11328-0.89453 2.4648-0.44922 3.3594v0.003906c0.87109 1.9414 1.3672 4.0352 1.457 6.1602-0.39062 0.83984-2.7422 0-2.7422 0-1.3359-0.76562-2.7461-1.4062-4.2031-1.9023-1.0078 0-1.9609 3.0234-2.8555 4.4258v-0.003906c-0.625 1.5859-0.34766 3.3828 0.73047 4.7031 0.58984 0.88672 1.0977 1.8242 1.5117 2.8008 0 0 0 4.3125 0.33594 6.2148 0.33594 1.9023 2.2383 3.4141 3.0781 4.1445 0.65625 0.50391 1.4727 0.74609 2.2969 0.67188 0.48828 0.15625 0.81641 0.60938 0.81641 1.1211 0 0.51172-0.32812 0.96484-0.81641 1.1211-1.625 0.78516-1.6797 2.9102-2.0156 3.9219-0.33594 1.0078-1.1211 3.0234-2.8008 3.1914-1.6797 0.16797-2.1289-1.9023-3.8086-1.9609-1.6797-0.054687-0.83984 1.6797-1.9023 2.4648-1.0625 0.78516-0.55859 2.3516-0.72656 4.6484-0.16797 2.2969-5.6016 4.2578-5.6016 5.6016v-0.003907c0.35938 1.0977-0.10938 2.2969-1.1211 2.8555-1.6562 0.68359-3.1289 1.7383-4.3125 3.082-1.2617 1.6328-2.0898 3.5586-2.4062 5.5977v31.414 0.003907c0.050781 1.2852-0.34766 2.5547-1.1211 3.582-0.40625 0.83594-0.59766 1.7617-0.55859 2.6875 0 1.3984 2.3516 0.55859 3.5859-1.0625h-0.003906c0.73047-0.90234 2.0547-1.0547 2.9688-0.33594 0 0 1.5117 2.6875 2.4062 2.1836s0-3.1367 1.0078-3.2461c1.0078-0.11328 0.33594 1.1211 1.5117 2.3516 1.1758 1.2305 2.5195 0 3.1914-0.83984 0.67188-0.83984 0-2.9688 0-4.8711l0.003907-0.003906c-0.16797-0.98828 0.39844-1.957 1.3438-2.293h5.0391c1.9766-0.21094 3.9141 0.64062 5.0977 2.2383 0.33594 1.1211 2.1289 2.1836 3.6953 2.8555s2.7422 4.2578 3.0781 5.6016c0.51562 1.6406 1.1328 3.25 1.8477 4.8164 1.7695 1.9609 3.6367 3.832 5.6016 5.5977 1.4258 1.5547 2.3438 3.5117 2.6328 5.6016 0 1.3984 2.5195 3.9766 2.1289 5.207h-0.003906c-0.61719 4.2422-0.51953 8.5586 0.28125 12.77 1.0078 3.0469 1.3125 6.2812 0.89844 9.4648-0.52734 2.1602-0.64062 4.4023-0.33594 6.6055 0.46094 3.9258 0.46094 7.8906 0 11.816-0.75 3.2109-2.7734 5.9805-5.6016 7.6719-1.5391 0.058594-3.0781-0.054687-4.5938-0.33594-1.9023-0.39063-1.793 2.9688-1.793 2.9688v3.4727c0 1.0625-0.89453 2.7422-1.5664 2.1836-0.67188-0.55859 0-3.6953 0-3.6953-1.3984-1.8477 0-1.3984-1.1758-4.7031-1.1758-3.3047-5.2656-4.8164-5.6016-5.6016-0.33594-0.78516 1.457-1.457 1.5664-2.6328 0.11328-1.1758 0.78516-1.6797 3.4727-2.8555h0.003906c0.83594-0.24219 1.5-0.88672 1.7695-1.7148 0.26953-0.83203 0.10938-1.7422-0.42578-2.4297-0.50391-0.67188 0.61719-3.6406-1.0625-6.2148h-0.003906c-1.4727-3.125-2.3984-6.4766-2.7422-9.9141 0 0-1.5117-4.4805-3.5273-3.5859v0.003907c-2.5898 2.332-4.5234 5.3086-5.6016 8.625-1.1211 2.2305-3.5039 3.5469-5.9922 3.3008-2.0156-0.39062-3.9219-4.1992-5.6016-4.4805-1.6797-0.28125-1.457 0.61719-2.5742 0.61719-1.1211 0-2.2383-0.78516-3.1914-0.83984-1.7539-0.10156-3.4883 0.39062-4.9258 1.4023-1.0156 0.75391-2.4062 0.75391-3.418 0 0 0-13.105-11.199-14.223-12.039v-0.003906c-1.7227-1.1172-3.6133-1.9492-5.6016-2.4609-1.0078 0-0.50391 0.67188-2.6875 1.3984-1.8359 0.42578-3.7266 0.53906-5.6016 0.33594l-8.1211 6.6641s-3.5273 3.0234 0 3.5273c3.5273 0.50391 2.9102 2.9102 2.4062 4.4805h0.003906c-0.64062 1.8594-1.0195 3.8008-1.1211 5.7695 0.050782 2.0352 0.75781 4 2.0156 5.5977 0.40625 0.23047 0.65234 0.65625 0.65234 1.1211 0 0.46484-0.24609 0.89063-0.65234 1.1211-1.0625 0.61719-3.3594 4.3672-4.5938 5.0391h0.003907c-1.7227 0.47266-3.543 0.47266-5.2656 0-1.2695-0.3125-2.6133 0.070312-3.5273 1.0078-1.3984 1.1211-2.7422 0-4.0898-0.83984-1.3438-0.83984-2.6875 0.61719-2.6875 0.61719-2.1992 2.9141-4.6328 5.6484-7.2773 8.1758-4.5234 2.8359-9.7266 4.4023-15.066 4.5352-2.4062 0-3.9219-3.1367-4.8711-3.5859-0.95312-0.44922-2.6875 0-3.9766 0-1.2891 0-4.0312-0.95312-5.6016-1.1211l0.003906 0.003907c-1.5742 0.16406-3.0625 0.80859-4.2578 1.8477-1.9961 1.1602-4.3555 1.5195-6.6055 1.0078-3.1367-0.50391-4.3125-5.207-4.8711-6.1602-0.55859-0.95312 0-0.95312-4.8164-1.2891h-0.003906c-2.9883-0.30469-5.8438-1.3828-8.2852-3.1367 0 1.2305-1.2305 3.0234-3.1367 4.9297-1.1328 0.95703-1.5938 2.4961-1.1758 3.918 0.80078 0.97656 1.4805 2.0508 2.0156 3.1953 0.44922 1.2305-2.6875 2.8008-2.6875 2.8008h-4.4258c-3.4141 0-3.6406-0.61719-3.6406-0.61719-1.2266 0.12891-2.4648 0.12891-3.6953 0-1.8477 0-2.2383-2.0703-2.6875-2.9688-0.11719-0.47656-0.46094-0.86328-0.91797-1.043-0.45312-0.17578-0.96875-0.12109-1.3789 0.14453-1.5898 0.46875-3.3008 0.28906-4.7578-0.50391-1.1875-0.34766-2.4531-0.34766-3.6406 0-1.2773 1.3164-2.6875 2.4961-4.1992 3.5312-1.3945 0.82031-2.9727 1.2812-4.5938 1.3438-1.2891 0-2.1289 1.793-3.5859 2.6875-1.457 0.89453-3.6406-0.50391-4.3125 0-0.67188 0.50391-3.8633 1.0625-4.5352 0.44922-0.67188-0.61719-0.44922-3.9219-1.5664-4.1992-1.1211-0.28125-1.793 1.5117-3.3594 1.0625-2.9336-1.0781-5.0703-3.6406-5.6016-6.7227-0.78516-4.1992-3.9219-4.1992-3.9219-4.1992h0.003907c-2.0273 0.25391-4.0781 0.25391-6.1055 0-1.5117-0.55859-1.793-2.0156-2.2383-2.9102-0.44922-0.89453-1.1211-1.5664-3.3047-0.33594s-2.8555 0-2.8555 0c0.074219-1.75-0.078125-3.5-0.44922-5.2109-1.0469-2.4727-1.6914-5.1016-1.9023-7.7812 0-1.9023-2.6328-5.6016-3.4141-7.5586l-0.003906-0.003907c-0.39453-1.5508-0.17188-3.1953 0.61719-4.5898-1.5039-0.47266-3.1328-0.33203-4.5352 0.39062-2.3594 0.99609-4.8906 1.5273-7.4492 1.5703-0.87891 0.023437-1.7422-0.23047-2.4648-0.73047-0.67188 0 1.2305-2.0703 1.2891-2.3516 0.054688-0.28125-0.50391-1.2891-1.8477-1.5664-1.3438-0.28125-0.95312-1.3984-2.0703-2.6875-1.1211-1.2891-2.3516-0.61719-3.6953-1.1211s1.2305-5.0391 1.1758-6.4961c-0.054687-1.457-2.2969-1.1211-2.9688-1.2305-0.67188-0.11328-0.72656-0.33594-2.2969-1.793-0.41406-0.46094-1.0039-0.72656-1.625-0.72656s-1.2109 0.26562-1.625 0.72656c-1 0.51563-2.1914 0.51563-3.1914 0-0.95312-0.61719-3.5859 0-4.3672-0.72656v-0.003906c-1.7227-0.42578-3.4922-0.61328-5.2656-0.55859-2.4961-0.51562-4.9375-1.2852-7.2773-2.2969-1.457-1.0078-2.2969-0.39062-3.8633-0.55859-1.5664-0.16797-0.78516-1.9023-3.4727-2.2969-2.6875-0.39062-2.0156 3.5273-1.793 4.8164 0.22266 1.2891-1.3984 0.95313-2.9688 0.78516-1.5664-0.16797-2.0703 2.0703-2.9688 2.9102-0.48047 0.47656-1.2539 0.47656-1.7344 0-0.26562-0.29297-0.64062-0.45703-1.0352-0.45703-0.39453 0-0.77344 0.16406-1.0391 0.45703-1.0625 1.0625 0.78516 3.3594 2.1289 5.0977 0.83203 0.89844 0.83203 2.2891 0 3.1914 0 0-4.7031 0.95312-6.0469-0.50391s-2.2383-0.67188-3.7539-1.0078c-1.5117-0.33594-1.2305-4.2578-1.2891-5.207-0.054687-0.95313-0.55859-2.0156-1.625-2.0703-1.0625-0.054687-3.0781 0-3.3594-0.78516l0.003907-0.003907c-0.26172-1.043-1.2188-1.7656-2.2969-1.7344-1.4727 0.16406-2.9609-0.070313-4.3125-0.67188-0.67187-0.61719-1.2891-2.6328-1.7344-2.8555-0.44922-0.22266-1.6797 0.39062-1.1758-0.95312 0.25391-0.95312 0.25391-1.957 0-2.9102 0.027344-1.1328-0.17969-2.2617-0.61719-3.3047-0.67188-1.1758-2.2969-0.95312-2.8008-1.5664-0.50391-0.61719-0.33594-1.1758-1.1758-2.5742s-2.5195-1.0625-3.3047-1.8477c-0.78516-0.78516-0.78516-1.8477-0.61719-1.9023l0.003907-0.007812c-2.3164 0.13281-4.6367-0.074219-6.8906-0.61328-1.1289-0.36719-2.3438-0.36719-3.4727 0l-3.0234 3.1914c-0.78516 0.78516-2.0703 0-2.2383-1.3984v-0.003906c-0.027344-1.1719 0.26172-2.332 0.83984-3.3594 0 0-3.1914 0.83984-3.9766 0-0.44531-0.39844-1.0234-0.61719-1.625-0.61328-1.2148 1.4648-2.6758 2.7148-4.3125 3.6953-1.3281 0.51172-2.5625 1.25-3.6367 2.1836 0 0.28125 0.78516 0.95312 0.72656 1.6797-0.054687 0.72656-1.1758 1.625-1.5664 2.8008-0.39062 1.1758 1.2891 1.7344 2.2383 2.6328 0.95312 0.89453 0.50391 3.0234 0.55859 4.0312 0.054688 1.0078-1.7344 2.9102-2.4648 3.1914-0.72656 0.28125-0.95313 1.3984-0.55859 2.2969 0.27734 0.84766-0.13281 1.7695-0.95312 2.125-0.72656 0.39062-2.3516-0.44922-2.3516-0.44922h-3.0781v0.003907c-1.1172-0.25-2.1211-0.85938-2.8555-1.7383-0.78516-1.0625-1.8477 0.33594-3.3047 1.2891s-5.0391 1.1758-5.6016 2.0156c-0.55859 0.83984 0.39063 3.7539 0 5.0977-1.4648 2-3.0938 3.8711-4.8711 5.5977-0.64844 1.4609-0.95703 3.0508-0.89453 4.6484-0.042969 1.5938-0.42578 3.1602-1.1211 4.5938-1.8906 0.13281-3.793-0.097656-5.6016-0.67188-0.44922 0-0.44922-2.1836 0-3.4727 0.44922-1.2891-0.72656-2.7422-0.89453-3.3047-0.48047-1.4219-0.67188-2.9258-0.55859-4.4219 0.58203-1.8086 0.73828-3.7266 0.44531-5.6016-0.55859-1.6797-3.3047-2.8555-4.7031-3.9219-1.3984-1.0625-0.61719-5.6016-1.0078-6.8867-0.39062-1.2891-2.9102-3.2461-3.6406-4.4258-0.72656-1.1758-0.72656-4.3672-1.2891-5.6016-0.55859-1.2266-3.3008-3.1875-3.3008-3.1875v-10.023c-0.48828-1.5312-0.48828-3.1758 0-4.707 0.43359-1.5 0.3125-3.1094-0.33594-4.5352 0 0-0.67188-1.625 0.61719-1.793 1.2891-0.16797 2.8555 4.5352 2.8555 4.5352l-0.003906 0.003906c0.84375-0.83594 1.8047-1.5312 2.8594-2.0742 1.1211-0.44922 2.1836 0.95312 2.7422 1.7344 0.55859 0.78516 1.1211 0.058594 1.1211 0.058594s1.457-3.9219 2.6875-3.8086c1.9766 0.71484 3.8594 1.6758 5.6016 2.8555 0.67188-1.1172-1.793-5.1523-1.793-5.1523zm128.8-66.414c0 0.55859 0 1.625 1.9023 1.625s2.4062 0 2.8008-0.33594c0.28906-0.59766 0.29297-1.293 0.011719-1.8906-0.28516-0.59766-0.82422-1.0352-1.4688-1.1914-0.66797-0.22266-1.3984-0.15625-2.0156 0.18359s-1.0664 0.92578-1.2305 1.6094zm23.016 10.918c0.33594 0.72656 1.1211 0.61719 2.0156 0 0.89453-0.61719 0.78516-1.625 0.55859-2.1836-0.22266-0.55859-0.89453-2.1836-2.0156-1.9609s-0.95312 2.2383-0.95312 2.2383v0.003906c0.011719 0.65234 0.14453 1.3008 0.39453 1.9023zm-4.5938-10.695s2.5195 4.1445 3.6406 3.6953c1.1211-0.44922 1.2305-4.1445 1.1211-5.207-0.023438-1.5273 0.49219-3.0156 1.4531-4.1992 1.2539-1.5625 2.793-2.875 4.5391-3.8633 1.5664-0.55859 2.4648-1.0078 2.5742-1.6797 0.11328-0.67188 1.793 0 2.5195-0.61719 1.8008-1.2109 3.668-2.3164 5.6016-3.3047 2.0195-0.62891 4.0781-1.1328 6.1602-1.5117l9.0703-0.61719s5.2656-1.3438 4.4258-3.5273-1.793-1.793-3.1367-1.625c-1.3438 0.16797-1.8477 1.2891-3.9766 1.2891-1.9336-0.13281-3.832-0.60547-5.6016-1.3984-1.4531-0.58984-3.0781-0.58984-4.5352 0-1.4414 1.1133-3.1016 1.918-4.8711 2.3516-1.9375 0.60156-3.8125 1.3867-5.6016 2.3516-1.1797 0.70312-2.207 1.6367-3.0234 2.7461-1.2891 1.793-2.6328 1.3984-4.1445 1.5664-1.5117 0.16797-2.7422 2.1289-2.7422 2.1289-0.55078 0.58203-1.3242 0.91016-2.1289 0.89453-1.625 0-2.9102 3.7539-2.8555 4.8164 0.054688 1.0625 1.0078 0 1.0078 0s0.78516-1.2305 1.457-0.55859 1.457 1.2891 0.61719 2.3516c-0.84375 1.0625-2.0742 2.4609-1.5703 3.8633zm34.609-52.977c1.6797-0.33594 3.2461-0.78516 2.8008-1.457v0.003907c-1.1602-0.94922-2.5547-1.5664-4.0352-1.793-1.1211 0-1.5117 2.2969-1.5117 2.2969 0.11328 0.94922 1.1211 1.1758 2.7461 0.89453zm9.9688 7.3359c0.95312 0 0.83984-0.72656 0.83984-1.6797 0-0.95312 0-1.1758-1.3984-0.78516-1.3984 0.39062-1.1211 2.4648-1.1211 2.4648h-0.003907c0.55859 0.085938 1.1289 0.070312 1.6836-0.054688zm2.2969-1.2891c-0.39062 0.33594-0.55859 1.1211 0 1.3984 0.55859 0.28125 2.7422 0 2.5742-1.3984-0.16797-1.3984-2.2422-0.39063-2.5781-0.054688zm31.695 13.887s1.625-1.7344 2.1289-2.3516l-0.003906 0.003906c0.51562-0.69531 0.85938-1.5 1.0078-2.3516 0-1.0078-1.0625-2.2383-1.9609-2.4062-0.89453-0.16797-2.4062 2.0703-3.2461 2.9102s0 3.9219 0 3.9219v-0.003907c0.21875 0.33984 0.58203 0.5625 0.98438 0.60547s0.80078-0.097656 1.0898-0.37891zm0 5.6016c0.39062 1.7344 3.7539 2.0156 4.8711 1.9023 1.1211-0.11328 1.1211-1.625 1.0625-2.8008-0.054688-1.1758 0.33594-1.5664 0.33594-2.6328v0.003906c0.035156-0.625-0.35547-1.1992-0.95312-1.3984l-4.5352 0.39062c-1.5664 0.5625-1.0625 2.6875-0.72656 4.4258zm75.711 6.2188c0 2.6328 0.67188 2.2383 1.0625 2.1289 0.39062-0.11328 1.3438-1.457 2.5742-2.4648 1.2305-1.0078-0.55859-2.8555-2.1289-2.8555-1.5664 0-1.5078 1.5117-1.5078 1.5117-0.03125 0.55859-0.03125 1.1211 0 1.6797zm-68.266 1.625s2.0703-1.793 3.0234-2.4062c0.95312-0.61719 0.89453 0 2.4062-0.55859 1.5117-0.55859 0.61719-2.5742 0.61719-2.5742l-1.9609-2.0156 0.003906-0.007812c-0.60938-0.64453-1.3867-1.1094-2.2422-1.3438-1.2891-0.33594-2.1289 0.95312-1.793 2.9102l0.003906 0.003906c0.26172 1.0195 0.12109 2.1016-0.39453 3.0234-0.10547 1.0156 0.070312 2.043 0.50391 2.9688zm57.566-11.199h-2.2969s-1.5117-0.50391-0.95313 1.625l0.003907-0.003906c0.26172 1.5703 1.1758 2.9531 2.5195 3.8086 1.0625 0.61719 1.3438 1.5117 2.4062 1.457 1.0625-0.054688 2.1289-1.457 2.9102-2.8555h0.003906c0.53516-0.88672 1.2852-1.6172 2.1836-2.1289 0 0 1.9023-1.625 0.67188-1.9609-0.65625-0.19531-1.332-0.32422-2.0156-0.39062 0 0 2.8555-1.0078 2.4648-1.8477s-0.28125-2.1289-1.9609-2.4062c-1.6797-0.28125-1.7344 0.89453-2.8555 1.1211-1.1211 0.22266-2.0703-0.50391-2.4648 0.39062-0.39062 0.89453 1.1758 2.7969-0.44531 3.3008zm14.617-5.6016c1.9609-0.61719 0.95312-2.3516 0-3.1914-0.95312-0.83984-2.6328 0.72656-2.6328 0.72656l-3.3047 2.4648h0.003906c1.9883 0.63281 4.125 0.61328 6.1016-0.058594zm43.176-43.734c0.39062 2.0703 2.2383 2.8555 3.0781 1.9609s0-4.2578 0-4.8164-0.44922-2.2383-1.6797-2.2969c-1.2305-0.054688-1.3984 1.7344-1.3984 1.7344-0.21484 1.1172-0.16016 2.2695 0.16797 3.3594zm62.609 62.16c-0.55859 0.50391 0 2.8008 0 2.8008v-0.003906c0.125 0.98828 0.44922 1.9414 0.95312 2.8008 0.61719 0.61719 1.3438 0 1.3438-0.55859 0.16406-0.77734 0.16406-1.5781 0-2.3555 0-0.89453-1.0664-3.582-2.1289-2.7422zm28.953 4.8164c-0.28125-0.44922-1.457-0.55859-2.2969-0.39062s-1.3984 1.9609-1.3984 1.9609c2.4609 0.5 4.0859-1.2383 3.8633-1.6289zm2.2383-1.625c1.457 0.28125 2.0703-1.625 2.0703-1.625h-1.7344c-1.2305 0-1.2305 0.89453-1.2305 0.89453s-0.44922 0.33594 1.0625 0.67188zm4.7031 54.598c0-1.0078-1.0625-3.4141-2.0156-3.1914-0.95312 0.22266-0.39062 2.5195 0 4.0312 0.27344 0.91016 0.79688 1.7266 1.5117 2.3516 0.83984 0 0.50391-2.1836 0.50391-3.1914zm3.5273 8.2305c0.50391 0 0-1.1758 0-1.5664h0.003907c-0.19141-0.41016-0.61719-0.65625-1.0664-0.61719-0.44922 0 0 1.2305 0 1.2305 0 0.003906 0.28125 0.89844 0.78516 0.95703zm1.0625 5.6016c0.39062 0 1.9609 0 0.95312-1.2305-1.0078-1.2305-1.9023-0.78516-1.9023-0.78516s0.28125 2.0703 0.67188 2.2383zm3.0781 11.199c-0.39062 0.55859 0 1.625 0 1.625s0.50391 1.8477 1.2891 2.0156c0.78516 0.16797 1.1758-1.1758 1.1758-1.1758s0.44922-1.6797 0-2.3516h0.003906c-0.35938-0.4375-0.92188-0.65234-1.4805-0.57422-0.5625 0.082031-1.0391 0.44531-1.2617 0.96484zm0.89453 11.199v3.8086s0 1.457 1.2891-0.61719c1.2891-2.0703 0.67188-2.8008 0-3.1914-0.66406-0.39062-1.2812 0.003906-1.5625 0.5625zm-2.9609 13.051c-0.11719 2.0703-0.11719 4.1445 0 6.2148 0 1.5664 1.2891 1.6797 1.9023 0.83984 0.61719-0.83984-0.39062-6.2148 0-7 0.39062-0.78516 1.0078-1.1211 1.0625-2.0703 0.054687-0.95312-1.5664-2.6875-1.5664-2.6875-1.3984 0.67188-1.3984 4.7031-1.3984 4.7031zm-0.44922 15.289c1.2891 1.2305 1.2891 0 1.1211-2.8008 0.11719-1.5195-0.83594-2.918-2.2969-3.3594-0.62109 2.1953-0.1875 4.5547 1.1758 6.3828zm-56.559-35.785c0 0.50391-0.33594 1.5117-0.95313 1.6797-0.61719 0.16797-1.0078 0.95312-0.61719 1.3984l2.8555 2.3516c1.0078 0.83984 3.2461 4.1445 4.1992 4.8164 0.95313 0.67188 1.9023-0.28125 3.2461 0.50391h0.003906c2.2383 1.6875 4.1367 3.7773 5.6016 6.1602 1.3438 2.043 2.9258 3.9219 4.7031 5.6016 0.39062 0.39062 1.8477 2.6875 3.0781 3.1914h0.003906c3.1289 2.4766 5.9141 5.3594 8.2852 8.5664 0.89062 1.3047 2.1641 2.3047 3.6406 2.8594 0 0 0.50391-0.72656-0.44922-1.8477-0.95312-1.1211-1.1211-2.9688 0-3.4141l0.003906-0.003906c1.4648-0.23047 2.957-0.23047 4.4219 0v-0.16797c-0.50391-1.9023-4.2578-1.5117-5.6016-1.6797-1.5273-0.25-2.9375-0.97656-4.0312-2.0742-1.2539-1.3477-2.3789-2.8086-3.3594-4.3672-0.875-1.4531-1.4297-3.0742-1.625-4.7578 0-1.5664 0.83984-1.7344 2.6875-2.1836 1.8477-0.44922 1.5117-0.95312 1.1211-1.6797-0.39062-0.72656-2.8555-0.89453-4.1992-1.1211-3.5469-1.5117-6.9219-3.3867-10.078-5.6016-1.8477-1.3438-8.1758-7.3906-8.1758-7.3906-2-1.8281-4.1992-3.4219-6.5547-4.7617-1.6797-0.50391-2.2969 0.72656-1.7344 0.83984 1.2031 0.68359 2.3477 1.4727 3.4141 2.3516 0 0 0.16797 0.44922 0.11328 0.95312zm65.352-99.121c0.53906-0.15625 0.89062-0.67188 0.83984-1.2305-0.03125-0.53516-0.35547-1.0078-0.83984-1.2344-0.26172 0.36719-0.43359 0.78906-0.50391 1.2344-0.019532 0.53125 0.16016 1.0508 0.50391 1.4531zm15.512-24.305c-1.2891 0.33594-2.7422 1.793-2.0703 2.3516 0.67188 0.5625 3.3594-2.4609 2.0703-2.125zm-198.91 183.4c-1.0234 3.4062-2.4141 6.6914-4.1445 9.7969-1.1602 2.2031-2.5898 4.2539-4.2578 6.1055-0.95312 1.1211-5.6016 3.6406-5.6016 4.1445s1.1211 1.0078 3.3594 0.50391h0.003907c1.8867-0.51172 3.5938-1.5391 4.9258-2.9688 0.61719-0.67188 0.50391-2.6328 0.72656-3.3594 0.22266-0.72656 1.1211-0.55859 1.1211-0.55859 2.8633-2.6992 5.3008-5.8125 7.2266-9.2422 0-0.72656-0.33594-1.457-0.28125-2.1836 0.17578-0.84766 0.5625-1.6367 1.1211-2.2969 0.17188-2.7031 0.17188-5.4141 0-8.1172 0-2.0156-0.61719-2.7422-1.625-2.8555-1.0078-0.11328-1.457 2.5195-1.625 4.3125v-0.003906c-0.16016 2.2617-0.48047 4.5039-0.94922 6.7227z"/>
  <use x="70" y="644" xlink:href="#v"/>
  <use x="90.550781" y="644" xlink:href="#b"/>
  <use x="104.359375" y="644" xlink:href="#a"/>
  <use x="123.347656" y="644" xlink:href="#e"/>
  <use x="142.242188" y="644" xlink:href="#c"/>
  <use x="155.628906" y="644" xlink:href="#a"/>
  <use x="174.617188" y="644" xlink:href="#k"/>
  <use x="204.410156" y="644" xlink:href="#j"/>
  <use x="224.453125" y="644" xlink:href="#i"/>
  <use x="252.453125" y="644" xlink:href="#h"/>
  <use x="275.695312" y="644" xlink:href="#b"/>
  <use x="289.5" y="644" xlink:href="#g"/>
  <use x="309.4375" y="644" xlink:href="#u"/>
  <use x="326.101562" y="644" xlink:href="#t"/>
  <use x="335.699219" y="644" xlink:href="#f"/>
  <use x="345.296875" y="644" xlink:href="#f"/>
  <use x="354.894531" y="644" xlink:href="#e"/>
  <use x="70" y="672" xlink:href="#s"/>
  <use x="82.183594" y="672" xlink:href="#b"/>
  <use x="95.992188" y="672" xlink:href="#d"/>
  <use x="115.226562" y="672" xlink:href="#r"/>
  <use x="154.152344" y="672" xlink:href="#c"/>
  <use x="167.535156" y="672" xlink:href="#q"/>
  <use x="187.46875" y="672" xlink:href="#a"/>
  <use x="216.207031" y="672" xlink:href="#p"/>
  <use x="239.640625" y="672" xlink:href="#d"/>
  <use x="258.878906" y="672" xlink:href="#g"/>
  <use x="278.8125" y="672" xlink:href="#o"/>
  <use x="308.492188" y="672" xlink:href="#n"/>
  <use x="329.015625" y="672" xlink:href="#b"/>
  <use x="342.820312" y="672" xlink:href="#d"/>
  <use x="362.058594" y="672" xlink:href="#m"/>
  <use x="371.65625" y="672" xlink:href="#a"/>
  <use x="390.648438" y="672" xlink:href="#l"/>
  <use x="407.242188" y="672" xlink:href="#c"/>
 </g>
</svg>
